<?xml version="1.0" encoding="UTF-8"?>
<svg width="64px" height="64px" viewBox="0 0 64 64" version="1.1" xmlns="http://www.w3.org/2000/svg" xmlns:xlink="http://www.w3.org/1999/xlink">
    <title>64x64 copy</title>
    <defs>
        <linearGradient x1="22.8022494%" y1="30.6366957%" x2="84.1599421%" y2="82.8120538%" id="linearGradient-1">
            <stop stop-color="#F85E72" offset="0%"></stop>
            <stop stop-color="#F39C51" offset="100%"></stop>
        </linearGradient>
    </defs>
    <g id="64x64-copy" stroke="none" stroke-width="1" fill="none" fill-rule="evenodd">
        <path d="M33.1686946,20.8364322 C31.0906434,20.6680767 28.9374377,20.9982669 26.9430951,21.7920274 C24.9230901,22.5952728 23.1334364,23.8443044 21.767825,25.4057423 C21.5839105,25.615001 21.353559,25.7715005 21.1024331,25.8716839 C20.5965154,26.0726434 20.008722,26.0424105 19.5639054,25.7466028 C18.8997355,25.3031877 18.8093058,24.432363 19.3616605,23.8004372 C21.0816587,21.8358947 23.3314043,20.2637864 25.8707694,19.2542463 C28.3783619,18.2571551 31.0863663,17.8421944 33.7021079,18.0538243 C34.5538584,18.1225892 35.1245434,18.8013464 34.9766786,19.5702093 C34.8294247,20.3384794 34.0204451,20.9046043 33.1686946,20.8364322 M52.4716222,26.5261056 L54.651411,23.8951349 C53.9454188,21.8794864 52.8897635,20.1989742 51.6886677,18.8016672 C52.7928032,17.4061718 53.7218041,15.8572988 54.4302203,14.1810135 C55.7955426,10.9534398 56.2845862,7.40039136 55.8409928,3.88357389 L53.7327121,4.11364042 L55.8385688,3.86002377 C55.6973703,2.7006334 54.641109,1.8763793 53.4781913,2.01526461 C52.3152737,2.15535761 51.4862631,3.20907438 51.6268555,4.36725706 L51.6353396,4.43247277 C51.9831847,7.19145955 51.5971614,9.99513118 50.5215081,12.5397515 C50.0058004,13.758923 49.3398044,14.8899324 48.5574559,15.9225145 C45.3141337,13.5451604 42.1695899,12.6973561 42.1695899,12.6973561 L38.8474874,15.6266284 C27.2904251,12.0445952 14.6716475,17.725608 9.87393047,29.070726 C4.76957645,41.139859 10.4514503,55.0471089 22.5636103,60.1327264 C34.6763763,65.2189479 48.6332061,59.5572582 53.7369542,47.4881252 C56.7275735,40.4158439 56.0106733,32.7155594 52.4716222,26.5261056" id="Fill-1" fill="url(#linearGradient-1)"></path>
    </g>
</svg>