<svg width="11" height="11" viewBox="0 0 11 11" fill="none"
    xmlns="http://www.w3.org/2000/svg">
    <path fill-rule="evenodd" clip-rule="evenodd" d="M0 5.5C0 2.4375 2.4375 0 5.5 0C8.5 0 11 2.4375 11 5.5C11 8.5625 8.5625 11 5.5 11C2.4375 11 0 8.5 0 5.5ZM8.0625 7.375C8.1875 7.3125 8.25 7.25 8.3125 7.1875C8.375 7.125 8.375 7 8.375 7C8.34375 6.96875 8.32812 6.9375 8.3125 6.90625C8.29688 6.875 8.28125 6.84375 8.25 6.8125C8.1875 6.8125 8.0625 6.75 7.875 6.625C7.78125 6.5625 7.6875 6.51562 7.60938 6.47656C7.53125 6.4375 7.46875 6.40625 7.4375 6.375C7.5625 6.125 7.625 5.9375 7.625 5.75V5.3125C7.5625 5.1875 7.5 5.125 7.4375 5.0625L7.4375 5.0625C7.375 5 7.3125 5 7.1875 5C7.0625 5 7 5.0625 6.9375 5.1875C6.875 5.25 6.8125 5.375 6.8125 5.5625C6.8125 5.68137 6.78738 5.77512 6.76899 5.84375C6.75837 5.88337 6.75 5.91462 6.75 5.9375C6.6875 5.875 6.625 5.8125 6.5 5.75L6.5 5.75C6.43749 5.68749 6.3125 5.5625 6.1875 5.5C6.125 5.4375 6.0625 5.39062 6 5.34375C5.9375 5.29688 5.875 5.25 5.8125 5.1875C6.0625 4.9375 6.25 4.6875 6.375 4.4375C6.5 4.25 6.5625 4.0625 6.5 3.8125C6.48525 3.78299 6.47049 3.75 6.45491 3.71517C6.40451 3.60246 6.34549 3.47049 6.25 3.375C6.125 3.25 5.9375 3.125 5.6875 3.125C5.5 3.0625 5.25 3.0625 5 3.125C4.75 3.125 4.5625 3.25 4.375 3.375C4.1875 3.5 4.0625 3.6875 4 3.875C3.9375 4.0625 3.875 4.25 3.9375 4.4375C3.95225 4.46701 3.96701 4.5 3.98258 4.53483C4.03299 4.64754 4.09201 4.77951 4.1875 4.875C4.3125 5 4.4375 5.125 4.5625 5.3125C4.52083 5.35417 4.47222 5.39583 4.42361 5.4375C4.32639 5.52083 4.22917 5.60417 4.1875 5.6875C4.15625 5.75 4.10938 5.8125 4.0625 5.875C4.01562 5.9375 3.96875 6 3.9375 6.0625C3.875 6.1875 3.8125 6.3125 3.8125 6.4375C3.75 6.5625 3.75 6.75 3.8125 6.875C3.8125 7 3.875 7.1875 4 7.3125C4.0625 7.4375 4.1875 7.5625 4.375 7.6875C4.39434 7.69717 4.41517 7.70833 4.4375 7.7203C4.55951 7.78568 4.72618 7.875 4.9375 7.875C5.1875 7.875 5.4375 7.875 5.6875 7.8125C5.85417 7.77083 5.96528 7.72917 6.07639 7.6875C6.13194 7.66667 6.1875 7.64583 6.25 7.625C6.4375 7.5625 6.5625 7.5 6.6875 7.375C6.77083 7.33333 6.85417 7.23611 6.9375 7.13889C6.97917 7.09028 7.02083 7.04167 7.0625 7C7.30024 7.11887 7.46262 7.1875 7.58149 7.23774C7.65012 7.26675 7.70425 7.28962 7.75 7.3125C7.875 7.375 7.9375 7.375 8.0625 7.375ZM4.87493 4.37441L5.06243 4.56191C5.08135 4.58084 5.106 4.59976 5.13291 4.62041L5.13292 4.62042C5.19489 4.66799 5.26885 4.72476 5.31243 4.81191C5.4313 4.69304 5.52505 4.57417 5.59368 4.48715C5.6333 4.43691 5.66455 4.39729 5.68743 4.37441C5.74993 4.31191 5.81243 4.12441 5.74993 3.99941C5.74993 3.87441 5.62493 3.74941 5.56243 3.68691C5.43743 3.62441 5.31243 3.62441 5.18743 3.62441C4.99993 3.68691 4.93743 3.74941 4.81243 3.87441C4.74993 3.93691 4.74993 4.06191 4.74993 4.18691C4.74993 4.24941 4.81243 4.31191 4.87493 4.37441ZM5.18746 5.68691C5.08424 5.79013 4.99996 5.89335 4.9242 5.98615C4.86233 6.06191 4.80615 6.13073 4.74996 6.18691C4.68746 6.31191 4.62496 6.49941 4.68746 6.62441C4.68746 6.74941 4.74996 6.81191 4.81246 6.87441C4.87496 6.93691 4.93746 6.99941 5.06246 7.06191C5.12496 7.12441 5.24996 7.18691 5.37496 7.18691H5.68746C5.77897 7.18691 5.83698 7.15342 5.91054 7.11095C5.93746 7.09541 5.96647 7.07866 5.99996 7.06191C6.03121 7.03066 6.07809 6.99941 6.12496 6.96816C6.17184 6.93691 6.21871 6.90566 6.24996 6.87441C6.27585 6.84853 6.30174 6.81191 6.33207 6.76902C6.37496 6.70836 6.42674 6.63514 6.49996 6.56191C6.24996 6.43691 6.06246 6.31191 5.87496 6.18691C5.62496 6.06191 5.43746 5.93691 5.18746 5.68691Z" fill="#97999C"/>
</svg>
