<svg width="10" height="18" viewBox="0 0 10 18" fill="none" xmlns="http://www.w3.org/2000/svg">
<path d="M4.83068 0.163152C3.75441 -0.0449015 2.71151 0.666842 2.50461 1.75223C2.32544 2.68829 2.8232 3.59995 3.65957 3.96205L1.99934 12.6219C1.09308 12.6505 0.292637 13.3065 0.113468 14.2425C-0.0934373 15.3279 0.611833 16.3792 1.6881 16.5872C2.2062 16.6906 2.7142 16.5741 3.12382 16.3099C3.409 16.7063 3.84063 17.0033 4.353 17.1065C5.42927 17.3146 6.47217 16.6028 6.67908 15.5174C6.87155 14.524 6.29515 13.5636 5.37143 13.2449L7.01834 4.64241C7.99069 4.69688 8.88346 4.02074 9.07022 3.02715C9.27712 1.94176 8.57185 0.89051 7.49558 0.682456C6.97749 0.579075 6.46949 0.695589 6.05986 0.959728C5.77469 0.563397 5.34305 0.266348 4.83068 0.163152Z" fill="#95979A"/>
</svg>
