<svg width="12" height="14" viewBox="0 0 12 14" fill="none" xmlns="http://www.w3.org/2000/svg">
<path fill-rule="evenodd" clip-rule="evenodd" d="M10.2593 2.93497C10.6335 2.42275 10.7981 1.88597 10.8696 1.47428C10.9099 1.24255 10.922 1.0434 10.9239 0.898901C10.9248 0.826372 10.9231 0.766786 10.921 0.722781C10.9199 0.700753 10.9187 0.68255 10.9177 0.668499L10.9162 0.650544L10.9156 0.643957L10.9153 0.641273L10.9152 0.640085C10.9152 0.639818 10.9151 0.638999 10.1943 0.708555L10.9151 0.638999C10.8758 0.249661 10.5213 -0.0348178 10.1232 0.00359708C9.72692 0.0418414 9.43688 0.385704 9.47307 0.772933L9.3451 1.60659C9.27332 1.80864 9.16438 2.01904 9.00066 2.21331C8.99858 2.21578 8.99652 2.21825 8.99449 2.22073L8.09816 1.71459C7.75175 1.51898 7.30879 1.63506 7.10879 1.97388L6.93309 2.27151C6.92213 2.29008 6.91213 2.30892 6.90308 2.32799C5.68265 2.14678 4.43954 2.34171 3.34709 2.86736L6.08865 5.55069C6.21964 5.67889 6.42844 5.6897 6.57253 5.57573L8.30746 4.20348C8.57163 3.99453 8.95807 4.22434 8.88996 4.54989L8.51515 6.34123C8.47521 6.53212 8.60041 6.71871 8.79536 6.75884L11.9554 7.40924C11.8365 6.4771 11.4905 5.5786 10.9402 4.79743C10.9982 4.74763 11.0491 4.68783 11.0899 4.61877L11.2656 4.32114C11.4656 3.98232 11.3469 3.54908 11.0005 3.35347L10.2593 2.93497ZM9.3451 1.60659C9.34512 1.60654 9.34508 1.60665 9.3451 1.60659V1.60659ZM9.3451 1.60659C9.3908 1.47789 9.42149 1.35241 9.44158 1.23682C9.46711 1.08994 9.47437 0.965594 9.47544 0.881247C9.47598 0.839354 9.47497 0.80818 9.47409 0.790032C9.47365 0.780983 9.47323 0.775038 9.47307 0.772933L9.3451 1.60659Z" fill="#95979A"/>
<path d="M3.0009 13.213C5.87055 14.8334 9.53997 13.8718 11.1968 11.0651C11.7176 10.1827 11.9776 9.22296 12 8.2714L8.84706 9.1035C8.66348 9.15195 8.54948 9.33102 8.58602 9.51353L8.93912 11.2772C8.99889 11.5757 8.67147 11.8042 8.4023 11.6518L6.85081 10.7733C6.68544 10.6797 6.47413 10.7278 6.3681 10.8833L4.80651 13.1733C4.60647 13.4666 4.13879 13.3251 4.14313 12.9725L4.17889 10.0679C4.18102 9.89491 4.05506 9.74572 3.88097 9.71505L0.977794 9.20362C0.616832 9.14003 0.570128 8.6522 0.912746 8.52417L3.7818 7.45213C3.97185 7.38111 4.06481 7.17095 3.98761 6.98685L2.47538 3.38092C1.8137 3.85014 1.23987 4.45992 0.804821 5.19692C-0.851975 8.00361 0.131242 11.5925 3.0009 13.213Z" fill="#95979A"/>
</svg>
