<svg width="48" height="53" viewBox="0 0 48 53" fill="none"
    xmlns="http://www.w3.org/2000/svg">
    <path d="M45.401 39.3033C42.4889 37.0695 38.9875 39.7138 37.1078 41.5531C36.919 39.3557 36.2533 37.2265 35.1573 35.3151L35.139 35.2876L35.1641 35.2761H35.1824L35.4793 35.1591C35.7557 35.049 36.0275 34.9298 36.297 34.8197L36.5254 34.7165C36.8452 34.5743 37.1596 34.4268 37.4687 34.2739L37.5349 34.2418C38.2201 33.8955 38.8916 33.5239 39.522 33.1272C39.5327 33.1224 39.5427 33.1163 39.5517 33.1088C39.8463 32.9231 40.1364 32.7304 40.4173 32.5355L40.5292 32.4552C40.7851 32.2741 41.0363 32.0883 41.2784 31.9002L41.3926 31.8108C41.6438 31.6136 41.8859 31.4117 42.1212 31.2053L42.1646 31.1709C45.1932 28.5106 47.0021 25.1783 47.0021 21.5571C47.0021 18.7844 45.9423 16.1837 44.0877 13.9201C45.067 13.13 45.8413 12.1137 46.3448 10.9581C46.8482 9.80239 47.0657 8.54158 46.9789 7.2832C46.892 6.02482 46.5032 4.80622 45.8458 3.73135C45.1884 2.65647 44.2818 1.75723 43.2033 1.11034C42.1248 0.463446 40.9065 0.0880943 39.6523 0.0163072C38.3981 -0.05548 37.1453 0.178427 36.0006 0.698075C34.8559 1.21772 33.8534 2.00769 33.0786 3.00058C32.3037 3.99347 31.7796 5.15983 31.5509 6.40014C31.5326 6.49876 31.5189 6.59508 31.5052 6.6937C26.2424 5.45408 20.7607 5.49575 15.5172 6.81525C15.499 6.67764 15.4784 6.54004 15.4533 6.40014C15.2232 5.14178 14.6892 3.9593 13.8981 2.95633C13.1071 1.95335 12.0831 1.16051 10.916 0.647268C9.74884 0.134029 8.47414 -0.0839342 7.2036 0.0124803C5.93306 0.108895 4.70546 0.516744 3.62839 1.20028C2.55132 1.88382 1.65765 2.82219 1.02571 3.93315C0.393769 5.0441 0.0428408 6.29374 0.00368084 7.57253C-0.0354791 8.85133 0.238325 10.1202 0.801097 11.2681C1.36387 12.4159 2.19843 13.4077 3.23164 14.1564C1.50038 16.3603 0.515976 18.8761 0.515976 21.5571C0.515976 24.6876 1.8681 27.6024 4.19092 30.0541C4.20691 30.0701 4.22518 30.0839 4.24117 30.1022C4.46957 30.3522 4.72538 30.5976 4.98575 30.8361L5.00859 30.8613C5.57153 31.3788 6.16409 31.8627 6.78325 32.3107L6.90659 32.3979C7.18067 32.5936 7.46236 32.7847 7.75167 32.9712L7.90012 33.0676C8.58095 33.4981 9.28304 33.8939 10.0037 34.2532L10.1247 34.3106C10.443 34.4635 10.7665 34.6164 11.0954 34.7692L11.3512 34.8793C11.6619 35.0123 11.9748 35.1408 12.2945 35.2623L12.3722 35.2944C11.3037 37.1469 10.6418 39.2073 10.4308 41.3375C8.50538 39.5211 5.17761 37.175 2.37743 39.317C-1.8274 42.5461 7.0756 49.4996 7.0756 49.4996C7.0756 49.4996 3.11973 50.988 3.85974 52.481C4.3371 53.4374 16.8785 52.9053 16.8785 51.105C19.6193 52.4007 25.496 54.4258 30.5825 51.3343C30.5962 53.0154 43.4071 53.5016 43.9164 52.481C44.6587 50.9903 40.7028 49.4996 40.7028 49.4996C40.7028 49.4996 49.6035 42.5323 45.401 39.3033ZM9.01471 14.771C8.08099 14.771 7.16823 14.493 6.39186 13.9721C5.61549 13.4512 5.01039 12.7108 4.65307 11.8446C4.29574 10.9784 4.20225 10.0253 4.38441 9.10575C4.56657 8.1862 5.01621 7.34154 5.67645 6.67858C6.3367 6.01562 7.1779 5.56414 8.09369 5.38123C9.00948 5.19832 9.95871 5.2922 10.8214 5.65099C11.684 6.00978 12.4213 6.61737 12.9401 7.39693C13.4588 8.17649 13.7357 9.093 13.7357 10.0306C13.7357 11.2878 13.2383 12.4935 12.353 13.3825C11.4676 14.2715 10.2668 14.771 9.01471 14.771ZM33.3781 10.7966C33.3776 9.85879 33.6542 8.94196 34.1727 8.16206C34.6913 7.38215 35.4286 6.7742 36.2914 6.41513C37.1541 6.05605 38.1035 5.96198 39.0195 6.14482C39.9355 6.32765 40.777 6.77918 41.4373 7.44228C42.0977 8.10538 42.5474 8.95025 42.7295 9.87001C42.9116 10.7898 42.8179 11.7431 42.4603 12.6094C42.1027 13.4757 41.4972 14.216 40.7205 14.7367C39.9438 15.2574 39.0307 15.5351 38.0968 15.5347C36.8453 15.5347 35.6451 15.0355 34.7601 14.1469C33.8752 13.2583 33.3781 12.0532 33.3781 10.7966ZM34.9403 51.9994C35.0454 51.7861 35.139 51.5751 35.2349 51.3641L35.1961 51.9994L35.372 52.0407C35.1116 52.0109 34.9403 51.9994 34.9403 51.9994Z" fill="#97999C"/>
</svg>
