<svg width="13" height="27" viewBox="0 0 13 27" fill="none"
    xmlns="http://www.w3.org/2000/svg">
    <path fill-rule="evenodd" clip-rule="evenodd" d="M6.90125 -2.64571e-07C6.63376 -2.76263e-07 6.41976 -2.85617e-07 6.15227 -2.97309e-07C5.93828 0.0490906 5.67079 0.0981815 5.4568 0.196363C5.34981 0.245454 5.29631 0.294545 5.24281 0.392727C5.18931 0.54 5.13581 0.687272 5.08232 0.834545C5.02882 0.981818 4.97532 1.08 4.76133 1.08C3.79837 1.08 2.8354 1.08 1.87244 1.08C1.76544 1.08 1.71195 1.08 1.55145 1.08C1.55145 1.32545 1.55145 1.57091 1.55145 1.76727C1.55145 2.25818 1.55145 2.74909 1.55145 3.24C1.55145 3.33818 1.60495 3.43636 1.71195 3.53454C2.40742 4.07454 3.10289 4.56545 3.79837 5.05636C3.85186 5.10545 3.95886 5.25273 3.95886 5.30182C3.95886 6.52909 3.95886 7.80545 3.95886 9.03273C3.95886 9.08182 3.95886 9.13091 3.95886 9.18C3.85186 9.18 3.79837 9.18 3.69137 9.18C2.72841 9.18 1.76544 9.18 0.802481 9.18C0.534992 9.18 0.321 9.27818 0.107008 9.32727C-0.0534863 9.37636 -0.0534863 9.47454 0.0535093 9.62182C1.23046 10.9473 2.35392 12.2727 3.53088 13.5982C3.63787 13.6964 3.74487 13.8436 3.85186 13.9418C3.90536 14.04 4.01236 14.1873 4.01236 14.3345C4.01236 16.4945 4.01236 18.6545 4.01236 20.8636C4.01236 20.9618 4.01236 21.1091 4.01236 21.2073L4.06585 21.2073L4.06585 22.7291L4.11935 22.7291C4.11935 22.8764 4.17285 23.0727 4.17285 23.22C4.27985 23.9564 4.49384 24.6927 4.81482 25.38C5.02882 25.8218 5.24281 26.2145 5.61729 26.5582C5.83129 26.7055 6.04528 26.8036 6.25927 26.9509C6.41976 26.9509 6.58026 26.9509 6.74075 26.9509C7.70371 26.6073 8.0782 25.8218 8.39919 24.9873C8.72017 24.1527 8.88067 23.22 8.98766 22.3364L8.98766 22.2382L8.93417 22.2382L8.93417 21.2564L8.98766 21.2564C8.98766 21.1582 8.98766 21.06 8.98766 20.9618C8.98766 18.7036 8.98766 16.4455 8.98766 14.1382C8.98766 13.9418 9.04116 13.8436 9.14816 13.6964C10.0041 12.7636 10.8601 11.88 11.6626 10.9473C12.037 10.5545 12.4115 10.1127 12.8395 9.72C13 9.52363 13 9.42545 12.786 9.32727C12.572 9.22909 12.358 9.22909 12.0905 9.22909C11.1276 9.22909 10.2181 9.22909 9.25515 9.22909C9.14816 9.22909 9.09466 9.22909 8.98766 9.22909C8.98766 9.13091 8.98766 9.08182 8.98766 8.98363C8.98766 7.85454 8.98766 6.72545 8.98766 5.64545C8.98766 5.49818 9.04116 5.4 9.20166 5.30182C10.0041 4.71273 10.8066 4.12364 11.6091 3.53454C11.7161 3.48545 11.7696 3.38727 11.7696 3.28909C11.7696 2.60182 11.7696 1.91455 11.7696 1.22727C11.7696 1.17818 11.7696 1.12909 11.7696 1.08C11.6091 1.08 11.4486 1.08 11.2346 1.08C10.2181 1.08 9.20166 1.08 8.1852 1.08C8.0247 1.08 7.91771 1.03091 7.86421 0.883636C7.86421 0.834545 7.81071 0.785454 7.81071 0.736363C7.81071 0.294545 7.43622 0.147272 7.06174 0.0981815C7.00824 0.0490906 6.95474 -2.62232e-07 6.90125 -2.64571e-07ZM4.33334 21.2564C5.77779 21.2564 7.16873 21.2564 8.61318 21.2564L8.61318 22.2382C7.16873 22.2382 5.77779 22.2382 4.33334 22.2382L4.33334 21.2564Z" fill="#97999C"/>
</svg>
