<svg width="11" height="7" viewBox="0 0 11 7" fill="none"
    xmlns="http://www.w3.org/2000/svg">
    <path fill-rule="evenodd" clip-rule="evenodd" d="M2.56432 6.37732L3.876 6.52261H7.124L8.42676 6.37732V6.80282C8.42676 6.9066 8.50707 7 8.60522 7H10.6486C10.7468 7 10.8271 6.91698 10.8271 6.80282C10.8271 6.06597 10.9341 3.22239 10.5594 2.78651C10.5504 2.77613 10.3006 2.48554 9.97045 2.09118L10.8895 1.79022C10.9788 1.75908 11.0234 1.67606 10.9877 1.57228L10.8628 1.2298C10.8271 1.12602 10.7289 1.07413 10.6397 1.08451L9.61353 1.12602C9.5243 1.12602 9.50645 1.2298 9.51537 1.34396L9.53322 1.58265C9.14953 1.1364 8.73907 0.638251 8.43569 0.285397C8.38215 0.223128 8.26615 0.0985916 8.04307 0.0778354C6.32984 -0.0259451 4.67016 -0.0259451 2.96585 0.0778354C2.74278 0.10897 2.62678 0.223128 2.57324 0.285397C2.20739 0.721275 1.84155 1.15715 1.46678 1.59303L1.48463 1.35434C1.49355 1.25056 1.4757 1.14678 1.38647 1.1364L0.36032 1.07413C0.27109 1.07413 0.172936 1.12602 0.137244 1.21942L0.0123213 1.5619C-0.0233709 1.66568 0.0212444 1.7487 0.110475 1.77984L1.03847 2.09118C0.842165 2.3195 0.645858 2.54781 0.449551 2.77613C0.0747828 3.21201 0.181859 6.06597 0.181859 6.79244C0.181859 6.89622 0.262167 6.98962 0.36032 6.98962H2.4037C2.50185 6.98962 2.58216 6.9066 2.58216 6.79244V6.37732H2.56432ZM10.0061 3.38844C10.2917 3.31579 10.2828 3.63751 10.3095 3.80356L9.6403 4.34322C9.56891 4.40549 9.48861 4.447 9.39937 4.47813L8.04307 4.88288C7.98953 4.90363 7.92707 4.83099 7.96276 4.7791L8.43569 4.04225C8.48922 3.94885 8.56061 3.88658 8.65876 3.84507L10.0061 3.38844ZM0.993857 3.38844L2.34124 3.84507C2.43939 3.8762 2.51078 3.94885 2.56432 4.04225L3.03724 4.7791C3.07293 4.84136 3.01939 4.90363 2.95693 4.88288L1.60062 4.47813C1.51139 4.447 1.43109 4.40549 1.3597 4.34322L0.690473 3.81394C0.717243 3.64789 0.699397 3.31579 0.993857 3.38844ZM2.89447 2.4129L1.65416 1.894L2.56432 0.773165C2.7517 0.596738 2.73385 0.58636 3.06401 0.53447C3.57262 0.461824 4.53631 0.430689 5.49108 0.430689C6.44584 0.430689 7.40953 0.461824 7.91815 0.53447C8.2483 0.575982 8.23046 0.596738 8.41784 0.773165L9.33691 1.894L8.09661 2.4129H2.89447Z" fill="#97999C"/>
</svg>
