<svg xmlns="http://www.w3.org/2000/svg" xmlns:xlink="http://www.w3.org/1999/xlink" preserveAspectRatio="none" width="2760" height="2760" viewBox="0 0 460 460"><defs><path fill="#0C0C0C" d="M240 0h-20l10 230L240 0Z" id="a"/><path fill="#0C0C0C" d="m279.75 5.25-19.7-3.45L230 230 279.75 5.25Z" id="b"/><path fill="#0C0C0C" d="m318.05 17.3-18.8-6.85L230 230l88.05-212.7Z" id="c"/><path fill="#0C0C0C" d="m353.65 35.85-17.35-10L230 230 353.65 35.85Z" id="d"/><path fill="#0C0C0C" d="M385.5 60.25 370.15 47.4 230 230 385.5 60.25Z" id="e"/><path fill="#0C0C0C" d="M412.6 89.85 399.75 74.5 230 230 412.6 89.85Z" id="f"/><path fill="#0C0C0C" d="m434.15 123.7-10-17.35L230 230l204.15-106.3Z" id="g"/><path fill="#0C0C0C" d="m449.5 160.75-6.8-18.8L230 230l219.5-69.25Z" id="h"/><path fill="#0C0C0C" d="m458.2 199.95-3.45-19.7L230 230l228.2-30.05Z" id="i"/><path fill="#0C0C0C" d="M460 240v-20l-230 10 230 10Z" id="j"/><path fill="#0C0C0C" d="m454.75 279.8 3.45-19.7L230 230l224.75 49.8Z" id="k"/><path fill="#0C0C0C" d="m442.7 318.1 6.8-18.8L230 230l212.7 88.1Z" id="l"/><path fill="#0C0C0C" d="m424.15 353.7 10-17.35L230 230l194.15 123.7Z" id="m"/><path fill="#0C0C0C" d="m399.75 385.5 12.85-15.3L230 230l169.75 155.5Z" id="n"/><path fill="#0C0C0C" d="m370.15 412.65 15.35-12.85L230 230l140.15 182.65Z" id="o"/><path fill="#0C0C0C" d="m336.3 434.2 17.35-10L230 230l106.3 204.2Z" id="p"/><path fill="#0C0C0C" d="m299.25 449.55 18.8-6.8L230 230l69.25 219.55Z" id="q"/><path fill="#0C0C0C" d="m260.05 458.25 19.7-3.45L230 230l30.05 228.25Z" id="r"/><path fill="#0C0C0C" d="M220 460h20l-10-230-10 230Z" id="s"/><path fill="#0C0C0C" d="m180.2 454.8 19.7 3.45L230 230l-49.8 224.8Z" id="t"/><path fill="#0C0C0C" d="m141.9 442.75 18.8 6.8L230 230l-88.1 212.75Z" id="u"/><path fill="#0C0C0C" d="m106.3 424.2 17.35 10L230 230 106.3 424.2Z" id="v"/><path fill="#0C0C0C" d="m74.5 399.8 15.3 12.85L230 230 74.5 399.8Z" id="w"/><path fill="#0C0C0C" d="m47.35 370.2 12.85 15.3L230 230 47.35 370.2Z" id="x"/><path fill="#0C0C0C" d="m25.8 336.35 10 17.35L230 230 25.8 336.35Z" id="y"/><path fill="#0C0C0C" d="m10.4 299.3 6.85 18.8L230 230 10.4 299.3Z" id="z"/><path fill="#0C0C0C" d="m1.75 260.1 3.45 19.7L230 230 1.75 260.1Z" id="A"/><path fill="#0C0C0C" d="M0 220v20l230-10L0 220Z" id="B"/><path fill="#0C0C0C" d="M230 230 5.2 180.25l-3.45 19.7L230 230Z" id="C"/><path fill="#0C0C0C" d="m17.25 141.95-6.85 18.8L230 230 17.25 141.95Z" id="D"/><path fill="#0C0C0C" d="m35.8 106.35-10 17.35L230 230 35.8 106.35Z" id="E"/><path fill="#0C0C0C" d="M60.2 74.5 47.35 89.85 230 230 60.2 74.5Z" id="F"/><path fill="#0C0C0C" d="M89.8 47.4 74.5 60.25 230 230 89.8 47.4Z" id="G"/><path fill="#0C0C0C" d="m123.65 25.85-17.35 10L230 230 123.65 25.85Z" id="H"/><path fill="#0C0C0C" d="m160.7 10.45-18.8 6.85L230 230 160.7 10.45Z" id="I"/><path fill="#0C0C0C" d="m199.9 1.8-19.7 3.45L230 230 199.9 1.8Z" id="J"/></defs><use xlink:href="#a"/><use xlink:href="#b"/><use xlink:href="#c"/><use xlink:href="#d"/><use xlink:href="#e"/><use xlink:href="#f"/><use xlink:href="#g"/><use xlink:href="#h"/><use xlink:href="#i"/><use xlink:href="#j"/><use xlink:href="#k"/><use xlink:href="#l"/><use xlink:href="#m"/><use xlink:href="#n"/><use xlink:href="#o"/><use xlink:href="#p"/><use xlink:href="#q"/><use xlink:href="#r"/><use xlink:href="#s"/><use xlink:href="#t"/><use xlink:href="#u"/><use xlink:href="#v"/><use xlink:href="#w"/><use xlink:href="#x"/><use xlink:href="#y"/><use xlink:href="#z"/><use xlink:href="#A"/><use xlink:href="#B"/><use xlink:href="#C"/><use xlink:href="#D"/><use xlink:href="#E"/><use xlink:href="#F"/><use xlink:href="#G"/><use xlink:href="#H"/><use xlink:href="#I"/><use xlink:href="#J"/></svg>