<svg width="28" height="28" viewBox="0 0 14 14" xmlns="http://www.w3.org/2000/svg"><g fill="#929294" fill-rule="nonzero"><path d="m9.4942 8.2362-1.952-1.464V3.7902A.5417.5417 0 0 0 7 3.2479a.5417.5417 0 0 0-.5423.5422v3.2533c0 .1708.0803.3318.217.4338l2.1688 1.6266a.539.539 0 0 0 .3248.1085.538.538 0 0 0 .4343-.2175.5412.5412 0 0 0-.1084-.7586Z"/><path d="M7 0C3.14 0 0 3.14 0 7s3.14 7 7 7 7-3.14 7-7-3.14-7-7-7Zm0 12.9156c-3.2614 0-5.9156-2.6542-5.9156-5.9156 0-3.2614 2.6542-5.9156 5.9156-5.9156 3.262 0 5.9156 2.6542 5.9156 5.9156 0 3.2614-2.6542 5.9156-5.9156 5.9156Z"/></g></svg>