<svg width="26" height="30" viewBox="0 0 13 15" xmlns="http://www.w3.org/2000/svg"><path d="m11.2168 4.6107.5881-.5881a.5851.5851 0 1 0-.8275-.8275l-.5881.588a6.2793 6.2793 0 0 0-3.4647-1.435V1.1704h.5657a.5852.5852 0 0 0 0-1.1704H5.1885a.5852.5852 0 0 0 0 1.1704h.5657V2.348C2.5526 2.6392 0 5.3288 0 8.6605 0 12.1643 2.8353 15 6.3395 15c3.5036 0 6.3393-2.8353 6.3393-6.3395 0-1.4966-.5154-2.914-1.462-4.0498Zm-4.8775 9.219c-2.8501 0-5.169-2.3189-5.169-5.1692 0-2.8501 2.3189-5.169 5.169-5.169 2.8503 0 5.1691 2.3189 5.1691 5.169 0 2.8503-2.3188 5.1691-5.169 5.1691Zm2.712-7.881a.5851.5851 0 0 1 0 .8276l-2.2981 2.298a.5851.5851 0 1 1-.8276-.8275l2.298-2.298a.5852.5852 0 0 1 .8276 0Z" fill="#929294" fill-rule="nonzero"/></svg>