<svg width="36" height="10" fill="none" xmlns="http://www.w3.org/2000/svg"><path d="M3.6052 3.4407c.013-.8134-.0586-1.6138-.9696-1.6138-.5564 0-.911.231-.911.8492 0 .693.4262.9598.9468 1.2982.5433.3514 1.552 1.0315 2.0108 1.4935.5694.5694.745 1.116.745 1.9067 0 1.7245-1.1127 2.6225-2.733 2.6225-1.9881 0-2.6974-1.142-2.6974-2.769v-.667h1.6561v.5337c-.0358.885.2246 1.5293 1.0412 1.5293.6996 0 1.0315-.3775 1.0315-1.0673 0-.5336-.2375-.898-.6638-1.2006-.8655-.693-1.9425-1.1909-2.616-2.0987-.2733-.4132-.4263-.911-.4263-1.3958C.0195 1.3062.872.457 2.6225.457c2.6388 0 2.5673 2.089 2.5803 2.987H3.6052v-.0033ZM6.7519 10V.457h3.5471c1.661 0 2.1725 1.3745 2.1725 2.7115 0 .8151-.2114 1.7292-.8697 2.2647-.5457.4467-1.279.5866-1.9474.573H8.4879V10H6.752Zm1.736-5.3956h.9311c.7572 0 1.2654-.3309 1.2654-1.487 0-1.0949-.4229-1.2586-1.4018-1.2586h-.7947v2.749-.0034ZM15.1146 5.8902V10h-1.736V.457h2.9605c1.5006 0 2.6023.5355 2.6023 2.2886 0 1.0436-.2592 2.1385-1.4257 2.3022v.0238c1.03.1399 1.3404.8152 1.3404 1.7292 0 .3957-.0512 2.7354.3718 3.015v.1774h-1.91c-.2115-.6105-.174-1.7804-.1876-2.4182-.0136-.5866 0-1.388-.5969-1.5654-.4706-.1399-.6139-.1262-1.1084-.1262h-.3104v.0068Zm0-1.3984h1.0403c.5695-.0375.9754-.4195.9754-1.3745 0-1.0675-.3922-1.2483-1.0505-1.2585h-.9652v2.633ZM20.3808 10V.457h1.736V10h-1.736ZM23.5322 10V.457h2.8035c.7435 0 1.4768.0512 1.9714.6992.3956.5218.4604 1.0675.4604 1.719 0 .8254-.1739 1.6405-1.1153 1.9986v.0239c.9789.1398 1.354.9788 1.354 2.2135 0 .3956-.0238.7878-.1227 1.1698C28.5117 9.4884 27.8398 10 26.6017 10h-3.0695Zm2.06-5.689c.4229 0 .9686.024 1.2415-.3308.1603-.2421.1875-.573.1875-1.03 0-.7128-.15-1.0675-.9413-1.0948h-.8049v2.4557h.324-.0068Zm.0512 4.2872c.3581 0 .7332.0375 1.0436-.1023.4707-.2149.5321-.839.5321-1.3233 0-1.03-.1978-1.4632-1.279-1.4632h-.6685v2.8888h.3718ZM30.1725 10V.457H35.06v1.3984h-3.1514v2.4045h2.9024v1.3984h-2.9024v2.94H35.06v1.3983h-4.8875V10Z" fill="#A3A3A3"/></svg>