<svg xmlns="http://www.w3.org/2000/svg" width="212" height="148" viewBox="0 0 106 74" fill="none"><rect width="105" height="73" x=".5" y=".5" fill="#5F8D2F" fill-opacity=".3" rx="9.5"/><rect width="105" height="73" x=".5" y=".5" stroke="#5F8D2F" rx="9.5"/><path fill="#fff" d="M25.512 10.616h-1.364v1.39h1.364v-1.39ZM26.724 12.111H25.41v.885h1.313v-.885ZM27.93 13.232h-1.21v1.23h1.21v-1.23ZM30.17 15.914h-.812v.828h.813v-.828ZM32.449 18.566h-.485v.492h.485v-.492ZM32.436 16.104h-.484v.493h.484v-.493ZM33.69 17.334h-.483v.492h.484v-.492ZM33.657 19.84h-.484v.493h.484v-.492ZM34.796 18.68h-.283v.29h.283v-.29ZM34.781 21.206h-.22v.223h.22v-.223ZM34.781 13.736h-.22v.224h.22v-.224ZM27.394 6.225h-.22v.223h.22v-.223ZM20.004 6.225h-.22v.223h.22v-.223ZM27.896 10.713h-1.218v1.238h1.218v-1.238ZM26.703 9.571h-1.31v1.01h1.31V9.57ZM21.87 9.499h-1.364v1.15h1.364V9.5Z"/><path fill="#fff" d="M20.625 10.607h-1.459v1.483h1.459v-1.483Z"/><path fill="#fff" d="M19.428 12.06h-1.352v.912h1.352v-.912ZM18.262 13.111h-1.553v1.374h1.553v-1.374ZM18.161 15.666H16.81v1.375h1.352v-1.375ZM23.091 18.264h-1.41v1.087h1.41v-1.087ZM27.945 18.204h-1.264v1.283h1.264v-1.283Z"/><path fill="#fff" d="M29.145 19.424H27.88v1.284h1.264v-1.284Z"/><path fill="#fff" d="M30.308 20.683H29.12v1.209h1.188v-1.209ZM29.187 22.136h-1.352v.891h1.352v-.89ZM27.923 23.178h-1.297v1.32h1.297v-1.32ZM23.003 23.375h-1.27v.93h1.27v-.93ZM21.49 22.212h-.722v.734h.721v-.734ZM24.002 22.212h-.823v.734h.823v-.734ZM20.165 21.043h-.533v.54h.533v-.54ZM22.732 21.043h-.728v.54h.728v-.54ZM25.463 23.202h-1.22v1.242h1.22v-1.242ZM26.508 22.296h-.865v.571h.865v-.57ZM27.717 20.91h-.865v.882h.865v-.882ZM26.566 19.71H25.52v.756h1.045v-.755ZM16.624 19.677h-.807v.82h.807v-.82ZM18.076 20.831h-1.279v.991h1.28v-.99ZM19.276 22.19h-1.33v.792h1.33v-.791ZM18.216 23.22h-1.248v1.22h1.248v-1.22ZM20.497 23.217h-1.2v1.22h1.2v-1.22ZM20.588 25.887h-1.17v.858h1.17v-.858ZM16.736 22.245h-1.023v.677h1.024v-.677ZM15.256 23.568h-.514v.522h.514v-.522ZM14.02 22.311h-.515v.523h.515v-.523ZM16.477 24.81h-.514v.522h.514v-.523ZM17.71 26.057h-.514v.522h.514v-.522ZM18.944 27.301h-.515v.523h.515V27.3ZM20.177 28.548h-.514v.523h.514v-.523ZM21.261 29.944h-.219v.223h.22v-.223ZM26.166 29.944h-.219v.223h.22v-.223ZM18.798 29.944h-.22v.223h.22v-.223ZM23.749 29.917h-.274v.277h.274v-.277ZM23.1 25.942H21.64v.803H23.1v-.803ZM21.404 27.325h-.463v.471h.463v-.47ZM22.634 28.548h-.487v.496h.487v-.496ZM23.843 27.325h-.462v.471h.462v-.47ZM17.884 18.394h-.864v.882h.864v-.882ZM15.33 16.032h-.634v.643h.633v-.643ZM14.005 17.337h-.472v.48h.472v-.48ZM12.771 16.083H12.3v.48h.471v-.48ZM14.105 14.839h-.691v.48h.691v-.48ZM15.46 13.477h-.898v.643h.898v-.643ZM15.271 18.57h-.526v.537h.526v-.538ZM14.15 19.798h-.706v.538h.707v-.538ZM12.778 18.623h-.466v.475h.466v-.475ZM11.447 19.977h-.234v.238h.234v-.238ZM11.447 17.46h-.234v.24h.234v-.24ZM12.75 21.118h-.41v.417h.41v-.417ZM15.323 21.006h-.62v.635h.62v-.634ZM23.928 19.768h-.627v.64h.628v-.64ZM21.51 19.768h-.754v.64h.755v-.64ZM19.163 19.768h-.898v.64h.898v-.64ZM25.21 21.06h-.742v.505h.742v-.504ZM25.302 25.842h-.95v.967h.95v-.967ZM26.295 27.337h-.475v.483h.475v-.483ZM27.625 25.978h-.688v.7h.688v-.7ZM26.684 24.643h-1.22v.837h1.22v-.837ZM24.111 24.722H23.07v.715h1.041v-.715ZM19.178 24.722h-1.01v.694h1.01v-.694ZM21.721 24.658h-1.2v.822h1.2v-.822ZM28.953 24.77h-.868v.595h.868v-.595ZM30.168 23.393H29.3v.885h.868v-.885ZM31.313 22.227h-.685v.697h.685v-.697ZM25.411 18.249h-1.148v1.166h1.148v-1.166ZM16.712 12.238h-.993v.67h.993v-.67ZM17.942 10.837h-.983v1h.983v-1ZM19.09 9.671h-.813v.825h.813V9.67ZM20.29 8.569h-.795v.567h.795V8.57ZM27.607 8.569h-.64v.567h.64V8.57ZM28.66 7.454h-.28v.284h.28v-.284ZM24.97 6.195h-.28v.283h.28v-.283ZM22.513 6.195h-.28v.283h.28v-.283ZM29.933 8.65h-.377v.384h.377V8.65ZM31.182 9.891h-.408v.417h.408v-.417ZM32.406 11.133h-.408v.417h.408v-.417ZM33.566 12.438h-.286v.29h.286v-.29ZM26.343 7.324h-.514v.526h.514v-.526ZM23.883 7.324h-.515v.526h.515v-.526ZM21.447 7.324h-.515v.526h.515v-.526ZM28.788 9.813h-.557v.568h.557v-.568ZM30.134 11.054h-.803v.568h.803v-.568ZM31.21 12.323h-.512v.522h.511v-.522ZM32.455 13.598h-.503v.513h.503v-.514ZM33.676 14.866h-.479v.486h.479v-.486ZM34.808 16.165h-.289v.296h.29v-.296ZM22.82 8.511h-.898v.68h.898v-.68ZM25.348 8.511h-1.035v.68h1.035v-.68ZM20.655 18.167h-1.504v1.218h1.504v-1.218ZM20.473 15.872H19.33v.966h1.142v-.966ZM29.111 14.621H27.93v.88h1.181v-.88ZM31.319 14.812h-.73v.543h.73v-.543ZM16.846 14.612h-1.197v.891h1.197v-.89ZM19.227 14.718h-1.026v.764h1.026v-.764ZM20.473 13.462h-1.07v.818h1.07v-.818ZM25.26 13.522h-.856v.61h.855v-.61ZM24.035 12.275h-.822v.555h.822v-.555ZM23.877 14.815h-.503v.51h.503v-.51ZM22.775 13.567h-.807v.523h.807v-.523ZM21.657 12.23h-1.032v.697h1.032v-.698ZM22.912 15.872h-1.084v.945h1.084v-.945ZM25.439 15.872h-1.203v.945h1.203v-.945ZM27.787 15.89h-1.002v.91h1.002v-.91ZM31.24 17.4h-.484v.36h.484v-.36ZM19.36 17.077H18.01v1.003h1.352v-1.003ZM21.852 17.077H20.5v1.003h1.352v-1.003ZM24.267 17.104h-1.28v.949h1.28v-.949ZM26.706 17.104h-1.279v.949h1.279v-.949ZM16.69 17.228h-.943v.7h.944v-.7ZM29.047 17.183h-1.08v.803h1.08v-.803ZM30.326 18.276h-1.501v1.157h1.501v-1.157ZM31.383 19.653h-.84v.855h.84v-.855ZM32.464 21.088h-.512v.52h.512v-.52ZM33.603 22.393h-.369v.374h.369v-.374ZM32.409 23.604h-.448v.456h.448v-.456ZM31.194 24.84h-.448v.456h.448v-.457ZM29.955 26.099h-.448v.456h.448v-.456ZM28.74 27.337h-.448v.456h.448v-.456ZM16.447 27.337h-.448v.456h.448v-.456ZM15.223 26.09h-.448v.456h.448v-.456ZM13.965 24.867h-.396v.401h.396v-.401ZM12.66 23.725h-.211v.214h.21v-.214ZM11.401 22.508h-.149v.15h.15v-.15ZM25.052 28.59h-.447v.457h.447v-.456ZM27.452 28.645h-.341v.347h.34v-.347ZM17.622 28.645h-.34v.347h.34v-.347ZM21.444 14.815h-.551v.559h.551v-.56ZM26.343 14.815h-.55v.559h.55v-.56ZM23.091 10.813h-1.44v1.036h1.44v-1.036ZM24.175 9.499h-1.38v.978h1.38V9.5ZM29.148 12.145h-1.252v.845h1.252v-.845ZM30.247 13.305h-1.02v1.039h1.02v-1.04ZM17.184 9.136h.557V8.57h-.557v.567ZM16.127 7.699h.198v-.2h-.198v.2ZM14.906 8.937h.192v-.193h-.192v.193ZM13.682 10.188h.174v-.179h-.174v.178ZM12.473 11.414h.143v-.145h-.143v.145ZM33.371 25.166h.131v-.133h-.13v.133ZM32.117 26.44h.192v-.193h-.192v.193ZM30.893 27.69h.173v-.178h-.173v.179ZM29.684 28.917h.143v-.145h-.143v.145ZM18.402 7.847h.514V7.32h-.514v.526ZM15.96 10.378h.557V9.81h-.557v.568ZM14.739 11.625h.557v-.568h-.557v.568ZM13.57 12.81h.447v-.457h-.448v.456ZM12.37 14.032h.35v-.356h-.35v.356ZM11.191 15.229h.235v-.24h-.235v.24ZM48.503 15.38c.018-1.194-.09-2.37-1.435-2.37-.823 0-1.35.34-1.35 1.247 0 1.014.63 1.406 1.4 1.908.804.515 2.293 1.515 2.977 2.19.84.837 1.104 1.64 1.104 2.798 0 2.53-1.645 3.847-4.046 3.847-2.942 0-3.992-1.674-3.992-4.063v-.978h2.45v.784c-.053 1.3.331 2.243 1.542 2.243 1.033 0 1.524-.55 1.524-1.568 0-.784-.349-1.318-.979-1.763-1.279-1.014-2.87-1.745-3.871-3.08a3.753 3.753 0 0 1-.63-2.05c0-2.278 1.26-3.525 3.853-3.525 3.907 0 3.8 3.063 3.818 4.384h-2.365v-.004ZM52.88 24.682v-13.36h5.007c2.347 0 3.067 1.925 3.067 3.794 0 1.14-.3 2.423-1.225 3.172-.77.622-1.806.82-2.75.802h-1.645v5.592H52.88Zm2.45-7.553h1.314c1.069 0 1.788-.463 1.788-2.084 0-1.533-.595-1.763-1.98-1.763H55.33v3.847ZM64.686 18.927v5.755h-2.45v-13.36h4.181c2.12 0 3.672.748 3.672 3.207 0 1.46-.367 2.992-2.016 3.226v.035c1.453.194 1.891 1.14 1.891 2.423 0 .551-.071 3.83.527 4.222v.25h-2.696c-.299-.854-.245-2.493-.263-3.384-.018-.82 0-1.943-.84-2.19-.667-.194-.866-.177-1.568-.177h-.438v-.007Zm0-1.96h1.467c.805-.053 1.379-.587 1.379-1.926 0-1.498-.556-1.745-1.485-1.762h-1.36v3.688ZM72.12 24.682v-13.36h2.45v13.36h-2.45ZM76.567 24.682v-13.36h3.957c1.051 0 2.084.07 2.785.978.56.731.649 1.498.649 2.406 0 1.159-.246 2.296-1.578 2.798v.035c1.382.194 1.909 1.37 1.909 3.098 0 .551-.036 1.106-.175 1.64-.527 1.691-1.47 2.405-3.223 2.405h-4.327.004Zm2.907-7.963c.594 0 1.367.036 1.752-.462.228-.34.264-.802.264-1.442 0-.996-.21-1.498-1.332-1.533h-1.14v3.437h.456Zm.07 6.002c.51 0 1.034.053 1.472-.14.666-.305.751-1.177.751-1.852 0-1.441-.281-2.049-1.802-2.049h-.947v4.045h.527v-.004ZM85.938 24.682v-13.36h6.902v1.96h-4.448v3.367h4.1v1.96h-4.1v4.116h4.448v1.96h-6.902v-.003Z"/><rect width="89" height="19" x="8.5" y="36.5" fill="#000" fill-opacity=".5" rx="5.5"/><rect width="89" height="19" x="8.5" y="36.5" stroke="#4FA42C" rx="5.5"/><path fill="#4FA42C" d="M20.017 46.364c0 .767-.138 1.43-.415 1.988-.277.559-.657.99-1.14 1.293-.483.303-1.035.454-1.655.454-.62 0-1.172-.151-1.655-.454-.483-.303-.863-.734-1.14-1.293-.277-.558-.415-1.221-.415-1.988 0-.767.138-1.43.415-1.989.277-.559.657-.99 1.14-1.293.483-.303 1.035-.454 1.655-.454.62 0 1.172.151 1.655.454.483.303.863.734 1.14 1.293.277.559.415 1.222.415 1.989Zm-.852 0c0-.63-.106-1.162-.316-1.595-.209-.433-.491-.761-.849-.983a2.2 2.2 0 0 0-1.193-.334c-.44 0-.84.111-1.197.334-.355.222-.638.55-.849.983-.208.433-.312.965-.312 1.595s.104 1.16.312 1.594c.211.433.494.761.85.984.357.222.755.334 1.196.334A2.2 2.2 0 0 0 18 48.942c.358-.223.64-.55.849-.984.21-.433.316-.965.316-1.594Zm4.648-1.819v.71h-2.94v-.71h2.94ZM21.753 50v-6.207c0-.313.074-.573.22-.782.148-.208.338-.364.573-.468.234-.105.481-.157.742-.157a1.953 1.953 0 0 1 .796.142l-.242.725a4.158 4.158 0 0 0-.178-.053 1.077 1.077 0 0 0-.291-.032c-.277 0-.477.07-.6.21-.121.139-.181.344-.181.614V50h-.838Zm5.664-5.455v.71h-2.94v-.71h2.94ZM25.357 50v-6.207c0-.313.073-.573.22-.782.147-.208.338-.364.572-.468.234-.105.482-.157.742-.157a1.953 1.953 0 0 1 .795.142l-.24.725a4.158 4.158 0 0 0-.178-.053 1.077 1.077 0 0 0-.292-.032c-.277 0-.477.07-.6.21-.12.139-.18.344-.18.614V50h-.839Zm3.234 0v-5.455h.838V50h-.838Zm.426-6.364a.596.596 0 0 1-.422-.167.536.536 0 0 1-.174-.4c0-.157.058-.29.174-.402a.596.596 0 0 1 .422-.167c.164 0 .303.056.42.167a.531.531 0 0 1 .177.401c0 .156-.06.29-.178.401a.584.584 0 0 1-.419.167Zm4.163 6.478c-.511 0-.952-.121-1.32-.363a2.361 2.361 0 0 1-.853-.997c-.199-.424-.298-.908-.298-1.453 0-.554.101-1.043.305-1.467.206-.426.492-.758.86-.997.369-.242.8-.363 1.292-.363.384 0 .73.072 1.037.214.308.142.56.34.756.596.197.256.319.554.366.895h-.838a1.299 1.299 0 0 0-.426-.66c-.218-.195-.511-.292-.88-.292-.328 0-.614.086-.86.256a1.665 1.665 0 0 0-.572.714 2.645 2.645 0 0 0-.202 1.076c0 .421.066.788.199 1.1.135.313.324.556.568.729.246.172.535.259.866.259.218 0 .416-.038.593-.114.178-.076.328-.184.451-.327.123-.142.211-.312.263-.51h.838a1.94 1.94 0 0 1-1.087 1.48c-.303.15-.655.224-1.058.224ZM36.55 50v-5.455h.838V50h-.838Zm.426-6.364a.596.596 0 0 1-.422-.167.536.536 0 0 1-.174-.4c0-.157.058-.29.174-.402a.596.596 0 0 1 .422-.167c.164 0 .303.056.42.167a.531.531 0 0 1 .177.401c0 .156-.06.29-.178.401a.584.584 0 0 1-.419.167Zm3.552 6.492c-.345 0-.659-.065-.94-.196a1.614 1.614 0 0 1-.672-.571c-.165-.251-.248-.554-.248-.91 0-.312.061-.565.184-.76.123-.196.288-.35.494-.46.206-.112.433-.195.682-.25.25-.056.503-.101.756-.134.331-.043.6-.075.806-.096.208-.024.36-.063.455-.117.097-.055.145-.15.145-.285v-.028c0-.35-.096-.623-.287-.817-.19-.194-.477-.29-.863-.29-.4 0-.714.087-.941.262a1.553 1.553 0 0 0-.48.56l-.795-.283a1.91 1.91 0 0 1 .568-.774c.24-.187.5-.318.781-.39.284-.077.564-.115.838-.115.176 0 .377.022.604.064.23.04.451.125.664.253.216.127.394.32.536.578.142.258.213.604.213 1.037V50h-.838v-.739h-.042a1.475 1.475 0 0 1-.284.38c-.133.135-.31.25-.53.345-.22.095-.488.142-.806.142Zm.128-.753c.332 0 .611-.065.838-.195a1.33 1.33 0 0 0 .696-1.154v-.768c-.035.043-.113.082-.234.118a3.954 3.954 0 0 1-.412.089 18.34 18.34 0 0 1-.802.106 3.203 3.203 0 0 0-.611.139 1.054 1.054 0 0 0-.455.28c-.114.123-.17.291-.17.504 0 .291.107.512.323.66.218.148.493.221.827.221Zm4.74-6.648V50h-.838v-7.273h.838ZM54.83 45a2.567 2.567 0 0 0-.31-.643 1.984 1.984 0 0 0-.45-.49 1.893 1.893 0 0 0-.59-.309 2.35 2.35 0 0 0-.724-.106c-.43 0-.823.111-1.175.334-.353.222-.634.55-.842.983-.208.433-.313.965-.313 1.595s.106 1.16.317 1.594c.21.433.495.761.855.984.36.222.765.334 1.215.334.416 0 .783-.09 1.1-.267.32-.18.569-.433.746-.76.18-.329.27-.716.27-1.16l.27.056h-2.187v-.781h2.77v.78c0 .6-.128 1.12-.384 1.563a2.65 2.65 0 0 1-1.051 1.03c-.445.242-.957.362-1.534.362-.644 0-1.21-.151-1.698-.454-.485-.303-.864-.734-1.136-1.293-.27-.558-.405-1.221-.405-1.988 0-.576.077-1.093.231-1.552.156-.462.376-.855.66-1.18.285-.323.62-.572 1.009-.745.388-.173.816-.26 1.282-.26.383 0 .741.059 1.072.175a2.88 2.88 0 0 1 1.549 1.236c.175.289.296.61.362.962h-.91Zm3.951 5.128c-.345 0-.659-.065-.94-.196a1.615 1.615 0 0 1-.672-.571c-.166-.251-.248-.554-.248-.91 0-.312.061-.565.184-.76.123-.196.288-.35.494-.46.206-.112.433-.195.682-.25.25-.056.503-.101.756-.134.331-.043.6-.075.806-.096.209-.024.36-.063.455-.117.097-.055.145-.15.145-.285v-.028c0-.35-.096-.623-.287-.817-.19-.194-.477-.29-.863-.29-.4 0-.714.087-.941.262a1.553 1.553 0 0 0-.48.56l-.795-.283c.142-.332.331-.59.568-.774.24-.187.5-.318.781-.39.284-.077.564-.115.838-.115.175 0 .377.022.604.064.23.04.451.125.664.253.215.127.394.32.536.578.142.258.213.604.213 1.037V50h-.838v-.739H60.4a1.475 1.475 0 0 1-.284.38 1.64 1.64 0 0 1-.53.345c-.22.095-.488.142-.806.142Zm.128-.753c.332 0 .611-.065.838-.195a1.33 1.33 0 0 0 .696-1.154v-.768c-.035.043-.113.082-.234.118a3.957 3.957 0 0 1-.412.089 18.409 18.409 0 0 1-.803.106 3.203 3.203 0 0 0-.61.139 1.053 1.053 0 0 0-.455.28c-.113.123-.17.291-.17.504 0 .291.107.512.323.66.218.148.493.221.827.221ZM62.81 50v-5.455h.81v.853h.07a1.37 1.37 0 0 1 .551-.679c.253-.163.558-.245.913-.245.36 0 .66.082.898.245.242.161.43.387.565.679h.057c.14-.282.349-.506.628-.671.28-.168.614-.253 1.005-.253.488 0 .887.153 1.197.459.31.303.465.775.465 1.416V50h-.838v-3.65c0-.403-.11-.69-.33-.864-.22-.172-.48-.259-.778-.259-.383 0-.68.116-.891.348-.211.23-.316.521-.316.874V50h-.853v-3.736c0-.31-.1-.56-.301-.75-.202-.19-.46-.287-.778-.287-.218 0-.421.058-.61.174a1.315 1.315 0 0 0-.456.483c-.113.204-.17.44-.17.707V50h-.838Zm10.978.114c-.525 0-.979-.116-1.36-.348a2.336 2.336 0 0 1-.877-.98c-.204-.422-.305-.912-.305-1.47 0-.56.102-1.052.305-1.478a2.41 2.41 0 0 1 .86-1.001c.369-.242.8-.363 1.292-.363.284 0 .565.048.842.143.277.094.529.248.756.461.227.21.409.49.543.838.135.348.203.777.203 1.286v.355h-4.205v-.725h3.353c0-.307-.062-.582-.185-.824a1.391 1.391 0 0 0-.519-.571 1.452 1.452 0 0 0-.788-.21c-.334 0-.623.083-.866.249a1.635 1.635 0 0 0-.558.64c-.13.262-.195.544-.195.844v.483c0 .412.07.761.213 1.048.144.284.344.5.6.65.256.146.553.22.891.22.22 0 .42-.031.597-.092.18-.064.335-.16.465-.285.13-.128.231-.286.302-.476l.81.228a1.795 1.795 0 0 1-.43.724c-.201.206-.45.367-.746.483-.296.114-.628.17-.998.17Z"/><g clip-path="url(#a)"><path fill="#00BA00" d="M87 52a6 6 0 1 0 0-12 6 6 0 0 0 0 12Z"/><path fill="#fff" fill-rule="evenodd" d="m85.127 48.926-2.195-2.348a.802.802 0 0 1 .039-1.131.802.802 0 0 1 1.13.038l1.693 1.812 2.68-2.503a.785.785 0 0 1 .075-.063l1.26-1.177a.802.802 0 0 1 1.13.039c.3.321.283.83-.038 1.13l-3.848 3.596-.004-.005-1.332 1.244-.59-.632Z" clip-rule="evenodd"/></g><path fill="#fff" d="M35.886 63.636a.892.892 0 0 0-.414-.67c-.243-.16-.54-.239-.892-.239-.258 0-.483.042-.677.125a1.08 1.08 0 0 0-.448.344.825.825 0 0 0-.16.497.71.71 0 0 0 .111.4c.076.11.173.203.29.276.117.072.24.132.37.18.128.045.246.082.354.11l.591.16c.152.039.32.094.506.164.188.07.366.166.537.287.172.12.314.273.426.46.112.188.168.418.168.69 0 .315-.083.599-.247.853a1.682 1.682 0 0 1-.716.605c-.313.15-.693.224-1.14.224-.416 0-.777-.067-1.082-.201a1.724 1.724 0 0 1-.716-.563c-.172-.24-.27-.52-.292-.838h.727a.91.91 0 0 0 .221.546 1.2 1.2 0 0 0 .495.318c.2.068.416.102.647.102.27 0 .51-.044.725-.13.214-.09.383-.213.508-.37a.875.875 0 0 0 .188-.557.683.683 0 0 0-.162-.472 1.19 1.19 0 0 0-.426-.295 4.479 4.479 0 0 0-.571-.199l-.716-.204c-.455-.131-.815-.318-1.08-.56-.265-.242-.397-.56-.397-.952 0-.325.088-.61.264-.852.178-.244.416-.434.716-.568a2.418 2.418 0 0 1 1.008-.205c.375 0 .709.068 1 .202.292.133.523.314.694.545.172.232.263.494.272.787h-.682ZM37.716 68v-4.364h.67V68h-.67Zm.34-5.09a.477.477 0 0 1-.338-.134.43.43 0 0 1-.14-.322c0-.124.047-.232.14-.32a.477.477 0 0 1 .338-.134c.13 0 .242.044.335.133a.425.425 0 0 1 .142.322.425.425 0 0 1-.142.32.467.467 0 0 1-.335.134Zm2.228 2.465V68h-.67v-4.364h.647v.682h.057c.102-.221.258-.4.466-.534.208-.136.477-.204.807-.204.295 0 .554.06.776.181.221.12.393.301.517.546.123.242.184.55.184.92V68h-.67v-2.727c0-.343-.09-.61-.267-.801-.178-.194-.423-.29-.733-.29a1.17 1.17 0 0 0-.574.139.996.996 0 0 0-.395.406 1.341 1.341 0 0 0-.145.648Zm5.782 2.716c-.409 0-.761-.097-1.057-.29a1.888 1.888 0 0 1-.682-.798 2.704 2.704 0 0 1-.238-1.162c0-.443.081-.834.244-1.173.165-.341.394-.607.688-.799.295-.193.64-.29 1.034-.29.306 0 .583.057.83.171.245.114.447.273.604.477.158.205.255.444.293.716h-.67a1.04 1.04 0 0 0-.341-.528c-.175-.156-.41-.233-.705-.233-.261 0-.49.068-.687.204a1.331 1.331 0 0 0-.458.571 2.114 2.114 0 0 0-.162.861c0 .337.053.63.16.88.107.25.259.445.454.583.197.138.428.208.693.208.174 0 .332-.03.474-.091a.98.98 0 0 0 .572-.67h.67a1.554 1.554 0 0 1-.87 1.184c-.242.12-.524.179-.846.179Zm4.526 0c-.42 0-.783-.093-1.088-.278a1.869 1.869 0 0 1-.702-.785c-.163-.337-.245-.729-.245-1.176 0-.447.082-.84.245-1.181.165-.343.394-.61.687-.802.296-.193.64-.29 1.034-.29.228 0 .452.038.674.114.221.076.423.199.605.37.182.168.327.391.434.67.108.278.162.621.162 1.028v.285h-3.363v-.58h2.682c0-.246-.05-.466-.148-.66a1.114 1.114 0 0 0-1.046-.624c-.267 0-.498.066-.693.199-.193.13-.342.3-.446.511-.104.21-.156.436-.156.676v.386c0 .33.057.61.17.839.116.227.276.4.48.52.205.117.443.176.714.176.176 0 .335-.025.477-.074.144-.051.268-.127.372-.228.104-.102.185-.229.241-.38l.648.182c-.068.22-.182.412-.343.58-.162.164-.36.293-.597.385a2.21 2.21 0 0 1-.798.137ZM55.657 68v-.511l1.92-2.103c.226-.246.411-.46.557-.642.146-.183.254-.356.324-.517.072-.163.108-.333.108-.511a.944.944 0 0 0-.545-.878 1.289 1.289 0 0 0-.569-.122c-.223 0-.418.046-.585.14a.958.958 0 0 0-.383.383 1.2 1.2 0 0 0-.134.58h-.67c0-.342.078-.641.236-.899.157-.257.37-.458.642-.602.272-.144.578-.216.917-.216.341 0 .643.072.906.216.264.144.47.338.62.583.15.244.224.516.224.815 0 .214-.039.423-.116.628a2.777 2.777 0 0 1-.398.679c-.188.248-.448.55-.781.909l-1.307 1.397v.046h2.704V68h-3.67Zm6.741.08c-.428 0-.792-.117-1.093-.35-.301-.235-.532-.575-.69-1.02-.16-.447-.24-.986-.24-1.62 0-.628.08-1.165.24-1.61.16-.447.391-.788.692-1.023.304-.236.667-.355 1.091-.355.425 0 .787.119 1.088.355.303.235.535.576.694 1.023.16.445.241.982.241 1.61 0 .633-.08 1.173-.239 1.62-.159.445-.389.785-.69 1.02-.3.233-.665.35-1.094.35Zm0-.626c.425 0 .754-.204.99-.613.234-.41.351-.992.351-1.75 0-.504-.054-.933-.162-1.287-.106-.354-.26-.624-.46-.81a1.016 1.016 0 0 0-.719-.278c-.42 0-.749.207-.985.622-.237.413-.355.997-.355 1.753 0 .504.053.932.159 1.284.106.352.258.62.457.804.2.184.442.275.724.275Zm5.148-5.272V68h-.704v-5.08h-.034l-1.42.944v-.716l1.454-.966h.704Zm3.537 5.897c-.39 0-.735-.069-1.034-.207a1.695 1.695 0 0 1-.696-.576 1.449 1.449 0 0 1-.247-.842 1.546 1.546 0 0 1 .548-1.207c.172-.142.365-.232.577-.27v-.034a1.123 1.123 0 0 1-.665-.469 1.42 1.42 0 0 1-.244-.826c-.002-.296.073-.56.224-.793a1.58 1.58 0 0 1 .625-.551 2 2 0 0 1 .912-.202c.337 0 .638.068.904.202.265.134.473.318.625.551.153.233.23.497.233.793a1.44 1.44 0 0 1-.253.826c-.165.241-.384.397-.657.47v.033c.21.038.4.128.569.27a1.58 1.58 0 0 1 .557 1.207 1.47 1.47 0 0 1-.256.842 1.695 1.695 0 0 1-.696.576 2.396 2.396 0 0 1-1.026.207Zm0-.624c.263 0 .49-.043.682-.128.191-.085.339-.206.443-.361a.972.972 0 0 0 .16-.545 1.046 1.046 0 0 0-.171-.583 1.156 1.156 0 0 0-.458-.398 1.436 1.436 0 0 0-.656-.144c-.248 0-.47.048-.665.144-.193.097-.345.23-.457.398-.11.169-.164.363-.162.583a.952.952 0 0 0 .15.545c.105.155.253.276.447.36.193.086.422.129.687.129Zm0-2.762c.208 0 .393-.041.554-.125.163-.083.29-.2.384-.35a.996.996 0 0 0 .142-.525.97.97 0 0 0-.14-.514.902.902 0 0 0-.377-.34 1.23 1.23 0 0 0-.563-.123c-.218 0-.408.04-.57.122a.88.88 0 0 0-.379.341.95.95 0 0 0-.13.514c-.002.2.042.376.133.526.093.15.22.266.384.35.162.082.35.124.562.124Z"/><defs><clipPath id="a"><path fill="#fff" d="M81 40h12v12H81z"/></clipPath></defs></svg>