<svg xmlns="http://www.w3.org/2000/svg" width="600" height="236" viewBox="0 0 150 59" fill="none"><g clip-path="url(#a)"><mask id="b" width="150" height="47" x="0" y="0" maskUnits="userSpaceOnUse" style="mask-type:luminance"><path fill="#fff" d="M149.998 0H.002v46.262h149.996V0Z"/></mask><g mask="url(#b)"><path fill="#CF2030" d="M51.292 19.326H31.771l1.621-5.935h19.521l-1.621 5.935ZM38.062 29.35h10.492l1.621-5.934H30.654l-4.627 16.948h9.028l3.008-11.013h-.001Z"/><path fill="#CF2030" fill-rule="evenodd" d="M60.21 34.227c-.238-.139-.386-.318-.446-.546a.743.743 0 0 1-.02-.21.953.953 0 0 1 .03-.197l3.535-12.95c.104-.377.283-.635.539-.779.259-.144.699-.22 1.33-.22h9.752l1.62-5.935H62.88c-2.492 0-4.226.297-5.24.869-1.013.57-1.712 1.58-2.117 3.064l-5.047 18.465a3.69 3.69 0 0 0-.135.81c-.017.283.016.553.076.824.23.9.81 1.611 1.742 2.15.918.524 2.072.788 3.439.788h14.311l1.621-5.934H61.071c-.348 0-.639-.068-.878-.203h.013l.004.004ZM6.258 13.393l-6.12 22.4c-.08.274-.12.548-.134.809-.017.283.016.553.076.823.23.9.81 1.612 1.742 2.15.918.523 2.072.79 3.439.79h10.178c2.492 0 4.226-.304 5.24-.873 1.013-.57 1.715-1.581 2.119-3.065l6.292-23.034H20.06L14.59 33.43c-.104.378-.283.636-.539.78-.259.144-.7.22-1.33.22h-1.554c-.348 0-.639-.067-.878-.202-.239-.139-.385-.318-.445-.546a.814.814 0 0 1 .007-.407l5.429-19.884H6.25h.008v.003Z" clip-rule="evenodd"/><path fill="#fff" d="M87.436 7.494h-.615v38.77h.615V7.494Z"/><path fill="#EE2F28" fill-rule="evenodd" d="m113.211 32.034-1.626 6.716c-.137.537-.44.999-.918 1.386-.478.385-.984.58-1.51.58l2.107-8.678h-2.607l-.27 1.316-2.088 8.678h2.533c1.236 0 2.41-.476 3.527-1.423 1.113-.948 1.822-2.063 2.128-3.348l.942-3.909.32-1.316h-2.538v-.002ZM120.613 28.028c-.221-.26-.515-.393-.884-.393-.368 0-.704.132-1.013.393-.305.26-.487.573-.547.936-.063.378.016.696.235.957.219.26.515.392.88.392s.706-.135 1.017-.401c.304-.267.491-.583.551-.948.058-.363-.022-.679-.239-.936Z" clip-rule="evenodd"/><path fill="#EE2F28" fill-rule="evenodd" d="M118.134 39.764a.4.4 0 0 1 .027-.099c.013-.04.024-.066.024-.077l1.893-7.555h-4.383l-.334 1.309h1.754l-1.575 6.246a1.236 1.236 0 0 0-.058.236c-.114.679.062 1.214.522 1.612.461.394 1.142.595 2.051.595h.395l.334-1.309c-.528-.077-.743-.394-.652-.957h.002v-.001ZM127.233 39.983a.212.212 0 0 1 .024-.077.396.396 0 0 0 .02-.077l1.858-7.79h-4.339c-.903 0-1.743.264-2.521.797-.779.531-1.259 1.197-1.447 1.993l-1.052 4.407a1.376 1.376 0 0 0-.054.257c-.115.736.089 1.342.613 1.82.528.479 1.214.718 2.068.718h.395c.741 0 1.423-.27 2.06-.805.32.538.915.805 1.789.805h.884l.319-1.318c-.485-.028-.69-.272-.62-.727v-.005l.003.002Zm-2.344-.749a1.918 1.918 0 0 1-.671 1.04c-.343.29-.714.431-1.101.431-.727 0-1.031-.368-.918-1.1 0-.01.009-.044.027-.099.017-.055.024-.097.028-.118l1.204-5.057c.166-.654.513-.986 1.037-.986h1.807l-1.409 5.884h.002v.005h-.006ZM141.761 32.387c-.524-.478-1.213-.718-2.069-.718h-.396c-.931 0-1.785.27-2.554.805-.77.539-1.25 1.202-1.438 1.987l-1.265 4.777a1.484 1.484 0 0 0-.058.255c-.121.749.085 1.357.618 1.831.532.471 1.233.71 2.103.71h.38c.924 0 1.771-.273 2.55-.816.78-.545 1.26-1.204 1.448-1.978l1.259-4.778.039-.252c.115-.735-.09-1.341-.612-1.82h-.007.002v-.003Zm-1.93 1.856-.033.218-1.241 4.777c-.113.47-.296.838-.551 1.091-.252.258-.517.386-.796.386-.252 0-.446-.117-.577-.355-.135-.235-.17-.536-.113-.901.002-.026.013-.062.025-.108.009-.037.02-.07.028-.108l1.241-4.777c.106-.43.281-.781.524-1.053.244-.27.516-.404.819-.404.252 0 .44.108.574.324.129.218.166.522.104.914h-.002l-.002-.004ZM149.993 32.031l-.697 2.687h-1.424l.309-1.274c-.634.219-1.203.613-1.705 1.186-.506.574-.844 1.187-1.017 1.846l-1.355 5.553h-2.612l2.492-9.996h2.599l-.195.832c.767-.553 1.676-.832 2.727-.832h.88-.002v-.002ZM106.776 28.38c-.584-.493-1.371-.74-2.364-.74-1.082 0-2.035.276-2.862.83-.825.553-1.353 1.285-1.573 2.198l-1.063 4.313-2.378.002c-.915 0-1.649.76-1.649 1.696h3.604l-1.317 5.348h2.538l1.318-5.348h2.311l-.82 3.316a1.374 1.374 0 0 0-.058.252c-.092.56.016.999.325 1.311.304.31.77.47 1.392.47h1.014l.324-1.311c-.368-.024-.516-.227-.456-.605l2.317-9.45a.807.807 0 0 1 .032-.153 1.14 1.14 0 0 0 .033-.16c.135-.815-.096-1.47-.673-1.969h.005Zm-1.822 1.74-.029.175-1.174 4.682-.007.031h-2.309v-.03l1.179-4.683c.084-.39.267-.714.544-.967a1.34 1.34 0 0 1 .929-.378c.323 0 .559.107.714.334.152.219.206.502.152.84h-.002l.005-.006-.002.002ZM133.984 32.031l.513-1.997h-2.521l-.495 1.997h-1.234l-.323 1.285h1.24l-1.567 6.336c-.001.026-.016.07-.032.135a.839.839 0 0 0-.03.135c-.106.65.019 1.165.371 1.54.356.375.887.567 1.599.567h.883l.324-1.305c-.517-.051-.734-.35-.645-.9a.405.405 0 0 1 .028-.099c.009-.04.021-.06.021-.076l1.559-6.337h1.074l.323-1.285h-1.092.008l.001.006-.005-.002ZM132.307 14.435l-5.606-1.316 5.692-2.309 1.073 1.411-1.154 2.21h-.002l-.003.005ZM105.843 23.871v.008l.01-.008h-.01Z" clip-rule="evenodd"/><path fill="#EE2F28" fill-rule="evenodd" d="M140.081 12.022s-.714-1.774-.986-2.4c-.745-1.72-1.659-1.729-2.325-1.628-1.777.266-2.477.567-5.617 1.327-.462.117-1.335.354-1.807.175-1.256-.47-1.629-.825-2.236-.772-.944.086-2.896.956-5.028 2.459-.666.462-.604 1.031-.726 1.407a.132.132 0 0 0 .082.168.05.05 0 0 1 .026.007c.301.04 3.621.411 3.776.435a.147.147 0 0 1-.075-.13c0-.044.024-.091.07-.111.962-.495 4.452-2.258 6.555-3.043 2.875-1.075 3.567-1.18 4.432-1.243.203-.013.486.007.695.023a.42.42 0 0 1 .364.283c.365 1.176 1.458 3.84 2.044 4.727 0 0-.113.206-.319.21-.159 0-.479-.316-.676-.499a.131.131 0 0 0-.158-.013c-3.467 2.05-5.949 2.921-6.305 3.038a.145.145 0 0 1-.092-.002l-1.728-.697s.067-.055.235-.378a.455.455 0 0 0 .053-.22c-.007-.282-.272-.35-.392-.37-.462-.07-12.888-2.225-16.009-2.61-1.326-.166-2.605.49-3.166 1.197v.022l1.729 1.908a.13.13 0 0 0 .15.033l1.407-.614s.175.599 0 .698c-1.172.613-2.304 1.159-3.401 1.71-.441.22-.441.665-.598 1.278a4.344 4.344 0 0 0-.099.495s2.455-1.174 3.959-1.857a.132.132 0 0 1 .152.033c.206.235.277.288.414.438.048.055.048.14 0 .188a.145.145 0 0 1-.033.024c-.356.179-.721.363-1.002.527-.221.13-.009.577-.009.577l4.087-1.84s.245.256-.206.528c-.701.42-7.148 3.557-7.7 3.557-1.447 0-4.11-2.81-5.083-3.254-.824-.376-1.729.18-2.961.872-.334.192-.146.674-.146.674l1.78-.858s.211.26-.037.407c-.865.527-2.112 1.042-2.304 1.176-.281.195-.195 1.142-.195 1.142l1.683-.74c.051-.025.113-.014.137.008l3.49 3.522c.228-.052.453-.12.666-.21l-2.906-3.272c-.047-.054-.043-.142.009-.188a.101.101 0 0 1 .033-.021c.309-.15.674-.258 1.18.153.425.341 1.909 1.613 3.377 1.519.489-.031.492.12.492.12s-.628.287-1.372.677c-.369.196-.088.741-.088.741 3.808-1.47 8.501-3.31 9.156-3.581a.138.138 0 0 1 .135.022l1.074.9c.15.244 7.979-2.583 10.397-3.748.137-.066 1.353.022 1.939.031.27.008.256.124.256.124s-19.195 7.21-24.207 7.078a.88.88 0 0 0-.318.06l-.869.354c.588.41.429 1.097 1.455.59.055.142.126.294.195.452.124.294.621.302 1.484.026 3.673-1.16 20.173-5.723 23.877-7.17 2.092-.816 4.998-1.92 6.798-3.02 1.696-1.037 2.037-1.606 1.34-3.629h-.002v-.007l-.002.005Zm-15.766-.427c-.221.154-1.669-.153-1.669-.153s1.641-1.408 3.171-1.554c.455-.043 1.367.338 1.367.338s-2.068.816-2.869 1.37v.005h.002l-.002-.006Zm4.905-1.318-2.092 1.023s-.477-.309.073-.539c.139-.06.462-.235.721-.363a.19.19 0 0 0 .086-.252.178.178 0 0 0-.097-.091l-1.523-.661a1.177 1.177 0 0 1 1.056-.192c.22.075 1.144.495 1.752.77.186.084.141.256.024.31h-.002l.002-.005Zm.401 5.086c-.21.296-.695.849-1.385.717-.334-.067-14.039-3.216-14.074-3.22-.099-.029-.079-.237.097-.211l15.275 2.5a.137.137 0 0 1 .085.218l.002-.004Z" clip-rule="evenodd"/><path fill="#EE2F28" fill-rule="evenodd" d="M135.141 8.864s-.264 1.015-.673 2.182l-.688-.926-.577.252 1.015 1.364c-.344.898-.76 1.789-1.189 2.309l1.055-.46c.243-.22.446-.668.608-1.21l.559.752.582-.252-.944-1.274c.236-1.129.325-2.353.26-2.742M140.846 11.544l1.343-1.643a.361.361 0 0 0-.25-.59l-2.097-.134a.36.36 0 0 0-.349.502l.758 1.78a.35.35 0 0 0 .597.085h-.002Zm-.548-1.16a.155.155 0 0 1-.203-.08l-.248-.576a.157.157 0 0 1 .152-.22l1.666.034c.161.009.203.235.053.297l-1.422.546h-.002l.002-.002h.002ZM136.379.007c-.195.294-.279.665-.206.957.122.47.96 3.598 1.456 4.75l1.787 3.29a.675.675 0 0 1 .384-.121v-.008h.029l1.19.053-1.205-3.952c-.25-.849-.675-1.394-1.046-1.958-.671-1.008-1.34-2.016-2.015-3.022" clip-rule="evenodd"/><path fill="#EE2F28" fill-rule="evenodd" d="M136.664.42c.018.031 1.858 2.749 2.522 3.8.197.318-.033.477-.036.479l-.028.016-.018-.024c-.093-.12-2.256-2.953-2.543-3.48-.206-.395.037-.773.046-.79M144.874 19.87c-.093-.479-.743-3.651-1.172-4.832l-1.937-4.14-.657.84a.644.644 0 0 1-.507.251l.878 3.644c.199.863.591 1.437.925 2.02.606 1.048 1.222 2.096 1.833 3.14a.22.22 0 0 0 .371.019c.211-.283.319-.645.262-.946h.006-.002v.004Zm-.46.513-.031.038-.025-.04c-.017-.031-1.694-2.86-2.295-3.95-.183-.329.062-.471.068-.475l.027-.013.016.024c.084.128 2.079 3.089 2.331 3.627.187.403-.082.77-.093.787h.006l-.004.002Z" clip-rule="evenodd"/></g><path fill="#fff" d="M5.34 59C2.281 59 .472 57.215.472 54.473s1.81-4.527 4.866-4.527c3.056 0 4.92 1.785 4.92 4.527S8.474 59 5.339 59Zm0-2.362c1.783 0 2.296-.42 2.296-2.165s-.511-2.165-2.297-2.165c-1.785 0-2.243.42-2.243 2.165s.458 2.165 2.243 2.165Zm8.7 2.23h-2.467v-8.79h7.859v2.217h-5.393v1.313h5.196v2.203h-5.196v3.058Zm9.163 0h-2.466v-8.79h7.858v2.217h-5.392v1.313h5.195v2.203h-5.195v3.058Zm9.164 0H29.9v-8.79h2.466v8.79Zm6.166.132c-3.058 0-4.854-1.785-4.854-4.527s1.798-4.527 4.854-4.527 4.724 1.404 4.724 3.753v.223h-2.755v-.223c0-.997-.472-1.391-1.929-1.391-1.783 0-2.269.42-2.269 2.165s.486 2.165 2.269 2.165c1.457 0 1.93-.394 1.93-1.391v-.223h2.754v.223c0 2.347-1.77 3.753-4.724 3.753Zm8.495-.131h-2.466v-8.792h2.466v8.792Zm3.688 0h-2.77l3.792-8.792h3.529l3.804 8.792h-2.833l-.67-1.627h-4.173l-.683 1.627h.004Zm2.126-5.077-.51 1.234h2.334l-.511-1.234-.577-1.482h-.17l-.564 1.482h-.002Zm14.695 5.077h-7.545v-8.792h2.467v6.574h5.078v2.218Zm6.268 0H71.34v-8.792h4.867c2.086 0 3.399 1.194 3.399 3.28 0 2.087-1.313 3.294-3.4 3.294h-2.4v2.218Zm2.125-6.574h-2.125v2.14h2.125c.865 0 1.22-.17 1.22-1.076 0-.905-.355-1.062-1.22-1.062v-.002Zm7.097 6.574H80.26l3.791-8.792h3.529l3.804 8.792h-2.833l-.67-1.627h-4.173l-.682 1.627h.001Zm2.125-5.077-.51 1.234h2.334l-.511-1.234-.577-1.482h-.17l-.564 1.482h-.002Zm9.618 5.077h-2.466v-8.792h5.13c2.322 0 3.543.971 3.543 2.69 0 1.39-.696 2.217-2.375 2.427v.131c.905.236 1.194.67 1.522 1.338l1.09 2.206h-2.848l-1.05-2.152c-.315-.656-.576-.84-1.534-.84h-1.01v2.992h-.002Zm0-6.574v1.745h2.638c.721 0 .984-.131.984-.88 0-.695-.263-.865-.984-.865H94.77Zm12.871 6.574h-2.466v-6.574h-3.108v-2.218h8.672v2.218h-3.096v6.574h-.002Zm6.815 0h-2.467v-8.792h2.625l2.441 3.293 1.285 2.021h.17l-.119-1.915v-3.399h2.466v8.792h-2.625l-2.597-3.385-1.115-1.732h-.17l.106 1.68v3.437Zm15.656 0h-7.807v-8.792h7.807v2.218h-5.339v1.05h5.142v2.205h-5.142v1.103h5.339v2.218-.002Zm3.824 0h-2.466v-8.792h5.13c2.322 0 3.543.971 3.543 2.69 0 1.39-.696 2.217-2.375 2.427v.131c.905.236 1.194.67 1.522 1.338l1.09 2.206h-2.847l-1.05-2.152c-.316-.656-.577-.84-1.535-.84h-1.012v2.992Zm0-6.574v1.745h2.638c.721 0 .984-.131.984-.88 0-.695-.263-.865-.984-.865h-2.638ZM145.692 59c-2.689 0-4.33-.958-4.33-3.189v-.078h2.466v.275c0 .59.21.749 1.864.749 1.495 0 1.654-.119 1.654-.511 0-.315-.17-.446-.893-.539l-2.754-.367c-1.639-.223-2.466-1.103-2.466-2.519 0-1.417 1.089-2.873 4.264-2.873 2.795 0 4.133 1.22 4.133 3.189v.078h-2.467v-.197c0-.63-.275-.84-1.929-.84-1.26 0-1.535.17-1.535.552 0 .275.157.407.63.473l2.754.407c2.152.313 2.729 1.416 2.729 2.544 0 1.51-1.155 2.848-4.12 2.848V59Z"/><path fill="url(#c)" fill-opacity=".2" d="M5.34 59C2.281 59 .472 57.215.472 54.473s1.81-4.527 4.866-4.527c3.056 0 4.92 1.785 4.92 4.527S8.474 59 5.339 59Zm0-2.362c1.783 0 2.296-.42 2.296-2.165s-.511-2.165-2.297-2.165c-1.785 0-2.243.42-2.243 2.165s.458 2.165 2.243 2.165Zm8.7 2.23h-2.467v-8.79h7.859v2.217h-5.393v1.313h5.196v2.203h-5.196v3.058Zm9.163 0h-2.466v-8.79h7.858v2.217h-5.392v1.313h5.195v2.203h-5.195v3.058Zm9.164 0H29.9v-8.79h2.466v8.79Zm6.166.132c-3.058 0-4.854-1.785-4.854-4.527s1.798-4.527 4.854-4.527 4.724 1.404 4.724 3.753v.223h-2.755v-.223c0-.997-.472-1.391-1.929-1.391-1.783 0-2.269.42-2.269 2.165s.486 2.165 2.269 2.165c1.457 0 1.93-.394 1.93-1.391v-.223h2.754v.223c0 2.347-1.77 3.753-4.724 3.753Zm8.495-.131h-2.466v-8.792h2.466v8.792Zm3.688 0h-2.77l3.792-8.792h3.529l3.804 8.792h-2.833l-.67-1.627h-4.173l-.683 1.627h.004Zm2.126-5.077-.51 1.234h2.334l-.511-1.234-.577-1.482h-.17l-.564 1.482h-.002Zm14.695 5.077h-7.545v-8.792h2.467v6.574h5.078v2.218Zm6.268 0H71.34v-8.792h4.867c2.086 0 3.399 1.194 3.399 3.28 0 2.087-1.313 3.294-3.4 3.294h-2.4v2.218Zm2.125-6.574h-2.125v2.14h2.125c.865 0 1.22-.17 1.22-1.076 0-.905-.355-1.062-1.22-1.062v-.002Zm7.097 6.574H80.26l3.791-8.792h3.529l3.804 8.792h-2.833l-.67-1.627h-4.173l-.682 1.627h.001Zm2.125-5.077-.51 1.234h2.334l-.511-1.234-.577-1.482h-.17l-.564 1.482h-.002Zm9.618 5.077h-2.466v-8.792h5.13c2.322 0 3.543.971 3.543 2.69 0 1.39-.696 2.217-2.375 2.427v.131c.905.236 1.194.67 1.522 1.338l1.09 2.206h-2.848l-1.05-2.152c-.315-.656-.576-.84-1.534-.84h-1.01v2.992h-.002Zm0-6.574v1.745h2.638c.721 0 .984-.131.984-.88 0-.695-.263-.865-.984-.865H94.77Zm12.871 6.574h-2.466v-6.574h-3.108v-2.218h8.672v2.218h-3.096v6.574h-.002Zm6.815 0h-2.467v-8.792h2.625l2.441 3.293 1.285 2.021h.17l-.119-1.915v-3.399h2.466v8.792h-2.625l-2.597-3.385-1.115-1.732h-.17l.106 1.68v3.437Zm15.656 0h-7.807v-8.792h7.807v2.218h-5.339v1.05h5.142v2.205h-5.142v1.103h5.339v2.218-.002Zm3.824 0h-2.466v-8.792h5.13c2.322 0 3.543.971 3.543 2.69 0 1.39-.696 2.217-2.375 2.427v.131c.905.236 1.194.67 1.522 1.338l1.09 2.206h-2.847l-1.05-2.152c-.316-.656-.577-.84-1.535-.84h-1.012v2.992Zm0-6.574v1.745h2.638c.721 0 .984-.131.984-.88 0-.695-.263-.865-.984-.865h-2.638ZM145.692 59c-2.689 0-4.33-.958-4.33-3.189v-.078h2.466v.275c0 .59.21.749 1.864.749 1.495 0 1.654-.119 1.654-.511 0-.315-.17-.446-.893-.539l-2.754-.367c-1.639-.223-2.466-1.103-2.466-2.519 0-1.417 1.089-2.873 4.264-2.873 2.795 0 4.133 1.22 4.133 3.189v.078h-2.467v-.197c0-.63-.275-.84-1.929-.84-1.26 0-1.535.17-1.535.552 0 .275.157.407.63.473l2.754.407c2.152.313 2.729 1.416 2.729 2.544 0 1.51-1.155 2.848-4.12 2.848V59Z"/></g><defs><linearGradient id="c" x1="75.142" x2="75.142" y1="58.869" y2="50.106" gradientUnits="userSpaceOnUse"><stop stop-color="#696969"/><stop offset=".28" stop-color="#fff"/><stop offset=".7" stop-color="#fff"/><stop offset="1" stop-color="#B0B0B0"/></linearGradient><clipPath id="a"><path fill="#fff" d="M0 0h150v59H0z"/></clipPath></defs></svg>