<svg width="12" height="12" fill="none" xmlns="http://www.w3.org/2000/svg"><path d="M5.999 11.1274c-.087 0-.2204-.0307-.3537-.1025-2.8916-1.5842-3.9016-2.3071-3.9016-4.1426V3.0627c0-.5947.2307-.8151.7332-1.0202.5588-.2307 2.4455-.9126 2.9992-1.087.1641-.046.3538-.087.523-.087.1743 0 .364.0358.528.087.5486.1846 2.4405.8563 2.9993 1.087.5025.2102.7332.4255.7332 1.0202v3.8196c0 1.8355-.969 2.6301-3.9016 4.1426-.1333.0667-.2666.1025-.359.1025ZM5.43 8.3076c.1948 0 .3589-.0974.4717-.2717l2.4045-3.7427c.0718-.1128.1333-.241.1333-.3589 0-.2666-.2358-.446-.4922-.446-.159 0-.3025.0923-.4153.2666l-2.1174 3.394-.9895-1.256c-.1333-.1641-.2563-.2257-.4153-.2257-.2615 0-.4717.2154-.4717.4768 0 .1282.0462.2513.1385.364l1.256 1.5279c.1488.1897.3026.2717.4974.2717Z" fill="#A3A3A3"/></svg>