<svg xmlns="http://www.w3.org/2000/svg" xmlns:xlink="http://www.w3.org/1999/xlink" preserveAspectRatio="none" width="150" height="74"><defs><path fill="#E50539" d="m133.55 31.85-.5-.1-.2.15q-.6.25-.5.75.85 4.75 2 9.25.15.65 1.05.55l.25-.1q4.05-2.3 6.95-6.4.95-1.25-.4-1.9-3-1.4-8.65-2.2m.35 2.1q-.05-.15-.05-.3.1-.25.4-.35l.15-.05 2.55.45q2.65.6 3.5 1 .75.35.65.65L134.6 37l-.7-3.05m1.75 10.85h-.8l.6 11.25q.1 1.4.85 3.25.3 1.05 1.2 3.15l4.45 10.95q.15.5.55.55.5.1.85-.25 1.45-1.3 1.35-2.75-.6-11.55-1.65-16.5L139.1 42.3q-1.5 1.45-2.95 2.3l-.5.2m6.8 26.5-.05-.3q-3.85-8.75-5.35-13.45-.3-.9.1-1.4l.7-.4L143.3 68q.8 2.3-.7 3.05l-.15.25M129.35.45q-.15-.35-.55-.4-.4-.15-.7.15-1.55 1.65-1.45 3.45.45 10.55 1.6 16l3.75 10.4.7-.3.5-.05q1.5.15 3.55.75l-.85-11.6q-.2-2.75-2.1-7.15L129.35.45m-.4 1.6.1.15q3.15 7.9 4.8 13 .65 1.55-.55 1.95l-.15.1-.05-.25q-4.6-9.05-5.3-11.55-.55-1.9 1-3.3l.15-.1Z" id="a"/><path fill="#E50539" d="M90.75-2.25q-2.25.2-4.3.75l-1.3 4.4q-2.05-1.7-4.2-3.15L76.8.6l.4 1.25q2.05 1.25 5.8 3.9-.65 1.95-1.9 4.75l2.4-.4q-.1 1.05-.65 1.5-.4.25-1.5.55l-2.2.45q-.7.15-.95 1.2-.1.65-.05 1.15l8-2.05.35-5.45q1.25 1.15 3.55 4.2l3.6-1.15q-.45-.4-5.35-5.5 2.1-6.3 2.45-7.25m-32.15-7.8q-5.2 2.8-9.1 4.6-1.6.65-2.4 1.7-.35.35-1.05 1.6-.25.5.2.6l14.25 5.1q-.2-.3-.15-.5 0-.15.3-.25 12.5-4 20.8-5.6 7-1.25 10.4-1.6 2.4-.15 4.9.1l2.25.4q.9.35.95 1.2.5 3.2 1.7 7.85 1.25 4.9 2.25 7.15-.45.65-1.15.55-.45 0-1.95-2-.25-.1-.55-.1-23.4 7.95-58.1 14.05-38.95 6.8-53.7 3.4v.1l-5.8 2.65q.85.9 3.1 3.15 3.05 1.5 8.95-.55l.85 2q.3 1.1 1.1 1.25.7.15 3.75-.3 11.15-1.5 38.2-5.75 29.45-4.6 38.3-6.4 17.25-3.4 24.05-6 5.05-1.95 6.15-3.85 1.3-2.25.05-7.6Q105-2.9 104.7-4.05q-.85-2.15-2.6-2.95-1.25-.6-3.4-.65-3.7 0-7.3.3-5.5.6-10.9 1.1-4.7.5-8.6-1.75-3.9-2.3-4.55-2.65-1.95-.95-3.25-1.05-1.9-.2-5.5 1.65m2.5 8q-.25-1.1 1.4-1.5.3-.05 3.6-1.1.6-.2.6-.75.1-.55-.35-.8L61.9-9.1q2.2-1.2 4.6.05 3.2 1.65 5.8 3.45.55.4.45.85-.1.5-.55.6l-10.45 3q-.5-.45-.65-.9m-39.8-4.8q-6.4-2-12.35 2.25v.05l4.5 6.5q.2.3.45.2L20.85 0l.2.9q.05.9-.3 1.6-.3.6-1 .95l-4.55 1.5 1.45 2.4L21.9 5.6q.45 2.25-.5 2.7l-3.3 1.4 3.35 5.5-2.05.6Q10 18.7 8.55 18.45q-2.85-.5-8.6-6.4Q-5.8 5.6-7.3 4.5q-2.35-1.8-6.15-1.25Q-16.5 3.7-21.9 6q-1.6.65-1.75 3.5l6.3-1.8q.25 1.9-.7 2.2-3.2 1.15-5.65 1.85-.9.5-.8 3.05l2.9-.65q.25-.1.4.1l9.95 12.45q.75-.05 3.3-.6l-7.1-10.75q-.1-.2-.05-.4.15-.2.3-.3 1.95-.55 2.85-.6 2.3-.15 3.95 1.45 1.7 1.65 4.1 3.1 3.65 2.1 6.85 2.4 1.6.2 1.5.75l-2.2.7q-.8.2-.85 1.35.05.55.2 1.05l24-4.95q.2-.15.4.05l2.35 2.8q.4.65 1.15.55 4.35-.35 22.45-4.2 18.05-4 19.4-4.8.65-.45.95-2 .1-.95-1.15-1.4Q31.45-3.85 21.3-6.85Z" id="b"/></defs><use xlink:href="#a"/><use xlink:href="#b" transform="translate(24.5 34.75)"/></svg>