<svg xmlns="http://www.w3.org/2000/svg" width="24" height="24" fill="none"><path fill="#28A909" d="M6.521 15.294c-1.265 0-1.921-.65-1.921-1.898V7.829c0-1.254.656-1.904 1.921-1.904h7.999c1.26 0 1.921.65 1.921 1.904v.88h1.038c1.265 0 1.921.65 1.921 1.904v5.566c0 1.248-.656 1.898-1.921 1.898H9.48c-1.265 0-1.921-.644-1.921-1.898v-.885H6.52Zm.07-1.148h.968v-3.534c0-1.253.656-1.904 1.921-1.904h5.813v-.785c0-.568-.305-.85-.844-.85H6.592c-.545 0-.844.282-.844.85v5.373c0 .569.299.85.844.85Zm2.96 2.789h7.857c.54 0 .844-.287.844-.856v-5.367c0-.568-.305-.855-.844-.855H9.551c-.545 0-.844.287-.844.855v5.367c0 .569.299.856.844.856Zm1.224-3.54c0-.327.229-.556.557-.556h1.605v-1.605c0-.329.223-.551.54-.551.328 0 .556.223.556.55v1.606h1.612a.53.53 0 0 1 .55.557c0 .316-.228.539-.55.539h-1.612v1.611a.53.53 0 0 1-.556.55c-.317 0-.54-.228-.54-.55v-1.611h-1.605c-.328 0-.557-.223-.557-.54Z"/></svg>