<?xml version="1.0" encoding="UTF-8"?>
<!-- Generator: Adobe Illustrator 24.2.1, SVG Export Plug-In . SVG Version: 6.00 Build 0)  -->
<svg version="1.1" id="Слой_1" xmlns="http://www.w3.org/2000/svg" xmlns:xlink="http://www.w3.org/1999/xlink" x="0px" y="0px" viewBox="0 0 35 35" style="enable-background:new 0 0 35 35;" xml:space="preserve">
<style type="text/css">
	.st0{fill-rule:evenodd;clip-rule:evenodd;fill:#333333;}
</style>
<path class="st0" d="M0.1,19v-0.7h1.9v0.8c0,0.8,0.3,1.1,0.9,1.1h0c0.6,0,0.9-0.4,0.9-1.1c0-0.4-0.1-0.8-0.4-1.2  c-0.3-0.4-0.6-0.7-0.9-1l-0.9-1c-0.4-0.3-0.7-0.8-1-1.3s-0.4-1.1-0.4-1.7c0-0.9,0.3-1.7,0.7-2.2C1.3,10.3,2,10,2.9,10  c0.9,0,1.5,0.3,2,0.8c0.5,0.5,0.7,1.2,0.7,2.2v0.4H3.8v-0.5c0-0.8-0.3-1.1-0.9-1.1s-0.9,0.4-0.9,1.1c0,0.3,0.1,0.6,0.2,0.9  c0.1,0.3,0.3,0.6,0.5,0.8c0.2,0.2,0.5,0.5,0.7,0.7c0.3,0.2,0.5,0.5,0.8,0.7s0.5,0.5,0.7,0.8c0.2,0.3,0.4,0.6,0.5,1  c0.1,0.4,0.2,0.8,0.2,1.3c0,0.9-0.2,1.7-0.7,2.2c-0.5,0.5-1.1,0.8-2,0.8c-0.9,0-1.5-0.3-2-0.8C0.3,20.7,0.1,20,0.1,19L0.1,19z   M8.4,15.8h0.9c0.3,0,0.5-0.1,0.7-0.3c0.1-0.2,0.2-0.5,0.2-0.9v-1.8c0-0.4-0.1-0.7-0.2-0.9c-0.1-0.2-0.4-0.2-0.7-0.2H8.4V15.8  L8.4,15.8z M6.6,21.8V10.1h2.7c1.8,0,2.7,1,2.7,2.9v1.5c0,1.9-0.9,2.9-2.7,2.9H8.4v4.4H6.6z M14.8,15.4h0.7c0.4,0,0.6-0.1,0.8-0.3  c0.2-0.2,0.3-0.5,0.3-1V13c0-0.8-0.3-1.2-0.9-1.2h-0.9C14.8,11.8,14.8,15.4,14.8,15.4z M12.9,21.8V10.1h2.8c0.9,0,1.6,0.2,2.1,0.7  c0.4,0.4,0.7,1.1,0.7,2v0.9c0,1.2-0.4,2-1.2,2.4c0.8,0.3,1.2,1.2,1.2,2.5v1.9c0,0.6,0.1,1,0.2,1.3h-1.9c-0.1-0.3-0.2-0.8-0.2-1.4  v-1.8c0-0.5-0.1-0.9-0.3-1.1c-0.2-0.2-0.5-0.3-0.9-0.3h-0.6v4.8L12.9,21.8L12.9,21.8z M19.7,21.8h1.8V10.1h-1.8  C19.7,10.1,19.7,21.8,19.7,21.8z M24.7,20.1h1.1c0.3,0,0.6-0.1,0.7-0.3c0.2-0.2,0.2-0.5,0.2-0.9v-1c0-0.5-0.1-0.9-0.3-1.1  c-0.2-0.2-0.5-0.3-0.9-0.3h-0.8L24.7,20.1L24.7,20.1z M24.7,14.9h0.7c0.4,0,0.7-0.1,0.8-0.3c0.2-0.2,0.3-0.5,0.3-0.9V13  c0-0.8-0.3-1.2-0.9-1.2h-0.9L24.7,14.9L24.7,14.9z M22.8,21.8V10.1h2.8c1,0,1.6,0.2,2.1,0.7c0.4,0.4,0.7,1.1,0.7,2v0.4  c0,1.2-0.4,2-1.2,2.4c0.9,0.4,1.4,1.2,1.4,2.5v1c0,0.9-0.2,1.6-0.7,2.1s-1.2,0.7-2.1,0.7H22.8L22.8,21.8z M29.7,21.8V10.1h5v1.7  h-3.2v3.3H34v1.7h-2.5v3.4h3.2v1.7L29.7,21.8L29.7,21.8z M0,24.2h34.7v-1.6H0V24.2z"/>
</svg>