<svg xmlns="http://www.w3.org/2000/svg" width="24" height="24" fill="none"><path fill="#A3A3A3" d="M6.979 17.469c-1.266 0-1.922-.65-1.922-1.899V8.433c0-1.253.656-1.898 1.922-1.898h10.037c1.265 0 1.922.65 1.922 1.898v7.137c0 1.248-.657 1.899-1.922 1.899H6.979Zm.07-1.149h9.896c.54 0 .844-.281.844-.85V8.534c0-.568-.305-.855-.844-.855H7.05c-.545 0-.844.287-.844.855v6.938c0 .568.299.85.844.85Zm2.73-3.767c-.351 0-.603-.206-.603-.54 0-.345.24-.556.603-.556h4.448c.363 0 .597.21.597.556 0 .335-.246.54-.597.54H9.779Z"/></svg>