<svg xmlns="http://www.w3.org/2000/svg" width="16" height="16" fill="none"><path d="M3.6172 9.1822a1.1803 1.1803 0 0 1-1.1836-1.1836c0-.6563.5273-1.1836 1.1836-1.1836.6562 0 1.1836.5273 1.1836 1.1836a1.1803 1.1803 0 0 1-1.1836 1.1836Zm4.3828 0a1.1803 1.1803 0 0 1-1.1836-1.1836c0-.6563.5274-1.1836 1.1836-1.1836.6504 0 1.1836.5273 1.1836 1.1836S8.6504 9.1822 8 9.1822Zm4.377 0a1.1803 1.1803 0 0 1-1.1836-1.1836c0-.6563.5273-1.1836 1.1836-1.1836.6562 0 1.1835.5273 1.1835 1.1836a1.1803 1.1803 0 0 1-1.1835 1.1836Z" fill="#A3A3A3"/></svg>