<svg width="31" height="31" xmlns="http://www.w3.org/2000/svg"><g fill="#000" fill-rule="nonzero" opacity=".2"><path d="M22.436 7.8506c-.221-.6954-.7982-1.1928-1.506-1.298l-4.9401-.7338-2.2092-4.5758C13.464.5873 12.823.18 12.1077.18s-1.3564.4073-1.6731 1.063L8.2254 5.8188l-4.94.7338c-.708.1052-1.285.6025-1.5061 1.298-.221.6954-.0401 1.4446.4721 1.955l3.5747 3.5618-.8439 5.0295c-.1208.7208.1636 1.4355.7424 1.8653.327.243.7096.3662 1.0947.3662.2966 0 .5946-.073.87-.2211l4.4184-2.3746 4.4185 2.3746c.6331.3403 1.386.2848 1.9647-.145.5787-.43.8632-1.1446.7423-1.8655l-.8438-5.0295 3.5746-3.5617c.5121-.5104.693-1.2595.472-1.955Zm-5.6271 4.059c-.4398.4382-.6404 1.0693-.5365 1.688l.7782 4.638-4.0748-2.1898a1.8318 1.8318 0 0 0-.8681-.219c-.2982 0-.5964.073-.8683.219l-4.0747 2.19.7782-4.638c.1039-.6188-.0967-1.2499-.5365-1.6882L4.1099 8.625l4.5557-.6767c.6079-.0904 1.133-.4804 1.4047-1.0434l2.0374-4.2198 2.0374 4.2198c.2717.563.797.953 1.4048 1.0434l4.5557.6767-3.2967 3.2847ZM5.6587 23.0975c-.1747-.5495-.631-.9426-1.1904-1.0257L2.202 21.735l-1.0136-2.0993c-.2503-.5183-.7569-.8403-1.3223-.8403-.5655 0-1.0722.322-1.3224.8403l-1.0135 2.0993-2.2664.3367c-.5595.0831-1.0157.4761-1.1904 1.0258-.1748.5496-.0318 1.1418.373 1.5453l1.64 1.634-.3871 2.3074c-.0957.5696.1291 1.1346.5865 1.4743.4574.3397 1.0525.3837 1.553.1148l2.0272-1.0895 2.0272 1.0895c.2177.117.4532.1748.6876.1747.3044 0 .6069-.0976.8654-.2895.4574-.3399.6822-.9047.5865-1.4743l-.3872-2.3074 1.64-1.6342c.405-.4033.548-.9955.3733-1.5452Zm-3.7405 1.868c-.3478.3465-.5064.8454-.4242 1.3344l.2222 1.325-1.164-.6256a1.4476 1.4476 0 0 0-.6861-.1731c-.2356 0-.4713.0576-.6862.173l-1.164.6257.2223-1.3248c.0822-.4892-.0765-.9881-.424-1.3343l-.9418-.9384 1.3014-.1933c.4804-.0713.8955-.3796 1.1104-.8246l.582-1.2055.5821 1.2058c.215.4449.63.753 1.1102.8243l1.3014.1933-.9417.9382ZM30.1343 23.0976c-.1747-.5497-.6308-.9427-1.1903-1.0258l-2.2665-.3367-1.0136-2.0993c-.2502-.5183-.7569-.8403-1.3223-.8403-.5655 0-1.0722.322-1.3224.8403l-1.0136 2.0993-2.2663.3367c-.5596.0831-1.0158.4761-1.1905 1.0258-.1747.5496-.0318 1.1418.3731 1.5453l1.64 1.634-.3872 2.3074c-.0956.5696.1292 1.1346.5865 1.4743.4575.3397 1.0524.3837 1.553.1148l2.0272-1.0895 2.0272 1.0895c.2177.117.4533.1748.6876.1747.3045 0 .607-.0976.8655-.2895.4574-.3399.6821-.9047.5864-1.4743l-.3872-2.3074 1.64-1.6342c.4051-.4033.5481-.9954.3734-1.545Zm-3.7405 1.868c-.3478.3464-.5064.8453-.4242 1.3343l.2222 1.325-1.164-.6256a1.4476 1.4476 0 0 0-.686-.1731c-.2357 0-.4714.0576-.6863.173l-1.164.6257.2223-1.3248c.0822-.4892-.0765-.9881-.424-1.3343l-.9418-.9384 1.3012-.1933c.4803-.0713.8955-.3794 1.1106-.8246l.582-1.2055.582 1.2054c.2147.445.6299.7534 1.1103.8247l1.3014.1933-.9417.9382Z"/></g></svg>