<svg width="26" height="35" viewBox="0 0 26 35" fill="none"
    xmlns="http://www.w3.org/2000/svg">
    <path fill-rule="evenodd" clip-rule="evenodd" d="M0 22.3844C0 28.6643 4.52153 33.9115 10.4944 35.0279C4.99601 30.4506 4.63317 23.8357 11.3038 15.1276C10.8852 17.2209 10.634 22.3286 12.0295 25.5383C13.0343 27.827 14.7927 28.8317 15.8812 28.2735C16.7185 27.827 17.2488 26.4035 16.2161 24.1707C22.2169 26.4593 19.8166 32.3764 16.8301 34.6372C21.9936 32.9625 25.7337 28.134 25.7337 22.4123C25.7337 21.1005 25.5941 19.9282 25.2592 18.8397C24.673 16.9697 23.5008 14.988 22.0494 13.7321C21.3238 16.8301 18.2257 17.3884 17.5558 15.0439C17.193 13.76 17.9745 11.9737 18.1699 10.6061C18.8676 5.38676 15.5742 2.12121 11.4434 0C14.4298 6.50319 0 12.6994 0 22.3844Z" fill="#97999C" />
</svg>
