<svg width="13" height="15" viewBox="0 0 13 15" fill="none" xmlns="http://www.w3.org/2000/svg">
<g clip-path="url(#clip0_701_376)">
<path d="M6.5 3L4.33494 6.90043e-08L8.66506 4.47556e-07L6.5 3Z" fill="#95979A"/>
<path fill-rule="evenodd" clip-rule="evenodd" d="M2.8888 13.9046C3.95772 14.6188 5.21442 15 6.5 15C8.22331 14.9981 9.87548 14.3126 11.094 13.094C12.3126 11.8755 12.9981 10.2233 13 8.5C13 7.21442 12.6188 5.95772 11.9046 4.8888C11.1903 3.81988 10.1752 2.98676 8.98744 2.49479C7.79972 2.00282 6.49279 1.87409 5.23192 2.1249C3.97104 2.3757 2.81285 2.99477 1.90381 3.90381C0.994767 4.81285 0.375702 5.97104 0.124898 7.23192C-0.125906 8.49279 0.00281605 9.79973 0.494786 10.9874C0.986755 12.1752 1.81988 13.1903 2.8888 13.9046ZM6.03234 2.23411C5.68628 2.25995 5.45798 2.58916 5.51823 2.93091C5.57849 3.27266 5.90474 3.49668 6.25134 3.4795C6.41762 3.47125 6.58421 3.47128 6.7505 3.47957C7.09709 3.49684 7.4234 3.27292 7.48375 2.93119C7.54411 2.58946 7.31589 2.26018 6.96984 2.23424C6.65778 2.21085 6.34441 2.21081 6.03234 2.23411ZM12.0693 7.51802C12.4111 7.45776 12.7403 7.68606 12.7661 8.03212C12.7894 8.34419 12.7894 8.65756 12.766 8.96963C12.74 9.31567 12.4108 9.54389 12.069 9.48353C11.7273 9.42318 11.5034 9.09687 11.5206 8.75028C11.5289 8.584 11.529 8.4174 11.5207 8.25112C11.5035 7.90452 11.7276 7.57828 12.0693 7.51802ZM6.96766 14.7659C7.31372 14.74 7.54203 14.4108 7.48177 14.0691C7.42151 13.7273 7.09526 13.5033 6.74867 13.5205C6.58238 13.5287 6.41579 13.5287 6.2495 13.5204C5.90291 13.5032 5.5766 13.7271 5.51625 14.0688C5.45589 14.4105 5.68411 14.7398 6.03016 14.7658C6.34222 14.7891 6.6556 14.7892 6.96766 14.7659ZM0.9307 9.48198C0.588953 9.54224 0.259739 9.31393 0.233899 8.96787C0.210597 8.65581 0.210641 8.34243 0.23403 8.03037C0.259967 7.68432 0.589245 7.45611 0.930976 7.51646C1.27271 7.57682 1.49663 7.90313 1.47936 8.24971C1.47107 8.416 1.47104 8.58259 1.47929 8.74888C1.49647 9.09547 1.27245 9.42172 0.9307 9.48198ZM1.73851 4.40019C1.51208 4.66316 1.58344 5.05739 1.8677 5.25643C2.15196 5.45547 2.54106 5.38318 2.77399 5.12596C2.88574 5.00255 3.00355 4.88476 3.127 4.77304C3.38429 4.54019 3.45668 4.15111 3.25772 3.86679C3.05876 3.58248 2.66455 3.51101 2.40152 3.73737C2.16432 3.94149 1.9427 4.16305 1.73851 4.40019ZM9.74337 3.86769C9.94241 3.58343 10.3366 3.51208 10.5996 3.73851C10.8367 3.94269 11.0583 4.16432 11.2624 4.40152C11.4888 4.66455 11.4173 5.05876 11.133 5.25772C10.8487 5.45668 10.4596 5.38429 10.2267 5.12699C10.115 5.00355 9.99725 4.88574 9.87384 4.77398C9.61661 4.54105 9.54432 4.15195 9.74337 3.86769ZM11.2615 12.5998C11.4879 12.3368 11.4166 11.9426 11.1323 11.7436C10.848 11.5445 10.4589 11.6168 10.226 11.874C10.1143 11.9975 9.99645 12.1152 9.87301 12.227C9.61571 12.4598 9.54332 12.8489 9.74228 13.1332C9.94124 13.4175 10.3355 13.489 10.5985 13.2626C10.8357 13.0585 11.0573 12.8369 11.2615 12.5998ZM3.25668 13.1323C3.05764 13.4166 2.66341 13.4879 2.40044 13.2615C2.1633 13.0573 1.94174 12.8357 1.73762 12.5985C1.51126 12.3354 1.58273 11.9412 1.86704 11.7423C2.15136 11.5433 2.54044 11.6157 2.7733 11.873C2.88501 11.9964 3.0028 12.1143 3.12621 12.226C3.38344 12.4589 3.45572 12.848 3.25668 13.1323ZM3 8.5C3 8.22386 3.22386 8 3.5 8L5.08535 8C5.236 7.57379 5.5738 7.23599 6 7.08535L6 5.5C6 5.22386 6.22386 5 6.5 5C6.77614 5 7 5.22386 7 5.5L7 7.08535C7.42621 7.23599 7.76401 7.57379 7.91465 8L9.5 8C9.77614 8 10 8.22386 10 8.5C10 8.77614 9.77614 9 9.5 9L7.91465 9C7.76401 9.4262 7.42621 9.764 7 9.91465L7 11.5C7 11.7761 6.77614 12 6.5 12C6.22386 12 6 11.7761 6 11.5L6 9.91464C5.57379 9.764 5.236 9.4262 5.08535 9L3.5 9C3.22386 9 3 8.77614 3 8.5Z" fill="#95979A"/>
</g>
<defs>
<clipPath id="clip0_701_376">
<rect width="13" height="15" fill="white"/>
</clipPath>
</defs>
</svg>
