<svg width="12" height="11" viewBox="0 0 12 11" fill="none"
    xmlns="http://www.w3.org/2000/svg">
    <path d="M10.6987 6.00873C11.7293 2.75546 10.5983 0 10.2052 0C10.0437 0 9.64629 0.484716 9.45851 0.641921C8.53275 1.42795 7.84716 2.31004 7.65502 2.56769C7.62445 2.60699 7.56768 2.61572 7.52838 2.58515C5.89956 1.33624 3.67685 2.23581 3.29257 2.41048C3.25764 2.42795 3.21834 2.41485 3.1965 2.38428C2.91703 2.02183 1.22707 -0.152838 0.803492 0.00873363C0.344976 0.183406 0.152837 1.70742 0.152837 1.70742C-0.292578 4.72489 0.375544 5.31004 0.375544 6.00873C0.375544 6.70742 0.580784 6.72489 0.580784 6.72489C0.580784 6.72489 0.393011 7.42358 0.218339 7.97817C0.0436664 8.53275 0.218339 8.42358 0.807859 9.40611C1.39738 10.3886 3.31878 10.9301 3.31878 10.9301C3.31878 10.9301 5.79476 10.9476 7.09607 10.9956C8.39738 11.0437 9.11354 10.4061 9.74672 10.0742C10.3799 9.74236 10.5721 8.9607 10.5721 8.9607C11.2707 8.21397 10.524 6.75546 10.524 6.75546C10.8559 6.37555 10.6987 6.00873 10.6987 6.00873ZM5.48908 7.28821C5.48908 7.28821 6.19651 7.19651 6.10044 7.52402C6.00873 7.85153 5.48908 7.89956 5.48908 7.89956L5.02183 7.58952C4.93013 7.18341 5.48908 7.28821 5.48908 7.28821ZM4.30568 5.50218C4.26201 6.39301 4.28384 8.12664 2.55022 7.80786C2.55022 7.80786 1.131 7.23581 1.82969 5.31004C2.52402 3.38428 4.34498 4.61135 4.30568 5.50218ZM5.9607 9.49345C5.83843 9.60699 5.67685 9.66812 5.51528 9.66812C5.40175 9.66812 5.28384 9.63756 5.1834 9.57642C5.12227 9.54149 5.1048 9.45852 5.13974 9.39738C5.17467 9.33624 5.25764 9.31878 5.31878 9.35371C5.45851 9.44105 5.66812 9.41922 5.78603 9.30568C5.83843 9.25764 5.9214 9.25764 5.96943 9.31004C6.0131 9.36245 6.0131 9.44542 5.9607 9.49345ZM6.47161 8.9607C6.40175 9.03493 6.30568 9.06987 6.20961 9.06987C6.05677 9.0655 5.9607 8.99127 5.89956 8.94323C5.88646 8.9345 5.87336 8.9214 5.86026 8.91266C5.78166 8.86026 5.72926 8.80786 5.68559 8.75983C5.65502 8.72489 5.62445 8.69869 5.58952 8.67249C5.54585 8.70742 5.50218 8.75983 5.45415 8.81659C5.37554 8.9083 5.29694 9.00437 5.1834 9.05677C5.12227 9.08734 5.0524 9.10044 4.9869 9.10044C4.89083 9.10044 4.79039 9.06987 4.71179 9.00873C4.57642 8.9083 4.50655 8.73362 4.53275 8.56769C4.54585 8.49782 4.61135 8.44978 4.68122 8.45852C4.75109 8.47162 4.79913 8.53712 4.79039 8.60699C4.77729 8.67686 4.81223 8.75546 4.86899 8.79913C4.92576 8.8428 5.0131 8.85153 5.07423 8.82096C5.13537 8.79039 5.19651 8.72052 5.25764 8.64629C5.33624 8.55022 5.42358 8.45415 5.53712 8.40175L5.59389 8.37555L5.65065 8.40611C5.75546 8.46288 5.81223 8.52402 5.86899 8.57642C5.9083 8.61572 5.9476 8.65502 6.00437 8.69432C6.02183 8.70742 6.0393 8.72052 6.05677 8.73363C6.10917 8.77293 6.14847 8.80349 6.21834 8.80786C6.22707 8.80786 6.25764 8.80786 6.28821 8.77729C6.32314 8.74236 6.34061 8.68559 6.34061 8.63756C6.33624 8.56769 6.39301 8.50655 6.46288 8.50218C6.53275 8.49782 6.59389 8.55459 6.59825 8.62445C6.60262 8.74673 6.55458 8.87336 6.47161 8.9607ZM8.43668 7.81223C6.69869 8.131 6.72052 6.39301 6.68122 5.50655C6.64192 4.62009 8.45851 3.38865 9.1572 5.31441C9.85589 7.24017 8.43668 7.81223 8.43668 7.81223Z" fill="#97999C"/>
</svg>
