<svg width="12" height="10" fill="none" xmlns="http://www.w3.org/2000/svg"><path d="M4.653 0H.423C.189 0 0 .171 0 .385v3.847c0 .211.188.385.424.385h4.232c.233 0 .424-.171.424-.385V.385C5.077.171 4.889 0 4.653 0ZM10.579 0H6.347c-.233 0-.424.171-.424.385v3.847c0 .211.188.385.424.385h4.232c.233 0 .424-.171.424-.385V.385C11 .171 10.812 0 10.579 0ZM4.653 5.383H.423c-.235 0-.423.174-.423.386v3.846c0 .212.188.385.424.385h4.232c.233 0 .424-.171.424-.385V5.769c-.003-.212-.191-.386-.427-.386ZM10.579 5.383H6.347c-.233 0-.424.172-.424.386v3.846c0 .212.188.385.424.385h4.232c.233 0 .424-.171.424-.385V5.769c-.003-.212-.191-.386-.424-.386Z" fill="#D1764B"/></svg>