<svg width="160" height="56" fill="none" xmlns="http://www.w3.org/2000/svg"><g filter="url('#filter0_dii')"><path d="m37.832 22.048-1.395 1.708c2.247 3.997 2.712 8.925.775 13.466-3.255 7.722-12.204 11.37-19.914 8.11-7.71-3.26-11.351-12.185-8.097-19.946 3.06-7.296 11.12-10.944 18.558-8.616l2.13-1.901s1.976.543 4.069 2.057a13.18 13.18 0 0 0 1.24-2.173c.658-1.63.93-3.415.697-5.2l-.04-.04c-.077-.737.466-1.435 1.202-1.513.775-.078 1.433.466 1.51 1.164.31 2.29 0 4.58-.89 6.636-.426 1.087-1.046 2.096-1.744 2.988.775.893 1.434 1.98 1.899 3.26Z" fill="url('#paint0_linear')"/></g><path d="M75.45 16.474v27.774h-6.348V28.1L61.92 39.883h-.714L54.025 28.1v16.148h-6.349V16.474h6.349l7.538 12.34 7.539-12.34h6.348ZM80.224 16.474h6.348v27.774h-6.348V16.474ZM106.818 16.474h6.348v27.774h-4.761L97.692 29.171v15.077h-6.348V16.474h4.761l10.713 15.078V16.474ZM124.272 38.138h11.11v6.11h-17.458V16.474h17.259v6.11h-10.911v4.603h9.919v6.03h-9.919v4.92ZM148.684 44.803c-2.83 0-5.197-.608-7.102-1.825-1.878-1.243-3.214-2.922-4.007-5.039l5.475-3.174c1.111 2.566 3.055 3.849 5.833 3.849 2.512 0 3.769-.754 3.769-2.262 0-.82-.41-1.454-1.23-1.904-.794-.476-2.301-1.019-4.523-1.627-1.164-.317-2.183-.674-3.055-1.071a13.865 13.865 0 0 1-2.579-1.547 6.719 6.719 0 0 1-1.905-2.46c-.423-.98-.635-2.103-.635-3.373 0-2.566.913-4.616 2.738-6.15 1.852-1.534 4.047-2.301 6.586-2.301 2.275 0 4.285.542 6.031 1.627 1.746 1.058 3.121 2.605 4.127 4.642l-5.357 3.134c-.502-1.058-1.124-1.851-1.865-2.38-.74-.556-1.719-.834-2.936-.834-.952 0-1.693.212-2.222.635-.502.397-.753.886-.753 1.468 0 .688.317 1.283.952 1.786.661.502 2.01 1.058 4.047 1.666 1.111.344 1.97.622 2.579.833.608.212 1.375.57 2.301 1.072.952.476 1.666.992 2.143 1.547.502.53.939 1.243 1.309 2.143.397.872.595 1.878.595 3.015 0 2.645-.952 4.735-2.857 6.269-1.904 1.508-4.391 2.261-7.459 2.261Z" fill="#000"/><path d="M75.45 16.474v27.774h-6.348V28.1L61.92 39.883h-.714L54.025 28.1v16.148h-6.349V16.474h6.349l7.538 12.34 7.539-12.34h6.348Z" stroke="url('#paint1_linear')" stroke-linejoin="round"/><path d="M80.224 16.474h6.348v27.774h-6.348V16.474Z" stroke="url('#paint2_linear')" stroke-linejoin="round"/><path d="M106.818 16.474h6.348v27.774h-4.761L97.692 29.171v15.077h-6.348V16.474h4.761l10.713 15.078V16.474Z" stroke="url('#paint3_linear')" stroke-linejoin="round"/><path d="M124.272 38.138h11.11v6.11h-17.458V16.474h17.259v6.11h-10.911v4.603h9.919v6.03h-9.919v4.92Z" stroke="url('#paint4_linear')" stroke-linejoin="round"/><path d="M148.684 44.803c-2.83 0-5.197-.608-7.102-1.825-1.878-1.243-3.214-2.922-4.007-5.039l5.475-3.174c1.111 2.566 3.055 3.849 5.833 3.849 2.512 0 3.769-.754 3.769-2.262 0-.82-.41-1.454-1.23-1.904-.794-.476-2.301-1.019-4.523-1.627-1.164-.317-2.183-.674-3.055-1.071a13.865 13.865 0 0 1-2.579-1.547 6.719 6.719 0 0 1-1.905-2.46c-.423-.98-.635-2.103-.635-3.373 0-2.566.913-4.616 2.738-6.15 1.852-1.534 4.047-2.301 6.586-2.301 2.275 0 4.285.542 6.031 1.627 1.746 1.058 3.121 2.605 4.127 4.642l-5.357 3.134c-.502-1.058-1.124-1.851-1.865-2.38-.74-.556-1.719-.834-2.936-.834-.952 0-1.693.212-2.222.635-.502.397-.753.886-.753 1.468 0 .688.317 1.283.952 1.786.661.502 2.01 1.058 4.047 1.666 1.111.344 1.97.622 2.579.833.608.212 1.375.57 2.301 1.072.952.476 1.666.992 2.143 1.547.502.53.939 1.243 1.309 2.143.397.872.595 1.878.595 3.015 0 2.645-.952 4.735-2.857 6.269-1.904 1.508-4.391 2.261-7.459 2.261Z" stroke="url('#paint5_linear')" stroke-linejoin="round"/><defs><linearGradient id="paint0_linear" x1="2" y1="47" x2="30.484" y2="9.953" gradientUnits="userSpaceOnUse"><stop stop-color="#F5F922"/><stop offset="1" stop-color="#FF0B19"/></linearGradient><linearGradient id="paint1_linear" x1="43.819" y1="48.983" x2="158.991" y2="15.919" gradientUnits="userSpaceOnUse"><stop stop-color="#F9CB22"/><stop offset="1" stop-color="#ED0424"/></linearGradient><linearGradient id="paint2_linear" x1="43.819" y1="48.983" x2="158.991" y2="15.919" gradientUnits="userSpaceOnUse"><stop stop-color="#F9CB22"/><stop offset="1" stop-color="#ED0424"/></linearGradient><linearGradient id="paint3_linear" x1="43.819" y1="48.983" x2="158.991" y2="15.919" gradientUnits="userSpaceOnUse"><stop stop-color="#F9CB22"/><stop offset="1" stop-color="#ED0424"/></linearGradient><linearGradient id="paint4_linear" x1="43.819" y1="48.983" x2="158.991" y2="15.919" gradientUnits="userSpaceOnUse"><stop stop-color="#F9CB22"/><stop offset="1" stop-color="#ED0424"/></linearGradient><linearGradient id="paint5_linear" x1="43.819" y1="48.983" x2="158.991" y2="15.919" gradientUnits="userSpaceOnUse"><stop stop-color="#F9CB22"/><stop offset="1" stop-color="#ED0424"/></linearGradient><filter id="filter0_dii" x=".009" y=".993" width="46.676" height="54.534" filterUnits="userSpaceOnUse" color-interpolation-filters="sRGB"><feFlood flood-opacity="0" result="BackgroundImageFix"/><feColorMatrix in="SourceAlpha" values="0 0 0 0 0 0 0 0 0 0 0 0 0 0 0 0 0 0 127 0" result="hardAlpha"/><feOffset dy="1"/><feGaussianBlur stdDeviation="4"/><feColorMatrix values="0 0 0 0 0.954167 0 0 0 0 0.49076 0 0 0 0 0.461181 0 0 0 0.56 0"/><feBlend mode="color-burn" in2="BackgroundImageFix" result="effect1_dropShadow"/><feBlend in="SourceGraphic" in2="effect1_dropShadow" result="shape"/><feColorMatrix in="SourceAlpha" values="0 0 0 0 0 0 0 0 0 0 0 0 0 0 0 0 0 0 127 0" result="hardAlpha"/><feOffset dx="-1" dy="-1"/><feGaussianBlur stdDeviation=".5"/><feComposite in2="hardAlpha" operator="arithmetic" k2="-1" k3="1"/><feColorMatrix values="0 0 0 0 0 0 0 0 0 0 0 0 0 0 0 0 0 0 0.4 0"/><feBlend mode="multiply" in2="shape" result="effect2_innerShadow"/><feColorMatrix in="SourceAlpha" values="0 0 0 0 0 0 0 0 0 0 0 0 0 0 0 0 0 0 127 0" result="hardAlpha"/><feOffset dx="1"/><feGaussianBlur stdDeviation=".5"/><feComposite in2="hardAlpha" operator="arithmetic" k2="-1" k3="1"/><feColorMatrix values="0 0 0 0 1 0 0 0 0 0.916667 0 0 0 0 0.916667 0 0 0 0.15 0"/><feBlend mode="luminosity" in2="effect2_innerShadow" result="effect3_innerShadow"/></filter></defs></svg>