<svg width="82" height="72" fill="none" xmlns="http://www.w3.org/2000/svg"><path d="M56.506 22.564H25.145l15.68 26.325 15.681-26.325Z" fill="url('#paint0_radial')"/><path d="M56.506 22.564H25.145l15.68-19.848 15.681 19.848Z" fill="url('#paint1_radial')"/><path d="m73.442 18.177-16.936 4.387-15.68 26.325 32.616-30.713Z" fill="url('#paint2_radial')"/><path d="m73.442 18.177-16.936 4.387 1.255-20.266 15.68 15.879Z" fill="url('#paint3_linear')"/><path d="m8 18.177 17.145 4.387L23.68 2.298 8.001 18.177Z" fill="url('#paint4_linear')"/><path d="M56.506 22.669 40.826 2.82l17.04-.523-1.36 20.37Z" fill="url('#paint5_radial')"/><path d="M25.04 22.878 40.72 2.82l-17.039-.523 1.359 20.58Z" fill="url('#paint6_radial')"/><path d="m8.209 18.177 16.935 4.387 15.681 26.325L8.21 18.176Z" fill="url('#paint7_radial')"/><path d="m61.918 1.264-4.157 1.034 15.576 15.774L61.918 1.264Z" fill="url('#paint8_radial')"/><path d="m19.563 1.242 4.157 1.034L8.143 18.05l11.42-16.808Z" fill="url('#paint9_linear')"/><path d="M27.235 0 19.71 1.254l3.972 1.253 17.144.418 16.831-.418 4.077-1.253L54.207 0H27.234Z" fill="url('#paint10_linear')"/><ellipse cx="41" cy="59.5" rx="41" ry="12.5" fill="url('#paint11_radial')"/><ellipse cx="41.5" cy="57.5" rx="11.5" ry="3.5" fill="url('#paint12_radial')"/><defs><radialGradient id="paint0_radial" cx="0" cy="0" r="1" gradientUnits="userSpaceOnUse" gradientTransform="rotate(85.233 -1.5 42.347) scale(20.1266 18.1997)"><stop stop-color="#45D7F7"/><stop offset="1" stop-color="#1A82C7"/></radialGradient><radialGradient id="paint1_radial" cx="0" cy="0" r="1" gradientUnits="userSpaceOnUse" gradientTransform="matrix(5.72144 -12.53565 19.7122 8.99691 35.104 17.55)"><stop stop-color="#63E6FC"/><stop offset="1" stop-color="#42ADDB"/></radialGradient><radialGradient id="paint2_radial" cx="0" cy="0" r="1" gradientUnits="userSpaceOnUse" gradientTransform="rotate(-48.925 66.847 -37.89) scale(17.1832 17.5333)"><stop stop-color="#44C5EE"/><stop offset="1" stop-color="#2984C1"/></radialGradient><radialGradient id="paint5_radial" cx="0" cy="0" r="1" gradientUnits="userSpaceOnUse" gradientTransform="matrix(10.45395 -10.8642 18.7037 17.9974 48.561 12.118)"><stop stop-color="#52DFFB"/><stop offset="1" stop-color="#2294D4"/></radialGradient><radialGradient id="paint6_radial" cx="0" cy="0" r="1" gradientUnits="userSpaceOnUse" gradientTransform="matrix(-.83632 20.6838 -35.63378 -1.4408 27.026 2.298)"><stop stop-color="#A5CEE7"/><stop offset="1" stop-color="#B3E2F8"/></radialGradient><radialGradient id="paint7_radial" cx="0" cy="0" r="1" gradientUnits="userSpaceOnUse" gradientTransform="matrix(-11.2902 -10.44643 10.65758 -11.5184 28.28 35.726)"><stop stop-color="#3CAADB"/><stop offset="1" stop-color="#3385BA"/></radialGradient><radialGradient id="paint8_radial" cx="0" cy="0" r="1" gradientUnits="userSpaceOnUse" gradientTransform="matrix(11.49938 1.25357 -1.11601 10.23755 57.76 5.641)"><stop stop-color="#43CEF2"/><stop offset="1" stop-color="#2F83B9"/></radialGradient><radialGradient id="paint11_radial" cx="0" cy="0" r="1" gradientUnits="userSpaceOnUse" gradientTransform="matrix(0 12.5 -41 0 41 59.5)"><stop stop-color="#10C2FB" stop-opacity=".85"/><stop offset="1" stop-color="#16191C" stop-opacity="0"/></radialGradient><radialGradient id="paint12_radial" cx="0" cy="0" r="1" gradientUnits="userSpaceOnUse" gradientTransform="matrix(0 3.5 -11.5 0 41.5 57.5)"><stop stop-color="#19181C"/><stop offset="1" stop-color="#181B1E" stop-opacity="0"/></radialGradient><linearGradient id="paint3_linear" x1="67.797" y1="13.789" x2="56.507" y2="16.091" gradientUnits="userSpaceOnUse"><stop stop-color="#197BC3"/><stop offset="1" stop-color="#45D7F7"/></linearGradient><linearGradient id="paint4_linear" x1="30.79" y1="8.984" x2="8.007" y2="20.279" gradientUnits="userSpaceOnUse"><stop offset=".342" stop-color="#8DCEF1"/><stop offset="1" stop-color="#4A7FB8"/></linearGradient><linearGradient id="paint9_linear" x1="18.245" y1="9.611" x2="12.813" y2="3.757" gradientUnits="userSpaceOnUse"><stop stop-color="#B5DBF0"/><stop offset="1" stop-color="#87B7D2"/></linearGradient><linearGradient id="paint10_linear" x1="19.918" y1=".209" x2="55.252" y2="1.674" gradientUnits="userSpaceOnUse"><stop stop-color="#BCD5E5"/><stop offset="1" stop-color="#8CBAD5"/></linearGradient></defs></svg>