<svg width="123" height="39" viewBox="0 0 123 39" fill="none" xmlns="http://www.w3.org/2000/svg">
<mask id="mask0_4053_5001" style="mask-type:luminance" maskUnits="userSpaceOnUse" x="0" y="0" width="123" height="39">
<path d="M123 0H0V39H123V0Z" fill="white"/>
</mask>
<g mask="url(#mask0_4053_5001)">
<path d="M32.6706 0.59082L38.817 4.44365L40.6802 4.43512C42.5194 4.43512 43.6535 4.44349 45.4621 5.00661C46.5097 5.33278 47.1787 5.7772 47.6998 6.3996C48.2449 7.05058 48.3285 7.73862 48.3413 7.94093H48.3434L48.3432 7.98017C48.3436 7.99321 48.3436 8.00006 48.3436 8.00006C48.3409 8.31914 48.321 9.85882 48.1901 10.8751C47.9195 12.9785 44.2454 26.6124 43.4389 28.2727C43.2794 28.601 43.1398 28.9091 43.0074 29.2016C42.4699 30.3881 42.0498 31.3157 40.8945 32.2738C40.2367 32.8194 39.8073 33.0695 39.0247 33.4296C38.2283 33.7962 37.7405 33.9579 36.8792 34.1409C36.0272 34.3373 35.5412 34.4226 34.672 34.5268C33.7671 34.6352 32.3423 34.675 32.3423 34.675H32.1784L26.2276 38.4088L20.304 34.675H7.88059C6.04139 34.675 4.9072 34.6749 3.09864 34.1118C2.05106 33.7856 1.38202 33.3412 0.860913 32.7189C0.212849 31.9448 0.15625 31.1184 0.15625 31.1184H21.7974L25.7483 19.3225L29.3075 31.1184H37.9009L37.9211 31.0586L40.6187 21.1299L44.2806 8.00006H37.0626L33.7795 19.7367L29.5526 8.00006H10.6396L9.01283 13.9876H16.519L18.1453 8.00044L21.3686 7.3546L14.5704 31.9818L11.8657 31.1181L15.73 16.8921H8.22371L7.9419 17.9293L4.22348 32.2738L0.15625 31.1184C0.15625 31.1184 0.15627 28.5779 0.370442 27.6803C1.10168 24.6153 1.48408 23.3173 1.99141 21.5953C2.28689 20.5923 2.62478 19.4455 3.09864 17.7219C3.71856 15.4669 4.15028 14.0274 4.73004 12.0944C4.85281 11.685 4.98252 11.2526 5.12177 10.7865C5.84501 8.36583 6.22604 7.97959 7.66602 6.78541C8.32392 6.23985 8.75329 5.98969 9.53592 5.62953C10.3279 5.26503 11.6667 4.95136 11.6815 4.94788C11.6815 4.94788 12.63 4.75602 13.245 4.6806C13.8526 4.60609 14.8084 4.55367 14.8084 4.55367L26.4628 4.50027L32.6706 0.59082Z" fill="url(#paint0_linear_4053_5001)"/>
<path d="M26.2266 38.4087H27.8748L34.108 34.5557H32.3698L26.2266 38.4087Z" fill="#FFF348"/>
<path d="M47.4277 9.77864L47.5441 8.94671C47.654 8.16148 47.4906 7.36256 47.0808 6.68124C46.5857 5.85824 45.7708 5.27227 44.8265 5.06032L42.0801 4.44385H43.0348C43.2766 4.44386 43.5178 4.46944 43.7541 4.52017L45.7108 4.94022C46.7088 5.15446 47.5867 5.73686 48.1658 6.56885C48.6266 7.23096 48.8733 8.0159 48.8733 8.81974V9.39531C48.8733 9.90402 48.8058 10.4105 48.6727 10.9019L43.7406 29.1068C43.3391 30.589 42.4278 31.8865 41.1636 32.7761C40.5211 33.2282 39.8027 33.5641 39.0416 33.7681L38.5082 33.9112C37.2763 34.2416 36.0147 34.4517 34.7415 34.5386L34.0488 34.5858L38.2675 33.0868C38.7893 32.9013 39.2845 32.6497 39.7406 32.338C40.9886 31.4851 41.8894 30.2212 42.2819 28.7719L47.4277 9.77864Z" fill="#FFF348"/>
<path d="M32.6719 0.59082H34.3201L40.5533 4.44377H38.8151L32.6719 0.59082Z" fill="url(#paint1_linear_4053_5001)"/>
<path d="M29.6439 31.1182L25.748 19.3223L28.1455 31.1182H29.6439Z" fill="url(#paint2_linear_4053_5001)"/>
<path d="M37.8548 8.00024L33.7793 19.7369L36.3265 8.00024H37.8548Z" fill="url(#paint3_linear_4053_5001)"/>
<path d="M4.92152 31.1179H3.45312L7.38644 16.8916H8.72734L4.92152 31.1179Z" fill="url(#paint4_linear_4053_5001)"/>
<path d="M15.648 31.118H14.1797L20.4129 8.00024H21.7914L15.648 31.118Z" fill="url(#paint5_linear_4053_5001)"/>
<path d="M9.56538 13.9871H8.08398L9.72283 8.00024H11.0638L9.56538 13.9871Z" fill="url(#paint6_linear_4053_5001)"/>
<path d="M57.0833 8.10764C57.0833 8.10764 54.7719 8.46176 54.11 8.71938C52.3738 9.40621 51.0717 10.9087 50.3446 13.0659C50.1275 13.7098 47.3279 24.0235 46.9589 25.5582C46.5684 27.168 46.5684 28.3915 46.9589 29.1964C47.4147 30.1086 48.1634 30.6237 49.5091 30.935C50.095 31.0745 51.2127 31.1175 55.9222 31.1496C63.2361 31.214 64.4186 31.096 66.2634 30.1408C67.555 29.4646 68.7158 27.9514 69.3559 26.0733C69.682 25.1396 72.6224 14.2357 72.8609 13.0981C73.4471 10.3077 72.6769 8.8911 70.2244 8.24712C69.6274 8.09692 68.7374 8.06467 63.5184 8.05394C60.2088 8.04321 57.0833 8.10764 57.0833 8.10764ZM65.3086 14.3001C65.157 14.9333 62.6391 24.1737 62.5306 24.4956L62.4114 24.8499H58.4072C56.2043 24.8499 54.403 24.8499 54.403 24.8499C54.403 24.7854 56.8988 15.5558 57.1809 14.5684L57.3437 14.0103H61.3696H65.3847L65.3086 14.3001Z" fill="white"/>
<path d="M76.6455 8.00049C76.3848 8.7732 71.8706 25.8159 71.762 26.4276C71.3605 28.617 71.8381 29.9371 73.2376 30.5381C74.5945 31.1069 74.8439 31.1284 81.6914 31.1284C87.4097 31.1284 88.1367 31.1069 89.016 30.9351C91.6309 30.4093 93.0309 29.2395 94.0727 26.7281C94.3112 26.1594 95.4505 22.1884 96.8722 16.9404C98.1961 12.0895 99.2697 8.03267 99.2697 8.00049C99.2697 8.00049 97.6207 8.00049 95.6027 8.00049H91.9347L89.6669 16.3179C88.419 20.8898 87.3228 24.7856 87.2797 24.85H83.3731H81.3929H79.412L81.7021 16.5325C82.95 11.9821 83.9701 8.07558 83.9701 8.00049C83.9701 8.00049 83.1669 8.00049 80.3344 8.00049C77.5134 8.00049 76.6455 8.00049 76.6455 8.00049Z" fill="white"/>
<path d="M101.138 8.00049C101.116 8.07558 100.769 9.47077 100.378 10.9518C99.9869 12.4221 99.5425 13.9139 99.5098 14.0105C99.5098 14.0105 99.7706 14.0105 103.145 14.0105H106.737L106.661 14.2466C106.617 14.3861 105.586 18.1638 104.371 22.6499C103.156 27.136 101.984 31.0854 101.951 31.182H105.738H109.439C109.471 31.0532 110.578 26.9535 111.816 22.3817L114.088 14.032H117.664H121.267C121.3 13.9353 122.449 9.47077 122.84 8.00049C122.84 8.00049 120.67 8.00049 112.032 8.00049C103.449 8.00049 101.138 8.00049 101.138 8.00049Z" fill="white"/>
</g>
<defs>
<linearGradient id="paint0_linear_4053_5001" x1="20.9236" y1="44.6629" x2="28.1426" y2="3.13624" gradientUnits="userSpaceOnUse">
<stop offset="0.380208" stop-color="#FFA200"/>
<stop offset="1" stop-color="#FDE43B"/>
</linearGradient>
<linearGradient id="paint1_linear_4053_5001" x1="26.7828" y1="14.625" x2="26.7828" y2="31.2" gradientUnits="userSpaceOnUse">
<stop stop-color="#FFAB00"/>
<stop offset="1" stop-color="#FFE600"/>
</linearGradient>
<linearGradient id="paint2_linear_4053_5001" x1="26.7814" y1="14.6251" x2="26.7814" y2="31.2001" gradientUnits="userSpaceOnUse">
<stop stop-color="#FFAB00"/>
<stop offset="1" stop-color="#FFE600"/>
</linearGradient>
<linearGradient id="paint3_linear_4053_5001" x1="26.7814" y1="14.625" x2="26.7814" y2="31.2" gradientUnits="userSpaceOnUse">
<stop stop-color="#FFAB00"/>
<stop offset="1" stop-color="#FFE600"/>
</linearGradient>
<linearGradient id="paint4_linear_4053_5001" x1="26.7822" y1="14.625" x2="26.7822" y2="31.2" gradientUnits="userSpaceOnUse">
<stop stop-color="#FFAB00"/>
<stop offset="1" stop-color="#FFE600"/>
</linearGradient>
<linearGradient id="paint5_linear_4053_5001" x1="26.7804" y1="14.625" x2="26.7804" y2="31.2" gradientUnits="userSpaceOnUse">
<stop stop-color="#FFAB00"/>
<stop offset="1" stop-color="#FFE600"/>
</linearGradient>
<linearGradient id="paint6_linear_4053_5001" x1="26.781" y1="14.625" x2="26.781" y2="31.2" gradientUnits="userSpaceOnUse">
<stop stop-color="#FFAB00"/>
<stop offset="1" stop-color="#FFE600"/>
</linearGradient>
</defs>
</svg>
