<svg width="194" height="149" viewBox="0 0 194 149" fill="none" xmlns="http://www.w3.org/2000/svg">
<g opacity="0.25" filter="url(#filter0_f_4059_6113)">
<ellipse cx="39" cy="5" rx="39" ry="5" transform="matrix(1 0 0 -1 37 119)" fill="#FFCB0D"/>
</g>
<g filter="url(#filter1_f_4059_6113)">
<ellipse cx="57" cy="7" rx="57" ry="7" transform="matrix(1 0 0 -1 40 109)" fill="#4D5A9A"/>
</g>
<path d="M165.999 104.402C165.998 111.244 136.897 109.902 100.998 109.895C65.0997 109.887 35.998 111.217 35.9994 104.375C36.0008 97.5331 65.1034 91.9926 101.002 92C136.9 92.0075 166.001 97.5601 165.999 104.402Z" fill="url(#paint0_radial_4059_6113)"/>
<path d="M124.886 71.9916L112.989 70.1733H104.477L102.894 70.4274C101.79 70.6043 101.046 71.651 101.241 72.7512L102.482 79.7524H82.8573H81.8218C80.6104 79.7524 79.6772 80.8208 79.84 82.0212L80.8315 89.3314H64.3701H63.178C62.0734 89.3314 61.178 90.2268 61.178 91.3314V98.9104H48.6758C47.1333 98.9104 45.8828 100.161 45.8828 101.703V105.232C45.8828 106.751 47.0837 107.999 48.6022 108.057L60.1495 108.5L90.0253 102.688L101.461 101.575C113.7 100.383 123.337 90.61 124.357 78.3547L124.886 71.9916Z" fill="#8D9FF8"/>
<path d="M136.002 71.9916L112.798 70.1733L114.68 79.7524H91.2151L91.9471 89.3314H72.8983L72.9664 98.9104H56.9984L56.5733 105.443C56.4663 107.086 57.7812 108.473 59.4282 108.454L100.526 107.972L127.967 107.514C130.756 107.468 133.06 105.323 133.305 102.544L136.002 71.9916Z" fill="#4D5A9A"/>
<path d="M93.9736 103.085C80.3542 103.683 62.0346 104.149 57.7656 105.858C65.3024 108.498 74.4153 106.82 91.0476 106.82C112.622 106.82 124.963 107.184 129.618 104.794C133.342 102.881 129.352 103.349 129.618 102.702C123.411 104.694 107.593 102.487 93.9736 103.085Z" fill="#3F4B8B"/>
<rect x="100.623" y="86.8358" width="11.9999" height="6.34075" rx="1.13107" fill="#455190"/>
<rect x="106.621" y="94.2334" width="11.9999" height="6.34075" rx="1.13107" fill="#455190"/>
<rect x="121.193" y="74.1544" width="11.9999" height="6.34075" rx="1.13107" fill="#455190"/>
<ellipse cx="98.1947" cy="79.9668" rx="16.3803" ry="0.528396" fill="#B6C2FF"/>
<ellipse cx="77.5859" cy="89.4779" rx="13.7383" ry="0.528396" fill="#B6C2FF"/>
<ellipse cx="61.2058" cy="98.989" rx="12.1531" ry="0.528396" fill="#B6C2FF"/>
<path d="M72.8301 90.0062L73.3585 98.989L75.4721 90.0062H72.8301Z" fill="#DAE0FF"/>
<path d="M90.2676 80.4951L90.796 89.4778L92.9096 80.4951H90.2676Z" fill="#DAE0FF"/>
<path d="M111.404 71.634L114.127 80.2106L113.965 70.984L111.404 71.634Z" fill="#DAE0FF"/>
<path d="M56.4453 99.7083L56.9981 107.722L59.0873 99.7002L56.4453 99.7083Z" fill="#DAE0FF"/>
<path d="M103.567 73.1386C99.6887 68.9488 92.5781 71.6331 88.6994 74.7487C88.6994 74.7487 91.1915 70.4865 91.1915 63.5297C88.6058 54.8286 79.1732 58.8918 79.1732 58.8918L74.7148 64.8824L84.407 67.5878L80.2955 79.5814H106.153C106.153 79.5814 106.683 76.5033 103.567 73.1386Z" fill="url(#paint1_linear_4059_6113)"/>
<mask id="mask0_4059_6113" style="mask-type:alpha" maskUnits="userSpaceOnUse" x="46" y="0" width="61" height="66">
<path d="M100.498 52.0423C92.2316 65.3092 73.9151 70.0318 60.254 61.5195C46.5929 53.0072 42.7612 34.4838 51.0279 21.2169C59.2944 7.95023 83.1113 -5.59962 96.7724 2.91271C110.433 11.425 108.765 38.7757 100.498 52.0423Z" fill="#D9D9D9"/>
</mask>
<g mask="url(#mask0_4059_6113)">
<path d="M100.496 52.0421C92.2297 65.309 73.9132 70.0316 60.2521 61.5193C46.591 53.0069 42.7592 34.4836 51.0259 21.2167C59.2925 7.94998 83.1093 -5.59986 96.7704 2.91247C110.431 11.4248 108.763 38.7754 100.496 52.0421Z" fill="#FFBA24"/>
<path d="M75.1294 54.3219C98.9681 60.0201 105.279 43.0771 106.129 28.4076L111.327 53.8042L94.9233 85.6998L50.483 69.7284L27.3205 30.7577L62.6694 9.93438C47.1923 22.0816 51.2907 48.6237 75.1294 54.3219Z" fill="url(#paint2_linear_4059_6113)"/>
<path d="M67.3659 35.4539C75.4981 43.4474 88.8835 43.1912 97.263 34.8817C105.643 26.5721 105.843 13.3559 97.7109 5.36243C89.5788 -2.63107 76.1934 -2.37488 67.8138 5.93464C59.4343 14.2442 59.2338 27.4604 67.3659 35.4539Z" fill="#FFD12F"/>
<path d="M99.4424 51.3852C91.5262 64.0897 73.9679 68.6033 60.9079 60.4655C47.8478 52.3277 44.1605 34.5758 52.0767 21.8713C56.0573 15.483 63.8706 8.92514 72.39 5.02437C80.9542 1.10375 89.8162 0.0412787 96.1136 3.96526C102.409 7.88792 105.362 16.3127 105.615 25.7269C105.867 35.0934 103.423 44.9969 99.4424 51.3852Z" stroke="url(#paint3_linear_4059_6113)" stroke-width="1.92478"/>
<path d="M65.9284 20.4359C68.2774 26.299 76.6803 28.6595 84.6967 25.7081C92.7131 22.7567 97.3074 15.611 94.9584 9.74789C92.6093 3.88474 84.2065 1.5243 76.1901 4.47571C68.1737 7.42711 63.5794 14.5727 65.9284 20.4359Z" fill="#FFF27C"/>
</g>
<path d="M37.5055 77.8586C43.7501 75.752 44.2577 67.0047 42.7916 61.455C42.7916 61.455 46.1195 66.0861 53.4625 69.3649C59.8273 70.2095 63.9131 65.3269 66.1253 61.4115C67.5583 58.8752 66.3101 55.8506 63.7343 54.4899C61.2755 53.1911 58.2481 53.7346 56.3947 55.8077L52.3668 60.3132L41.6391 50.3342L29.49 77.5431C29.49 77.5431 32.49 79.5515 37.5055 77.8586Z" fill="url(#paint4_linear_4059_6113)"/>
<path d="M48.6877 37.8518C48.5003 27.9823 54.5152 7.16016 80.0745 2.82733C70.9295 9.38502 51.8492 25.5707 48.6877 37.8518Z" fill="#FFFCCA"/>
<rect x="79.6992" y="78.3815" width="26.4198" height="1.05679" rx="0.528396" fill="#974519"/>
<defs>
<filter id="filter0_f_4059_6113" x="17" y="89" width="118" height="50" filterUnits="userSpaceOnUse" color-interpolation-filters="sRGB">
<feFlood flood-opacity="0" result="BackgroundImageFix"/>
<feBlend mode="normal" in="SourceGraphic" in2="BackgroundImageFix" result="shape"/>
<feGaussianBlur stdDeviation="10" result="effect1_foregroundBlur_4059_6113"/>
</filter>
<filter id="filter1_f_4059_6113" x="0" y="55" width="194" height="94" filterUnits="userSpaceOnUse" color-interpolation-filters="sRGB">
<feFlood flood-opacity="0" result="BackgroundImageFix"/>
<feBlend mode="normal" in="SourceGraphic" in2="BackgroundImageFix" result="shape"/>
<feGaussianBlur stdDeviation="20" result="effect1_foregroundBlur_4059_6113"/>
</filter>
<radialGradient id="paint0_radial_4059_6113" cx="0" cy="0" r="1" gradientUnits="userSpaceOnUse" gradientTransform="translate(100.999 104.389) scale(65 12.3886)">
<stop stop-color="#0E1124"/>
<stop offset="1" stop-color="#0E1124" stop-opacity="0"/>
</radialGradient>
<linearGradient id="paint1_linear_4059_6113" x1="85.4672" y1="58.3162" x2="88.6968" y2="79.5844" gradientUnits="userSpaceOnUse">
<stop stop-color="#814610"/>
<stop offset="1" stop-color="#DD831C"/>
</linearGradient>
<linearGradient id="paint2_linear_4059_6113" x1="96.1185" y1="60.2586" x2="44.1389" y2="33.5546" gradientUnits="userSpaceOnUse">
<stop stop-color="#E67D15"/>
<stop offset="0.995" stop-color="#F2C525"/>
</linearGradient>
<linearGradient id="paint3_linear_4059_6113" x1="96.7699" y1="2.91201" x2="60.2516" y2="61.5188" gradientUnits="userSpaceOnUse">
<stop stop-color="#FFF27D"/>
<stop offset="1" stop-color="#FFD846"/>
</linearGradient>
<linearGradient id="paint4_linear_4059_6113" x1="55.4491" y1="76.6486" x2="34.9345" y2="65.0568" gradientUnits="userSpaceOnUse">
<stop stop-color="#C98015"/>
<stop offset="1" stop-color="#DDA71C"/>
</linearGradient>
</defs>
</svg>
