<svg width="158" height="145" viewBox="0 0 158 145" fill="none" xmlns="http://www.w3.org/2000/svg">
<g filter="url(#filter0_f_4059_6111)">
<ellipse cx="39" cy="5" rx="39" ry="5" transform="matrix(1 0 0 -1 40 105)" fill="#FFCB0D"/>
</g>
<ellipse cx="91.5" cy="100" rx="54.5" ry="9" fill="url(#paint0_radial_4059_6111)"/>
<g opacity="0.2" filter="url(#filter1_f_4059_6111)">
<ellipse cx="80.3529" cy="100.757" rx="12.9857" ry="2.7476" fill="#F7C641"/>
<ellipse cx="80.3536" cy="101.15" rx="24.0235" ry="5.49521" fill="#FAF149"/>
<path fill-rule="evenodd" clip-rule="evenodd" d="M84.7841 95.7477C81.3126 97.3544 77.446 99.1498 74.834 100.365L82.0896 106.631C94.5464 106.427 104.376 104.051 104.376 101.15C104.376 98.461 95.9348 96.2234 84.7841 95.7477Z" fill="#F7C641"/>
<path d="M104.131 101.15C102.466 103.813 92.4536 105.86 80.3511 105.86C68.2486 105.86 58.2364 103.813 56.571 101.15H56.3262V103.505C56.3263 106.54 67.0819 109 80.3497 109C93.6174 109 104.373 106.54 104.373 103.505V101.15H104.131Z" fill="#EDB200"/>
<path fill-rule="evenodd" clip-rule="evenodd" d="M81.332 108.996V105.855C92.9942 105.749 102.518 103.741 104.138 101.15H104.381V103.505V103.505C104.381 106.465 94.148 108.879 81.332 108.996Z" fill="#DA7817"/>
<path fill-rule="evenodd" clip-rule="evenodd" d="M98.209 107.181V104.041C101.321 103.251 103.444 102.253 104.134 101.15H104.377V103.505V103.505C104.377 104.919 102.044 106.208 98.209 107.181Z" fill="#BC481D"/>
<path d="M81.0044 105.86C69.3173 106.252 57.6302 103.505 56.6562 101.15C59.2534 101.15 61.2012 102.72 66.7201 103.897C69.4748 104.485 78.6237 105.467 81.0044 105.86Z" fill="white"/>
</g>
<ellipse cx="80.3529" cy="96.7571" rx="12.9857" ry="2.7476" fill="#F7C641"/>
<ellipse cx="80.3536" cy="97.1496" rx="24.0235" ry="5.49521" fill="#FAF149"/>
<path fill-rule="evenodd" clip-rule="evenodd" d="M84.7841 91.7477C81.3126 93.3544 77.446 95.1498 74.834 96.3645L82.0896 102.631C94.5464 102.427 104.376 100.051 104.376 97.1496C104.376 94.461 95.9348 92.2234 84.7841 91.7477Z" fill="#F7C641"/>
<ellipse cx="85.5495" cy="96.3646" rx="11.0378" ry="2.35509" fill="#E17325"/>
<path d="M104.131 97.1497C102.466 99.8127 92.4536 101.86 80.3511 101.86C68.2486 101.86 58.2364 99.8127 56.571 97.1497H56.3262V99.5047C56.3263 102.54 67.0819 105 80.3497 105C93.6174 105 104.373 102.54 104.373 99.5047V97.1497H104.131Z" fill="#EDB200"/>
<path fill-rule="evenodd" clip-rule="evenodd" d="M81.332 104.996V101.855C92.9942 101.749 102.518 99.7409 104.138 97.1497H104.381V99.5047V99.5048C104.381 102.465 94.148 104.879 81.332 104.996Z" fill="#DA7817"/>
<path fill-rule="evenodd" clip-rule="evenodd" d="M98.209 103.181V100.041C101.321 99.251 103.444 98.2532 104.134 97.1497H104.377V99.5047V99.5048C104.377 100.919 102.044 102.208 98.209 103.181Z" fill="#BC481D"/>
<path d="M81.0044 101.86C69.3173 102.252 57.6302 99.5046 56.6562 97.1495C59.2534 97.1495 61.2012 98.7196 66.7201 99.8971C69.4748 100.485 78.6237 101.467 81.0044 101.86Z" fill="white"/>
<path d="M33.5627 42.2454C39.7659 37.7422 46.988 43.162 48.0739 45.9116L62.289 52.9383C61.7954 53.9567 57.9652 68.0305 54.8852 64.8532C51.0352 60.8815 41.8539 63.9366 34.7463 59.0484C31.1924 56.6044 25.5668 48.0501 33.5627 42.2454Z" stroke="#FFFCCA" stroke-width="6.7212"/>
<path d="M34.1565 43.4674C40.3596 38.9641 47.5818 44.3839 48.6677 47.1335L62.8827 54.1602C62.3891 55.1786 58.5589 69.2524 55.4789 66.0751C51.629 62.1035 42.4477 65.1585 35.34 60.2704C31.7862 57.8263 26.1606 49.2721 34.1565 43.4674Z" stroke="#F7C641" stroke-width="6.7212"/>
<path d="M125.736 44.6895C119.533 40.1863 112.311 45.6061 111.225 48.3557L97.0098 55.3824C97.5034 56.4007 101.334 70.4745 104.414 67.2972C108.264 63.3256 117.445 66.3807 124.553 61.4925C128.106 59.0485 133.732 50.4942 125.736 44.6895Z" stroke="#892500" stroke-width="6.7212"/>
<path d="M125.144 43.4674C118.941 38.9641 111.719 44.3839 110.633 47.1335L96.418 54.1602C96.9116 55.1786 100.742 69.2524 103.822 66.0751C107.672 62.1035 116.853 65.1585 123.961 60.2704C127.515 57.8263 133.14 49.2721 125.144 43.4674Z" stroke="#BD491E" stroke-width="6.7212"/>
<path fill-rule="evenodd" clip-rule="evenodd" d="M101.969 69.8109C103.718 70.1671 105.225 69.4517 106.231 68.4141C106.558 68.0765 107.142 67.7315 108.343 67.4548C109.508 67.1865 110.867 67.0596 112.624 66.8956L112.624 66.8956L112.979 66.8623C113.436 66.8195 113.913 66.7743 114.408 66.722L117.279 59.4802C115.744 59.8242 114.101 60.0064 112.352 60.1705C112.199 60.1847 112.045 60.199 111.889 60.2135C110.268 60.3633 108.462 60.5303 106.835 60.905C106.043 61.0874 105.217 61.3342 104.404 61.6899L101.969 69.8109ZM107.127 52.6135L112.118 50.1461L113.279 49.5723L113.751 48.3761L113.751 48.3768C113.751 48.3769 113.752 48.3753 113.754 48.3723C113.766 48.3499 113.822 48.2455 113.961 48.0668C114.134 47.8454 114.385 47.5729 114.716 47.2782C115.384 46.684 116.269 46.0961 117.262 45.6811C119.049 44.934 120.916 44.8207 122.678 45.8659L125.172 39.5781C121.45 37.7687 117.631 38.2419 114.669 39.48C112.945 40.2008 111.434 41.202 110.248 42.2565C110.241 42.2629 110.234 42.2692 110.227 42.2756L107.127 52.6135ZM104.016 63.536C104.016 63.535 104.006 63.5249 103.985 63.5087C104.006 63.5289 104.016 63.537 104.016 63.536Z" fill="#6C0000" fill-opacity="0.5"/>
<path d="M113.118 44.42L118.217 42.1156L140.644 78.6704L128.606 76.1287L123.752 89.553L113.118 44.42Z" fill="#BD1E1E"/>
<path fill-rule="evenodd" clip-rule="evenodd" d="M128.567 76.2419L123.754 89.5529L113.121 44.4199L115.671 43.267L128.567 76.2419Z" fill="#AA0B0B"/>
<path fill-rule="evenodd" clip-rule="evenodd" d="M116.898 60.457L113.119 44.42L118.218 42.1156L121.834 48.0096L116.898 60.457Z" fill="#6C0000" fill-opacity="0.5"/>
<path d="M72.6562 78.6011H88.0562L85.6869 96.298C82.3883 98.2025 78.3241 98.2025 75.0255 96.298L72.6562 78.6011Z" fill="#C7530B"/>
<path fill-rule="evenodd" clip-rule="evenodd" d="M78.1089 78.601L79.4312 97.6862C77.9029 97.5536 76.3969 97.0908 75.0235 96.2979L72.6543 78.601H78.1089Z" fill="#E7811C"/>
<path d="M87.2779 84.4142C82.6824 85.1022 78.0103 85.0707 73.4218 84.3195L72.6562 78.6011H88.0562L87.2779 84.4142Z" fill="#95240F" fill-opacity="0.5"/>
<path d="M49.5547 47.217H111.747L99.3263 76.4547C98.8491 77.578 97.9363 78.4595 96.797 78.8972C86.4031 82.8903 74.8982 82.8903 64.5043 78.8972C63.365 78.4595 62.4522 77.578 61.975 76.4547L49.5547 47.217Z" fill="#DA7817"/>
<path d="M35.9336 26.0535H125.372L107.187 69.7423C106.702 70.9069 105.819 71.8606 104.694 72.4323C89.5867 80.1136 71.7184 80.1136 56.611 72.4323C55.4866 71.8606 54.6027 70.9069 54.1179 69.7423L35.9336 26.0535Z" fill="#EDB200"/>
<path d="M48.3693 43.2052L42.9399 41.9399L27.6387 82.2185L38.9912 77.3682L46.2248 89.5994L48.3693 43.2052Z" fill="#E02F2F"/>
<path fill-rule="evenodd" clip-rule="evenodd" d="M39.0527 77.47L46.2261 89.5993L48.3706 43.2052L45.6533 42.5719L39.0527 77.47Z" fill="#FC4B4B"/>
<path d="M123.648 30.2529L107.538 68.6884C106.985 70.008 106.043 71.1019 104.861 71.8253L117.076 29.5687L123.648 30.2529Z" fill="#DA5B17"/>
<path fill-rule="evenodd" clip-rule="evenodd" d="M78.7693 26.1464L79.9749 76.6726C72.3133 76.592 64.6628 75.1377 57.3992 72.3095C55.7799 71.679 54.4862 70.4179 53.8144 68.8153L36.6465 27.8554L51.4469 26.1464H78.7693Z" fill="#FAF149"/>
<path fill-rule="evenodd" clip-rule="evenodd" d="M58.9376 72.8855C58.4233 72.7003 57.9106 72.5082 57.4 72.3094C55.7807 71.6789 54.4869 70.4178 53.8152 68.8152L36.3945 27.2525L39.4874 26.6027L58.9376 72.8855Z" fill="#FFFCCA"/>
<path d="M128.332 22.4956C128.332 23.1488 128.061 23.7882 127.542 24.4084L124.185 32.5349H124.145C123.154 29.7425 104.06 27.5153 80.6512 27.5153C57.2422 27.5153 38.1485 29.7425 37.1572 32.5349H37.1167L33.7606 24.4083C33.2418 23.7881 32.9707 23.1488 32.9707 22.4956C32.9707 16.699 54.318 12 80.6512 12C106.984 12 128.332 16.699 128.332 22.4956Z" fill="#EDB200"/>
<path d="M117.25 29.9206L120.837 16.8456C125.579 18.4766 128.329 20.4154 128.329 22.4955C128.329 23.1488 128.057 23.7882 127.538 24.4084L124.182 32.5348H124.142C123.801 31.5739 121.316 30.6799 117.25 29.9206Z" fill="#DA5B17"/>
<path d="M37.3714 32.1921L36.9551 32.1434L33.7606 24.4083C33.2418 23.7881 32.9707 23.1488 32.9707 22.4956C32.9707 16.699 54.318 12 80.6512 12C80.8488 12 81.0461 12.0003 81.2431 12.0008V27.5157C81.0461 27.5153 80.8488 27.5152 80.6512 27.5152C58.208 27.5152 39.7313 29.5624 37.3714 32.1921Z" fill="#FAF149"/>
<path fill-rule="evenodd" clip-rule="evenodd" d="M39.3086 17.2633L43.0423 30.118C39.5741 30.833 37.4691 31.6559 37.1572 32.5347H37.1167L33.7606 24.4082C33.2418 23.788 32.9707 23.1487 32.9707 22.4955C32.9707 20.5902 35.277 18.8035 39.3086 17.2633Z" fill="#FFFCCA"/>
<ellipse cx="1.80329" cy="9.91957" rx="1.80329" ry="9.91957" transform="matrix(0.931776 0.363034 -0.245621 0.969366 108.285 34)" fill="#FFF77E"/>
<ellipse cx="1.28387" cy="15.0816" rx="1.28387" ry="15.0816" transform="matrix(0.952551 -0.30438 0.384505 0.923123 45.832 37.9138)" fill="white"/>
<path d="M126.852 23.4296L123.594 32.0737L124.187 32.7745L127.483 25.4605C128.395 23.4377 128.429 20.9814 126.734 19.5503C124.597 17.7469 121.896 16.9434 120.633 16.8881C125.608 18.7571 126.951 22.1057 126.852 23.4296Z" fill="#FAF149"/>
<path d="M107.009 69.9533C106.535 71.2451 104.442 72.1833 103.455 72.4909C105.587 71.199 112.241 56.8808 115.301 49.8832C112.735 56.0349 107.483 68.6614 107.009 69.9533Z" fill="#FAF149"/>
<path d="M75.024 96.6261L73.3357 83.9378L74.8165 86L76.2086 97.2371L75.024 96.6261Z" fill="#FFFCCA"/>
<path d="M37.1577 32.5836C37.1311 32.6636 37.1172 32.744 37.1172 32.8249C37.1172 33.4485 37.9235 34.0482 39.4124 34.6077L39.144 33.9291C44.8588 31.3008 61.2906 27.4022 80.6712 27.4022C100.015 27.4022 116.421 31.2936 122.166 33.914L121.891 34.6077C123.38 34.0482 124.186 33.4485 124.186 32.8249C124.186 32.744 124.172 32.6636 124.145 32.5836C124.037 32.2606 123.713 31.9448 123.189 31.6384C123.156 31.6195 123.123 31.6008 123.089 31.582C118.661 29.1157 101.342 25.2755 80.6516 25.2755C59.9521 25.2755 42.6319 29.1139 38.2139 31.582C37.6355 31.9049 37.2722 32.2419 37.1577 32.5836Z" fill="url(#paint1_linear_4059_6111)"/>
<ellipse cx="80.8679" cy="49.358" rx="17.0633" ry="17.642" fill="#C3501E"/>
<ellipse cx="79.5554" cy="48.001" rx="17.0633" ry="17.642" fill="#F2BC2A"/>
<path d="M96 47.7664C96 56.9531 88.8054 64.3429 80 64.3429C71.1946 64.3429 64 56.9531 64 47.7664C64 38.5797 71.1946 31.1898 80 31.1898C88.8054 31.1898 96 38.5797 96 47.7664Z" stroke="url(#paint2_linear_4059_6111)" stroke-width="2"/>
<path d="M90.8521 34.1647C86.1571 30.1842 80.4506 28.9916 74.4993 31.2237C65.3618 34.6507 60.0509 44.1393 63.5 53.9698C63.9485 55.2482 64.8402 56.9928 65.5 58.1055C64.2846 56.4992 63.405 56.4145 62.2443 53.1064C58.7953 43.2758 63.0076 33.5624 72 30.1898C78.6279 27.7039 86.1314 28.9046 90.8521 34.1647Z" fill="#FDF8A0"/>
<path d="M80.6148 37.5392C80.6434 37.4634 80.6673 37.3858 80.6876 37.3081C81.2478 37.7665 81.7324 38.3907 82.006 39.1105C82.4326 40.2329 82.3727 41.6545 81.1262 43.1709C80.1726 44.3292 79.7267 45.4336 79.7838 46.4395C79.8428 47.4747 80.4241 48.2333 81.1566 48.6804C81.8734 49.1189 82.7624 49.2828 83.5842 49.1748C84.407 49.0659 85.2518 48.669 85.7733 47.8763C86.5279 46.7302 86.9075 45.4137 87.03 44.2582C87.5588 45.1135 88.0545 46.1345 88.3807 47.2663C89.056 49.6114 89.0035 52.4311 86.9637 55.3151L86.9563 55.3255L86.9489 55.3359C86.7425 55.6485 86.5094 55.9469 86.2524 56.2272L86.2441 56.2367L86.2349 56.2462C86.2257 56.2575 86.2155 56.2689 86.2063 56.2802L86.0801 56.4081C84.6567 57.8582 82.5699 58.7873 80.2242 58.7873C77.8794 58.7873 75.7917 57.8582 74.3683 56.4081L74.1481 56.1836H74.1315C73.3935 55.4051 72.1294 53.7874 71.4725 51.7539C70.7641 49.5593 70.7567 46.8846 72.9282 44.1625C74.2098 42.5562 75.5789 41.6233 76.7296 40.8419C77.0198 40.6439 77.3322 40.4535 77.6666 40.249C77.8122 40.1609 77.9605 40.07 78.1144 39.9752C78.6017 39.6722 79.1168 39.335 79.5535 38.9571C79.9856 38.5839 80.4002 38.1198 80.6148 37.5392Z" fill="#FFFC8E" stroke="#D68931" stroke-width="1.83306"/>
<defs>
<filter id="filter0_f_4059_6111" x="0" y="55" width="158" height="90" filterUnits="userSpaceOnUse" color-interpolation-filters="sRGB">
<feFlood flood-opacity="0" result="BackgroundImageFix"/>
<feBlend mode="normal" in="SourceGraphic" in2="BackgroundImageFix" result="shape"/>
<feGaussianBlur stdDeviation="20" result="effect1_foregroundBlur_4059_6111"/>
</filter>
<filter id="filter1_f_4059_6111" x="52.3262" y="91.6544" width="56.0547" height="21.3455" filterUnits="userSpaceOnUse" color-interpolation-filters="sRGB">
<feFlood flood-opacity="0" result="BackgroundImageFix"/>
<feBlend mode="normal" in="SourceGraphic" in2="BackgroundImageFix" result="shape"/>
<feGaussianBlur stdDeviation="2" result="effect1_foregroundBlur_4059_6111"/>
</filter>
<radialGradient id="paint0_radial_4059_6111" cx="0" cy="0" r="1" gradientUnits="userSpaceOnUse" gradientTransform="translate(91.5 100) scale(54.5 9)">
<stop stop-color="#0E1124"/>
<stop offset="1" stop-color="#0E1124" stop-opacity="0"/>
</radialGradient>
<linearGradient id="paint1_linear_4059_6111" x1="38.0889" y1="30.361" x2="123.22" y2="30.361" gradientUnits="userSpaceOnUse">
<stop stop-color="#FF9A25"/>
<stop offset="1" stop-color="#BC481E"/>
</linearGradient>
<linearGradient id="paint2_linear_4059_6111" x1="66.74" y1="30.8929" x2="92.5369" y2="60.6286" gradientUnits="userSpaceOnUse">
<stop stop-color="#FFF77E"/>
<stop offset="1" stop-color="#F7C641"/>
</linearGradient>
</defs>
</svg>
