<svg width="158" height="145" viewBox="0 0 158 145" fill="none" xmlns="http://www.w3.org/2000/svg">
<g filter="url(#filter0_f_4059_6112)">
<ellipse cx="39" cy="5" rx="39" ry="5" transform="matrix(1 0 0 -1 40 105)" fill="#FFCB0D"/>
</g>
<ellipse cx="91.5" cy="104" rx="54.5" ry="9" fill="url(#paint0_radial_4059_6112)"/>
<path d="M98.1594 25.175C91.1011 25.891 78.2132 27.63 67.1965 34.3814C57.6829 40.2117 26.3831 62.9216 45.4097 92.9961C60.1379 116.276 88.986 110.344 99.1127 102.203C110.546 93.0112 112.954 88.7328 115.695 83.8643C116.315 82.7641 117.404 81.331 118.165 80.107L122.155 84.0965C123.171 85.1978 124.896 85.2631 125.837 84.0965L130.322 78.6045C130.393 78.5164 130.454 78.4236 130.507 78.3273L130.626 78.1858C131.063 77.668 131.975 76.4244 131.361 74.2762L122.768 53.7151C121.842 51.3706 119.607 51.6876 117.627 50.1271C115.395 48.3674 112.711 46.8075 110.468 50.0325C108.472 52.9016 106.21 58.0076 103.82 63.4059C100.329 71.2881 96.5618 79.7936 92.9422 82.8689C84.9961 89.6203 69.4222 94.5243 62.8677 80.7207C56.456 67.2179 70.8795 46.0325 90.8277 43.281C101.951 41.7468 107.493 39.9878 111.581 37.9749C113.463 37.0479 114.635 34.1864 113.869 32.2333L105.89 11.979C105.716 11.5371 104.662 10.1377 104.049 9.83084L99.1131 7.59058L95.9743 18.5182C95.8207 19.0529 95.8533 19.624 96.0667 20.1378L98.1594 25.175Z" fill="#AC3C01"/>
<path d="M97.5441 23.3335C90.4858 24.0496 77.598 25.7886 66.5813 32.54C57.0677 38.3703 25.7679 61.0801 44.7945 91.1546C59.5226 114.435 88.3707 108.502 98.4975 100.361C109.931 91.1698 112.339 86.8914 115.08 82.0229C115.699 80.9226 116.336 79.7922 117.097 78.5682L121.121 82.9268C122.137 84.0281 123.895 83.9694 124.836 82.8028L129.706 76.763C129.777 76.675 129.839 76.5822 129.891 76.4859L130.011 76.3444C130.448 75.8266 130.565 75.1106 130.316 74.4804L122.623 55.0074C121.697 52.6629 118.992 49.8462 117.012 48.2857C114.78 46.526 112.096 44.966 109.853 48.191C107.857 51.0601 105.595 56.1661 103.204 61.5644C99.7135 69.4467 95.9465 77.9521 92.327 81.0275C84.3809 87.7789 68.807 92.6828 62.2525 78.8793C55.8408 65.3765 70.2643 44.1911 90.2125 41.4396C101.336 39.9054 106.878 38.1464 110.965 36.1335C112.847 35.2065 113.587 32.9509 112.821 30.9978L104.901 10.8147C104.727 10.3728 104.43 9.9906 104.043 9.71447L98.4978 5.74915L95.359 16.6767C95.2054 17.2115 95.238 17.7826 95.4515 18.2964L97.5441 23.3335Z" fill="#DA7817"/>
<path fill-rule="evenodd" clip-rule="evenodd" d="M83.5569 43.0874C85.6872 42.3196 87.9145 41.7571 90.2153 41.4397C101.339 39.9055 106.881 38.1465 110.968 36.1336C112.85 35.2066 113.59 32.951 112.824 30.9979L104.904 10.8148C104.73 10.3729 104.432 9.99072 104.046 9.71459L98.5006 5.74927L95.3618 16.6769C95.2082 17.2116 95.2408 17.7827 95.4543 18.2965L97.5469 23.3336C92.0567 23.8906 83.0394 25.0665 74.1191 28.7388L83.5569 43.0874Z" fill="#DC5D19"/>
<path fill-rule="evenodd" clip-rule="evenodd" d="M130.355 74.5887C130.343 74.5525 130.331 74.5164 130.316 74.4807L122.623 55.0076C121.697 52.6631 118.992 49.8464 117.013 48.2859C116.033 47.5139 114.967 46.7803 113.889 46.4724L121.208 65.9904L130.355 74.5887ZM112.814 34.1421L105.25 24.5613L98.1328 7.02184L98.4983 5.74939L104.044 9.71471C104.43 9.99085 104.728 10.373 104.901 10.815L112.821 30.9981C113.231 32.0427 113.21 33.1739 112.814 34.1421Z" fill="url(#paint1_linear_4059_6112)"/>
<path d="M130.134 76.1175L123.383 69.673L123.076 67.2179C125.224 69.0592 130.196 73.8466 130.441 74.5831C130.687 75.3196 130.441 75.8106 130.134 76.1175Z" fill="url(#paint2_linear_4059_6112)"/>
<path d="M111.924 35.4491L105.276 28.2437L106.477 25.4818C108.282 27.6606 112.829 32.3864 112.946 33.1538C113.064 33.9213 112.279 35.1987 111.924 35.4491Z" fill="url(#paint3_linear_4059_6112)"/>
<path fill-rule="evenodd" clip-rule="evenodd" d="M117.082 78.598L112.62 69.6728L109.858 66.2971L96.9688 79.8L101.827 97.6121C110.446 90.2613 112.632 86.3782 115.084 82.0228L115.084 82.0227C115.698 80.9314 116.329 79.8105 117.082 78.598Z" fill="url(#paint4_linear_4059_6112)"/>
<path d="M60.4466 26.4024C71.4632 19.651 84.3511 17.912 91.4094 17.196L89.7073 13.099C89.2822 12.0756 89.5953 10.8942 90.4716 10.2158L95.9091 6.00613C97.2042 5.00351 99.0992 5.52598 99.6975 7.05061L106.686 24.8602C107.452 26.8133 106.713 29.0689 104.831 29.9959C100.743 32.0088 95.201 33.7678 84.0777 35.302C64.1295 38.0535 49.706 59.2389 56.1177 72.7417C62.6722 86.5453 78.2461 81.6413 86.1922 74.8899C92.2907 69.7083 97.8538 62.0008 102.764 54.9425C105.098 51.5873 108.245 48.8605 110.802 47.0068C112.843 45.527 115.562 46.5253 116.488 48.8698L124.181 68.3429C124.43 68.973 124.313 69.689 123.876 70.2068L118.271 76.8503C117.376 77.9105 115.675 77.6383 115.156 76.352L112.584 69.9798C106.753 78.2656 108.014 81.6413 92.3627 94.2235C82.236 102.365 53.8383 108.507 40.4997 84.4033C23.3473 53.4081 50.9329 32.2327 60.4466 26.4024Z" fill="#EDB200"/>
<path fill-rule="evenodd" clip-rule="evenodd" d="M59.0288 77.1426L52.4974 97.0718C47.9227 94.3818 43.7611 90.2965 40.4997 84.4032C23.3473 53.408 50.9329 32.2326 60.4466 26.4023C71.4632 19.6509 84.3511 17.9119 91.4094 17.1959L89.7073 13.0989C89.2822 12.0755 89.5953 10.8942 90.4716 10.2157L95.9091 6.00603C97.2042 5.00341 99.0992 5.52589 99.6975 7.05051L106.686 24.8601C107.452 26.8132 106.713 29.0688 104.831 29.9958C100.743 32.0087 95.201 33.7677 84.0777 35.3019C64.1295 38.0534 49.706 59.2388 56.1177 72.7416C56.9531 74.5009 57.9349 75.9562 59.0288 77.1426Z" fill="url(#paint5_linear_4059_6112)"/>
<path d="M98.1794 17.6572C96.4239 12.7955 95.7788 8.66307 96.7384 8.42717C97.698 8.19127 97.7456 3.56545 99.501 8.42716C101.256 13.2889 104.055 25.7971 103.095 26.033C102.136 26.2689 99.9348 22.5189 98.1794 17.6572Z" fill="#FFFCD1" fill-opacity="0.5"/>
<path d="M116.841 61.6388C115.272 56.7135 112.032 48.1991 113 48C113.968 47.8009 116.004 47.2828 120.346 60.9179C121.914 65.8431 122.401 69.9972 121.433 70.1963C120.465 70.3953 118.409 66.564 116.841 61.6388Z" fill="#FFF77E" fill-opacity="0.5"/>
<mask id="path-14-outside-1_4059_6112" maskUnits="userSpaceOnUse" x="39.4199" y="21.3336" width="68" height="76" fill="black">
<rect fill="white" x="39.4199" y="21.3336" width="68" height="76"/>
<path fill-rule="evenodd" clip-rule="evenodd" d="M80.7013 31.9263C83.0741 31.9263 84.9976 30.0028 84.9976 27.63C84.9976 25.2572 83.0741 23.3336 80.7013 23.3336C78.3285 23.3336 76.4049 25.2572 76.4049 27.63C76.4049 30.0028 78.3285 31.9263 80.7013 31.9263ZM101.569 74.2762C103.942 74.2762 105.866 72.3526 105.866 69.9798C105.866 67.607 103.942 65.6835 101.569 65.6835C99.1966 65.6835 97.2731 67.607 97.2731 69.9798C97.2731 72.3526 99.1966 74.2762 101.569 74.2762ZM65.3561 36.2227C65.3561 38.5955 63.4326 40.519 61.0598 40.519C58.687 40.519 56.7634 38.5955 56.7634 36.2227C56.7634 33.8498 58.687 31.9263 61.0598 31.9263C63.4326 31.9263 65.3561 33.8498 65.3561 36.2227ZM45.7163 57.0907C48.0891 57.0907 50.0126 55.1672 50.0126 52.7944C50.0126 50.4215 48.0891 48.498 45.7163 48.498C43.3435 48.498 41.4199 50.4215 41.4199 52.7944C41.4199 55.1672 43.3435 57.0907 45.7163 57.0907ZM72.1074 90.8479C72.1074 93.2207 70.1839 95.1442 67.8111 95.1442C65.4383 95.1442 63.5147 93.2207 63.5147 90.8479C63.5147 88.4751 65.4383 86.5515 67.8111 86.5515C70.1839 86.5515 72.1074 88.4751 72.1074 90.8479ZM87.4526 88.3927C89.8254 88.3927 91.7489 86.4692 91.7489 84.0963C91.7489 81.7235 89.8254 79.8 87.4526 79.8C85.0798 79.8 83.1562 81.7235 83.1562 84.0963C83.1562 86.4692 85.0798 88.3927 87.4526 88.3927Z"/>
</mask>
<path fill-rule="evenodd" clip-rule="evenodd" d="M80.7013 31.9263C83.0741 31.9263 84.9976 30.0028 84.9976 27.63C84.9976 25.2572 83.0741 23.3336 80.7013 23.3336C78.3285 23.3336 76.4049 25.2572 76.4049 27.63C76.4049 30.0028 78.3285 31.9263 80.7013 31.9263ZM101.569 74.2762C103.942 74.2762 105.866 72.3526 105.866 69.9798C105.866 67.607 103.942 65.6835 101.569 65.6835C99.1966 65.6835 97.2731 67.607 97.2731 69.9798C97.2731 72.3526 99.1966 74.2762 101.569 74.2762ZM65.3561 36.2227C65.3561 38.5955 63.4326 40.519 61.0598 40.519C58.687 40.519 56.7634 38.5955 56.7634 36.2227C56.7634 33.8498 58.687 31.9263 61.0598 31.9263C63.4326 31.9263 65.3561 33.8498 65.3561 36.2227ZM45.7163 57.0907C48.0891 57.0907 50.0126 55.1672 50.0126 52.7944C50.0126 50.4215 48.0891 48.498 45.7163 48.498C43.3435 48.498 41.4199 50.4215 41.4199 52.7944C41.4199 55.1672 43.3435 57.0907 45.7163 57.0907ZM72.1074 90.8479C72.1074 93.2207 70.1839 95.1442 67.8111 95.1442C65.4383 95.1442 63.5147 93.2207 63.5147 90.8479C63.5147 88.4751 65.4383 86.5515 67.8111 86.5515C70.1839 86.5515 72.1074 88.4751 72.1074 90.8479ZM87.4526 88.3927C89.8254 88.3927 91.7489 86.4692 91.7489 84.0963C91.7489 81.7235 89.8254 79.8 87.4526 79.8C85.0798 79.8 83.1562 81.7235 83.1562 84.0963C83.1562 86.4692 85.0798 88.3927 87.4526 88.3927Z" fill="#FFDE79"/>
<path d="M83.7701 27.63C83.7701 29.3248 82.3962 30.6988 80.7013 30.6988V33.1539C83.752 33.1539 86.2252 30.6807 86.2252 27.63H83.7701ZM80.7013 24.5611C82.3962 24.5611 83.7701 25.9351 83.7701 27.63H86.2252C86.2252 24.5792 83.752 22.1061 80.7013 22.1061V24.5611ZM77.6325 27.63C77.6325 25.9351 79.0064 24.5611 80.7013 24.5611V22.1061C77.6505 22.1061 75.1774 24.5792 75.1774 27.63H77.6325ZM80.7013 30.6988C79.0064 30.6988 77.6325 29.3248 77.6325 27.63H75.1774C75.1774 30.6807 77.6505 33.1539 80.7013 33.1539V30.6988ZM104.638 69.9798C104.638 71.6747 103.264 73.0487 101.569 73.0487V75.5037C104.62 75.5037 107.093 73.0306 107.093 69.9798H104.638ZM101.569 66.911C103.264 66.911 104.638 68.285 104.638 69.9798H107.093C107.093 66.9291 104.62 64.4559 101.569 64.4559V66.911ZM98.5006 69.9798C98.5006 68.285 99.8746 66.911 101.569 66.911V64.4559C98.5187 64.4559 96.0455 66.9291 96.0455 69.9798H98.5006ZM101.569 73.0487C99.8746 73.0487 98.5006 71.6747 98.5006 69.9798H96.0455C96.0455 73.0306 98.5187 75.5037 101.569 75.5037V73.0487ZM61.0598 41.7465C64.1105 41.7465 66.5837 39.2734 66.5837 36.2227H64.1286C64.1286 37.9175 62.7547 39.2915 61.0598 39.2915V41.7465ZM55.5359 36.2227C55.5359 39.2734 58.009 41.7465 61.0598 41.7465V39.2915C59.3649 39.2915 57.991 37.9175 57.991 36.2227H55.5359ZM61.0598 30.6988C58.009 30.6988 55.5359 33.1719 55.5359 36.2227H57.991C57.991 34.5278 59.3649 33.1538 61.0598 33.1538V30.6988ZM66.5837 36.2227C66.5837 33.1719 64.1105 30.6988 61.0598 30.6988V33.1538C62.7547 33.1538 64.1286 34.5278 64.1286 36.2227H66.5837ZM48.7851 52.7944C48.7851 54.4892 47.4111 55.8632 45.7163 55.8632V58.3182C48.767 58.3182 51.2402 55.8451 51.2402 52.7944H48.7851ZM45.7163 49.7255C47.4111 49.7255 48.7851 51.0995 48.7851 52.7944H51.2402C51.2402 49.7436 48.767 47.2705 45.7163 47.2705V49.7255ZM42.6475 52.7944C42.6475 51.0995 44.0214 49.7255 45.7163 49.7255V47.2705C42.6655 47.2705 40.1924 49.7436 40.1924 52.7944H42.6475ZM45.7163 55.8632C44.0214 55.8632 42.6475 54.4892 42.6475 52.7944H40.1924C40.1924 55.8451 42.6655 58.3182 45.7163 58.3182V55.8632ZM67.8111 96.3718C70.8618 96.3718 73.335 93.8986 73.335 90.8479H70.8799C70.8799 92.5427 69.5059 93.9167 67.8111 93.9167V96.3718ZM62.2872 90.8479C62.2872 93.8986 64.7603 96.3718 67.8111 96.3718V93.9167C66.1162 93.9167 64.7423 92.5427 64.7423 90.8479H62.2872ZM67.8111 85.324C64.7603 85.324 62.2872 87.7971 62.2872 90.8479H64.7423C64.7423 89.153 66.1162 87.779 67.8111 87.779V85.324ZM73.335 90.8479C73.335 87.7971 70.8618 85.324 67.8111 85.324V87.779C69.5059 87.779 70.8799 89.153 70.8799 90.8479H73.335ZM90.5214 84.0963C90.5214 85.7912 89.1474 87.1652 87.4526 87.1652V89.6202C90.5033 89.6202 92.9765 87.1471 92.9765 84.0963H90.5214ZM87.4526 81.0275C89.1474 81.0275 90.5214 82.4015 90.5214 84.0963H92.9765C92.9765 81.0456 90.5033 78.5725 87.4526 78.5725V81.0275ZM84.3838 84.0963C84.3838 82.4015 85.7577 81.0275 87.4526 81.0275V78.5725C84.4018 78.5725 81.9287 81.0456 81.9287 84.0963H84.3838ZM87.4526 87.1652C85.7577 87.1652 84.3838 85.7912 84.3838 84.0963H81.9287C81.9287 87.1471 84.4018 89.6202 87.4526 89.6202V87.1652Z" fill="#FFE9B4" mask="url(#path-14-outside-1_4059_6112)"/>
<path fill-rule="evenodd" clip-rule="evenodd" d="M81.9298 31.9263C84.3026 31.9263 86.2262 30.0028 86.2262 27.63C86.2262 25.2572 84.3026 23.3336 81.9298 23.3336C79.557 23.3336 77.6334 25.2572 77.6334 27.63C77.6334 30.0028 79.557 31.9263 81.9298 31.9263ZM102.798 74.2761C105.171 74.2761 107.094 72.3525 107.094 69.9797C107.094 67.6069 105.171 65.6834 102.798 65.6834C100.425 65.6834 98.5016 67.6069 98.5016 69.9797C98.5016 72.3525 100.425 74.2761 102.798 74.2761ZM66.5847 36.2227C66.5847 38.5955 64.6611 40.519 62.2883 40.519C59.9155 40.519 57.9919 38.5955 57.9919 36.2227C57.9919 33.8498 59.9155 31.9263 62.2883 31.9263C64.6611 31.9263 66.5847 33.8498 66.5847 36.2227ZM46.9448 57.0907C49.3176 57.0907 51.2412 55.1672 51.2412 52.7943C51.2412 50.4215 49.3176 48.498 46.9448 48.498C44.572 48.498 42.6484 50.4215 42.6484 52.7943C42.6484 55.1672 44.572 57.0907 46.9448 57.0907ZM73.336 90.8478C73.336 93.2206 71.4124 95.1441 69.0396 95.1441C66.6668 95.1441 64.7432 93.2206 64.7432 90.8478C64.7432 88.4749 66.6668 86.5514 69.0396 86.5514C71.4124 86.5514 73.336 88.4749 73.336 90.8478ZM88.6811 88.3927C91.0539 88.3927 92.9775 86.4692 92.9775 84.0963C92.9775 81.7235 91.0539 79.8 88.6811 79.8C86.3083 79.8 84.3847 81.7235 84.3847 84.0963C84.3847 86.4692 86.3083 88.3927 88.6811 88.3927Z" fill="#AC3C00"/>
<path fill-rule="evenodd" clip-rule="evenodd" d="M86.2259 27.63C86.2259 30.0028 84.3024 31.9264 81.9296 31.9264C81.7806 31.9264 81.6334 31.9188 81.4884 31.904C81.3768 31.5216 81.317 31.1172 81.317 30.6988C81.317 28.326 83.2406 26.4025 85.6134 26.4025C85.7624 26.4025 85.9095 26.41 86.0546 26.4248C86.1661 26.8072 86.2259 27.2116 86.2259 27.63ZM107.094 69.9798C107.094 72.3526 105.171 74.2761 102.798 74.2761C102.649 74.2761 102.502 74.2685 102.356 74.2537C102.245 73.8714 102.185 73.467 102.185 73.0487C102.185 70.6759 104.109 68.7523 106.482 68.7523C106.631 68.7523 106.778 68.7599 106.923 68.7747C107.034 69.157 107.094 69.5614 107.094 69.9798ZM62.2881 40.5191C64.6609 40.5191 66.5844 38.5955 66.5844 36.2227C66.5844 35.8043 66.5246 35.3999 66.4131 35.0175C66.268 35.0027 66.1209 34.9952 65.9719 34.9952C63.5991 34.9952 61.6755 36.9187 61.6755 39.2915C61.6755 39.7099 61.7353 40.1143 61.8469 40.4967C61.9919 40.5115 62.1391 40.5191 62.2881 40.5191ZM51.2409 52.7944C51.2409 55.1672 49.3174 57.0907 46.9446 57.0907C46.7956 57.0907 46.6484 57.0832 46.5034 57.0684C46.3918 56.686 46.332 56.2816 46.332 55.8632C46.332 53.4904 48.2556 51.5668 50.6284 51.5668C50.7773 51.5668 50.9245 51.5744 51.0696 51.5892C51.1811 51.9716 51.2409 52.376 51.2409 52.7944ZM69.0394 95.1441C71.4122 95.1441 73.3357 93.2206 73.3357 90.8478C73.3357 90.4295 73.2759 90.0251 73.1644 89.6427C73.0194 89.6279 72.8722 89.6204 72.7232 89.6204C70.3504 89.6204 68.4268 91.5439 68.4268 93.9167C68.4268 94.3351 68.4866 94.7394 68.5981 95.1218C68.7432 95.1366 68.8904 95.1441 69.0394 95.1441ZM92.9772 84.0964C92.9772 86.4692 91.0537 88.3927 88.6809 88.3927C88.5319 88.3927 88.3847 88.3852 88.2397 88.3704C88.1281 87.988 88.0683 87.5836 88.0683 87.1652C88.0683 84.7924 89.9919 82.8688 92.3647 82.8688C92.5136 82.8688 92.6608 82.8764 92.8059 82.8912C92.9174 83.2736 92.9772 83.678 92.9772 84.0964Z" fill="#581F00"/>
<path d="M78.8596 100.975C58.2371 105.148 46.7392 94.9395 43.875 89.6202C56.1503 104.044 75.1929 102.017 87.7592 96.0648C99.4208 90.5409 106.544 80.7206 111.082 70.5935C108.73 78.777 99.4821 96.8013 78.8596 100.975Z" fill="#FFDE79"/>
<path d="M73.3349 38.9846C54.9219 49.0504 53.7967 64.8651 55.5357 71.5142C53.6953 70.2867 52.7745 62.9215 54.9218 57.0907C59.1886 45.5051 68.7315 40.2121 73.3349 38.9846Z" fill="white"/>
<path d="M116.324 79.4932C102.821 103.307 81.0327 108.033 71.8262 107.419C75.8156 108.442 86.4338 108.954 96.9906 102.816C107.547 96.6786 114.278 84.7102 116.324 79.4932Z" fill="#AC3C01"/>
<path d="M85.3284 42.6672C67.8975 47.3319 61.6985 64.8651 60.7778 73.0486C60.7778 70.5936 60.2544 62.3077 67.5292 52.4875C72.4396 45.859 81.4412 43.1787 85.3284 42.6672Z" fill="#AC3C01"/>
<path d="M39.9995 82.5C36.8328 70.3333 36.0995 42.4 58.4995 28C45.8327 34.5 24.3991 54.5 39.9995 82.5Z" fill="#FFFCCA"/>
<path fill-rule="evenodd" clip-rule="evenodd" d="M69.3482 81.5572C72.6269 78.2692 74.4772 74.4348 68.9998 69.5C64.811 65.726 66.9482 62.3619 69.9802 57.5895C73.819 51.547 79.0922 43.2468 74.7752 28.9988C79.4624 33.6359 88.3086 46.0677 86.1958 58.6985C84.859 66.6895 88.4257 67.7492 92.8275 68.1567C90.6958 70.645 88.4825 72.9454 86.1938 74.89C81.9213 78.5202 75.4435 81.6162 69.3482 81.5572Z" fill="#D2221E"/>
<path fill-rule="evenodd" clip-rule="evenodd" d="M69.6804 81.5574C74.4676 77.6914 78.4772 73.7456 73.0003 70.5C66.6811 66.7553 68.7992 63.3293 71.9806 58.1836C75.3139 52.792 79.8144 45.5124 77.0003 34C81.6875 38.6371 86.6131 47.8692 84.5003 60.5C83.1577 68.5263 87.1997 69.0944 92.0587 69.0403C90.1646 71.1897 88.2078 73.1778 86.1925 74.8901C81.9978 78.4541 75.6774 81.5033 69.6804 81.5574Z" fill="#FF4C00"/>
<path fill-rule="evenodd" clip-rule="evenodd" d="M72.6328 81.302C79.4819 76.9141 85.1808 72.2802 76.0007 68.5C71.9586 66.8356 73.6239 63.934 75.927 59.9207C78.314 55.7613 81.3863 50.4078 79.5007 44C79.5319 44.0538 79.563 44.1073 79.594 44.1606C82.0255 48.3426 83.5869 51.0282 81.5007 63.5C80.1338 71.6714 85.1103 71.2845 90.8213 70.4098C89.3154 72.0359 87.7716 73.5477 86.1918 74.89C82.6821 77.872 77.6843 80.4936 72.6328 81.302Z" fill="#FFFA6E"/>
<path d="M93.2938 39.8962C94.2056 42.3164 92.1438 47.2784 90.9989 49.4569C106.077 46.1591 106.265 36.856 101.53 33.4579C97.7422 30.7393 95.4918 25.2298 94.8402 22.8148C89.3473 27.2071 92.1541 36.8709 93.2938 39.8962Z" fill="#FF4C00" stroke="#D2221E" stroke-width="1.58168"/>
<path d="M95.263 36.6334C95.8079 37.6779 95.5384 40.9833 95.1541 42.0352C101.675 39.6848 100.855 34.8605 98.5521 33.5903C96.7098 32.574 95.3915 30.2062 94.9626 29.1494C92.7703 31.451 94.5818 35.3278 95.263 36.6334Z" fill="#FFFA6E"/>
<defs>
<filter id="filter0_f_4059_6112" x="0" y="55" width="158" height="90" filterUnits="userSpaceOnUse" color-interpolation-filters="sRGB">
<feFlood flood-opacity="0" result="BackgroundImageFix"/>
<feBlend mode="normal" in="SourceGraphic" in2="BackgroundImageFix" result="shape"/>
<feGaussianBlur stdDeviation="20" result="effect1_foregroundBlur_4059_6112"/>
</filter>
<radialGradient id="paint0_radial_4059_6112" cx="0" cy="0" r="1" gradientUnits="userSpaceOnUse" gradientTransform="translate(91.5 104) scale(54.5 9)">
<stop stop-color="#0E1124"/>
<stop offset="1" stop-color="#0E1124" stop-opacity="0"/>
</radialGradient>
<linearGradient id="paint1_linear_4059_6112" x1="66.5832" y1="39.9059" x2="120.289" y2="42.9748" gradientUnits="userSpaceOnUse">
<stop stop-color="#AC3C00" stop-opacity="0"/>
<stop offset="1" stop-color="#AC3C00"/>
</linearGradient>
<linearGradient id="paint2_linear_4059_6112" x1="127.679" y1="71.2074" x2="126.452" y2="72.7418" gradientUnits="userSpaceOnUse">
<stop stop-color="#AC3C01"/>
<stop offset="1" stop-color="#DA7817"/>
</linearGradient>
<linearGradient id="paint3_linear_4059_6112" x1="110.338" y1="30.1938" x2="108.868" y2="31.498" gradientUnits="userSpaceOnUse">
<stop stop-color="#B44105"/>
<stop offset="1" stop-color="#DC5D19"/>
</linearGradient>
<linearGradient id="paint4_linear_4059_6112" x1="116.124" y1="75.5036" x2="101.678" y2="92.5575" gradientUnits="userSpaceOnUse">
<stop stop-color="#AC3C00"/>
<stop offset="1" stop-color="#AC3C00" stop-opacity="0"/>
</linearGradient>
<linearGradient id="paint5_linear_4059_6112" x1="70.9924" y1="5.49133" x2="41.948" y2="84.4762" gradientUnits="userSpaceOnUse">
<stop stop-color="#FAF149"/>
<stop offset="1" stop-color="#FFCD36"/>
</linearGradient>
</defs>
</svg>
