<svg width="171" height="220" viewBox="0 0 171 220" fill="none" xmlns="http://www.w3.org/2000/svg">
<path d="M4 57.5C4 27.9528 27.9528 4 57.5 4C87.0472 4 111 27.9528 111 57.5V224H4V57.5Z" fill="#141A39"/>
<path d="M111 226H113V224V57.5C113 26.8482 88.1518 2 57.5 2C26.8482 2 2 26.8482 2 57.5V224V226H4H111Z" stroke="#141A39" stroke-opacity="0.4" stroke-width="4"/>
<path d="M6 57.5C6 29.0573 29.0573 6 57.5 6C85.9427 6 109 29.0573 109 57.5V222H6V57.5Z" fill="#141A39" stroke="#374173" stroke-width="4"/>
<path d="M102.764 46.873C120.749 52.7246 121.665 73.8195 119.226 83.4544C113.982 88.941 103.35 100.061 102.764 100.647C102.033 101.377 57.708 147.837 59.5976 118.205C61.487 88.5759 50.8182 90.7689 47.5256 83.4544C44.2333 76.137 55.9392 77.5998 58.9265 76.1369C61.9134 74.6768 49.7206 71.3831 56.3656 65.1636C63.011 58.9441 73.9249 65.5287 78.6806 64.4308C83.4364 63.3357 74.3881 57.1162 72.0355 53.8225C70.2065 51.2617 84.7793 41.0185 102.764 46.873Z" fill="url(#paint0_linear_6001_2085)"/>
<path d="M130.99 212.635C126.6 207.879 118.552 210.926 114.162 214.463C114.162 214.463 110.138 214.463 107.212 204.588C104.285 194.71 103.554 187.027 103.554 187.027L94.4082 192.514L104.651 219.95H133.916C133.916 219.95 134.516 216.455 130.99 212.635Z" fill="url(#paint1_linear_6001_2085)"/>
<path d="M72.4582 213.003C68.0686 208.247 61.4837 210.075 57.0942 213.733C57.0942 213.733 58.1915 206.368 75.019 184.786C91.8465 163.202 61.4838 178.202 61.4838 178.202L44.6562 219.905H75.7507C75.7507 219.905 75.9847 216.823 72.4582 213.003Z" fill="url(#paint2_linear_6001_2085)"/>
<path d="M166.049 132.471C160.955 126.574 155.806 125.522 154.708 125.887L137.515 131.738C126.419 132.35 103.421 138.691 100.202 159.174C96.9829 179.661 121.541 182.587 134.223 181.492C141.905 180.026 158.806 174.027 164.951 161.735C172.633 146.373 172.999 140.519 166.049 132.471Z" fill="url(#paint3_linear_6001_2085)"/>
<mask id="mask0_6001_2085" style="mask-type:alpha" maskUnits="userSpaceOnUse" x="17" y="80" width="147" height="123">
<path d="M45.328 105.036C40.0601 117.328 50.6932 121.864 56.6682 122.597L61.0578 110.891C64.716 97.7187 74.5931 76.5022 115.564 81.6238C148.342 85.7211 157.389 113.327 157.267 126.621C162.267 131.131 169.12 146.592 156.536 172.347C140.806 204.537 70.5693 212.952 36.1826 189.905C8.67358 171.467 17.8919 133.935 25.9399 117.475L29.964 120.401C27.3299 107.818 39.109 104.914 45.328 105.036Z" fill="white"/>
</mask>
<g mask="url(#mask0_6001_2085)">
<path d="M45.328 105.036C40.0601 117.328 50.6932 121.863 56.6682 122.596L61.0578 110.89C64.716 97.7182 74.5931 76.5017 115.564 81.6233C148.342 85.7206 157.389 113.326 157.267 126.62C162.267 131.13 169.12 146.591 156.536 172.347C140.806 204.537 70.5693 212.952 36.1826 189.905C8.67358 171.467 17.8919 133.935 25.9399 117.475L29.964 120.4C27.3299 107.817 39.109 104.914 45.328 105.036Z" fill="url(#paint4_linear_6001_2085)"/>
<path d="M54.5335 186.296C25.561 175.759 23.1954 135.57 25.634 116.79L22.342 110.205L-3.63086 141.665L25.634 226.169L150.377 211.537L152.206 180.807C125.502 202.026 90.7493 199.466 54.5335 186.296Z" fill="#CBD3D5"/>
</g>
<g filter="url(#filter0_dd_6001_2085)">
<path d="M73.2062 179.293C79.624 170.807 81.9922 150.762 78.1722 146.005C74.3519 141.249 52.0678 136.005 48.3748 132.471L41.1165 140.519C35.6155 138.47 29.1469 132.347 26.6003 129.542C0.623202 156.979 11.7017 166.857 26.6003 176.002C41.4988 185.147 65.1839 189.904 73.2062 179.293Z" fill="white"/>
</g>
<mask id="mask1_6001_2085" style="mask-type:alpha" maskUnits="userSpaceOnUse" x="11" y="129" width="70" height="57">
<path d="M73.2062 179.293C79.624 170.807 81.9922 150.762 78.1722 146.005C74.3519 141.249 52.0678 136.005 48.3748 132.471L41.1165 140.519C35.6155 138.47 29.1469 132.347 26.6003 129.542C0.623202 156.979 11.7017 166.857 26.6003 176.002C41.4988 185.147 65.1839 189.904 73.2062 179.293Z" fill="white"/>
</mask>
<g mask="url(#mask1_6001_2085)">
<path d="M73.2101 179.293C79.628 170.807 81.9961 150.762 78.1761 146.006C74.3558 141.249 52.0717 136.006 48.3787 132.472L41.1204 140.519C35.6194 138.47 29.1509 132.347 26.6042 129.543C0.627109 156.979 11.7057 166.857 26.6042 176.003C41.5027 185.148 65.1878 189.905 73.2101 179.293Z" fill="white"/>
<path d="M77.0922 174.956C60.2837 214.098 1.83525 169.834 3.63235 146.286L8.8431 141.074L15.9701 138.739C14.0598 162.517 44.2386 191.051 77.0922 174.956Z" fill="#DFE9EA"/>
</g>
<path d="M76.0563 72.8429C91.8598 71.0857 104.834 81.377 109.346 86.742L66.1795 108.691C57.3997 94.4244 56.3024 75.0359 76.0563 72.8429Z" fill="white"/>
<path d="M76.9016 76.338C90.7702 74.5921 99.8968 83.4545 102.823 88.5761L69.8997 110.891C62.1949 96.7029 59.5656 78.5197 76.9016 76.338Z" fill="url(#paint5_linear_6001_2085)"/>
<path d="M129.16 74.3089C123.247 79.0655 119.223 89.6737 119.223 101.745L139.708 103.573C141.05 103.573 143.723 98.7851 145.987 84.9171C148.914 66.9943 135.073 69.5551 129.16 74.3089Z" fill="white"/>
<path d="M131.356 77.603C125.125 83.3782 126.235 86.7483 127.332 98.0867L139.404 102.11C140.445 102.11 142.401 101.573 144.159 87.8434C146.431 70.096 137.587 71.8277 131.356 77.603Z" fill="url(#paint6_linear_6001_2085)"/>
<path d="M75.6899 131.742C88.8593 133.57 105.747 125.573 105.747 101.428L90.8703 99.5493C84.7705 102.716 71.7101 109.996 68.2653 113.794C62.2713 120.401 62.5203 129.914 75.6899 131.742Z" fill="#E98888"/>
<path d="M154.768 116.428C145.257 124.11 131.299 105.828 130.93 105.452L137.947 92.2344L150.503 99.0311C152.842 102.806 158.457 113.448 154.768 116.428Z" fill="#E98888"/>
<path d="M137.206 127.401C126.963 140.938 111.233 157.033 99.5268 149.715C87.8207 142.401 102.405 131.091 108.672 116.793C114.94 102.495 118.138 95.7318 126.963 99.5999C135.788 103.468 143.473 113.103 137.206 127.401Z" fill="url(#paint7_linear_6001_2085)"/>
<path d="M127.515 100.089C130.341 112.084 141.337 115.867 148.494 114.184C155.651 112.497 156.235 97.5767 152.577 88.6266C148.92 79.6737 140.711 73.4032 133.555 75.0897C126.398 76.7761 124.689 88.0946 127.515 100.089Z" fill="black"/>
<path d="M105.018 105.454C101.76 119.738 89.9012 128.394 78.3139 125.573C66.7266 122.755 58.9595 110.228 62.2181 95.9439C65.4767 81.66 80.6277 75.1972 92.215 78.0183C103.802 80.8366 108.277 91.1704 105.018 105.454Z" fill="black"/>
<mask id="mask2_6001_2085" style="mask-type:alpha" maskUnits="userSpaceOnUse" x="62" y="76" width="93" height="51">
<path d="M104.928 107.854C101.685 121.618 89.786 128.969 78.2531 126.253C66.7198 123.536 59.9196 111.779 63.163 98.0129C66.4063 84.2468 81.3509 77.4415 92.8842 80.1607C104.417 82.8772 108.172 94.0882 104.928 107.854Z" fill="#FFF5C4"/>
<path d="M127.51 100.087C130.336 112.082 141.332 115.868 148.489 114.182C155.645 112.495 156.17 100.087 152.512 91.1371C148.855 82.1842 140.748 75.311 133.592 76.9975C126.435 78.6839 124.684 88.0925 127.51 100.087Z" fill="#FFF5C4"/>
</mask>
<g mask="url(#mask2_6001_2085)">
<path d="M104.93 107.855C101.687 121.618 89.788 128.969 78.255 126.253C66.7217 123.537 59.9216 111.779 63.1649 98.0134C66.4082 84.2472 81.3529 77.442 92.8861 80.1612C104.419 82.8777 108.173 94.0887 104.93 107.855Z" fill="#FFF09E"/>
<path d="M127.512 100.087C130.338 112.082 141.334 115.868 148.49 114.181C155.647 112.495 156.172 100.087 152.514 91.1366C148.857 82.1837 140.75 75.3105 133.594 76.997C126.437 78.6834 124.686 88.092 127.512 100.087Z" fill="#FFF09E"/>
<path d="M152.357 98.92C154.137 98.2736 154.631 95.1339 153.46 91.9074C152.288 88.6809 149.895 86.5893 148.115 87.2358C146.334 87.8822 145.84 91.0219 147.012 94.2484C148.183 97.4749 150.576 99.5664 152.357 98.92Z" fill="#433F20"/>
<path d="M132.455 96.674C127.187 88.1852 130.26 79.9679 132.455 76.9204L122.944 79.4812L120.018 119.718L152.209 124.11L155.136 104.356C152.575 113.867 139.04 107.282 132.455 96.674Z" fill="#EBD778"/>
<path d="M66.6076 99.6C68.8025 82.7723 76.8505 80.0162 84.8985 79.4814L62.9494 80.9443C60.8764 86.3093 56.7305 97.1864 56.7305 97.7721C56.7305 98.3578 58.9254 118.012 60.023 127.769L100.628 135.451C107.579 128.621 110.128 86.9545 105.75 101.063C95.8729 132.891 64.4126 116.428 66.6076 99.6Z" fill="#EBD778"/>
<path d="M74.0039 102.103C76.4716 103.003 79.5283 100.834 80.8312 97.2584C82.134 93.6832 81.1898 90.0559 78.7221 89.1566C76.2544 88.2573 73.1977 90.4266 71.8948 94.0018C70.592 97.5769 71.5362 101.204 74.0039 102.103Z" fill="#433F20"/>
</g>
<path d="M134.531 128.086C138.01 139.939 130.346 136.063 123.371 133.213C116.397 130.367 113.033 121.575 115.858 113.579C118.682 105.579 133.829 92.2913 141.38 106.714C148.931 121.136 129.418 110.661 134.531 128.086Z" fill="#2F2F2F"/>
<path d="M116.193 133.725C121.497 139.885 131.532 144.744 138.599 130.474C138.599 130.474 126.925 132.347 119.454 127.565C116.149 125.448 117.222 119.996 116.98 116.844C116.674 112.868 112.869 111.994 109.969 114.781C104.77 119.781 110.888 127.568 116.193 133.725Z" fill="url(#paint8_radial_6001_2085)"/>
<path d="M105.926 130.54C105.03 122.571 113.97 119.473 119.156 118.058C121.83 117.331 122.143 115.599 124.194 117.068C126.244 118.534 126.002 121.247 122.341 122.62C118.68 123.992 117.819 126.796 117.227 132.885C116.556 139.801 106.991 140.01 105.926 130.54Z" fill="url(#paint9_linear_6001_2085)"/>
<path d="M115.476 104.448C113.826 110.223 111.323 102.874 107.307 108.72C103.291 114.569 110.792 122.469 119.039 119.628C127.286 116.787 132.628 113.825 136.702 114.778C140.326 115.627 140.594 116.615 142.153 119.628C150.192 101.332 139.46 96.7622 132.458 94.4646C125.455 92.1641 117.538 97.2263 115.476 104.448Z" fill="url(#paint10_radial_6001_2085)"/>
<path d="M126.435 101.468C124.177 102.809 122.164 103.655 121.218 102.062C120.273 100.469 121.337 98.092 123.595 96.7507C125.853 95.4095 128.45 95.6132 129.396 97.2063C130.341 98.7993 128.693 100.126 126.435 101.468Z" fill="#FFE973"/>
<path d="M128.385 173.578C123.683 175.824 121.647 167.947 121.217 163.728C128.39 163.832 134.794 158.892 137.098 156.41C141.739 157.449 141.495 161.891 138.752 165.776C136.557 168.883 132.576 164.893 130.86 162.511C131.994 165.264 133.086 171.331 128.385 173.578Z" fill="#DBEAEC"/>
<path d="M157.866 170.201C162.917 170.201 167.011 167.417 167.011 163.982C167.011 160.548 162.917 157.764 157.866 157.764C152.815 157.764 148.721 160.548 148.721 163.982C148.721 167.417 152.815 170.201 157.866 170.201Z" fill="#EEF7FA"/>
<path d="M153.024 178.801C156.709 182.17 161.549 182.874 163.835 180.374C166.121 177.874 164.987 173.116 161.302 169.747C157.618 166.378 152.778 165.674 150.492 168.174C148.206 170.674 149.339 175.432 153.024 178.801Z" fill="#EEF7FA"/>
<defs>
<filter id="filter0_dd_6001_2085" x="9.62801" y="127.485" width="70.3818" height="60.6125" filterUnits="userSpaceOnUse" color-interpolation-filters="sRGB">
<feFlood flood-opacity="0" result="BackgroundImageFix"/>
<feColorMatrix in="SourceAlpha" type="matrix" values="0 0 0 0 0 0 0 0 0 0 0 0 0 0 0 0 0 0 127 0" result="hardAlpha"/>
<feOffset dy="2.74396"/>
<feComposite in2="hardAlpha" operator="out"/>
<feColorMatrix type="matrix" values="0 0 0 0 0.672222 0 0 0 0 0.726543 0 0 0 0 0.733333 0 0 0 1 0"/>
<feBlend mode="normal" in2="BackgroundImageFix" result="effect1_dropShadow_6001_2085"/>
<feColorMatrix in="SourceAlpha" type="matrix" values="0 0 0 0 0 0 0 0 0 0 0 0 0 0 0 0 0 0 127 0" result="hardAlpha"/>
<feOffset dx="-1.37199" dy="-2.05798"/>
<feComposite in2="hardAlpha" operator="out"/>
<feColorMatrix type="matrix" values="0 0 0 0 0.81724 0 0 0 0 0.879693 0 0 0 0 0.8875 0 0 0 1 0"/>
<feBlend mode="normal" in2="effect1_dropShadow_6001_2085" result="effect2_dropShadow_6001_2085"/>
<feBlend mode="normal" in="SourceGraphic" in2="effect2_dropShadow_6001_2085" result="shape"/>
</filter>
<linearGradient id="paint0_linear_6001_2085" x1="83.5801" y1="48.3868" x2="83.5801" y2="128.075" gradientUnits="userSpaceOnUse">
<stop stop-color="#E33131"/>
<stop offset="1" stop-color="#8B1313"/>
</linearGradient>
<linearGradient id="paint1_linear_6001_2085" x1="110.504" y1="195.808" x2="114.182" y2="219.95" gradientUnits="userSpaceOnUse">
<stop stop-color="#814610"/>
<stop offset="1" stop-color="#DDA71C"/>
</linearGradient>
<linearGradient id="paint2_linear_6001_2085" x1="65.5078" y1="193.615" x2="62.3779" y2="219.905" gradientUnits="userSpaceOnUse">
<stop stop-color="#814610"/>
<stop offset="1" stop-color="#DDA71C"/>
</linearGradient>
<linearGradient id="paint3_linear_6001_2085" x1="135.458" y1="125.822" x2="135.458" y2="181.69" gradientUnits="userSpaceOnUse">
<stop stop-color="#C9D1D2"/>
<stop offset="1" stop-color="#809497"/>
</linearGradient>
<linearGradient id="paint4_linear_6001_2085" x1="90.7038" y1="80.8423" x2="90.7038" y2="202.972" gradientUnits="userSpaceOnUse">
<stop stop-color="white"/>
<stop offset="1" stop-color="#E6F4F7"/>
</linearGradient>
<linearGradient id="paint5_linear_6001_2085" x1="83.4349" y1="76.1399" x2="76.8504" y2="92.5999" gradientUnits="userSpaceOnUse">
<stop stop-color="#C3D3D5"/>
<stop offset="1" stop-color="#C3D3D4" stop-opacity="0"/>
</linearGradient>
<linearGradient id="paint6_linear_6001_2085" x1="131.721" y1="76.1372" x2="142.33" y2="83.8197" gradientUnits="userSpaceOnUse">
<stop stop-color="#C3D3D4"/>
<stop offset="1" stop-color="#C3D3D4" stop-opacity="0"/>
</linearGradient>
<linearGradient id="paint7_linear_6001_2085" x1="119.281" y1="122.647" x2="60.3849" y2="168.739" gradientUnits="userSpaceOnUse">
<stop stop-color="#DBEAEC"/>
<stop offset="1" stop-color="#DBEAEC" stop-opacity="0"/>
</linearGradient>
<radialGradient id="paint8_radial_6001_2085" cx="0" cy="0" r="1" gradientUnits="userSpaceOnUse" gradientTransform="translate(126.749 127.047) rotate(102.205) scale(13.9603 21.7306)">
<stop stop-color="#F0C11C"/>
<stop offset="1" stop-color="#CF8810"/>
</radialGradient>
<linearGradient id="paint9_linear_6001_2085" x1="123.453" y1="115.65" x2="112.302" y2="137.036" gradientUnits="userSpaceOnUse">
<stop stop-color="#ED3535"/>
<stop offset="1" stop-color="#FF6D6D"/>
</linearGradient>
<radialGradient id="paint10_radial_6001_2085" cx="0" cy="0" r="1" gradientUnits="userSpaceOnUse" gradientTransform="translate(125.287 102.815) rotate(34.6121) scale(24.8531 40.0519)">
<stop stop-color="#FFCF24"/>
<stop offset="1" stop-color="#DF920F"/>
</radialGradient>
</defs>
</svg>
