<svg width="2047" height="638" viewBox="0 0 2047 638" fill="none" xmlns="http://www.w3.org/2000/svg">
    <path d="M542.5 0H570L674 65H645L542.5 0Z" fill="#FFA200"/>
    <path d="M435 638H462.5L566.5 573H537.5L435 638Z" fill="#FDE43B"/>
    <path d="M361.08 515L427 316L486.387 515H631.128C631.128 515 619.907 546.083 612.716 566C598.501 569.312 590.394 570.743 575.892 572.5C560.794 574.329 537.021 575 537.021 575H128.88C98.1932 575 79.2693 575 49.0935 565.5C31.6149 559.997 20.4521 552.5 11.7574 542C0.944499 528.942 0.000160481 515 0.000160481 515H361.08Z" fill="url(#paint0_linear_135_1403)"/>
    <path d="M125.3 104.5C136.277 95.2962 143.441 91.0761 156.499 85C169.787 78.8165 192.301 73.5 192.301 73.5L174.911 125L129.903 292.5L68.5286 515H0.000160481C0.000160481 515 0.000488281 472.144 3.57393 457C22.8809 375.179 27.6131 368 49.0935 289C61.629 242.897 69.5523 217 82.8493 172C94.9166 131.162 101.274 124.646 125.3 104.5Z" fill="url(#paint1_linear_135_1403)"/>
    <path d="M615.778 125L561 323L490.473 125L174.4 125L192.301 73.5C192.301 73.5 208.123 70.2725 218.385 69C228.521 67.743 244.469 66.8588 244.469 66.8588L676.137 64.8588C706.824 64.8588 725.747 65 755.923 74.5C773.402 80.0026 784.565 87.5 793.259 98C804.072 111.058 804 125 804 125L615.778 125Z" fill="url(#paint2_linear_135_1403)"/>
    <path d="M679.716 534.5C668.74 543.704 661.575 547.924 648.518 554C635.229 560.184 627.09 562.912 612.716 566C619.507 545.693 630.105 514 630.105 514L675.113 346.5L736.488 124L804 124C804 124 803.888 154.292 801.443 173.5C796.927 208.986 735.624 438.992 722.167 467C708.71 495.008 703.743 514.354 679.716 534.5Z" fill="url(#paint3_linear_135_1403)"/>
    <path d="M542.5 0L645.281 65.143L437.672 66.75L542.5 0Z" fill="url(#paint4_linear_135_1403)"/>
    <path d="M435 638L330.266 571.25H540.216L435 638Z" fill="url(#paint5_linear_135_1403)"/>
    <path d="M300.143 125H348.806L244.032 515H195.369L300.143 125Z" fill="url(#paint6_linear_135_1403)"/>
    <path d="M112.514 226H288.454V275H112.514V226Z" fill="url(#paint7_linear_135_1403)"/>
    <path d="M492 515L427 316L467 515H492Z" fill="#FFF348"/>
    <path d="M629 125L561 323L603.5 125H629Z" fill="#FFA200"/>
    <path d="M788.725 154.998L790.667 140.964C792.501 127.717 789.775 114.239 782.937 102.745C774.676 88.8609 761.08 78.9755 745.325 75.3999L699.501 64.9998L715.43 64.9999C719.465 65 723.489 65.4316 727.432 66.2875L760.079 73.3737C776.73 76.988 791.378 86.8132 801.039 100.849C808.728 112.019 812.845 125.261 812.845 138.822L812.845 148.532C812.845 157.114 811.72 165.659 809.499 173.949L727.207 481.069C720.507 506.074 705.302 527.963 684.209 542.97C673.489 550.597 661.503 556.263 648.805 559.706L639.903 562.12C619.35 567.693 598.301 571.238 577.057 572.703L565.5 573.5L635.888 548.212C644.594 545.084 652.856 540.838 660.466 535.579C681.289 521.19 696.318 499.868 702.868 475.42L788.725 154.998Z" fill="#FFF348"/>
    <path d="M79.5 515H55L120.627 275H143L79.5 515Z" fill="url(#paint8_linear_135_1403)"/>
    <path d="M258.5 515H234L338 125H361L258.5 515Z" fill="#FFF349"/>
    <path d="M258.5 515H234L338 125H361L258.5 515Z" fill="url(#paint9_linear_135_1403)"/>
    <path d="M157 226H132.283L159.627 125H182L157 226Z" fill="#FFAA06"/>
    <path d="M949.812 126.811C949.812 126.811 911.247 132.785 900.203 137.131C871.234 148.718 849.508 174.066 837.377 210.458C833.756 221.321 787.044 395.314 780.888 421.205C774.371 448.363 774.371 469.003 780.888 482.582C788.493 497.972 800.985 506.662 823.436 511.913C833.213 514.266 851.862 514.991 930.439 515.534C1052.47 516.62 1072.2 514.629 1102.98 498.515C1124.53 487.108 1143.9 461.58 1154.58 429.895C1160.02 414.144 1209.08 230.193 1213.06 211.001C1222.84 163.927 1209.99 140.028 1169.07 129.164C1159.11 126.63 1144.26 126.086 1057.18 125.905C1001.96 125.724 949.812 126.811 949.812 126.811ZM1087.05 231.279C1084.52 241.961 1042.51 397.849 1040.7 403.28L1038.71 409.255H971.901C935.147 409.255 905.092 409.255 905.092 409.255C905.092 408.169 946.734 252.462 951.441 235.805L954.157 226.39H1021.33H1088.32L1087.05 231.279Z" fill="white"/>
    <path d="M1276.19 125C1271.84 138.036 1196.52 425.55 1194.71 435.87C1188.01 472.805 1195.98 495.075 1219.33 505.214C1241.97 514.81 1246.13 515.172 1360.38 515.172C1455.79 515.172 1467.92 514.81 1482.59 511.913C1526.22 503.041 1549.58 483.306 1566.96 440.939C1570.94 431.344 1589.95 364.354 1613.67 275.818C1635.76 193.982 1653.68 125.543 1653.68 125C1653.68 125 1626.16 125 1592.49 125H1531.29L1493.45 265.317C1472.63 342.446 1454.34 408.169 1453.62 409.255H1388.44H1355.4H1322.35L1360.56 268.938C1381.38 192.171 1398.4 126.267 1398.4 125C1398.4 125 1385 125 1337.74 125C1290.67 125 1276.19 125 1276.19 125Z" fill="white"/>
    <path d="M1684.89 125C1684.53 126.267 1678.74 149.804 1672.22 174.79C1665.7 199.594 1658.28 224.761 1657.73 226.39C1657.73 226.39 1662.08 226.39 1718.39 226.39H1778.32L1777.05 230.373C1776.32 232.727 1759.12 296.458 1738.85 372.139C1718.57 447.819 1699.01 514.447 1698.47 516.077H1761.66H1823.4C1823.94 513.904 1842.41 444.742 1863.05 367.613L1900.98 226.752H1960.64H2020.75C2021.29 225.123 2040.48 149.804 2047 125C2047 125 2010.79 125 1866.67 125C1723.46 125 1684.89 125 1684.89 125Z" fill="white"/>
    <defs>
        <linearGradient id="paint0_linear_135_1403" x1="346.5" y1="743.5" x2="469.559" y2="43.3951" gradientUnits="userSpaceOnUse">
            <stop offset="0.380208" stop-color="#FFA200"/>
            <stop offset="1" stop-color="#FDE43B"/>
        </linearGradient>
        <linearGradient id="paint1_linear_135_1403" x1="346.5" y1="743.5" x2="469.559" y2="43.3951" gradientUnits="userSpaceOnUse">
            <stop offset="0.380208" stop-color="#FFA200"/>
            <stop offset="1" stop-color="#FDE43B"/>
        </linearGradient>
        <linearGradient id="paint2_linear_135_1403" x1="346.5" y1="743.5" x2="469.559" y2="43.3951" gradientUnits="userSpaceOnUse">
            <stop offset="0.380208" stop-color="#FFA200"/>
            <stop offset="1" stop-color="#FDE43B"/>
        </linearGradient>
        <linearGradient id="paint3_linear_135_1403" x1="346.5" y1="743.5" x2="469.559" y2="43.3951" gradientUnits="userSpaceOnUse">
            <stop offset="0.380208" stop-color="#FFA200"/>
            <stop offset="1" stop-color="#FDE43B"/>
        </linearGradient>
        <linearGradient id="paint4_linear_135_1403" x1="346.5" y1="743.5" x2="469.559" y2="43.3951" gradientUnits="userSpaceOnUse">
            <stop offset="0.380208" stop-color="#FFA200"/>
            <stop offset="1" stop-color="#FDE43B"/>
        </linearGradient>
        <linearGradient id="paint5_linear_135_1403" x1="346.5" y1="743.5" x2="469.559" y2="43.3951" gradientUnits="userSpaceOnUse">
            <stop offset="0.380208" stop-color="#FFA200"/>
            <stop offset="1" stop-color="#FDE43B"/>
        </linearGradient>
        <linearGradient id="paint6_linear_135_1403" x1="346.5" y1="743.5" x2="469.559" y2="43.3951" gradientUnits="userSpaceOnUse">
            <stop offset="0.380208" stop-color="#FFA200"/>
            <stop offset="1" stop-color="#FDE43B"/>
        </linearGradient>
        <linearGradient id="paint7_linear_135_1403" x1="346.5" y1="743.5" x2="469.559" y2="43.3951" gradientUnits="userSpaceOnUse">
            <stop offset="0.380208" stop-color="#FFA200"/>
            <stop offset="1" stop-color="#FDE43B"/>
        </linearGradient>
        <linearGradient id="paint8_linear_135_1403" x1="99" y1="275" x2="55" y2="515" gradientUnits="userSpaceOnUse">
            <stop stop-color="#FFAA06"/>
            <stop offset="1" stop-color="#FFF348"/>
        </linearGradient>
        <linearGradient id="paint9_linear_135_1403" x1="315.5" y1="275" x2="177" y2="772.999" gradientUnits="userSpaceOnUse">
            <stop stop-color="#FFAB00"/>
            <stop offset="1" stop-color="#FFE600" stop-opacity="0"/>
        </linearGradient>
    </defs>
</svg>
