<svg width="105" height="30" viewBox="0 0 105 30" fill="none" xmlns="http://www.w3.org/2000/svg">
<path d="M35.1492 14.1386C31.6751 14.1386 29.1275 11.8072 29.1275 8.4875C29.1275 5.16784 31.6751 2.83636 35.1492 2.83636C37.2645 2.83636 38.932 3.60838 39.9974 4.998L37.6968 7.05156C37.0638 6.24866 36.3072 5.78546 35.3344 5.78546C33.8213 5.78546 32.8022 6.83539 32.8022 8.4875C32.8022 10.1396 33.8213 11.1896 35.3344 11.1896C36.3072 11.1896 37.0638 10.7263 37.6968 9.92345L39.9974 11.977C38.932 13.3666 37.2645 14.1386 35.1492 14.1386ZM47.905 3.08341H51.5489V13.8916H47.905V9.90801H44.539V13.8916H40.8951V3.08341H44.539V6.9126H47.905V3.08341ZM53.1502 13.8916V3.08341H56.7941V13.8916H53.1502ZM63.9833 14.1386C60.5092 14.1386 57.9616 11.8072 57.9616 8.4875C57.9616 5.16784 60.5092 2.83636 63.9833 2.83636C66.0986 2.83636 67.7661 3.60838 68.8315 4.998L66.5309 7.05156C65.8979 6.24866 65.1413 5.78546 64.1686 5.78546C62.6554 5.78546 61.6364 6.83539 61.6364 8.4875C61.6364 10.1396 62.6554 11.1896 64.1686 11.1896C65.1413 11.1896 65.8979 10.7263 66.5309 9.92345L68.8315 11.977C67.7661 13.3666 66.0986 14.1386 63.9833 14.1386ZM76.8318 13.8916L74.1297 10.3095L73.3114 11.2204V13.8916H69.7292V3.08341H73.3114V7.00524L76.8626 3.08341H80.8308L76.5075 7.83901L81.047 13.8916H76.8318ZM84.9634 11.1432H90.3675V13.8916H81.3812V3.08341H90.1667V5.83178H84.9634V7.09788H89.5337V9.72273H84.9634V11.1432ZM98.7184 3.08341H102.27V13.8916H99.2742L95.1671 8.98159V13.8916H91.6158V3.08341H94.6112L98.7184 7.99341V3.08341ZM36.0293 27.8916L34.1919 25.1741H33.2037V27.8916H29.5598V17.0834H34.7632C37.774 17.0834 39.6886 18.6583 39.6886 21.1596C39.6886 22.7191 38.9475 23.8926 37.6505 24.5565L39.9202 27.8916H36.0293ZM36.0138 21.1596C36.0138 20.3722 35.5352 19.8935 34.5316 19.8935H33.2037V22.4257H34.5316C35.5352 22.4257 36.0138 21.9471 36.0138 21.1596ZM46.5768 28.1386C43.0564 28.1386 40.4779 25.7608 40.4779 22.4875C40.4779 19.2142 43.0564 16.8364 46.5768 16.8364C50.0972 16.8364 52.6757 19.2142 52.6757 22.4875C52.6757 25.7608 50.0972 28.1386 46.5768 28.1386ZM46.5768 25.1896C47.9201 25.1896 49.0009 24.1705 49.0009 22.4875C49.0009 20.8045 47.9201 19.7855 46.5768 19.7855C45.2335 19.7855 44.1527 20.8045 44.1527 22.4875C44.1527 24.1705 45.2335 25.1896 46.5768 25.1896ZM61.7838 27.8916L61.0581 26.0079H56.951L56.2253 27.8916H52.5196L57.2443 17.0834H60.8265L65.5512 27.8916H61.7838ZM57.9546 23.383H60.0545L59.0045 20.6656L57.9546 23.383ZM65.9783 27.8916V17.0834H71.3052C74.9183 17.0834 77.4041 19.137 77.4041 22.4875C77.4041 25.838 74.9183 27.8916 71.3052 27.8916H65.9783ZM69.6222 25.0506H71.1508C72.6794 25.0506 73.7294 24.1396 73.7294 22.4875C73.7294 20.8354 72.6794 19.9244 71.1508 19.9244H69.6222V25.0506Z" fill="white"/>
<mask id="mask0_543_1533" style="mask-type:alpha" maskUnits="userSpaceOnUse" x="2" y="1" width="24" height="28">
<path d="M25.7324 17.0917C25.7324 23.2687 20.576 28.6805 14.2153 28.6805C7.85461 28.6805 2.69824 23.2687 2.69824 17.0917C2.69824 10.9147 7.85461 1.39307 14.2153 1.39307C20.576 1.39307 25.7324 10.9147 25.7324 17.0917Z" fill="#D9D9D9"/>
</mask>
<g mask="url(#mask0_543_1533)">
<path d="M25.7324 17.0917C25.7324 23.2687 20.576 28.6805 14.2153 28.6805C7.85461 28.6805 2.69824 23.2687 2.69824 17.0917C2.69824 10.9147 7.85461 1.39307 14.2153 1.39307C20.576 1.39307 25.7324 10.9147 25.7324 17.0917Z" fill="#F1C425"/>
<path d="M17.7012 23.1577C26.8869 20.087 25.4638 13.0857 22.6822 7.98828L29.7332 15.4195L30.8976 29.5449L12.6555 33.4754L-3.25781 25.2458L4.24603 10.8748C1.59381 18.1831 8.51546 26.2285 17.7012 23.1577Z" fill="url(#paint0_linear_543_1533)"/>
<ellipse cx="8.15894" cy="8.44375" rx="8.15894" ry="8.44375" transform="matrix(0.975993 0.217802 -0.230271 0.973127 7.08105 0.240234)" fill="#FFD12F"/>
<path d="M25.242 17.0917C25.242 23.0069 20.2962 28.1901 14.2153 28.1901C8.13438 28.1901 3.18862 23.0069 3.18862 17.0917C3.18862 14.1173 4.43862 10.2851 6.48058 7.19646C8.53312 4.09178 11.2838 1.88345 14.2153 1.88345C17.1468 1.88345 19.8975 4.09178 21.95 7.19646C23.992 10.2851 25.242 14.1173 25.242 17.0917Z" stroke="url(#paint1_linear_543_1533)" stroke-width="0.980764"/>
<ellipse cx="4.5193" cy="6.11221" rx="4.5193" ry="6.11221" transform="matrix(0.806553 0.591162 -0.61374 0.789508 11.3906 1.39307)" fill="#FFF27C"/>
</g>
<defs>
<linearGradient id="paint0_linear_543_1533" x1="25.9813" y1="20.7626" x2="2.96775" y2="22.6691" gradientUnits="userSpaceOnUse">
<stop stop-color="#C29920"/>
<stop offset="0.995" stop-color="#DBB017"/>
</linearGradient>
<linearGradient id="paint1_linear_543_1533" x1="14.2153" y1="1.39307" x2="14.2153" y2="28.6805" gradientUnits="userSpaceOnUse">
<stop stop-color="#FFF27D"/>
<stop offset="1" stop-color="#FFD846"/>
</linearGradient>
</defs>
</svg>
