<svg width="300" height="33" viewBox="0 0 300 33" fill="none" xmlns="http://www.w3.org/2000/svg">
<path d="M15.0521 29.5748C6.96872 29.5748 1.04088 24.15 1.04088 16.4258C1.04088 8.70167 6.96872 3.2768 15.0521 3.2768C19.974 3.2768 23.8541 5.07311 26.333 8.30648L20.98 13.0847C19.507 11.2165 17.7466 10.1387 15.4832 10.1387C11.9625 10.1387 9.59133 12.5817 9.59133 16.4258C9.59133 20.2699 11.9625 22.7129 15.4832 22.7129C17.7466 22.7129 19.507 21.6351 20.98 19.767L26.333 24.5451C23.8541 27.7785 19.974 29.5748 15.0521 29.5748ZM44.7323 3.85162H53.2109V29H44.7323V19.731H36.9003V29H28.4217V3.85162H36.9003V12.7613H44.7323V3.85162ZM56.9368 29V3.85162H65.4154V29H56.9368ZM82.143 29.5748C74.0596 29.5748 68.1318 24.15 68.1318 16.4258C68.1318 8.70167 74.0596 3.2768 82.143 3.2768C87.0649 3.2768 90.9449 5.07311 93.4238 8.30648L88.0708 13.0847C86.5979 11.2165 84.8375 10.1387 82.5741 10.1387C79.0533 10.1387 76.6822 12.5817 76.6822 16.4258C76.6822 20.2699 79.0533 22.7129 82.5741 22.7129C84.8375 22.7129 86.5979 21.6351 88.0708 19.767L93.4238 24.5451C90.9449 27.7785 87.0649 29.5748 82.143 29.5748ZM112.039 29L105.752 20.6651L103.848 22.7848V29H95.5126V3.85162H103.848V12.9769L112.111 3.85162H121.344L111.284 14.9169L121.847 29H112.039ZM130.959 22.6051H143.533V29H122.624V3.85162H143.066V10.2465H130.959V13.1924H141.593V19.2999H130.959V22.6051ZM162.964 3.85162H171.227V29H164.258L154.701 17.5755V29H146.438V3.85162H153.408L162.964 15.2762V3.85162ZM200.418 29L196.143 22.677H193.843V29H185.365V3.85162H197.472C204.478 3.85162 208.932 7.5161 208.932 13.3362C208.932 16.9647 207.208 19.6951 204.19 21.2399L209.471 29H200.418ZM200.382 13.3362C200.382 11.5039 199.268 10.3902 196.933 10.3902H193.843V16.2821H196.933C199.268 16.2821 200.382 15.1684 200.382 13.3362ZM261.835 29L260.146 24.617H250.59L248.901 29H240.279L251.273 3.85162H259.607L270.601 29H261.835ZM252.925 18.5095H257.811L255.368 12.1865L252.925 18.5095ZM271.595 29V3.85162H283.989C292.396 3.85162 298.18 8.62981 298.18 16.4258C298.18 24.2218 292.396 29 283.989 29H271.595ZM280.073 22.3896H283.63C287.187 22.3896 289.63 20.2699 289.63 16.4258C289.63 12.5817 287.187 10.4621 283.63 10.4621H280.073V22.3896Z" fill="white"/>
<mask id="mask0_543_1312" style="mask-type:alpha" maskUnits="userSpaceOnUse" x="212" y="0" width="28" height="33">
<path d="M239.729 19.2001C239.729 26.522 233.617 32.9368 226.077 32.9368C218.538 32.9368 212.426 26.522 212.426 19.2001C212.426 11.8783 218.538 0.591797 226.077 0.591797C233.617 0.591797 239.729 11.8783 239.729 19.2001Z" fill="#D9D9D9"/>
</mask>
<g mask="url(#mask0_543_1312)">
<path d="M239.729 19.2001C239.729 26.522 233.617 32.9368 226.077 32.9368C218.538 32.9368 212.426 26.522 212.426 19.2001C212.426 11.8783 218.538 0.591797 226.077 0.591797C233.617 0.591797 239.729 11.8783 239.729 19.2001Z" fill="#F1C425"/>
<path d="M230.209 26.3912C241.097 22.7513 239.41 14.4524 236.113 8.41016L244.471 17.2187L245.851 33.9621L224.228 38.6212L205.365 28.8663L214.26 11.8316C211.116 20.4946 219.321 30.0311 230.209 26.3912Z" fill="url(#paint0_linear_543_1312)"/>
<ellipse cx="9.67115" cy="10.0088" rx="9.67115" ry="10.0088" transform="matrix(0.975993 0.217802 -0.230271 0.973127 217.62 -0.774414)" fill="#FFD12F"/>
<path d="M239.148 19.2001C239.148 26.2117 233.285 32.3555 226.077 32.3555C218.869 32.3555 213.007 26.2117 213.007 19.2001C213.007 15.6744 214.489 11.132 216.909 7.47082C219.342 3.79071 222.603 1.17307 226.077 1.17307C229.552 1.17307 232.813 3.79071 235.246 7.47082C237.666 11.132 239.148 15.6744 239.148 19.2001Z" stroke="url(#paint1_linear_543_1312)" stroke-width="1.16254"/>
<ellipse cx="5.35693" cy="7.24507" rx="5.35693" ry="7.24507" transform="matrix(0.806553 0.591162 -0.61374 0.789508 222.729 0.591797)" fill="#FFF27C"/>
</g>
<defs>
<linearGradient id="paint0_linear_543_1312" x1="240.024" y1="23.5521" x2="212.745" y2="25.812" gradientUnits="userSpaceOnUse">
<stop stop-color="#C29920"/>
<stop offset="0.995" stop-color="#DBB017"/>
</linearGradient>
<linearGradient id="paint1_linear_543_1312" x1="226.077" y1="0.591797" x2="226.077" y2="32.9368" gradientUnits="userSpaceOnUse">
<stop stop-color="#FFF27D"/>
<stop offset="1" stop-color="#FFD846"/>
</linearGradient>
</defs>
</svg>
