<svg width="220" height="24" viewBox="0 0 220 24" fill="none" xmlns="http://www.w3.org/2000/svg">
<path d="M10.3739 21.8182C8.40551 21.8182 6.63217 21.4094 5.05393 20.5919C3.47569 19.7567 2.23436 18.6016 1.33003 17.1265C0.443313 15.6337 0 13.9454 0 12.0616C0 10.1779 0.443313 8.49843 1.33003 7.02339C2.23436 5.53052 3.47569 4.37539 5.05393 3.55789C6.63217 2.72266 8.40551 2.30499 10.3739 2.30499C12.1826 2.30499 13.7963 2.62489 15.215 3.26469C16.6336 3.90449 17.804 4.82862 18.7261 6.03708L14.7627 9.58251C13.6101 8.12521 12.2535 7.39661 10.6931 7.39661C9.38074 7.39661 8.32566 7.82305 7.52765 8.67612C6.72972 9.51136 6.33067 10.6399 6.33067 12.0616C6.33067 13.4833 6.72972 14.6207 7.52765 15.4738C8.32566 16.309 9.38074 16.7267 10.6931 16.7267C12.2535 16.7267 13.6101 15.998 14.7627 14.5407L18.7261 18.0861C17.804 19.2947 16.6336 20.2188 15.215 20.8585C13.7963 21.4983 12.1826 21.8182 10.3739 21.8182ZM38.6262 2.73153V21.3917H32.3488V14.5141H26.5501V21.3917H20.2726V2.73153H26.5501V9.34254H32.3488V2.73153H38.6262ZM41.385 2.73153H47.6624V21.3917H41.385V2.73153ZM60.0474 21.8182C58.0791 21.8182 56.3057 21.4094 54.7275 20.5919C53.1492 19.7567 51.9079 18.6016 51.0036 17.1265C50.1169 15.6337 49.6736 13.9454 49.6736 12.0616C49.6736 10.1779 50.1169 8.49843 51.0036 7.02339C51.9079 5.53052 53.1492 4.37539 54.7275 3.55789C56.3057 2.72266 58.0791 2.30499 60.0474 2.30499C61.8562 2.30499 63.4699 2.62489 64.8885 3.26469C66.3072 3.90449 67.4775 4.82862 68.3996 6.03708L64.4363 9.58251C63.2837 8.12521 61.9271 7.39661 60.3666 7.39661C59.0544 7.39661 57.9992 7.82305 57.2012 8.67612C56.4033 9.51136 56.0043 10.6399 56.0043 12.0616C56.0043 13.4833 56.4033 14.6207 57.2012 15.4738C57.9992 16.309 59.0544 16.7267 60.3666 16.7267C61.9271 16.7267 63.2837 15.998 64.4363 14.5407L68.3996 18.0861C67.4775 19.2947 66.3072 20.2188 64.8885 20.8585C63.4699 21.4983 61.8562 21.8182 60.0474 21.8182ZM77.527 15.2072L76.1176 16.78V21.3917H69.9462V2.73153H76.1176V9.50249L82.2353 2.73153H89.0716L81.6234 10.942L89.4439 21.3917H82.1824L77.527 15.2072ZM105.501 16.6467V21.3917H90.0193V2.73153H105.154V7.47654H96.1908V9.66244H104.064V14.1942H96.1908V16.6467H105.501ZM126.004 2.73153V21.3917H120.845L113.769 12.9147V21.3917H107.651V2.73153H112.812L119.887 11.2085V2.73153H126.004ZM144.452 16.7H142.749V21.3917H136.472V2.73153H145.436C147.156 2.73153 148.654 3.01585 149.932 3.58459C151.208 4.15325 152.193 4.97074 152.884 6.03708C153.575 7.10332 153.921 8.34735 153.921 9.76907C153.921 11.1019 153.62 12.266 153.017 13.2612C152.414 14.2564 151.545 15.0473 150.41 15.6337L154.321 21.3917H147.617L144.452 16.7ZM147.59 9.76907C147.59 9.07595 147.378 8.54287 146.952 8.16966C146.527 7.7787 145.888 7.58317 145.037 7.58317H142.749V11.955H145.037C145.888 11.955 146.527 11.7684 146.952 11.3952C147.378 11.0042 147.59 10.4622 147.59 9.76907ZM191.84 18.1394H184.764L183.514 21.3917H177.13L185.27 2.73153H191.441L199.581 21.3917H193.09L191.84 18.1394ZM190.111 13.6077L188.302 8.916L186.493 13.6077H190.111ZM200.316 2.73153H209.493C211.568 2.73153 213.394 3.11361 214.972 3.87779C216.568 4.62423 217.801 5.69934 218.67 7.10332C219.557 8.5073 220 10.16 220 12.0616C220 13.9632 219.557 15.6159 218.67 17.0199C217.801 18.4239 216.568 19.5079 214.972 20.272C213.394 21.0185 211.568 21.3917 209.493 21.3917H200.316V2.73153ZM209.227 16.4867C210.575 16.4867 211.648 16.1046 212.445 15.3404C213.261 14.5585 213.669 13.4656 213.669 12.0616C213.669 10.6576 213.261 9.57355 212.445 8.80937C211.648 8.02745 210.575 7.63649 209.227 7.63649H206.594V16.4867H209.227Z" fill="white"/>
<mask id="mask0_4059_5845" style="mask-type:alpha" maskUnits="userSpaceOnUse" x="156" y="0" width="21" height="24">
<path d="M176.724 13.8074C176.724 19.2403 172.199 24 166.617 24C161.035 24 156.51 19.2403 156.51 13.8074C156.51 8.37455 161.035 0 166.617 0C172.199 0 176.724 8.37455 176.724 13.8074Z" fill="#D9D9D9"/>
</mask>
<g mask="url(#mask0_4059_5845)">
<path d="M176.724 13.8074C176.724 19.2403 172.199 24 166.617 24C161.035 24 156.51 19.2403 156.51 13.8074C156.51 8.37455 161.035 0 166.617 0C172.199 0 176.724 8.37455 176.724 13.8074Z" fill="#F1C425"/>
<path d="M169.675 19.1427C177.737 16.4419 176.487 10.284 174.047 5.80072L180.235 12.3367L181.256 24.7603L165.246 28.2174L151.281 20.9792L157.867 8.33948C155.539 14.7674 161.613 21.8435 169.675 19.1427Z" fill="url(#paint0_linear_4059_5845)"/>
<path d="M163.931 15.0036C167.791 15.8668 171.684 13.331 172.626 9.33966C173.569 5.34833 171.204 1.41296 167.344 0.549766C163.484 -0.313427 159.591 2.22243 158.649 6.21376C157.707 10.2051 160.072 14.1405 163.931 15.0036Z" fill="#FFD12F"/>
<path d="M176.294 13.8074C176.294 19.01 171.954 23.5687 166.617 23.5687C161.281 23.5687 156.939 19.01 156.939 13.8074C156.939 11.1913 158.036 7.82079 159.829 5.10425C161.63 2.37361 164.044 0.431335 166.617 0.431335C169.19 0.431335 171.604 2.37361 173.405 5.10425C175.197 7.82079 176.294 11.1913 176.294 13.8074Z" stroke="url(#paint1_linear_4059_5845)" stroke-width="0.860738"/>
<path d="M160.751 10.8383C162.518 12.1361 165.424 11.2879 167.242 8.94384C169.061 6.59979 169.102 3.64753 167.336 2.34978C165.569 1.05203 162.663 1.90023 160.844 4.24428C159.026 6.58833 158.985 9.54059 160.751 10.8383Z" fill="#FFF27C"/>
</g>
<defs>
<linearGradient id="paint0_linear_4059_5845" x1="176.942" y1="17.036" x2="156.744" y2="18.7057" gradientUnits="userSpaceOnUse">
<stop stop-color="#C29920"/>
<stop offset="0.995" stop-color="#DBB017"/>
</linearGradient>
<linearGradient id="paint1_linear_4059_5845" x1="166.617" y1="1.81253e-05" x2="166.617" y2="24" gradientUnits="userSpaceOnUse">
<stop stop-color="#FFF27D"/>
<stop offset="1" stop-color="#FFD846"/>
</linearGradient>
</defs>
</svg>
