<svg width="1061" height="324" viewBox="0 0 1061 324" fill="none" xmlns="http://www.w3.org/2000/svg">
<g clip-path="url(#clip0_4067_5961)">
<g opacity="0.3">
<g filter="url(#filter0_f_4067_5961)">
<ellipse cx="569.69" cy="655.879" rx="288.241" ry="545.797" transform="rotate(31.636 569.69 655.879)" fill="#FF2600"/>
</g>
</g>
<g filter="url(#filter1_di_4067_5961)">
<path d="M933.261 285.052C935.266 289.724 932.688 294.867 929.979 299.596C948.808 299.984 953.65 285.68 947.456 279.483C943.547 275.574 939.574 270.137 938.749 264.444C930.847 267.453 930.754 279.212 933.261 285.052Z" fill="#FF4D00"/>
<path d="M933.261 285.052C935.266 289.724 932.688 294.867 929.979 299.596C948.808 299.984 953.65 285.68 947.456 279.483C943.547 275.574 939.574 270.137 938.749 264.444C930.847 267.453 930.754 279.212 933.261 285.052Z" stroke="#D2221E" stroke-width="4.78712"/>
</g>
<path d="M936.178 282.45C937.939 285.992 937.36 289.787 936.509 291.223C941.944 288.895 946.167 283.169 943.011 279.634C939.854 276.098 937.623 274.955 936.35 271.098C935.086 273.329 934.415 278.908 936.178 282.45Z" fill="#FFFA6F"/>
<g filter="url(#filter2_di_4067_5961)">
<path d="M833.656 268.053C825.725 266.795 821.756 254.409 820.334 249C816.062 252.939 811.814 259.988 815.267 266.561C818.72 273.135 828.309 272.289 833.656 268.053Z" fill="#FF4D00"/>
<path d="M833.656 268.053C825.725 266.795 821.756 254.409 820.334 249C816.062 252.939 811.814 259.988 815.267 266.561C818.72 273.135 828.309 272.289 833.656 268.053Z" stroke="#D2221E" stroke-width="4.35194"/>
</g>
<path d="M825.115 265.517C821.933 263.598 818.929 257.098 818.699 254.294C816.171 256.665 815.186 259.599 816.412 263.099C817.638 266.597 821.127 266.703 825.115 265.517Z" fill="#FFFA6E"/>
<g filter="url(#filter3_d_4067_5961)">
<path d="M918.302 345.322C918.303 345.319 918.281 345.384 918.181 345.512C918.075 345.648 917.907 345.824 917.653 346.034C917.141 346.456 916.376 346.933 915.342 347.421C913.278 348.393 910.349 349.312 906.763 349.945C899.6 351.211 890.048 351.302 879.994 348.631C869.458 345.831 848.481 342.95 828.272 341.274C818.146 340.435 808.159 339.893 799.708 339.817C791.33 339.742 784.247 340.12 780.059 341.21C772.488 343.181 748.842 345.96 728.594 345.601C718.438 345.421 709.422 344.451 703.761 342.338C700.902 341.271 699.269 340.045 698.577 338.838C697.997 337.827 697.859 336.425 699.119 334.224C701.253 330.96 704.135 325.943 705.833 321.461C706.674 319.239 707.304 316.949 707.288 314.997C707.281 314.007 707.107 312.957 706.579 312.028C706.021 311.045 705.143 310.335 704.014 309.979C703.374 309.777 702.614 309.551 701.772 309.3C698.032 308.186 692.657 306.586 688.857 304.48C687.718 303.849 686.808 303.217 686.162 302.601C685.507 301.977 685.236 301.478 685.153 301.123C685.054 300.695 685.06 299.475 688.169 297.455C693.988 293.675 702.026 293.049 708.632 292.534C708.841 292.518 709.049 292.502 709.255 292.486C710.888 292.357 712.44 292.226 713.779 292.033C715.084 291.844 716.373 291.573 717.397 291.086C718.372 290.622 719.443 289.785 719.724 288.366C719.817 288.407 719.908 288.448 719.999 288.491C721.182 289.043 721.99 289.646 722.392 290.199C722.7 290.621 722.781 290.988 722.525 291.57C722.187 292.335 721.211 293.527 718.865 295.071C715.717 297.142 713.409 299.081 712.036 300.916C710.659 302.756 709.936 304.931 711.01 307.024C711.961 308.879 714.028 309.984 716.26 310.708C718.595 311.465 721.625 311.966 725.192 312.262L725.358 310.269L725.193 312.262C729.097 312.587 733.184 311.655 737.175 310.284C740.538 309.129 743.984 307.604 747.315 306.131C747.938 305.856 748.556 305.582 749.169 305.313C753.122 303.578 756.869 302.024 760.348 301.175C763.827 300.326 766.812 300.24 769.332 301.206C775.512 303.576 782.582 305.782 789.471 306.424C796.358 307.067 803.284 306.165 808.937 302.063C813.944 298.43 817.418 296.671 821.005 295.766C824.654 294.845 828.55 294.769 834.584 294.756C840.819 294.743 849.112 293.218 855.42 290.692C858.551 289.438 861.408 287.855 863.247 285.917C864.181 284.933 864.933 283.773 865.249 282.437C865.574 281.061 865.398 279.656 864.727 278.309L864.726 278.309C862.837 274.518 860.29 268.56 859.735 263.615C859.456 261.129 859.723 259.238 860.481 258.011C861.147 256.933 862.422 256.006 865.159 255.927C868.395 255.833 870.926 255.716 872.873 255.539C874.776 255.365 876.294 255.122 877.401 254.701C878.555 254.262 879.724 253.434 879.969 251.892C880.022 251.561 880.022 251.232 879.987 250.914C880.093 251.011 880.202 251.109 880.314 251.207L880.314 251.207C881.178 251.966 882.174 252.976 883.021 254.075C883.885 255.196 884.5 256.289 884.75 257.219C884.985 258.098 884.857 258.636 884.529 259.047C884.125 259.553 883.105 260.265 880.699 260.715C877.991 261.221 875.76 261.882 874.017 262.741C872.275 263.6 870.883 264.726 870.083 266.232C868.421 269.361 869.88 272.832 872.085 275.962L873.72 274.809L872.085 275.962C873.023 277.292 873.623 278.693 874.186 280.136C874.256 280.314 874.326 280.496 874.397 280.682C874.868 281.907 875.395 283.277 876.131 284.397C877.066 285.821 878.4 286.965 880.454 287.416C882.373 287.837 884.738 287.61 887.711 286.814C892.897 285.427 898.401 286.525 901.662 288.736C903.285 289.836 904.157 291.071 904.394 292.207C904.613 293.257 904.373 294.627 902.879 296.288L904.366 297.625L902.879 296.288C901.345 297.993 899.036 299.389 896.245 300.586C893.469 301.776 890.386 302.7 887.41 303.555C887.088 303.647 886.767 303.739 886.447 303.831C883.872 304.567 881.362 305.284 879.44 306.089C878.358 306.542 877.31 307.082 876.497 307.77C875.668 308.471 874.904 309.487 874.844 310.854L874.844 310.854C874.756 312.853 875.771 314.529 877.094 315.756C878.419 316.985 880.2 317.919 882.119 318.528C885.927 319.736 890.817 319.821 894.818 317.735L894.818 317.734C896.811 316.694 898.368 315.27 899.7 313.848C900.342 313.163 900.951 312.456 901.526 311.789L901.584 311.721C902.186 311.023 902.751 310.369 903.332 309.756C904.493 308.531 905.624 307.571 906.938 306.953C908.222 306.35 909.796 306.019 911.924 306.244L912.134 304.255L911.924 306.244C912.098 306.263 912.268 306.282 912.435 306.302C911.356 306.837 910.417 307.737 909.987 309.113L909.987 309.113C909.477 310.747 909.712 312.307 910.604 313.615C911.43 314.828 912.712 315.667 914.04 316.26C916.701 317.447 920.318 317.983 923.762 318.084C926.304 318.158 927.797 319.65 928.051 321.261C928.302 322.861 927.46 325.567 923.126 328.116C920.537 329.639 918.861 331.328 917.932 333.21C916.996 335.107 916.933 336.972 917.149 338.617C917.297 339.744 917.611 340.924 917.87 341.896C917.962 342.244 918.048 342.565 918.116 342.848C918.417 344.094 918.46 344.814 918.302 345.322ZM918.302 345.322C918.302 345.322 918.302 345.323 918.302 345.323L918.302 345.323C918.302 345.323 918.302 345.322 918.302 345.322ZM879.316 248.758C879.144 248.378 879.155 248.186 879.161 248.134C879.167 248.086 879.183 248.037 879.246 247.962C879.321 247.873 879.452 247.764 879.647 247.66C879.676 247.645 879.705 247.63 879.734 247.617L879.316 248.758Z" fill="#FF4D00" stroke="#D2221E" stroke-width="4"/>
</g>
<path d="M710.092 293.614C709.223 293.75 708.317 293.908 707.401 294.089C699.012 296.204 702.724 302.634 705.95 305.846C686.948 300.345 697.733 295.996 707.401 294.089C708.188 293.891 709.082 293.73 710.092 293.614Z" fill="#FFFA6E"/>
<path d="M712.162 331.558C718.237 325.536 715.998 321.896 713.773 318.762C708.71 312.363 740.006 319.513 750.822 312.363C761.637 305.211 784.419 309.163 796.845 310.48C809.271 311.798 817.095 301.448 834.584 303.518C837.124 303.818 821.008 313.68 821.008 313.68C837.805 311.798 868.872 290.533 870.253 281.876C876.925 292.415 859.897 304.459 877.847 294.485C896.728 283.993 900.398 295.802 890.501 298.249C880.607 300.695 876.695 301.448 864.729 307.846C852.763 314.244 871.863 327.793 889.351 327.606C906.841 327.417 904.999 318.762 915.355 322.148C925.711 325.536 900.398 325.911 904.999 338.333C909.602 350.753 850.693 338.333 821.008 331.558C803.324 327.523 789.028 328.841 774.984 331.558C771.482 332.234 780.966 323.654 797.995 317.066C769.922 320.642 752.278 336.598 746.45 338.333C723.668 345.106 704.568 339.084 712.162 331.558Z" fill="#FFFA6E"/>
<g filter="url(#filter4_d_4067_5961)">
<path d="M459.272 359.924C459.839 358.752 460.056 357.456 459.567 356.198C459.091 354.97 458.097 354.187 457.132 353.683C455.257 352.705 452.539 352.292 449.913 352.077C447.409 351.872 444.673 351.829 442.251 351.791C442.055 351.788 441.862 351.785 441.67 351.782C439.01 351.739 436.947 351.683 435.796 351.468C435.174 351.352 434.424 350.807 433.954 349.06C433.49 347.333 433.456 344.855 434.008 341.962C435.111 336.189 438.424 329.389 443.976 324.744C449.298 320.291 457.203 318.702 463.698 317.396C463.904 317.355 464.108 317.314 464.311 317.273C465.917 316.949 467.442 316.632 468.747 316.279C470.02 315.935 471.267 315.511 472.226 314.904C473.138 314.326 474.1 313.366 474.208 311.924C474.305 311.953 474.401 311.983 474.497 312.014C475.737 312.42 476.612 312.922 477.078 313.422C477.434 313.804 477.559 314.159 477.374 314.767C477.131 315.567 476.306 316.868 474.162 318.683L473.454 319.282L473.454 320.21C473.454 320.966 473.557 321.789 473.946 322.533C474.374 323.352 475.054 323.897 475.855 324.186C476.58 324.448 477.347 324.482 478.026 324.452C478.723 324.422 479.495 324.313 480.3 324.176C480.957 324.064 481.673 323.928 482.452 323.779C485.532 323.192 489.613 322.414 495.075 322.208C496.15 322.168 497.184 322.198 498.312 322.232C498.976 322.251 499.672 322.272 500.428 322.279C502.373 322.299 504.497 322.219 506.743 321.71C511.33 320.669 516.075 317.917 521.078 311.403C526.042 304.941 527.077 300.807 526.888 296.79C526.843 295.846 526.733 294.937 526.618 294.069C526.594 293.883 526.569 293.701 526.545 293.52C526.452 292.833 526.363 292.169 526.293 291.464C526.165 290.177 526.107 288.804 526.258 287.217C536.875 288.116 543.255 296.004 548.246 303.652C548.896 304.648 549.516 305.63 550.118 306.586L550.284 306.848C550.825 307.708 551.355 308.55 551.871 309.344C552.994 311.077 554.116 312.697 555.264 313.941C556.382 315.153 557.764 316.274 559.462 316.562C561.305 316.875 562.975 316.13 564.421 314.787C568.954 310.578 572.192 308.414 575.643 307.084C579.155 305.731 583.014 305.186 589.002 304.447C596.015 303.582 600.401 301.357 603.016 298.033C605.59 294.763 606.147 290.79 606.354 287.194C606.407 286.283 606.438 285.37 606.467 284.487L606.47 284.403C606.498 283.541 606.526 282.709 606.571 281.89C606.664 280.194 606.828 278.656 607.19 277.274C607.66 275.476 608.464 273.914 610.007 272.674C610.258 275.32 610.884 277.443 611.722 279.205C612.884 281.649 614.403 283.272 615.563 284.493L615.647 284.581C616.205 285.169 616.616 285.601 616.936 286.022C617.257 286.442 617.393 286.733 617.448 286.972C617.537 287.359 617.548 288.236 616.092 290.311C614.011 293.277 614.287 296.386 615.614 299.137C616.884 301.77 619.172 304.241 621.463 306.403C622.627 307.502 623.837 308.562 624.979 309.555C625.11 309.668 625.24 309.781 625.368 309.893C626.373 310.766 627.308 311.579 628.138 312.345C629.079 313.216 629.813 313.963 630.312 314.599C630.854 315.29 630.907 315.589 630.907 315.584L630.907 315.585C631.061 317.579 632.27 319.121 633.731 320.18C635.194 321.241 637.075 321.954 639.053 322.327C642.979 323.068 647.843 322.565 651.564 320.012L651.564 320.012C653.688 318.554 654.662 316.511 655.156 314.524C655.513 313.086 655.65 311.495 655.767 310.142C655.802 309.731 655.836 309.342 655.873 308.986C656.052 307.265 656.317 306.182 656.825 305.495C657.212 304.973 657.971 304.384 660.031 304.353L660 302.353L459.272 359.924Z" fill="#FF4D00" stroke="#D2221E" stroke-width="4"/>
</g>
<path d="M471.902 355.713C477.209 349.004 474.547 345.66 471.962 342.815C468.206 339.094 498.379 339.832 517.891 330.757C515.413 312.831 544.274 321.256 533.36 299.94C552.188 306.47 540.94 324.786 553.434 324.599C565.928 324.412 572.45 313.196 590.061 313.146C592.619 313.139 577.806 324.868 577.806 324.868C594.255 320.978 609.741 320.898 610.071 312.138C615.293 314.237 609.479 333.151 637.747 329.417C655.088 327.125 656.774 315.571 667.462 317.687C678.151 319.805 658.091 327.458 664.153 339.236C670.217 351.012 610.242 345.77 579.957 342.616C561.917 340.738 547.883 343.767 534.268 348.154C530.873 349.246 539.256 339.587 555.368 330.999C527.929 337.926 512.333 355.889 506.756 358.313C484.955 367.777 465.269 364.097 471.902 355.713Z" fill="#FFFA6E"/>
<path d="M472.95 318C471.424 318.349 469.836 318.744 468.234 319.179C453.613 323.98 461.004 334.925 467.128 340.22C432.726 332.834 451.318 323.77 468.234 319.179C469.605 318.729 471.171 318.333 472.95 318Z" fill="#FFFA6E"/>
</g>
<defs>
<filter id="filter0_f_4067_5961" x="-107.389" y="-132.92" width="1354.16" height="1577.6" filterUnits="userSpaceOnUse" color-interpolation-filters="sRGB">
<feFlood flood-opacity="0" result="BackgroundImageFix"/>
<feBlend mode="normal" in="SourceGraphic" in2="BackgroundImageFix" result="shape"/>
<feGaussianBlur stdDeviation="150" result="effect1_foregroundBlur_4067_5961"/>
</filter>
<filter id="filter1_di_4067_5961" x="897.151" y="232.398" width="83.9875" height="98.3449" filterUnits="userSpaceOnUse" color-interpolation-filters="sRGB">
<feFlood flood-opacity="0" result="BackgroundImageFix"/>
<feColorMatrix in="SourceAlpha" type="matrix" values="0 0 0 0 0 0 0 0 0 0 0 0 0 0 0 0 0 0 127 0" result="hardAlpha"/>
<feOffset/>
<feGaussianBlur stdDeviation="14.3728"/>
<feComposite in2="hardAlpha" operator="out"/>
<feColorMatrix type="matrix" values="0 0 0 0 1 0 0 0 0 0.529833 0 0 0 0 0.0958333 0 0 0 0.5 0"/>
<feBlend mode="normal" in2="BackgroundImageFix" result="effect1_dropShadow_4067_5961"/>
<feBlend mode="normal" in="SourceGraphic" in2="effect1_dropShadow_4067_5961" result="shape"/>
<feColorMatrix in="SourceAlpha" type="matrix" values="0 0 0 0 0 0 0 0 0 0 0 0 0 0 0 0 0 0 127 0" result="hardAlpha"/>
<feOffset/>
<feGaussianBlur stdDeviation="14.3728"/>
<feComposite in2="hardAlpha" operator="arithmetic" k2="-1" k3="1"/>
<feColorMatrix type="matrix" values="0 0 0 0 1 0 0 0 0 0.529833 0 0 0 0 0.0958333 0 0 0 0.5 0"/>
<feBlend mode="normal" in2="shape" result="effect2_innerShadow_4067_5961"/>
</filter>
<filter id="filter2_di_4067_5961" x="783.079" y="216.202" width="84.5597" height="86.0839" filterUnits="userSpaceOnUse" color-interpolation-filters="sRGB">
<feFlood flood-opacity="0" result="BackgroundImageFix"/>
<feColorMatrix in="SourceAlpha" type="matrix" values="0 0 0 0 0 0 0 0 0 0 0 0 0 0 0 0 0 0 127 0" result="hardAlpha"/>
<feOffset/>
<feGaussianBlur stdDeviation="14.3728"/>
<feComposite in2="hardAlpha" operator="out"/>
<feColorMatrix type="matrix" values="0 0 0 0 1 0 0 0 0 0.529833 0 0 0 0 0.0958333 0 0 0 0.5 0"/>
<feBlend mode="normal" in2="BackgroundImageFix" result="effect1_dropShadow_4067_5961"/>
<feBlend mode="normal" in="SourceGraphic" in2="effect1_dropShadow_4067_5961" result="shape"/>
<feColorMatrix in="SourceAlpha" type="matrix" values="0 0 0 0 0 0 0 0 0 0 0 0 0 0 0 0 0 0 127 0" result="hardAlpha"/>
<feOffset/>
<feGaussianBlur stdDeviation="14.3728"/>
<feComposite in2="hardAlpha" operator="arithmetic" k2="-1" k3="1"/>
<feColorMatrix type="matrix" values="0 0 0 0 1 0 0 0 0 0.529833 0 0 0 0 0.0958333 0 0 0 0.5 0"/>
<feBlend mode="normal" in2="shape" result="effect2_innerShadow_4067_5961"/>
</filter>
<filter id="filter3_d_4067_5961" x="660.304" y="222.689" width="292.607" height="152.928" filterUnits="userSpaceOnUse" color-interpolation-filters="sRGB">
<feFlood flood-opacity="0" result="BackgroundImageFix"/>
<feColorMatrix in="SourceAlpha" type="matrix" values="0 0 0 0 0 0 0 0 0 0 0 0 0 0 0 0 0 0 127 0" result="hardAlpha"/>
<feOffset/>
<feGaussianBlur stdDeviation="11.4085"/>
<feComposite in2="hardAlpha" operator="out"/>
<feColorMatrix type="matrix" values="0 0 0 0 1 0 0 0 0 0.0958333 0 0 0 0 0.0958333 0 0 0 0.5 0"/>
<feBlend mode="normal" in2="BackgroundImageFix" result="effect1_dropShadow_4067_5961"/>
<feBlend mode="normal" in="SourceGraphic" in2="effect1_dropShadow_4067_5961" result="shape"/>
</filter>
<filter id="filter4_d_4067_5961" x="408.783" y="246.504" width="309.517" height="146.786" filterUnits="userSpaceOnUse" color-interpolation-filters="sRGB">
<feFlood flood-opacity="0" result="BackgroundImageFix"/>
<feColorMatrix in="SourceAlpha" type="matrix" values="0 0 0 0 0 0 0 0 0 0 0 0 0 0 0 0 0 0 127 0" result="hardAlpha"/>
<feOffset/>
<feGaussianBlur stdDeviation="11.4085"/>
<feComposite in2="hardAlpha" operator="out"/>
<feColorMatrix type="matrix" values="0 0 0 0 1 0 0 0 0 0.0958333 0 0 0 0 0.0958333 0 0 0 0.5 0"/>
<feBlend mode="normal" in2="BackgroundImageFix" result="effect1_dropShadow_4067_5961"/>
<feBlend mode="normal" in="SourceGraphic" in2="effect1_dropShadow_4067_5961" result="shape"/>
</filter>
<clipPath id="clip0_4067_5961">
<rect width="1061" height="324" fill="white"/>
</clipPath>
</defs>
</svg>
