<svg width="13" height="13" viewBox="0 0 13 13" fill="none"
    xmlns="http://www.w3.org/2000/svg">
    <g opacity="0.6" clip-path="url(#clip0_126_11982)">
        <path d="M4.02197 8.77655C4.01476 8.76703 4.00628 8.75855 3.99676 8.75134L2.43223 7.55664C2.40668 7.53719 2.37494 7.52767 2.3429 7.52985C2.31086 7.53203 2.28071 7.54576 2.25803 7.56849L1.89046 7.9358C1.86565 7.9607 1.85171 7.99442 1.85171 8.02958C1.85171 8.06473 1.86565 8.09846 1.89046 8.12336L2.71181 8.9447L0.828874 11.2295C0.671632 11.2181 0.514661 11.255 0.379016 11.3354C0.243372 11.4157 0.135541 11.5356 0.0699869 11.679C0.00443305 11.8224 -0.0157084 11.9824 0.0122643 12.1375C0.040237 12.2927 0.114986 12.4356 0.226485 12.547C0.337984 12.6585 0.4809 12.7332 0.636064 12.7611C0.791228 12.789 0.951218 12.7688 1.09458 12.7032C1.23793 12.6376 1.3578 12.5297 1.4381 12.3941C1.5184 12.2584 1.55529 12.1014 1.54383 11.9442L3.82785 10.0617L4.64919 10.8828C4.66146 10.8952 4.67606 10.905 4.69213 10.9117C4.7082 10.9183 4.72544 10.9218 4.74284 10.9218C4.76025 10.9218 4.77748 10.9183 4.79356 10.9117C4.80963 10.905 4.82422 10.8952 4.8365 10.8828L5.20406 10.5153C5.22674 10.4926 5.24041 10.4625 5.24254 10.4305C5.24468 10.3985 5.23512 10.3668 5.21566 10.3413L4.02197 8.77655Z" fill="#97999C"/>
        <path d="M4.9262 6.41466L3.49301 8.12894L4.12326 8.62708C4.13129 8.63356 4.13856 8.64091 4.14494 8.64902L4.64334 9.27926L6.50005 7.72961L8.35626 9.28078L8.85466 8.65053C8.86104 8.64243 8.86831 8.63507 8.87634 8.6286L9.50659 8.13045L8.07341 6.41617L11.6716 3.40838L12.7735 0L9.36516 1.10218L6.50005 4.53123L3.63469 1.10268L0.226562 0L1.32849 3.40838L4.9262 6.41466Z" fill="#97999C"/>
        <path d="M12.7735 11.4538C12.6951 11.3753 12.6007 11.3146 12.4968 11.276C12.3928 11.2373 12.2817 11.2215 12.171 11.2297L10.2881 8.94494L11.1094 8.1236C11.1343 8.0987 11.1482 8.06498 11.1482 8.02982C11.1482 7.99466 11.1343 7.96094 11.1094 7.93604L10.7419 7.56873C10.7192 7.546 10.6891 7.53227 10.657 7.53009C10.625 7.52791 10.5932 7.53743 10.5677 7.55688L9.00293 8.75158C8.99346 8.75884 8.98498 8.76732 8.97772 8.77679L7.78304 10.3416C7.76357 10.367 7.75402 10.3987 7.75615 10.4307C7.75829 10.4627 7.77196 10.4928 7.79463 10.5155L8.16396 10.8828C8.17623 10.8952 8.19083 10.9049 8.2069 10.9116C8.22297 10.9183 8.2402 10.9218 8.25761 10.9218C8.27502 10.9218 8.29225 10.9183 8.30832 10.9116C8.32439 10.9049 8.33899 10.8952 8.35126 10.8828L9.17234 10.0617L11.4571 11.9444C11.4477 12.0735 11.4709 12.203 11.5246 12.3208C11.5783 12.4386 11.6607 12.5411 11.7643 12.6187C11.8679 12.6964 11.9893 12.7468 12.1175 12.7653C12.2456 12.7839 12.3764 12.7699 12.4977 12.7247C12.619 12.6795 12.7271 12.6046 12.8119 12.5068C12.8967 12.4089 12.9556 12.2914 12.9832 12.1649C13.0108 12.0384 13.0061 11.9069 12.9696 11.7827C12.9332 11.6585 12.8661 11.5454 12.7745 11.4538H12.7735Z" fill="#97999C"/>
    </g>
    <defs>
        <clipPath id="clip0_126_11982">
            <rect width="13" height="12.7736" fill="#97999C"/>
        </clipPath>
    </defs>
</svg>
