<svg width="11" height="13" viewBox="0 0 11 13" fill="none"
    xmlns="http://www.w3.org/2000/svg">
    <path fill-rule="evenodd" clip-rule="evenodd" d="M5.45323 4.08117C5.00299 4.0447 4.53646 4.11624 4.10435 4.28822C3.66668 4.46226 3.27892 4.73288 2.98304 5.07119C2.94319 5.11653 2.89328 5.15044 2.83887 5.17215C2.72926 5.21569 2.6019 5.20914 2.50553 5.14504C2.36162 5.04897 2.34203 4.86029 2.46171 4.72338C2.83437 4.29772 3.32182 3.9571 3.87201 3.73837C4.41533 3.52233 5.00206 3.43242 5.5688 3.47828C5.75335 3.49317 5.877 3.64024 5.84496 3.80683C5.81306 3.97328 5.63778 4.09594 5.45323 4.08117M9.63552 5.31399L10.1078 4.74395C9.95484 4.30722 9.72612 3.94311 9.46588 3.64036C9.70511 3.338 9.90639 3.00241 10.0599 2.63922C10.3557 1.93991 10.4617 1.17008 10.3655 0.408108L9.90875 0.457955L10.365 0.403005C10.3344 0.151804 10.1056 -0.0267845 9.85361 0.00330733C9.60164 0.0336608 9.42202 0.261966 9.45249 0.512906L9.45432 0.527036C9.52969 1.12482 9.44605 1.73228 9.21299 2.28361C9.10126 2.54777 8.95696 2.79282 8.78745 3.01654C8.08473 2.50145 7.40341 2.31776 7.40341 2.31776L6.68362 2.95244C4.17959 2.17633 1.44552 3.40721 0.406018 5.86532C-0.699925 8.4803 0.531147 11.4935 3.15545 12.5954C5.77988 13.6974 8.80386 12.4707 9.90967 9.85576C10.5576 8.32343 10.4023 6.65504 9.63552 5.31399" fill="#97999C"/>
</svg>
