<svg width="156" height="464" viewBox="0 0 156 464" fill="none" xmlns="http://www.w3.org/2000/svg">
<path d="M6 121V114H18V121" stroke="black" stroke-width="2" stroke-linecap="round" stroke-linejoin="round"/>
<path d="M6 130H4C3.46957 130 2.96086 129.789 2.58579 129.414C2.21071 129.039 2 128.53 2 128V123C2 122.47 2.21071 121.961 2.58579 121.586C2.96086 121.211 3.46957 121 4 121H20C20.5304 121 21.0391 121.211 21.4142 121.586C21.7893 121.961 22 122.47 22 123V128C22 128.53 21.7893 129.039 21.4142 129.414C21.0391 129.789 20.5304 130 20 130H18" stroke="black" stroke-width="2" stroke-linecap="round" stroke-linejoin="round"/>
<path d="M18 126H6V134H18V126Z" stroke="black" stroke-width="2" stroke-linecap="round" stroke-linejoin="round"/>
<path d="M50 121V114H62V121" stroke="white" stroke-width="2" stroke-linecap="round" stroke-linejoin="round"/>
<path d="M50 130H48C47.4696 130 46.9609 129.789 46.5858 129.414C46.2107 129.039 46 128.53 46 128V123C46 122.47 46.2107 121.961 46.5858 121.586C46.9609 121.211 47.4696 121 48 121H64C64.5304 121 65.0391 121.211 65.4142 121.586C65.7893 121.961 66 122.47 66 123V128C66 128.53 65.7893 129.039 65.4142 129.414C65.0391 129.789 64.5304 130 64 130H62" stroke="white" stroke-width="2" stroke-linecap="round" stroke-linejoin="round"/>
<path d="M62 126H50V134H62V126Z" stroke="white" stroke-width="2" stroke-linecap="round" stroke-linejoin="round"/>
<path d="M21 167.5C21.0034 168.82 20.6951 170.122 20.1 171.3C19.3944 172.712 18.3098 173.899 16.9674 174.729C15.6251 175.559 14.0782 175.999 12.5 176C11.1801 176.003 9.87812 175.695 8.7 175.1L3 177L4.9 171.3C4.30493 170.122 3.99656 168.82 4 167.5C4.00061 165.922 4.44061 164.375 5.27072 163.033C6.10083 161.69 7.28825 160.606 8.7 159.9C9.87812 159.305 11.1801 158.997 12.5 159H13C15.0843 159.115 17.053 159.995 18.5291 161.471C20.0052 162.947 20.885 164.916 21 167V167.5Z" stroke="black" stroke-width="2" stroke-linecap="round" stroke-linejoin="round"/>
<path d="M153 167.5C153.003 168.82 152.695 170.122 152.1 171.3C151.394 172.712 150.31 173.899 148.967 174.729C147.625 175.559 146.078 175.999 144.5 176C143.18 176.003 141.878 175.695 140.7 175.1L135 177L136.9 171.3C136.305 170.122 135.997 168.82 136 167.5C136.001 165.922 136.441 164.375 137.271 163.033C138.101 161.69 139.288 160.606 140.7 159.9C141.878 159.305 143.18 158.997 144.5 159H145C147.084 159.115 149.053 159.995 150.529 161.471C152.005 162.947 152.885 164.916 153 167V167.5Z" stroke="#009E92" stroke-width="2" stroke-linecap="round" stroke-linejoin="round"/>
<path d="M109 167.5C109.003 168.82 108.695 170.122 108.1 171.3C107.394 172.712 106.31 173.899 104.967 174.729C103.625 175.559 102.078 175.999 100.5 176C99.1801 176.003 97.8781 175.695 96.7 175.1L91 177L92.9 171.3C92.3049 170.122 91.9966 168.82 92 167.5C92.0006 165.922 92.4406 164.375 93.2707 163.033C94.1008 161.69 95.2883 160.606 96.7 159.9C97.8781 159.305 99.1801 158.997 100.5 159H101C103.084 159.115 105.053 159.995 106.529 161.471C108.005 162.947 108.885 164.916 109 167V167.5Z" stroke="#EA4335" stroke-width="2" stroke-linecap="round" stroke-linejoin="round"/>
<path d="M65 167.5C65.0034 168.82 64.6951 170.122 64.1 171.3C63.3944 172.712 62.3098 173.899 60.9674 174.729C59.6251 175.559 58.0782 175.999 56.5 176C55.1801 176.003 53.8781 175.695 52.7 175.1L47 177L48.9 171.3C48.3049 170.122 47.9966 168.82 48 167.5C48.0006 165.922 48.4406 164.375 49.2707 163.033C50.1008 161.69 51.2883 160.606 52.7 159.9C53.8781 159.305 55.1801 158.997 56.5 159H57C59.0843 159.115 61.053 159.995 62.5291 161.471C64.0052 162.947 64.885 164.916 65 167V167.5Z" stroke="white" stroke-width="2" stroke-linecap="round" stroke-linejoin="round"/>
<path d="M23 210C23 217 14 223 14 223C14 223 5 217 5 210C5 207.613 5.94821 205.324 7.63604 203.636C9.32387 201.948 11.6131 201 14 201C16.3869 201 18.6761 201.948 20.364 203.636C22.0518 205.324 23 207.613 23 210Z" stroke="black" stroke-width="2" stroke-linecap="round" stroke-linejoin="round"/>
<path d="M14 213C15.6569 213 17 211.657 17 210C17 208.343 15.6569 207 14 207C12.3431 207 11 208.343 11 210C11 211.657 12.3431 213 14 213Z" stroke="black" stroke-width="2" stroke-linecap="round" stroke-linejoin="round"/>
<path d="M67 210C67 217 58 223 58 223C58 223 49 217 49 210C49 207.613 49.9482 205.324 51.636 203.636C53.3239 201.948 55.6131 201 58 201C60.3869 201 62.6761 201.948 64.364 203.636C66.0518 205.324 67 207.613 67 210Z" stroke="white" stroke-width="2" stroke-linecap="round" stroke-linejoin="round"/>
<path d="M58 213C59.6569 213 61 211.657 61 210C61 208.343 59.6569 207 58 207C56.3431 207 55 208.343 55 210C55 211.657 56.3431 213 58 213Z" stroke="white" stroke-width="2" stroke-linecap="round" stroke-linejoin="round"/>
<path d="M22 341H13C11.8954 341 11 341.895 11 343V352C11 353.105 11.8954 354 13 354H22C23.1046 354 24 353.105 24 352V343C24 341.895 23.1046 341 22 341Z" stroke="#25282B" stroke-width="2" stroke-linecap="round" stroke-linejoin="round"/>
<path d="M7 347H6C5.46957 347 4.96086 346.789 4.58579 346.414C4.21071 346.039 4 345.53 4 345V336C4 335.47 4.21071 334.961 4.58579 334.586C4.96086 334.211 5.46957 334 6 334H15C15.5304 334 16.0391 334.211 16.4142 334.586C16.7893 334.961 17 335.47 17 336V337" stroke="#25282B" stroke-width="2" stroke-linecap="round" stroke-linejoin="round"/>
<path d="M19.0003 405.335C26.3641 405.335 32.3337 399.365 32.3337 392.001C32.3337 384.638 26.3641 378.668 19.0003 378.668C11.6365 378.668 5.66699 384.638 5.66699 392.001C5.66699 399.365 11.6365 405.335 19.0003 405.335Z" stroke="#25282B" stroke-width="2" stroke-linecap="round" stroke-linejoin="round"/>
<path d="M19 397.335L24.3333 392.001L19 386.668" stroke="#25282B" stroke-width="2" stroke-linecap="round" stroke-linejoin="round"/>
<path d="M13.667 392H24.3337" stroke="#25282B" stroke-width="2" stroke-linecap="round" stroke-linejoin="round"/>
<path d="M70.9997 405.335C63.6359 405.335 57.6663 399.365 57.6663 392.001C57.6663 384.638 63.6359 378.668 70.9997 378.668C78.3635 378.668 84.333 384.638 84.333 392.001C84.333 399.365 78.3635 405.335 70.9997 405.335Z" stroke="#25282B" stroke-width="2" stroke-linecap="round" stroke-linejoin="round"/>
<path d="M71 397.335L65.6667 392.001L71 386.668" stroke="#25282B" stroke-width="2" stroke-linecap="round" stroke-linejoin="round"/>
<path d="M76.333 392H65.6663" stroke="#25282B" stroke-width="2" stroke-linecap="round" stroke-linejoin="round"/>
<path d="M20 461C28.2843 461 35 454.284 35 446C35 437.716 28.2843 431 20 431C11.7157 431 5 437.716 5 446C5 454.284 11.7157 461 20 461Z" stroke="black" stroke-width="2" stroke-linecap="round" stroke-linejoin="round"/>
<path d="M20 437V446L26 449" stroke="black" stroke-width="2" stroke-linecap="round" stroke-linejoin="round"/>
<circle cx="38" cy="38" r="8" fill="white"/>
<path d="M36.9998 40.9998C36.8685 41 36.7384 40.9742 36.6171 40.9239C36.4958 40.8736 36.3856 40.7998 36.2928 40.7068L34.2928 38.7068C34.2 38.614 34.1264 38.5038 34.0761 38.3825C34.0259 38.2612 34 38.1312 34 37.9998C34 37.7347 34.1053 37.4804 34.2928 37.2928C34.4804 37.1053 34.7347 37 34.9998 37C35.265 37 35.5193 37.1053 35.7068 37.2928L36.9998 38.5858L40.2928 35.2928C40.3857 35.2 40.4959 35.1264 40.6172 35.0761C40.7385 35.0259 40.8685 35 40.9998 35C41.1312 35 41.2612 35.0259 41.3825 35.0761C41.5038 35.1264 41.614 35.2 41.7068 35.2928C41.7997 35.3857 41.8733 35.4959 41.9236 35.6172C41.9738 35.7385 41.9997 35.8685 41.9997 35.9998C41.9997 36.1312 41.9738 36.2612 41.9236 36.3825C41.8733 36.5038 41.7997 36.614 41.7068 36.7068L37.7068 40.7068C37.6141 40.7998 37.5039 40.8736 37.3826 40.9239C37.2613 40.9742 37.1312 41 36.9998 40.9998Z" fill="#009E92"/>
<circle cx="38" cy="10" r="8" fill="white"/>
<path d="M38 6V11" stroke="#EA4335" stroke-width="2" stroke-linecap="round" stroke-linejoin="round"/>
<path d="M38 14H38.01" stroke="#EA4335" stroke-width="2" stroke-linecap="round" stroke-linejoin="round"/>
<path d="M4 72H20C21.1 72 22 72.9 22 74V86C22 87.1 21.1 88 20 88H4C2.9 88 2 87.1 2 86V74C2 72.9 2.9 72 4 72Z" stroke="black" stroke-width="2" stroke-linecap="round" stroke-linejoin="round"/>
<path d="M22 74L12 81L2 74" stroke="black" stroke-width="2" stroke-linecap="round" stroke-linejoin="round"/>
<path d="M48 72H64C65.1 72 66 72.9 66 74V86C66 87.1 65.1 88 64 88H48C46.9 88 46 87.1 46 86V74C46 72.9 46.9 72 48 72Z" stroke="white" stroke-width="2" stroke-linecap="round" stroke-linejoin="round"/>
<path d="M66 74L56 81L46 74" stroke="white" stroke-width="2" stroke-linecap="round" stroke-linejoin="round"/>
<path d="M92 72H108C109.1 72 110 72.9 110 74V86C110 87.1 109.1 88 108 88H92C90.9 88 90 87.1 90 86V74C90 72.9 90.9 72 92 72Z" stroke="#EA4335" stroke-width="2" stroke-linecap="round" stroke-linejoin="round"/>
<path d="M110 74L100 81L90 74" stroke="#EA4335" stroke-width="2" stroke-linecap="round" stroke-linejoin="round"/>
<path d="M136 72H152C153.1 72 154 72.9 154 74V86C154 87.1 153.1 88 152 88H136C134.9 88 134 87.1 134 86V74C134 72.9 134.9 72 136 72Z" stroke="#009E92" stroke-width="2" stroke-linecap="round" stroke-linejoin="round"/>
<path d="M154 74L144 81L134 74" stroke="#009E92" stroke-width="2" stroke-linecap="round" stroke-linejoin="round"/>
<path d="M58 266C63.5228 266 68 261.523 68 256C68 250.477 63.5228 246 58 246C52.4772 246 48 250.477 48 256C48 261.523 52.4772 266 58 266Z" stroke="#FFCC00" stroke-width="2" stroke-linecap="round" stroke-linejoin="round"/>
<path d="M58 260L62 256L58 252" stroke="#FFCC00" stroke-width="2" stroke-linecap="round" stroke-linejoin="round"/>
<path d="M54 256H62" stroke="#FFCC00" stroke-width="2" stroke-linecap="round" stroke-linejoin="round"/>
<path d="M14 266C19.5228 266 24 261.523 24 256C24 250.477 19.5228 246 14 246C8.47715 246 4 250.477 4 256C4 261.523 8.47715 266 14 266Z" stroke="black" stroke-width="2" stroke-linecap="round" stroke-linejoin="round"/>
<path d="M14 260L18 256L14 252" stroke="black" stroke-width="2" stroke-linecap="round" stroke-linejoin="round"/>
<path d="M10 256H18" stroke="black" stroke-width="2" stroke-linecap="round" stroke-linejoin="round"/>
<circle cx="10" cy="38" r="8" fill="#009E92"/>
<path d="M8.99985 40.9998C8.86851 41 8.73844 40.9742 8.61712 40.9239C8.49579 40.8736 8.38559 40.7998 8.29285 40.7068L6.29285 38.7068C6.2 38.614 6.12636 38.5038 6.07611 38.3825C6.02586 38.2612 6 38.1312 6 37.9998C6 37.7347 6.10534 37.4804 6.29285 37.2928C6.48036 37.1053 6.73467 37 6.99985 37C7.26503 37 7.51934 37.1053 7.70685 37.2928L8.99985 38.5858L12.2928 35.2928C12.3857 35.2 12.4959 35.1264 12.6172 35.0761C12.7385 35.0259 12.8685 35 12.9998 35C13.1312 35 13.2612 35.0259 13.3825 35.0761C13.5038 35.1264 13.614 35.2 13.7068 35.2928C13.7997 35.3857 13.8733 35.4959 13.9236 35.6172C13.9738 35.7385 13.9997 35.8685 13.9997 35.9998C13.9997 36.1312 13.9738 36.2612 13.9236 36.3825C13.8733 36.5038 13.7997 36.614 13.7068 36.7068L9.70685 40.7068C9.61411 40.7998 9.50391 40.8736 9.38258 40.9239C9.26125 40.9742 9.13118 41 8.99985 40.9998Z" fill="white"/>
<circle cx="10" cy="10" r="8" fill="#EA4335"/>
<path d="M10 6V11" stroke="white" stroke-width="2" stroke-linecap="round" stroke-linejoin="round"/>
<path d="M10 14H10.01" stroke="white" stroke-width="2" stroke-linecap="round" stroke-linejoin="round"/>
<path d="M49 299L68 290L59 309L57 301L49 299Z" stroke="white" stroke-width="2" stroke-linecap="round" stroke-linejoin="round"/>
<path d="M5 299L24 290L15 309L13 301L5 299Z" stroke="black" stroke-width="2" stroke-linecap="round" stroke-linejoin="round"/>
</svg>
