<svg width="238" height="13" viewBox="0 0 238 13" fill="none" xmlns="http://www.w3.org/2000/svg">
<rect x="180" width="8" height="13" rx="1" fill="#D9D9D9" fill-opacity="0.24"/>
<rect x="190" width="8" height="13" rx="1" fill="#D9D9D9" fill-opacity="0.24"/>
<rect x="200" width="8" height="13" rx="1" fill="#D9D9D9" fill-opacity="0.24"/>
<rect x="210" width="8" height="13" rx="1" fill="#D9D9D9" fill-opacity="0.24"/>
<rect x="220" width="8" height="13" rx="1" fill="#D9D9D9" fill-opacity="0.24"/>
<rect x="170" width="8" height="13" rx="1" fill="#D9D9D9" fill-opacity="0.24"/>
<rect x="230" width="8" height="13" rx="1" fill="#D9D9D9" fill-opacity="0.24"/>
<rect x="110" width="8" height="13" rx="1" fill="#D9D9D9" fill-opacity="0.24"/>
<rect x="120" width="8" height="13" rx="1" fill="#D9D9D9" fill-opacity="0.24"/>
<rect x="130" width="8" height="13" rx="1" fill="#D9D9D9" fill-opacity="0.24"/>
<rect x="140" width="8" height="13" rx="1" fill="#D9D9D9" fill-opacity="0.24"/>
<rect x="150" width="8" height="13" rx="1" fill="#D9D9D9" fill-opacity="0.24"/>
<rect x="100" width="8" height="13" rx="1" fill="#D9D9D9" fill-opacity="0.24"/>
<rect x="160" width="8" height="13" rx="1" fill="#D9D9D9" fill-opacity="0.24"/>
<rect x="40" width="8" height="13" rx="1" fill="#D9D9D9" fill-opacity="0.24"/>
<rect x="50" width="8" height="13" rx="1" fill="#D9D9D9" fill-opacity="0.24"/>
<rect x="60" width="8" height="13" rx="1" fill="#D9D9D9" fill-opacity="0.24"/>
<rect x="70" width="8" height="13" rx="1" fill="#D9D9D9" fill-opacity="0.24"/>
<rect x="80" width="8" height="13" rx="1" fill="#D9D9D9" fill-opacity="0.24"/>
<rect x="30" width="8" height="13" rx="1" fill="#D9D9D9" fill-opacity="0.24"/>
<rect x="20" width="8" height="13" rx="1" fill="#D9D9D9" fill-opacity="0.24"/>
<rect x="10" width="8" height="13" rx="1" fill="#D9D9D9" fill-opacity="0.24"/>
<rect width="8" height="13" rx="1" fill="#D9D9D9" fill-opacity="0.24"/>
<rect x="90" width="8" height="13" rx="1" fill="#D9D9D9" fill-opacity="0.24"/>
</svg>
