<svg width="11" height="13" viewBox="0 0 11 13" fill="none"
    xmlns="http://www.w3.org/2000/svg">
    <path d="M10.3809 12.7288C10.3696 12.7025 10.354 12.6782 10.3349 12.6569C10.3349 12.631 10.3299 12.608 10.3292 12.6008C10.327 12.5545 10.3148 12.5092 10.2933 12.4681C10.2718 12.427 10.2416 12.3911 10.2048 12.3629C10.1533 12.3286 10.0957 12.3042 10.0352 12.291C9.92533 12.2736 9.81661 12.2496 9.70961 12.2192C9.58671 12.1789 9.41277 12.1315 9.34521 12.0165C9.28918 11.9063 9.22147 11.8024 9.14324 11.7067C9.05771 11.6125 9.08933 11.4774 9.12743 11.3703C9.14295 11.3374 9.14988 11.301 9.14755 11.2647C9.14489 11.247 9.13627 11.2308 9.12311 11.2187H9.1188C9.14461 11.1777 9.16697 11.1347 9.18565 11.09C9.22015 11.0059 9.28914 10.9556 9.29202 10.8564C9.29202 10.7989 9.28196 10.7421 9.28052 10.6839C9.28754 10.5414 9.30411 10.3995 9.33011 10.2591C9.34664 10.1003 9.3639 9.94073 9.38115 9.78188C9.41517 9.46276 9.44919 9.14412 9.48321 8.82595C9.50405 8.63189 9.41996 8.45004 9.33443 8.28114C9.2949 8.20351 9.26255 8.12301 9.22302 8.04539C9.17975 7.97487 9.11976 7.91613 9.04837 7.87433C8.97436 7.8384 8.89451 7.816 8.81261 7.8082C8.46258 7.7277 8.11327 7.65942 7.76252 7.58395C7.58284 7.54586 7.40315 7.50776 7.22059 7.48117C7.20265 7.45979 7.18213 7.44072 7.15949 7.42439H7.15446C7.03371 7.33311 7.00065 7.20877 6.96831 7.05998C6.85834 6.56836 6.76059 6.03577 6.47596 5.62249C6.46303 5.60236 6.44865 5.58296 6.43428 5.56355L6.44362 5.5384L6.45943 5.52114C6.46375 5.52617 6.46734 5.53121 6.47165 5.53552L6.80874 5.91933C6.89212 6.01421 6.92806 6.05877 7.05599 6.07817C7.19974 6.09902 7.37656 6.12202 7.50234 6.03361C7.58284 5.97683 7.58571 5.90927 7.61734 5.8259C7.65615 5.72384 7.74384 5.6347 7.7884 5.53049C7.7999 5.50533 7.80996 5.47946 7.82002 5.45286C7.89036 5.25977 7.93319 5.05774 7.94724 4.85271C7.95869 4.72652 7.96014 4.59962 7.95155 4.47321C7.94652 4.39271 7.9379 4.3115 7.92712 4.22668C7.91828 4.17687 7.91658 4.12604 7.92208 4.07574C7.93472 4.03674 7.95035 3.99878 7.96881 3.96218C7.97567 3.92449 7.97713 3.88601 7.97312 3.8479C7.97262 3.7519 7.97718 3.65593 7.98677 3.5604C7.98677 3.53812 7.99252 3.5144 7.99684 3.48853L8.6164 3.61934H8.62215L9.0304 3.63372V3.67468C9.03058 3.67894 9.0324 3.68297 9.03548 3.68591C9.03857 3.68886 9.04266 3.6905 9.04693 3.69049L9.24386 3.67899C9.25249 3.67899 9.26471 3.66893 9.26471 3.66031H9.27693C9.27728 3.6647 9.27922 3.66881 9.28241 3.67186C9.28559 3.6749 9.28977 3.67668 9.29418 3.67684L9.65355 3.65527H9.65786L9.88786 3.49427L9.89936 3.48637L10.1344 3.40659C10.1469 3.40248 10.1578 3.39432 10.1652 3.38339C10.1726 3.37247 10.1762 3.3594 10.1754 3.34622L10.0769 1.54863C10.0761 1.53539 10.0709 1.5228 10.0622 1.5128C10.0535 1.50279 10.0417 1.49594 10.0287 1.49328L9.78724 1.44225L9.77574 1.43578L9.5249 1.30353H9.51771L9.15833 1.32509C9.1542 1.3258 9.1505 1.32805 9.14796 1.33139C9.14543 1.33472 9.14425 1.33889 9.14468 1.34306H9.14827H9.13533C9.12599 1.33443 9.12168 1.32653 9.11233 1.32725L8.91755 1.33875C8.91323 1.33942 8.90928 1.34159 8.90639 1.34487C8.9035 1.34816 8.90186 1.35235 8.90174 1.35672V1.39768L8.49852 1.46021H8.49277L7.93574 1.64996V1.61834C7.93566 1.61733 7.93536 1.61634 7.93487 1.61545C7.93438 1.61455 7.93371 1.61377 7.93289 1.61316C7.93207 1.61255 7.93114 1.61212 7.93014 1.61189C7.92915 1.61167 7.92811 1.61167 7.92712 1.61188L7.82865 1.61762C7.82758 1.61751 7.8265 1.61764 7.82549 1.61799C7.82448 1.61835 7.82357 1.61893 7.82281 1.61969C7.82205 1.62044 7.82147 1.62136 7.82111 1.62237C7.82076 1.62338 7.82063 1.62446 7.82074 1.62553V1.65931H7.76109C7.75677 1.65931 7.7539 1.66362 7.75318 1.66793C7.75243 1.66611 7.75112 1.66458 7.74944 1.66355C7.74776 1.66251 7.7458 1.66204 7.74384 1.66219C7.71144 1.66288 7.67928 1.66796 7.64824 1.67728C7.64173 1.67917 7.63602 1.68315 7.632 1.6886C7.62797 1.69406 7.62585 1.70069 7.62596 1.70747L7.63459 1.85122L7.51384 1.90584L7.5088 1.8239C7.50681 1.79068 7.49334 1.75918 7.47071 1.73478L7.45705 1.50837C7.45675 1.50562 7.45551 1.50306 7.45355 1.5011C7.45159 1.49914 7.44903 1.4979 7.44627 1.49759H7.43765C7.43534 1.49773 7.43314 1.49867 7.43144 1.50024C7.42974 1.50181 7.42863 1.50392 7.4283 1.50621L7.17603 1.52131V1.51772C7.17603 1.51269 7.17602 1.50909 7.16884 1.50909L6.9949 1.51988C6.99261 1.51988 6.99042 1.52078 6.9888 1.5224C6.98718 1.52402 6.98627 1.52621 6.98627 1.5285V1.53281L6.89571 1.53784V1.49687H6.86696V1.51772H6.85043V1.49687H6.80946V1.51772H6.79293V1.49759H6.75196V1.51844H6.73471V1.50909H6.68943V1.52994H6.67721V1.50909H6.63193V1.52994H6.61971V1.50909H6.58665V1.55006L6.48531 1.55653L6.42421 1.52706L6.35234 1.53066C6.35822 1.47215 6.36086 1.41336 6.36025 1.35456C6.36012 1.33866 6.35868 1.32279 6.35593 1.30712V1.29563V1.28556C6.35593 1.28197 6.35593 1.27837 6.35234 1.2755L6.34803 1.26616C6.40124 1.22737 6.44951 1.18224 6.49178 1.13175C6.50184 1.11953 6.51118 1.10803 6.52053 1.09509C6.53304 1.07976 6.54255 1.0622 6.54856 1.04334C6.56082 0.966951 6.54608 0.888666 6.50687 0.821965C6.49106 0.79034 6.47309 0.759441 6.45512 0.730691L6.47381 0.71703C6.49854 0.697591 6.51622 0.670578 6.52412 0.640128C6.52843 0.619284 6.51046 0.589816 6.50328 0.568253C6.44906 0.433586 6.36 0.315758 6.24525 0.226848C6.1888 0.182005 6.12639 0.145234 6.05981 0.117597C5.99296 0.0902843 5.91606 0.125503 5.84993 0.14419L5.82621 0.150656C5.73989 0.106665 5.64966 0.0708125 5.55668 0.0435636C5.53584 0.0370948 5.51428 0.0320643 5.49272 0.0263143C5.30269 -0.0210711 5.10303 -0.0125879 4.91772 0.0507493C4.71308 0.113161 4.52075 0.210421 4.34919 0.338249C4.23519 0.419405 4.14305 0.527503 4.08097 0.652912C4.0189 0.77832 3.98881 0.917141 3.99341 1.057V1.07138C3.98591 1.07588 3.97892 1.08118 3.97256 1.08719C3.95404 1.11799 3.94239 1.15245 3.93842 1.18817C3.93445 1.2239 3.93825 1.26006 3.94956 1.29419C3.95306 1.29923 3.95766 1.3034 3.96302 1.30639C3.96837 1.30938 3.97434 1.31111 3.98047 1.31144C3.97112 1.41853 3.95891 1.52706 3.95172 1.632C3.94237 1.75203 3.95172 1.86918 4.0545 1.94537C4.08037 1.96501 4.10777 1.98256 4.13644 1.99784C4.19551 2.03275 4.26541 2.04453 4.33265 2.0309C4.35382 2.02605 4.3745 2.01931 4.39447 2.01078C4.40807 2.03389 4.42008 2.0579 4.43041 2.08265C4.44729 2.12131 4.46123 2.1612 4.47209 2.20197L4.31828 2.21131L4.20256 2.12649V2.13081L2.94475 2.20269V2.19837L2.83838 2.29612L2.73272 2.30259H2.72841L2.30722 2.32775H2.30291L1.61004 2.36871L1.60644 2.30906C1.60477 2.28351 1.59315 2.25963 1.57406 2.24256C1.55498 2.22549 1.52996 2.21659 1.50438 2.21778H1.47276H1.45191L0.815101 2.01868V2.00647C0.815101 1.98634 0.798569 1.97484 0.774132 1.97628H0.733163L0.296165 2.00359H0.29185C0.278164 2.00387 0.264672 2.00688 0.252164 2.01244C0.239656 2.018 0.228386 2.026 0.219012 2.03598C0.209639 2.04595 0.202352 2.0577 0.19758 2.07053C0.192809 2.08336 0.190649 2.09701 0.191226 2.11068L0.194821 2.17825L0.0216021 2.21706C0.0152092 2.21856 0.00954838 2.22227 0.00560754 2.22752C0.00166669 2.23278 -0.000305191 2.23925 3.83768e-05 2.24581L0.0941943 3.80765C0.0945024 3.81417 0.0971382 3.82037 0.101621 3.82512C0.106104 3.82986 0.11214 3.83284 0.118634 3.83352L0.295445 3.85077L0.299757 3.92265C0.301843 3.94897 0.313153 3.97371 0.331692 3.99251C0.350231 4.01131 0.374811 4.02297 0.401101 4.02543C0.401101 4.02543 0.401102 4.02543 0.406133 4.02543C0.406133 4.02543 0.406133 4.02543 0.410445 4.02543H0.414758L0.851756 3.99956H0.856068H0.891288C0.90238 3.99699 0.912153 3.99046 0.91877 3.98119C0.925388 3.97193 0.928395 3.96056 0.927226 3.94924V3.95284L1.53601 3.67899H1.55254H1.58416C1.60958 3.67714 1.63328 3.66544 1.6502 3.64638C1.66711 3.62731 1.67592 3.60239 1.67472 3.57693L1.67113 3.51656L2.89947 3.44469L2.96703 3.49356C2.88939 3.59682 2.82267 3.70786 2.76794 3.8249C2.71688 3.92278 2.69211 4.03225 2.69606 4.14259C2.71162 4.23795 2.74477 4.32959 2.79382 4.41284C2.81691 4.44791 2.83414 4.48651 2.84485 4.52712C2.84988 4.56521 2.83622 4.60977 2.84125 4.65074C2.8585 4.74537 2.89026 4.83677 2.93541 4.92171C2.98069 5.01874 3.02669 5.11505 3.07197 5.20921C3.05749 5.30821 3.05028 5.40815 3.05041 5.50821V5.51252C3.05041 5.52114 3.05041 5.52906 3.05041 5.53768C3.05077 5.54127 3.05077 5.54487 3.05041 5.54845C3.05041 5.55492 3.05041 5.56139 3.05041 5.56786C3.05041 5.57433 3.05041 5.57864 3.05041 5.58367V5.59805C3.05041 5.60524 3.05041 5.61242 3.05041 5.61961C3.05041 5.6268 3.05041 5.62608 3.05041 5.62895C3.05041 5.63183 3.05041 5.64621 3.05041 5.65412C3.05072 5.65602 3.05072 5.65796 3.05041 5.65986L3.05472 5.68934C3.05472 5.6994 3.05472 5.70874 3.05975 5.7188L3.06838 5.7648C3.06838 5.7648 3.06838 5.76983 3.06838 5.7727C3.06838 5.78708 3.07413 5.80217 3.07628 5.81727C3.0879 5.88564 3.10423 5.95312 3.12516 6.01924C3.13091 6.03649 3.13738 6.05374 3.14456 6.07027L3.15535 6.09255V6.09758L3.16541 6.11555V6.1213L3.17834 6.14286C3.22524 6.19441 3.26358 6.25313 3.29191 6.3168C3.29191 6.32111 3.29191 6.32614 3.29191 6.33117C3.29157 6.33259 3.29157 6.33407 3.29191 6.33549C3.29191 6.33549 3.29191 6.34268 3.29191 6.34627C3.2922 6.34794 3.2922 6.34964 3.29191 6.3513V6.36783C3.29191 6.36783 3.29191 6.37502 3.29191 6.37861C3.29191 6.38221 3.29191 6.38292 3.29191 6.38508V6.39442C3.29191 6.43395 3.29191 6.47564 3.28688 6.51374C3.28688 6.51374 3.28688 6.51373 3.28688 6.51876C3.28688 6.5238 3.28688 6.54033 3.28688 6.55111V6.88605C3.29306 6.93613 3.28689 6.98696 3.26891 7.03411L3.26028 7.0528L3.25166 7.06861C3.23585 7.09592 3.21716 7.12251 3.19991 7.14911L3.19416 7.15773C3.19123 7.16349 3.18787 7.16902 3.1841 7.17426C3.17188 7.19439 3.15966 7.21452 3.14816 7.23536C3.14792 7.23703 3.14792 7.23872 3.14816 7.24039C3.14606 7.24326 3.14437 7.2464 3.14313 7.24973C3.14119 7.25245 3.1395 7.25533 3.13809 7.25836L3.1345 7.26555L3.12803 7.27705V7.28279C3.12582 7.28697 3.1239 7.2913 3.12228 7.29574V7.30004L3.11438 7.31658C3.10897 7.32855 3.10417 7.34078 3.1 7.35324L3.09569 7.36761V7.37336C3.09569 7.37767 3.09569 7.38199 3.09569 7.3863C3.09537 7.3882 3.09537 7.39014 3.09569 7.39205C3.09543 7.39611 3.09543 7.4002 3.09569 7.40427C3.09569 7.40427 3.09569 7.40858 3.09569 7.41073V7.42368C3.09604 7.42582 3.09604 7.428 3.09569 7.43014C3.09569 7.43445 3.09569 7.43877 3.09569 7.44308V7.44883C3.09533 7.45529 3.09533 7.46177 3.09569 7.46824V7.51639C3.09569 7.51639 3.09569 7.52358 3.09569 7.52717V7.5509C3.09608 7.55424 3.09608 7.55761 3.09569 7.56095C3.09569 7.56957 3.09569 7.57749 3.09569 7.58539C3.09603 7.5909 3.09603 7.59642 3.09569 7.60192C3.09604 7.60479 3.09604 7.60768 3.09569 7.61055V7.63067C3.09605 7.6357 3.09605 7.64074 3.09569 7.64577C3.09754 7.6892 3.09585 7.7327 3.09066 7.77586V7.78952C3.09066 7.78952 3.09066 7.79383 3.09066 7.79526V7.80748C3.09066 7.81252 3.09066 7.81682 3.09066 7.82186V7.83192C3.09066 7.83911 3.08706 7.84702 3.08491 7.85492C3.04528 7.98839 3.03354 8.12857 3.05041 8.26677L3.04178 8.27251C3.02261 8.28898 3.00703 8.30923 2.99603 8.33198C2.98502 8.35473 2.97882 8.3795 2.97782 8.40476C2.97135 8.47663 2.985 8.54852 2.97782 8.62758C2.97063 8.70664 2.96991 8.79577 2.96631 8.88058C2.95817 9.04877 2.9505 9.21647 2.94331 9.3837C2.93828 9.48505 2.93972 9.59933 3.01519 9.6712C3.04384 9.69256 3.07645 9.70799 3.11112 9.71663C3.14579 9.72527 3.18184 9.72693 3.21716 9.72151C3.22938 9.7711 3.24231 9.82141 3.25597 9.87029C3.2646 9.90047 3.27538 9.92994 3.28616 9.95941C3.23494 9.93723 3.17952 9.92644 3.12372 9.92779C3.09598 9.92927 3.06861 9.93484 3.0425 9.94432C3.00143 9.92109 2.95743 9.90345 2.91169 9.89185C2.84766 9.87461 2.78022 9.87461 2.71619 9.89185C2.48403 9.95942 2.46463 10.3166 2.47038 10.5143C2.47469 10.671 2.52428 10.8234 2.52357 10.9815C2.52357 11.228 2.52356 11.4745 2.51781 11.7203C2.50977 11.832 2.52394 11.9441 2.5595 12.0503C2.57589 12.0921 2.60124 12.1299 2.63377 12.1609C2.6663 12.192 2.70522 12.2155 2.74781 12.2299C2.79976 12.2741 2.86269 12.3033 2.92991 12.3145C2.99712 12.3257 3.06613 12.3185 3.12959 12.2937C3.19305 12.2689 3.2486 12.2273 3.29034 12.1734C3.33208 12.1196 3.35846 12.0554 3.36666 11.9877C3.38606 12.0014 3.39972 12.0093 3.39972 12.0093C3.4105 12.039 3.42577 12.0669 3.445 12.0919C3.46671 12.1216 3.49074 12.1495 3.51688 12.1753C3.66826 12.33 3.85426 12.4466 4.05953 12.5153C4.17706 12.5647 4.30014 12.5997 4.42609 12.6195C4.56156 12.6352 4.69882 12.6204 4.82787 12.5764C5.18725 12.4463 5.27278 12.0229 5.34465 11.6873C5.35328 11.6478 5.40503 11.6319 5.42803 11.6032C5.44647 11.5765 5.45807 11.5456 5.46181 11.5133C5.46181 11.5026 5.4654 11.4918 5.46684 11.481C5.48553 11.4702 5.49918 11.4594 5.50062 11.4508C5.51897 11.3338 5.51751 11.2145 5.49631 11.0979C5.49128 11.0569 5.50709 11.026 5.45893 11.0383H5.45031C5.4424 10.9664 5.43665 10.8945 5.43593 10.8176C5.43606 10.7864 5.43798 10.7552 5.44168 10.7242C5.46076 10.7107 5.47429 10.6908 5.47978 10.6681C5.49508 10.608 5.49898 10.5456 5.49128 10.4841C5.49128 10.4748 5.46756 10.3281 5.44097 10.349L5.42875 10.3583C5.40922 10.2945 5.40626 10.2267 5.42012 10.1614C5.51076 9.79607 5.65978 9.44779 5.86143 9.12998C6.02187 9.23788 6.20472 9.30792 6.39618 9.33482C6.88575 9.40523 7.38506 9.35742 7.85237 9.19538C7.85073 9.28162 7.86311 9.36755 7.88902 9.44982C7.91993 9.53248 8.01624 9.52745 8.00834 9.63885C8.00474 9.69204 7.98246 9.74236 7.97383 9.79554C7.96539 9.90023 7.98369 10.0053 8.02702 10.101C8.05362 10.1729 8.08021 10.2491 8.10608 10.3238C8.13196 10.3986 8.10609 10.4482 8.08237 10.5236C8.0684 10.56 8.05992 10.5983 8.05721 10.6372C8.05668 10.7015 8.0712 10.765 8.09962 10.8226L8.08884 10.8269L8.08165 10.832H8.07805C8.0608 10.8593 8.08956 10.888 8.09674 10.9139C8.10393 10.9574 8.10538 11.0016 8.10105 11.0454C8.10105 11.1482 8.10105 11.251 8.10824 11.3538C8.11489 11.4033 8.11047 11.4537 8.09531 11.5013C8.08015 11.5489 8.05462 11.5925 8.02056 11.6291C7.94199 11.7007 7.88141 11.7898 7.84374 11.8893C7.84374 11.8979 7.83871 11.9065 7.83655 11.9151C7.83622 11.9175 7.83622 11.9199 7.83655 11.9223C7.83296 11.9331 7.80924 11.9468 7.80205 11.9539C7.7921 11.9607 7.78398 11.9698 7.77846 11.9805C7.77293 11.9911 7.77017 12.003 7.77043 12.015C7.76136 12.0801 7.75584 12.1456 7.7539 12.2113C7.7539 12.2529 7.7539 12.2695 7.79055 12.2903L7.8574 12.3313C7.91705 12.3672 7.97743 12.4032 8.03924 12.4326C8.1848 12.511 8.33891 12.5722 8.49852 12.6152C8.5704 12.6324 8.60633 12.5598 8.66599 12.631C8.72565 12.7022 8.7314 12.7417 8.81333 12.7704C8.84784 12.7827 8.88161 12.7978 8.91683 12.81C9.01099 12.843 9.10658 12.8711 9.20433 12.8948C9.44521 12.9579 9.69528 12.9783 9.94321 12.9552C10.0835 12.9405 10.2198 12.8995 10.345 12.8344C10.3996 12.8308 10.4126 12.8057 10.3809 12.7288ZM6.36456 2.09559C6.38904 2.01545 6.40163 1.93214 6.40193 1.84834H6.43068L6.44362 2.09056L6.36456 2.09559Z" fill="#97999C"/>
</svg>
