<svg width="11" height="11" viewBox="0 0 11 11" fill="none"
    xmlns="http://www.w3.org/2000/svg">
    <path fill-rule="evenodd" clip-rule="evenodd" d="M9.23047 -1H10C10.5523 -1 11 -0.552285 11 0V10C11 10.5523 10.5523 11 10 11H9.23047C8.67818 11 8.23047 10.5523 8.23047 10V-5.36442e-07C8.23047 -0.552285 8.67818 -1 9.23047 -1ZM5.88188 1.81268H5.1123C4.56002 1.81268 4.1123 2.26039 4.1123 2.81268V10C4.1123 10.5523 4.56002 11 5.1123 11H5.88188C6.43416 11 6.88188 10.5523 6.88188 10V2.81268C6.88188 2.26039 6.43417 1.81268 5.88188 1.81268ZM1.76957 6.8341H1C0.447715 6.8341 0 7.28182 0 7.8341V9.99999C0 10.5523 0.447715 11 0.999999 11H1.76957C2.32185 11 2.76957 10.5523 2.76957 9.99999V7.8341C2.76957 7.28182 2.32185 6.8341 1.76957 6.8341Z" fill="#97999C" />
</svg>
