<?xml version="1.0" encoding="UTF-8"?>
<svg width="13px" height="13px" viewBox="0 0 13 13" version="1.1"
    xmlns="http://www.w3.org/2000/svg"
    xmlns:xlink="http://www.w3.org/1999/xlink">
    <title>start-up</title>
    <g id="-" stroke="none" stroke-width="1" fill="none" fill-rule="evenodd">
        <g id="Dice_dark_desktop_history_All" transform="translate(-206.000000, -1002.000000)" fill="#989B9E" fill-rule="nonzero">
            <g id="Group-55" transform="translate(206.000000, 719.000000)">
                <g id="Group-54" transform="translate(0.000000, 222.000000)">
                    <g id="start-up" transform="translate(0.000000, 61.000000)">
                        <path d="M1.89775087,8.33010864 C1.82415771,8.47689819 1.85282134,8.65433502 1.96876525,8.77037812 L2.06189727,8.86351014 C2.33097841,8.54463959 2.64459229,8.19859315 3.02495576,7.81832886 C3.05183409,7.79145049 3.07950591,7.77845763 3.10648345,7.75366211 L2.50732422,7.1544037 C2.15899658,7.78440858 1.95587158,8.214859 1.89775087,8.33010864 Z" id="Path"></path>
                        <path d="M5.17938995,9.97276307 C4.79813384,10.3540192 4.45298004,10.6682281 4.13589478,10.9375076 L4.26205444,11.0636673 C4.37908936,11.1807022 4.55821229,11.2088699 4.70549775,11.1330948 C4.902771,11.0314331 5.2130127,10.885437 5.87158203,10.5186615 L5.24415587,9.89123535 C5.21936035,9.91831207 5.20636749,9.94588471 5.17938995,9.97276307 L5.17938995,9.97276307 Z" id="Path"></path>
                        <path d="M4.97636415,8.02185059 C4.70113373,7.74662017 3.9271164,7.99338531 3.5635147,8.3568878 C2.34714507,9.57325743 1.79777528,10.4356461 1.55110932,10.9448471 C1.48039247,11.090744 1.50984955,11.2654038 1.6245041,11.3800583 C1.73935699,11.4950104 1.91431426,11.5241699 2.06031036,11.4534531 C2.55810547,11.2117462 3.40998077,10.6649551 4.640831,9.4342041 C5.04063417,9.03420258 5.23790742,8.28349305 4.97666168,8.02214814 L4.97636415,8.02185059 Z" id="Path"></path>
                        <path d="M1.18879698,5.07078554 L0.111579889,6.14800263 C-0.0102157656,6.26979829 -0.0352096621,6.45834351 0.0510788027,6.6077118 C0.135284424,6.75509644 0.311630262,6.8301773 0.479446398,6.7852478 C1.06164551,6.62913514 1.5739212,6.56317901 1.91887665,6.65164947 C2.40962983,5.77914429 2.9369812,4.97596739 3.49547578,4.24638368 C3.17243956,4.03929139 2.10494233,4.15464019 1.18879698,5.07078554 L1.18879698,5.07078554 Z" id="Path"></path>
                        <path d="M6.44654083,12.959137 C6.5932312,13.0333252 6.7708664,13.0046616 6.88700868,12.8884201 L7.96432495,11.811203 C8.79834747,10.9769821 8.94513702,9.90065766 8.75589752,9.55937196 C7.94220733,10.172615 7.11790468,10.6904449 6.34884644,11.12397 C6.40190888,11.4235992 6.36660004,11.7143021 6.24113466,12.5633011 C6.21663666,12.7276459 6.30153657,12.8866348 6.44654083,12.959137 L6.44654083,12.959137 Z" id="Path"></path>
                        <path d="M7.56134796,3.82049561 C7.11592101,4.26602173 7.11592101,4.99074555 7.56134796,5.43627167 C8.00687408,5.8817978 8.73169708,5.8817978 9.1772232,5.43627167 C9.62274932,4.99074555 9.62274932,4.26602173 9.1772232,3.82049561 C8.73169708,3.37496948 8.00687408,3.37496948 7.56134796,3.82049561 Z" id="Path"></path>
                        <path d="M12.9775849,0.371536242 C12.9638977,0.183189398 12.8139343,0.0343170039 12.6261826,0.0202331543 C11.6907959,-0.0501861445 10.759079,0.064865125 9.84580995,0.344162 C9.91454316,0.971588135 10.2390671,1.65058898 10.7930984,2.20462036 C11.353775,2.76519775 12.0512237,3.0896225 12.6898575,3.15032197 C12.9358292,2.28833008 13.0524673,1.36514282 12.9775849,0.371536242 L12.9775849,0.371536242 Z" id="Path"></path>
                        <path d="M10.2545395,2.74327851 C9.62076568,2.10950469 9.23375703,1.34937286 9.109581,0.609275824 C6.82254028,1.54724121 4.63319396,3.59555054 2.9031601,6.47302246 L3.76267242,7.33253478 C4.3499298,7.09410096 5.06285096,7.03112031 5.51502227,7.48319244 C5.96778868,7.93605805 5.90361787,8.64868164 5.6652832,9.23514556 L6.55306245,10.1229248 C8.76700591,8.78862763 11.3445511,6.6864624 12.4406128,3.88962554 C11.6824646,3.7750702 10.8986282,3.38736724 10.2545395,2.74327851 L10.2545395,2.74327851 Z M9.71578217,5.9749298 C8.97340392,6.71730805 7.76526641,6.71730805 7.02278901,5.9749298 C6.28031158,5.23245239 6.28031158,4.02421571 7.02278901,3.28183746 C7.76526641,2.53945923 8.97340392,2.53945923 9.71578217,3.28183746 C10.4582596,4.02431489 10.4582596,5.23245239 9.71578217,5.9749298 Z" id="Shape"></path>
                    </g>
                </g>
            </g>
        </g>
    </g>
</svg>