<?xml version="1.0" encoding="utf-8"?>
<!-- Generator: Adobe Illustrator 23.0.3, SVG Export Plug-In . SVG Version: 6.00 Build 0)  -->
<svg version="1.1" id="Layer_1" xmlns="http://www.w3.org/2000/svg" xmlns:xlink="http://www.w3.org/1999/xlink" x="0px" y="0px" viewBox="0 0 595.28 595.28" style="enable-background:new 0 0 595.28 595.28;" xml:space="preserve">
  <style type="text/css">
    .st0{fill:#BD9A61;}
    .st1{fill:#BA131A;}
  </style>
<g>
	<path class="st0" d="M142.59,366.54c-3.48-2.6-5.74-4.32-6.74-5.17c-0.58-0.54-1.24-1.27-1.97-2.15c-0.74-0.89-1.11-2.07-1.11-3.55
		c0-1.9,0.56-3.4,1.68-4.53c1.13-1.12,2.66-1.69,4.6-1.69c4.15,0,6.6,2.48,7.36,7.44h1.52v-7.44c0-0.34-0.07-0.58-0.23-0.7
		c-0.81-0.89-3.5-1.33-8.07-1.33c-3.4,0-6.3,0.82-8.66,2.43c-2.71,1.87-4.06,4.43-4.06,7.68c0,1.94,0.51,3.61,1.55,4.98
		c1.02,1.37,2.91,3.04,5.66,4.97c4.31,3.02,7.16,5.35,8.55,6.98c1.39,1.63,2.08,3.46,2.08,5.53c0,2.18-0.73,3.96-2.21,5.41
		c-1.47,1.43-3.33,2.15-5.58,2.15c-3.2,0-5.69-1.28-7.44-3.85c-0.7-1.04-1.26-2.83-1.68-5.32h-1.47v8.19c0,0.63,0.23,1.03,0.65,1.23
		c0.78,0.39,2.17,0.77,4.16,1.13c2,0.36,3.79,0.55,5.38,0.55c4.26,0,7.69-1.03,10.31-3.13c2.62-2.1,3.93-4.84,3.93-8.25
		c0-2.13-0.59-4.03-1.75-5.69C147.88,370.86,145.73,368.9,142.59,366.54z"/>
	<path class="st0" d="M172.86,359.06c-4.1,0-7.44,1.58-10,4.75v-4.75c-2.51,1.42-5.8,2.24-9.88,2.42v1.46h1.34
		c1.25,0,2.1,0.18,2.6,0.52c0.47,0.35,0.72,1.13,0.72,2.32v30.21c0,2.52-0.21,4.04-0.65,4.57c-0.43,0.52-1.76,0.94-4.01,1.24v1.5
		h15.86v-1.5c-2.93-0.27-4.66-0.67-5.18-1.15c-0.53-0.51-0.79-2.07-0.79-4.66v-7.84c2.25,0.89,4.44,1.33,6.57,1.33
		c4.42,0,8.08-1.57,10.98-4.7c2.91-3.13,4.35-7.15,4.35-12.01c0-4.19-1.09-7.52-3.25-10C179.35,360.29,176.47,359.06,172.86,359.06z
		M176.48,384.03c-1.68,2.36-4.03,3.54-7.05,3.54c-2.32,0-4.51-0.89-6.57-2.73v-10.24c0-3.11,0.16-5.36,0.47-6.76
		c0.89-4,3.2-5.99,6.91-5.99c2.7,0,4.84,1.07,6.41,3.22c1.57,2.15,2.36,5.11,2.36,8.88C179.02,378.29,178.18,381.65,176.48,384.03z"
		/>
	<path class="st0" d="M211.38,385.59c-0.78,0-1.31-0.31-1.61-0.95c-0.29-0.65-0.44-1.78-0.44-3.41v-12.89
		c0-3.25-0.76-5.63-2.32-7.09c-1.55-1.48-4.04-2.2-7.44-2.2c-2.74,0-5.22,0.49-7.43,1.5c-0.82,0.35-1.32,0.91-1.51,1.67l-0.87,3.27
		c-0.07,0.28,0.08,0.47,0.46,0.58l1.8,0.46c0.16,0.04,0.31,0.06,0.47,0.06c0.3,0,0.71-0.47,1.21-1.4c1.51-2.83,3.31-4.23,5.41-4.23
		c3.28,0,4.95,2.81,4.98,8.45l-6.33,2.45c-2.56,0.96-4.42,1.8-5.58,2.49c-2.94,1.74-4.41,4.15-4.41,7.24c0,2.33,0.69,4.21,2.09,5.66
		c1.39,1.45,3.21,2.18,5.46,2.18c1.24,0,2.65-0.54,4.23-1.61l4.46-2.98c0.09,1.63,0.55,3.16,1.41,4.59l8.26-2.62l-0.37-1.62
		C212.5,385.46,211.84,385.59,211.38,385.59z M204.11,376.16c0,6.45-2.1,9.67-6.33,9.67c-1.44,0-2.59-0.45-3.46-1.36
		c-0.86-0.91-1.3-2.1-1.3-3.56c0-3.2,1.98-5.63,5.92-7.29c1.31-0.55,3.03-1.2,5.16-1.98V376.16z"/>
	<path class="st0" d="M245.07,385.59c-1.4,0-2.09-1.46-2.09-4.36v-35.26c-3.14,1.17-6.43,1.74-9.88,1.74v1.57h1.57
		c1.13,0,1.92,0.18,2.38,0.53c0.47,0.35,0.69,1.27,0.69,2.79v7.38c-1.97-0.63-4.07-0.93-6.31-0.93c-4.66,0-8.42,1.41-11.3,4.24
		c-2.9,2.85-4.34,6.55-4.34,11.11c0,4.25,1.25,7.82,3.75,10.69c2.5,2.88,5.57,4.33,9.21,4.33c1.39,0,3.1-0.59,5.1-1.78l3.89-2.29
		v0.39c0.09,1.49,0.51,2.7,1.28,3.68l8.37-2.62l-0.4-1.62C246.12,385.46,245.5,385.59,245.07,385.59z M237.74,378.82
		c0,2.32-0.33,3.85-1,4.61c-0.68,0.75-1.56,1.39-2.65,1.94c-1.19,0.58-2.32,0.87-3.36,0.87c-2.99,0-5.33-1.57-7.03-4.7
		c-1.42-2.59-2.15-5.51-2.15-8.76c0-3.16,0.74-5.85,2.21-8.05c1.7-2.51,4.04-3.76,7.03-3.76c3.01,0,5.33,1.18,6.95,3.54V378.82z"/>
	<path class="st0" d="M273.13,366.48c-1.51-4.96-4.92-7.43-10.23-7.43c-3.99,0-7.18,1.35-9.58,4.06c-2.6,2.9-3.89,6.45-3.89,10.62
		c0,4.34,1.31,8.12,3.95,11.33c2.44,2.95,6.22,4.42,11.33,4.42h1.51l7.56-3.59l-0.87-1.75c-2.63,1.32-4.87,1.99-6.74,1.99
		c-2.09,0-3.9-0.46-5.41-1.35c-3.71-2.09-5.6-6.11-5.69-12.08h18.71C273.8,370.1,273.59,368.03,273.13,366.48z M265.06,370.61h-10
		c0.16-1.74,0.37-3.09,0.64-4.01c1.12-3.76,3.39-5.63,6.8-5.63c1.81,0,3.32,0.6,4.5,1.8c1.18,1.21,1.77,2.69,1.77,4.46
		C268.77,369.48,267.54,370.61,265.06,370.61z"/>
	<path class="st0" d="M305.55,359.78l-0.65-0.72c-2.48,0.57-5.25,0.85-8.32,0.85c-0.53,0-1.04-0.01-1.49-0.05
		c-1.59-0.55-3.29-0.8-5.13-0.8c-3.43,0-6.25,0.9-8.42,2.69c-2.17,1.8-3.25,4.17-3.25,7.12c0,4.18,2.21,7.26,6.62,9.23l-5.56,4.59
		c0,0.07,0,0.24,0,0.46c-0.04,0.23-0.07,0.41-0.07,0.52c0,1.74,1.26,2.9,3.78,3.5l-6.1,3.29c-0.47,0.28-0.7,0.97-0.7,2.09
		c0,2.37,0.62,4.37,1.86,6c1.08,1.42,2.69,2.58,4.79,3.45c2.12,0.88,4.39,1.3,6.83,1.3c3.77,0,6.83-0.88,9.24-2.66
		c3.07-2.22,4.6-4.99,4.6-8.26c0-3.25-1.54-5.55-4.6-6.93c-1.39-0.63-3.54-1.14-6.45-1.56c-3.01-0.44-5.08-0.85-6.21-1.28
		c-0.77-0.3-1.16-0.77-1.16-1.38c0-0.7,0.53-1.47,1.62-2.31c1.09,0,1.84,0,2.28,0c3.25,0,5.95-0.95,8.12-2.85
		c2.18-1.9,3.27-4.27,3.27-7.08c0-2.64-0.84-4.88-2.51-6.76h5.98L305.55,359.78z M285.68,387.62l5.7,1
		c1.35,0.23,2.53,0.49,3.54,0.81c2.71,0.82,4.06,2.53,4.06,5.14c0,1.98-0.84,3.62-2.49,4.91c-1.68,1.28-3.8,1.91-6.4,1.91
		c-2.63,0-4.81-0.7-6.54-2.07c-1.72-1.38-2.59-3.15-2.59-5.29c0-1.32,0.33-2.42,0.99-3.32C282.63,389.82,283.85,388.8,285.68,387.62
		z M290.09,377.3c-1.78,0-3.25-0.9-4.39-2.66c-1.15-1.76-1.71-3.97-1.71-6.65c0-2.33,0.51-4.14,1.51-5.46
		c1.01-1.32,2.4-1.98,4.19-1.98c1.67,0,2.96,0.79,3.92,2.38c0.95,1.58,1.43,3.8,1.43,6.63C295.04,374.71,293.38,377.3,290.09,377.3z
		"/>
	<path class="st0" d="M329.14,385.59c-0.78,0-1.32-0.31-1.61-0.95c-0.28-0.65-0.43-1.78-0.43-3.41v-12.89
		c0-3.25-0.77-5.63-2.31-7.09c-1.56-1.48-4.03-2.2-7.45-2.2c-2.74,0-5.23,0.49-7.45,1.5c-0.79,0.35-1.3,0.91-1.5,1.67l-0.87,3.27
		c-0.07,0.28,0.08,0.47,0.46,0.58l1.81,0.46c0.15,0.04,0.3,0.06,0.46,0.06c0.31,0,0.71-0.47,1.22-1.4c1.5-2.83,3.31-4.23,5.4-4.23
		c3.3,0,4.96,2.81,5,8.45l-6.34,2.45c-2.56,0.96-4.41,1.8-5.58,2.49c-2.94,1.74-4.4,4.15-4.4,7.24c0,2.33,0.68,4.21,2.08,5.66
		c1.4,1.45,3.22,2.18,5.45,2.18c1.25,0,2.67-0.54,4.25-1.61l4.46-2.98c0.1,1.63,0.57,3.16,1.41,4.59l8.24-2.62l-0.34-1.62
		C330.26,385.46,329.59,385.59,329.14,385.59z M321.87,376.16c0,6.45-2.12,9.67-6.34,9.67c-1.42,0-2.58-0.45-3.45-1.36
		c-0.86-0.91-1.3-2.1-1.3-3.56c0-3.2,1.98-5.63,5.92-7.29c1.32-0.55,3.04-1.2,5.17-1.98V376.16z"/>
	<path class="st0" d="M379.9,381.52v-12.13c0-2.06-0.12-3.62-0.35-4.71c-0.85-3.75-3.49-5.62-7.9-5.62c-3.95,0-7.46,1.69-10.5,5.1
		c-0.86-1.9-1.83-3.22-2.94-3.98c-1.11-0.76-2.66-1.12-4.68-1.12c-4.26,0-7.79,1.69-10.57,5.1v-5.1c-2.59,1.46-5.88,2.29-9.88,2.49
		v1.45h1.33c1.28,0,2.16,0.19,2.62,0.56c0.47,0.36,0.7,1.13,0.7,2.29v15.68c0,2.6-0.2,4.15-0.62,4.64
		c-0.41,0.51-1.74,0.88-4.03,1.11v1.52h14.58v-1.52c-2.32-0.24-3.68-0.6-4.09-1.11c-0.41-0.49-0.62-2.04-0.62-4.64v-6.78
		c0-5.12,0.7-8.51,2.1-10.16c1.26-1.55,3.11-2.34,5.51-2.34c2.13,0,3.6,0.66,4.42,1.93c0.81,1.28,1.2,3.53,1.2,6.75v10.62
		c0,2.6-0.19,4.15-0.6,4.64c-0.41,0.51-1.76,0.88-4.03,1.11v1.52h14.57v-1.52c-2.32-0.24-3.69-0.6-4.08-1.11
		c-0.41-0.49-0.63-2.04-0.63-4.64v-6.78c0-2.52,0.07-4.27,0.19-5.24c0.27-2,0.87-3.62,1.81-4.82c1.27-1.63,3.12-2.45,5.56-2.45
		c2.1,0,3.57,0.67,4.42,1.96c0.85,1.29,1.28,3.53,1.28,6.71v10.62c0,2.6-0.21,4.15-0.61,4.64c-0.41,0.51-1.76,0.88-4.03,1.11v1.52
		h14.52v-1.52c-2.32-0.24-3.69-0.58-4.06-1.08C380.09,385.71,379.9,384.16,379.9,381.52z"/>
	<path class="st0" d="M393.03,355.21c0.97,0,1.78-0.32,2.43-0.96c0.66-0.63,0.99-1.44,0.99-2.4c0-0.93-0.35-1.73-1.01-2.39
		c-0.68-0.65-1.47-0.98-2.35-0.98c-0.94,0-1.74,0.33-2.41,0.98c-0.68,0.66-1.02,1.43-1.02,2.32c0,0.97,0.33,1.79,0.98,2.46
		C391.3,354.89,392.1,355.21,393.03,355.21z"/>
	<path class="st0" d="M396.76,385.84c-0.39-0.55-0.58-2.08-0.58-4.61v-22.46c-2.59,1.46-5.89,2.29-9.87,2.49v1.45h1.32
		c1.28,0,2.16,0.17,2.63,0.52c0.46,0.35,0.69,1.12,0.69,2.32v15.68c0,2.6-0.2,4.16-0.61,4.65c-0.41,0.51-1.75,0.87-4.03,1.11v1.52
		h14.52v-1.52C398.5,386.75,397.14,386.39,396.76,385.84z"/>
	<path class="st0" d="M433.48,385.77c-0.35-0.41-0.53-1.93-0.53-4.54v-12.25c0-2.52-0.18-4.28-0.53-5.28
		c-1.16-3.3-3.85-4.93-8.08-4.93c-4.61,0-8.48,1.68-11.62,5.05v-5.05c-2.52,1.41-5.81,2.23-9.87,2.42v1.46h1.34
		c1.23,0,2.09,0.18,2.58,0.52c0.49,0.35,0.72,1.13,0.72,2.33v15.74c0,2.48-0.2,3.99-0.64,4.52c-0.42,0.51-1.75,0.93-4,1.24v1.52
		h14.58v-1.52c-2.32-0.31-3.69-0.71-4.1-1.22c-0.4-0.5-0.62-2.01-0.62-4.54v-7.14c0-2.59,0.15-4.58,0.47-5.98
		c0.92-4.14,3.58-6.21,7.95-6.21c2.44,0,4.15,0.65,5.12,1.92c0.97,1.28,1.46,3.51,1.46,6.67v10.74c0,2.48-0.16,3.96-0.47,4.42
		c-0.43,0.66-1.82,1.1-4.18,1.33v1.52h14.52v-1.52C435.23,386.75,433.86,386.35,433.48,385.77z"/>
	<path class="st0" d="M468.91,359.49l-0.65-0.72c-2.47,0.57-5.24,0.85-8.3,0.85c-0.53,0-1.04-0.01-1.5-0.05
		c-1.6-0.55-3.3-0.8-5.13-0.8c-3.44,0-6.25,0.89-8.41,2.69c-2.18,1.8-3.25,4.17-3.25,7.12c0,4.19,2.2,7.26,6.62,9.23l-5.58,4.59
		c0,0.07,0,0.24,0,0.46c-0.04,0.23-0.06,0.4-0.06,0.52c0,1.75,1.27,2.91,3.78,3.5l-6.1,3.3c-0.47,0.28-0.69,0.97-0.69,2.09
		c0,2.37,0.61,4.36,1.86,5.99c1.08,1.43,2.68,2.58,4.79,3.45c2.11,0.88,4.38,1.3,6.82,1.3c3.76,0,6.85-0.88,9.25-2.66
		c3.05-2.22,4.59-4.99,4.59-8.27c0-3.24-1.54-5.55-4.59-6.93c-1.41-0.63-3.55-1.14-6.46-1.56c-3.02-0.44-5.09-0.85-6.21-1.28
		c-0.78-0.3-1.17-0.77-1.17-1.38c0-0.7,0.56-1.47,1.64-2.31c1.08,0,1.84,0,2.26,0c3.25,0,5.97-0.95,8.14-2.85
		c2.17-1.9,3.26-4.26,3.26-7.08c0-2.64-0.84-4.88-2.5-6.75h5.97L468.91,359.49z M449.03,387.34l5.7,1c1.36,0.23,2.53,0.49,3.55,0.81
		c2.71,0.82,4.07,2.53,4.07,5.14c0,1.98-0.84,3.62-2.51,4.91c-1.67,1.28-3.79,1.92-6.39,1.92c-2.63,0-4.82-0.7-6.53-2.07
		c-1.73-1.38-2.59-3.15-2.59-5.28c0-1.32,0.33-2.42,0.99-3.32C445.98,389.54,447.22,388.51,449.03,387.34z M453.46,377.01
		c-1.78,0-3.24-0.9-4.39-2.66c-1.14-1.76-1.71-3.97-1.71-6.65c0-2.33,0.5-4.13,1.52-5.45c1-1.32,2.41-1.99,4.17-1.99
		c1.67,0,2.98,0.8,3.92,2.38c0.95,1.58,1.42,3.8,1.42,6.63C458.39,374.43,456.75,377.01,453.46,377.01z"/>
	<g>
		<path class="st1" d="M356.59,323.13h-3.67v-1.45h8.89v1.45h-3.67v9.95h-1.55V323.13z"/>
		<path class="st1" d="M363.33,321.68h2.3l3.62,8.63h0.06l3.59-8.63h2.3v11.4h-1.55v-9.37h-0.03l-3.85,9.37h-1.03l-3.85-9.37h-0.03
			v9.37h-1.54V321.68z"/>
	</g>
	<g>
		<path class="st1" d="M316.53,315.79c-8-8.76-7.09-19.51-7.05-19.97l0.17-1.9l1.87,0.49c0.17,0.04,19.17,5.04,28.6-3.4
			c9.12-8.17,12.48-27.19,0.76-46.36c-11.14-18.25-37.99-37.21-43.24-40.83c-5.26,3.62-32.1,22.59-43.24,40.83
			c-11.72,19.17-8.36,38.19,0.76,46.36c9.43,8.43,28.43,3.44,28.6,3.4l1.87-0.49l0.17,1.9c0.04,0.46,0.94,11.21-7.05,19.97
			c-6.58,7.18-17.04,10.84-31.12,10.84v6.45c15.98,0,28.04-4.37,35.88-12.94c9.3-10.18,8.96-20.52,8.81-24.85
			c-0.15-4.33-1-9.54-1-9.54l-9.21,2.45c-4.07,1.07-17.02,3.04-22.65-1.99c-7.17-6.41-9.46-21.99,0.42-38.18
			c8.89-14.54,28.83-29.87,37.77-36.29c8.94,6.43,28.87,21.75,37.77,36.29c9.88,16.19,7.59,31.77,0.42,38.18
			c-5.64,5.03-18.58,3.06-22.65,1.99l-9.21-2.45c0,0-0.85,5.2-1,9.54c-0.15,4.34-0.5,14.67,8.81,24.85
			c7.83,8.57,19.89,12.94,35.87,12.94v-6.45C333.57,326.63,323.11,322.97,316.53,315.79z"/>
		<path class="st1" d="M346.58,298.22c12.33-11.04,17.18-34.72,2.59-58.61c-13.45-22-45.71-43.55-47.07-44.46l-4.46-2.96l-4.46,2.96
			c-1.36,0.91-33.62,22.46-47.07,44.46c-14.59,23.89-9.75,47.57,2.59,58.61c7.35,6.57,17.5,7.71,25.44,7.36
			c-0.67,1.29-1.55,2.6-2.71,3.83c-4.65,5-12.67,7.54-23.81,7.54v6.44c13.11,0,22.78-3.28,28.69-9.76
			c5.19-5.67,6.14-12.42,6.27-15.64c-5.47,1.14-20.69,3.36-29.57-4.59c-10.35-9.25-14.15-29.55-1.38-50.43
			c12.7-20.81,43.81-41.57,45.12-42.46l0.89-0.59l0.89,0.59c1.31,0.89,32.42,21.65,45.12,42.46c12.76,20.88,8.96,41.18-1.38,50.43
			c-8.88,7.95-24.1,5.73-29.57,4.59c0.12,3.22,1.07,9.97,6.27,15.64c5.91,6.48,15.58,9.76,28.69,9.76v-6.44
			c-11.14,0-19.15-2.55-23.81-7.54c-1.16-1.23-2.04-2.54-2.71-3.83C329.08,305.93,339.23,304.8,346.58,298.22z"/>
	</g>
</g>
</svg>
