<?xml version="1.0" encoding="utf-8"?>
<!-- Generator: Adobe Illustrator 24.2.1, SVG Export Plug-In . SVG Version: 6.00 Build 0)  -->
<svg version="1.1" id="Layer_1" xmlns="http://www.w3.org/2000/svg" xmlns:xlink="http://www.w3.org/1999/xlink" x="0px" y="0px"
	 viewBox="0 0 470.2 485.6" style="enable-background:new 0 0 470.2 485.6;" xml:space="preserve">
<style type="text/css">
	.st0{fill:#333333;}
</style>
<path class="st0" d="M13.7,382.4c0,3.8,4.4,5.7,8.8,5.7c4.1,0,8.4-1.9,8.4-5.2c0-5.3-6.2-5.5-10.2-5.8c-10.1-0.6-20.2-4.6-20.2-16.2
	c0-12,10.2-18.1,21.5-18.1c10.6,0,21.5,6.1,21.2,18.1H29.8c-0.1-3.8-3.6-5.4-7.5-5.4c-3.2,0-7.5,0.9-7.5,5.1c0,3.7,3.2,4.6,8.4,5.1
	c11.7,1,22,3.8,22,17.2c0,11.6-11.3,17.7-22.6,17.7c-11.7,0-22.9-5.8-22.6-18.2L13.7,382.4z"/>
<polygon class="st0" points="102.9,344 108,344 108,399.4 93.6,399.4 93.6,373.9 81.8,386.2 80.2,386.2 68.4,373.9 68.4,399.4 
	54,399.4 54,344 59.1,344 81.1,367.9 "/>
<path class="st0" d="M131.2,392.5l-3.2,6.9h-15v-2l25.3-53.8h6.6l25.1,53.8v2h-14.9l-3.2-6.9H131.2z M135.9,380.5h11.4l-5.8-13.3
	L135.9,380.5z"/>
<path class="st0" d="M222,397.3v2.1h-15.3l-9.5-17.3h-7.6v17.3h-14.4v-55.3c8.2,0,16.2-0.1,24.3,0c13.3,0,19.9,9.9,19.9,19.6
	c0.1,6.4-3,12.4-8.2,16.1L222,397.3z M199.4,370.3c4,0,6-3.5,6-7s-1.9-6.7-6-6.7h-10v13.7H199.4z"/>
<polygon class="st0" points="224.8,356.8 224.8,344.2 265.9,344.2 265.9,356.8 252.4,356.8 252.4,399.4 238.4,399.4 238.4,356.8 "/>
<path class="st0" d="M284.3,382.4c0,3.8,4.3,5.7,8.8,5.7c4.1,0,8.5-1.9,8.5-5.2c0-5.3-6.2-5.5-10.2-5.8
	c-10.1-0.6-20.2-4.6-20.2-16.2c0-12,10.2-18.1,21.5-18.1c10.6,0,21.5,6.1,21.2,18.1h-13.5c-0.1-3.8-3.6-5.4-7.5-5.4
	c-3.2,0-7.5,0.9-7.5,5.1c0,3.7,3.1,4.6,8.4,5.1c11.8,1,22,3.8,22,17.2c0,11.6-11.3,17.7-22.6,17.7c-11.7,0-22.9-5.8-22.6-18.2
	L284.3,382.4z"/>
<path class="st0" d="M349.8,400.4c-14.6,0-28.2-9.5-28.2-28.6s14.1-28.7,28.5-28.7c14.1,0,28.2,9.6,28.2,28.7
	C378.2,388.7,366.6,400.4,349.8,400.4 M349.9,386.8c6.9,0,13.9-5.1,13.9-15s-6.9-15-13.7-15c-7.2,0-14,4.9-14,15
	C336,381.7,342.8,386.8,349.9,386.8"/>
<polygon class="st0" points="419.3,381.6 401.6,381.6 401.6,399.4 387.2,399.4 387.2,344.2 421.6,344.2 421.6,356.7 401.6,356.7 
	401.6,368.9 419.3,368.9 "/>
<polygon class="st0" points="429.1,356.8 429.1,344.2 470.2,344.2 470.2,356.8 456.7,356.8 456.7,399.4 442.7,399.4 442.7,356.8 "/>
<path class="st0" d="M99.9,428.8c10.8,0,21.4,5,24.5,16.6H118c-2.9-8-9.8-10.6-18.1-10.6c-12.9,0-20.9,9.8-20.9,22.3
	c0,12.9,8,22.3,20.9,22.3c11.4,0,19.5-6.1,20.5-18.1h-19.7v-5.6h25.8c0.4,4.9-0.4,9.8-2.1,14.4c-4.1,10.2-13.3,15.5-24.5,15.5
	c-15.6,0-27.6-11.4-27.6-28.5S84.5,428.8,99.9,428.8"/>
<path class="st0" d="M142.3,471.2l-6.5,13.7H129V484l25.7-54.6h3l25.5,54.6v0.9h-6.8l-6.5-13.7L142.3,471.2z M144.6,465.5h23.2
	l-11.6-25.8L144.6,465.5z"/>
<polygon class="st0" points="239.4,429.5 241.9,429.5 241.9,484.8 235.3,484.8 235.3,445 217.2,469.9 216.1,469.9 198,445 
	198,484.8 191.3,484.8 191.3,429.5 194,429.5 216.7,460.3 "/>
<polygon class="st0" points="277.9,479.5 277.9,484.8 252.2,484.8 252.2,479.5 261.7,479.5 261.7,434.8 252.8,434.8 252.8,429.6 
	277.3,429.6 277.3,434.8 268.4,434.8 268.4,479.5 "/>
<polygon class="st0" points="294.2,443.1 294.7,458.2 294.7,484.8 288.2,484.8 288.2,429.4 290.5,429.4 326.4,471.2 325.7,455.4 
	325.7,429.5 332.4,429.5 332.4,484.9 330.2,484.9 "/>
<path class="st0" d="M371.2,428.8c10.8,0,21.4,5,24.5,16.6h-6.5c-2.9-8-9.8-10.6-18.1-10.6c-12.9,0-20.9,9.8-20.9,22.3
	c0,12.9,8.1,22.3,20.9,22.3c11.4,0,19.5-6.1,20.5-18.1h-19.7v-5.6h25.7c0.3,4.9-0.4,9.8-2.1,14.4c-4.1,10.2-13.3,15.5-24.5,15.5
	c-15.6,0-27.5-11.4-27.5-28.5S355.8,428.8,371.2,428.8"/>
<path class="st0" d="M103.2,226.5c0-0.1,0.1-0.1,0.2-0.2v-0.1L103.2,226.5z"/>
<path class="st0" d="M347.9,128.4c0,0-73.1-36.4-97.9-47.6c-3.8-1.6-7.9-2.5-12-2.4c-17.1,0-31,13.9-31,31
	c0.1,12.9,8.2,24.5,20.2,29.1c17.2,6.7,69.4,25.1,69.4,25.1c11.8,4.6,22,12.5,29.3,22.9c7.4,10.7,11.2,23.4,10.8,36.4
	c-0.1,10.3-1.9,20.5-5.2,30.2l20.8-11.5c9.8-5.6,15.8-16.1,15.8-27.3v-50.5C368.2,149,360.5,135.6,347.9,128.4"/>
<path class="st0" d="M301.1,269.9c1.8-1.3,3.6-2.7,5.2-4.2c3.9-3.6,7.3-7.7,10.2-12.1c6.4-9.3,10.5-20,11.7-31.2
	c1.1-11.3-1.5-22.7-7.4-32.5c-11.4-19-37.6-27.3-43.6-29.6c9.5,5.8,15.3,16,15.3,27.1c0,14.2-6.7,29.7-17.1,37.8c0,0-18.4,16-47,16
	c-30.8,0-60.2-21-70.4-27.4c-5-3-10.7-4.9-16.6-5.4c-15-1.5-29.6,5.4-37.9,18c-0.9,1.3-1.5,2.9-1.5,4.6c0,3,1.6,5.7,4.3,7.1
	l107,62.9c9.8,5.6,21.8,5.6,31.6,0L301.1,269.9z"/>
<path class="st0" d="M351.9,62.6L351.9,62.6L253.6,4.2c-9.8-5.6-21.8-5.6-31.6,0L114.5,63.7c-9.8,5.6-15.8,16.1-15.8,27.4v47.2
	c0.1,13.9,7.8,26.7,20,33.4c0,0,23.1,11.1,47.6,22.7c-10.3-10.5-16.2-24.4-16.5-39.1c-0.6-15.1,3-30,10.4-43.2
	c6.7-11.6,27.3-47.9,75.6-48.6l0,0c29.9,0,60.1,20.5,68.5,26.7c2.5,1.8,5.1,3.1,8,4.1c8.6,3,18,2.4,26.2-1.7
	c7.6-4.4,13.4-11.1,16.6-19.2c0.4-1.1,0.7-2.2,0.7-3.4C355.8,67,354.3,64.3,351.9,62.6"/>
<path class="st0" d="M237.4,162.1l-45.2-18.6c-11.7-4.5-19.4-15.6-19.5-28.1v-2.7c0.3-6.1,1.8-12,4.2-17.6
	c-4.3,6.2-7.9,12.8-10.6,19.8c-5.1,12.6-8.3,26.2-6,39.1c2.4,13.1,7.1,24.9,15.7,34.8c24.5,28.1,46.6,30.3,50.8,30.3
	c16.8,0,30.5-13.2,30.5-29.4C257.3,177.1,248.7,166.8,237.4,162.1"/>
</svg>
