<svg
                width="16"
                height="8"
                viewBox="0 0 16 8"
                fill="none"
                xmlns="http://www.w3.org/2000/svg">
                <path
                  d="M15.7082 4.70734L12.7085 7.70703C12.5132 7.90234 12.2573 8 12.0015 8C11.7456 8 11.4897 7.90234 11.2944 7.70703C10.9038 7.31641 10.9038 6.68359 11.2944 6.29297L12.5874 5H1.00146C0.449219 5 0.00146484 4.55225 0.00146484 4C0.00146484 3.44775 0.449219 3 1.00146 3H12.5874L11.2944 1.70703C10.9038 1.31641 10.9038 0.683594 11.2944 0.292969C11.6851 -0.0976562 12.3179 -0.0976562 12.7085 0.292969L15.7082 3.29266C15.8005 3.38483 15.8735 3.49548 15.9243 3.61786C16.0254 3.86237 16.0254 4.13763 15.9243 4.38214C15.8735 4.50452 15.8005 4.61517 15.7082 4.70734Z"
                  fill="white"></path>
              </svg>