<svg xmlns="http://www.w3.org/2000/svg" width="250" height="250" viewBox="0 0 250 250">
<defs>
    <style>
      .cls-1 {
        fill: #ffcf0e;
      }

      .cls-2 {
        fill-rule: evenodd;
      }
    </style>
  </defs>
  <rect id="Rounded_Rectangle_1_copy" data-name="Rounded Rectangle 1 copy" class="cls-1" width="250" height="250" rx="40" ry="40"/>
  <path class="cls-2" d="M189.877,138.052c-5.417-8.706-13-14.144-24.383-16.864a44.769,44.769,0,0,0,20.044-17.4c4.339-7.617,6.509-16.864,6.509-26.652,0-19.042-6.5-33.186-18.427-42.974C161.7,24.91,144.9,20.013,123.237,20.013H62.013V229.987h69.9c21.129,0,37.379-5.445,48.759-15.774S198,188.643,198,168.519C198,156.553,195.294,146.758,189.877,138.052Zm-89.94-85.4h20.59c9.211,0,15.712,2.178,20.59,7.069,4.878,4.356,7.041,11.425,7.041,21.22,0,8.7-2.163,15.227-6.5,20.124-4.332,4.35-10.834,7.069-18.959,7.617H99.938V52.651Zm47.679,137.081c-4.332,4.35-10.834,7.069-19.505,7.069H99.4V136.963H130.82q12.188,0,17.881,8.165c3.793,4.89,5.417,13.055,5.417,22.843S151.955,184.294,147.616,189.732Z"/>
</svg>
