<svg xmlns="http://www.w3.org/2000/svg" width="15" height="17" viewBox="0 0 15 17" fill="none">
<path fill-rule="evenodd" clip-rule="evenodd" d="M8.91892 0H4.66217C4.07109 0 3.50352 0.229302 3.08514 0.636512C2.66758 1.04451 2.43244 1.598 2.43244 2.17442V12.4535C2.43244 13.6546 3.43055 14.6279 4.66217 14.6279H12.7703C14.0019 14.6279 15 13.6546 15 12.4535V5.93023H11.1487C9.91703 5.93023 8.91892 4.95688 8.91892 3.75581V0ZM10.1351 0.0379535V3.75581C10.1351 4.3014 10.5892 4.74419 11.1487 4.74419H14.983C14.9351 4.45005 14.7916 4.17726 14.5695 3.96693C13.8146 3.25214 11.5362 1.09353 10.7951 0.391395C10.6103 0.21586 10.3816 0.0948837 10.1351 0.0379535Z" fill="#D6DADD"/>
<path fill-rule="evenodd" clip-rule="evenodd" d="M1.62162 2.45433C1.25838 2.55474 0.924324 2.74451 0.652702 3.00861C0.235135 3.4166 0 3.97009 0 4.54651V14.8256C0 16.0267 0.998107 17 2.22973 17H10.3378C10.9289 17 11.4965 16.7707 11.9149 16.3635C12.1857 16.0986 12.3803 15.7728 12.4832 15.4186H4.66216C2.98297 15.4186 1.62162 14.091 1.62162 12.4535V2.45433Z" fill="#D6DADD"/>
</svg>