<svg width="22" height="22" viewBox="0 0 22 22" fill="#408BFC" xmlns="http://www.w3.org/2000/svg">
    <path
        d="M6.81282 0.0963669C6.04585 0.344971 5.38995 1.01673 5.16251 1.78899C5.09374 2.02173 5.07788 2.36554 5.07788 3.57683V5.07374H3.58096C2.36968 5.07374 2.02586 5.08961 1.79313 5.15837C1.01029 5.38582 0.343815 6.047 0.1005 6.82455C0.00528945 7.13134 0 7.41168 0 13.5369C0 19.6621 0.00528945 19.9424 0.1005 20.2492C0.343815 21.0267 1.01029 21.6879 1.79313 21.9154C2.05231 21.9894 2.79283 22 8.46313 22C14.1334 22 14.8739 21.9894 15.1331 21.9154C15.916 21.6879 16.5824 21.0267 16.8258 20.2492C16.9157 19.9636 16.9263 19.752 16.9263 18.4243V16.9221H18.4285C19.7561 16.9221 19.9677 16.9115 20.2533 16.8216C21.0309 16.5783 21.6921 15.9118 21.9195 15.129C21.9936 14.8698 22.0041 14.1293 22.0041 8.45371C22.0041 2.33381 21.9988 2.05346 21.9036 1.74668C21.6603 0.969128 20.9938 0.307945 20.211 0.0804996C19.9518 0.00644684 19.2113 -0.00413322 13.5198 0.00115776C7.45813 0.00115776 7.09845 0.00644684 6.81282 0.0963669ZM19.5921 1.74139C19.8513 1.79957 20.0417 1.9371 20.1793 2.16983C20.2851 2.34439 20.2851 2.46075 20.3009 8.22097C20.3115 11.4475 20.3009 14.2139 20.2851 14.3673C20.248 14.6953 20.0893 14.9439 19.8355 15.092C19.6662 15.1925 19.5498 15.2031 18.2909 15.2189L16.9263 15.2348V11.1936C16.9263 7.36937 16.921 7.12605 16.8258 6.82455C16.5824 6.047 15.916 5.38582 15.1331 5.15837C14.8792 5.08432 14.3344 5.07374 10.8011 5.07374H6.76521L6.78108 3.70906C6.79695 2.46075 6.80753 2.33381 6.90274 2.16983C7.03497 1.94768 7.23068 1.79428 7.46342 1.74139C7.71731 1.6832 19.3382 1.67791 19.5921 1.74139ZM14.5143 6.81926C14.7734 6.87745 14.9639 7.01497 15.1014 7.24771C15.2072 7.42226 15.2072 7.52276 15.2072 13.5369C15.2072 19.551 15.2072 19.6515 15.1014 19.826C14.9639 20.0588 14.7734 20.1963 14.5143 20.2545C14.2392 20.318 2.68704 20.318 2.41199 20.2545C2.15281 20.1963 1.96239 20.0588 1.82486 19.826C1.71907 19.6515 1.71907 19.551 1.71907 13.5369C1.71907 7.52276 1.71907 7.42226 1.82486 7.24771C1.9571 7.02555 2.15281 6.87216 2.38554 6.81926C2.63944 6.76108 14.2604 6.75579 14.5143 6.81926Z"></path>
</svg>