<svg width="256" height="256" viewBox="0 0 256 256" fill="none" xmlns="http://www.w3.org/2000/svg">
<path d="M251.781 86.9779C248.691 78.7719 244.572 72.1045 238.908 66.4629C233.245 60.8212 226.551 56.2054 218.313 53.1281C210.075 50.0508 200.807 48.5122 190.509 48.5122C186.39 48.5122 181.756 48.5122 177.122 49.0251C172.488 49.538 167.854 50.0508 163.22 50.5637C158.586 51.0766 154.467 52.1023 150.348 52.6152C146.229 53.641 142.624 54.1538 139.535 55.1796V207.504H175.062V173.654C179.182 175.193 183.301 176.731 187.42 177.757C191.539 178.783 196.173 179.296 201.322 179.296C210.075 179.296 218.313 177.757 225.007 174.68C231.7 171.603 237.364 166.987 241.998 161.345C246.632 155.703 250.236 149.036 252.296 140.83C254.87 133.137 255.9 123.905 255.9 114.16C256.415 104.416 254.87 95.184 251.781 86.9779ZM194.628 149.036C191.024 149.036 187.42 148.523 183.815 147.497C180.211 146.472 177.122 145.446 175.062 143.907V80.3105C176.607 79.7977 179.182 79.7977 181.756 79.2848C184.33 79.2848 187.42 78.7719 190.509 78.7719C200.292 78.7719 207.5 81.8492 212.649 88.5166C217.798 95.184 219.858 103.903 219.858 114.673C219.858 137.753 211.619 149.036 194.628 149.036Z" fill="#1C1C1C"/>
<path d="M0 115.187C0 103.904 1.54466 94.1589 5.14888 85.9528C8.75309 77.7468 12.8722 70.5666 18.536 64.9249C24.1997 59.2833 30.3784 55.1803 37.5868 52.103C44.7952 49.0258 52.5185 48 59.727 48C77.748 48 91.65 53.6416 101.948 64.412C112.245 75.1824 117.394 91.0816 117.394 112.622C117.394 114.674 117.394 116.725 117.394 119.29C117.394 121.854 116.879 123.906 116.879 125.957H36.557C37.5868 133.137 40.6761 139.292 46.8548 143.395C53.0334 147.498 61.2716 150.062 71.0545 150.062C77.748 150.062 83.9267 149.55 90.1053 148.524C96.284 147.498 101.433 145.959 105.552 143.908L110.186 172.629C108.126 173.655 105.552 174.68 102.463 175.706C99.3733 176.732 95.7691 177.245 91.65 178.271C87.5309 178.783 83.4118 179.809 79.2927 179.809C74.6587 180.322 70.5396 180.322 65.9056 180.322C54.5781 180.322 44.7952 178.783 36.557 175.193C28.3188 171.603 21.1104 167.5 15.9615 161.346C10.2978 155.704 6.17865 148.524 3.60421 140.831C1.02978 133.137 0 124.419 0 115.187ZM83.4118 101.339C83.4118 98.2619 82.8969 95.1846 81.8671 92.6202C80.8373 89.543 79.8076 86.9786 77.748 84.9271C75.6885 82.8756 73.6289 80.8241 71.0545 79.2855C68.48 77.7468 64.8758 77.2339 60.7567 77.2339C56.6376 77.2339 53.5483 77.7468 50.459 79.2855C47.3697 80.8241 45.3101 82.3627 43.2506 84.4142C41.191 86.4657 39.6463 89.0301 38.6166 92.1074C37.5868 95.1846 37.0719 98.2619 36.557 100.826H83.4118V101.339Z" fill="#01A3FB"/>
</svg>
