<svg width="17" height="14" viewBox="0 0 17 10" fill="none" xmlns="http://www.w3.org/2000/svg"><path fill-rule="evenodd" clip-rule="evenodd" d="M7.61804 0.00900857C7.2349 0.04116 6.7133 0.134161 6.2641 0.250458C5.55223 0.434743 4.93945 0.676228 4.22452 1.05419C3.38308 1.49905 2.62636 2.03137 1.80305 2.75763C1.45524 3.06444 0.413142 4.1531 0.147943 4.48669C-0.0182789 4.69575 -0.05027 5.11199 0.0817911 5.34707C0.247267 5.64163 1.52417 6.91626 2.2709 7.53227C3.8928 8.87024 5.63397 9.68374 7.40107 9.92912C7.82056 9.98738 8.04045 10.0009 8.55539 9.99996C9.12319 9.99895 9.4074 9.97636 9.90933 9.89228C11.1126 9.69073 12.2812 9.23888 13.4591 8.5197C13.912 8.24317 14.61 7.739 14.9953 7.41009C15.7409 6.77352 16.789 5.6284 16.9545 5.26942C16.9956 5.18033 16.9999 5.15063 17 4.95593C17.0001 4.74953 16.9979 4.73612 16.944 4.6234C16.7899 4.30074 15.9459 3.40726 15.1689 2.7443C13.7449 1.52934 12.1945 0.69242 10.595 0.275291C10.1116 0.149226 9.60627 0.0589802 9.20632 0.0272939C8.89434 0.00256754 7.8396 -0.00956307 7.61804 0.00900857ZM9.31915 0.965251C10.3732 1.11585 11.3285 1.42439 12.3221 1.93516C13.3227 2.44959 14.2388 3.10709 15.1327 3.95244C15.4548 4.25705 15.9917 4.82119 16.0276 4.89276C16.053 4.94341 16.0525 4.95202 16.0205 5.01684C15.9021 5.25603 15.2371 5.96793 14.6394 6.49525C13.2304 7.73849 11.7433 8.5355 10.1523 8.90013C9.61096 9.02421 9.29061 9.05291 8.44256 9.05325C7.84169 9.0535 7.75899 9.04983 7.51389 9.01217C6.16103 8.80422 4.95833 8.31463 3.70377 7.46114C3.26147 7.16023 2.6845 6.70682 2.30643 6.36305C1.81129 5.9128 0.935137 5.02052 0.935137 4.96651C0.935137 4.91312 1.90359 3.91326 2.39849 3.45569C2.76198 3.11961 3.37009 2.65008 3.84734 2.33699C5.1294 1.49592 6.49144 1.01417 7.81766 0.93267C8.09611 0.915565 9.1281 0.937948 9.31915 0.965251ZM8.07804 2.06688C7.9068 2.08943 7.5676 2.19347 7.3648 2.28563C6.50077 2.67831 5.89128 3.45757 5.68878 4.4285C5.65514 4.5898 5.64961 4.6695 5.64961 4.99209C5.64961 5.31493 5.65513 5.39426 5.68884 5.55568C5.74638 5.83116 5.81675 6.03658 5.94322 6.29819C6.0921 6.6062 6.24708 6.82666 6.4903 7.07648C6.87232 7.46885 7.26743 7.7098 7.73087 7.83298C8.28911 7.98136 8.94334 7.96202 9.45149 7.7821C9.66525 7.70641 9.96562 7.54512 10.1313 7.41705C10.3132 7.27642 10.6729 6.91014 10.8337 6.70179C11.0384 6.43649 11.2245 6.00006 11.3013 5.60512C11.3347 5.43314 11.3406 5.3459 11.3409 5.00998C11.3414 4.59652 11.3293 4.48246 11.2526 4.17839C10.999 3.17204 10.0356 2.26387 9.04142 2.09383C8.84657 2.06049 8.25269 2.04389 8.07804 2.06688ZM8.86736 3.57006C9.25154 3.6819 9.62424 4.00366 9.78917 4.36588C9.87584 4.55623 9.90795 4.68738 9.92057 4.90263C9.93337 5.12075 9.91 5.28774 9.83798 5.49288C9.69584 5.89779 9.35728 6.23632 8.9515 6.37931C8.41515 6.56832 7.86246 6.42646 7.46824 5.99859C7.20768 5.71578 7.0807 5.38593 7.0802 4.99048C7.07926 4.27098 7.58102 3.66757 8.29208 3.53309C8.42216 3.50849 8.72211 3.52776 8.86736 3.57006Z" fill="#8888A6"></path></svg>