<svg width="256" height="256" viewBox="0 0 256 256" fill="none" xmlns="http://www.w3.org/2000/svg">
<g clip-path="url(#clip0)">
<path d="M64.0971 19H256.388L199.089 238H6.79817L35.9332 125.593L17.481 140.128L0 153.695L4.85584 135.283L18.4522 84.8938L23.308 65.5133L33.0197 79.0796L44.6737 94.5841L64.0971 19Z" fill="black"/>
<path d="M166.074 78.1109C156.362 112.996 182.584 117.841 175.785 143.036C173.843 151.757 169.958 154.664 165.103 154.664C161.218 154.664 159.276 151.757 161.218 143.036L164.131 133.345H151.506L148.593 142.067C143.737 161.447 147.622 173.075 161.218 173.075C174.814 173.075 184.526 161.447 189.382 142.067C199.093 107.182 173.843 102.337 179.67 77.1419C182.584 67.4516 185.497 64.5445 190.353 64.5445C194.238 64.5445 196.18 67.4516 193.266 77.1419L192.295 82.956H204.92L205.892 78.1109C211.719 58.7304 207.834 47.1021 194.238 47.1021C180.641 47.1021 170.93 58.7304 166.074 78.1109Z" fill="#FFFF00"/>
<path d="M70.8954 28.6895H154.416L134.992 106.212H50.5009L70.8954 28.6895ZM132.079 113.964L112.656 191.486H28.1641L48.5586 113.964H132.079Z" fill="white"/>
<path opacity="0.2" d="M162.188 28.6895H245.709L226.285 106.212H141.794L162.188 28.6895ZM223.372 113.964L203.949 191.486H119.457L139.852 113.964H223.372Z" fill="white"/>
<path d="M104.881 63.5764C109.737 63.5764 110.708 67.4525 108.766 76.1737L106.824 83.926C103.91 93.6162 100.026 97.4923 94.1986 97.4923H88.3716L97.1121 63.5764H104.881ZM90.314 115.904C97.1121 115.904 98.0833 119.78 95.1698 131.408L92.2563 143.037C90.314 152.727 86.4293 155.634 81.5735 155.634H73.8041L83.5158 115.904H90.314ZM109.737 45.1649H88.3716L54.3808 174.045H76.7176C91.2851 174.045 100.997 163.386 106.824 143.037L109.737 132.377C112.651 118.811 112.651 109.121 105.853 105.245C113.622 100.399 118.478 92.6472 122.362 79.0808L123.334 74.2357C128.189 54.8552 124.305 45.1649 109.737 45.1649ZM106.824 67.4525C106.824 66.4835 105.853 65.5144 104.881 65.5144H99.0545L92.2563 94.5852H94.1986C96.141 94.5852 98.0833 94.5852 99.0545 92.6472C100.997 90.7091 102.939 87.8021 103.91 82.9569L105.853 76.1737C106.824 71.3286 106.824 68.4215 106.824 67.4525ZM94.1986 119.78C93.2275 118.811 92.2563 117.842 90.314 117.842H85.4581L76.7176 152.727H81.5735C83.5158 152.727 84.487 152.727 86.4293 150.789C87.4005 149.82 88.3716 146.913 90.314 142.068L93.2275 130.439C94.1986 125.594 95.1698 121.718 94.1986 119.78ZM88.3716 42.2578H109.737C118.478 42.2578 123.334 45.1649 126.247 50.9791C129.161 56.7932 128.189 64.5454 125.276 75.2047L124.305 80.0498C122.362 86.833 120.42 92.6472 117.507 96.5233C115.564 100.399 112.651 103.306 109.737 105.245C112.651 108.152 113.622 111.059 113.622 114.935C114.593 119.78 113.622 126.563 111.68 133.346L108.766 144.006C105.853 154.665 101.968 162.417 97.1121 168.231C91.2851 174.045 84.487 176.952 76.7176 176.952H54.3808H50.4961L51.4673 173.076L85.4581 44.1959L86.4293 42.2578H88.3716Z" fill="white"/>
<path d="M104.88 63.5761C109.735 63.5761 110.707 67.4522 108.764 76.1734L106.822 83.9256C103.908 93.6159 100.024 97.492 94.1968 97.492H88.3698L97.1103 63.5761H104.88ZM90.3121 115.903C97.1103 115.903 98.0814 119.78 95.1679 131.408L92.2544 143.036C90.3121 152.726 86.4274 155.634 81.5716 155.634H73.8023L83.5139 115.903H90.3121ZM109.735 45.1646H88.3698L54.3789 174.045H76.7158C91.2833 174.045 100.995 163.386 106.822 143.036L109.735 132.377C112.649 118.811 112.649 109.12 105.851 105.244C113.62 100.399 118.476 92.6469 122.361 79.0805L123.332 74.2353C128.188 54.8548 124.303 45.1646 109.735 45.1646Z" fill="#2B2A29"/>
<path d="M26.2174 84.894L44.6696 110.089L12.6211 135.283L26.2174 84.894Z" fill="#FFFF00"/>
<path d="M88.0546 205.151C90.8904 205.151 93.0173 207.98 92.3083 210.81C92.3083 211.517 92.3083 211.517 92.3083 211.517C95.1441 212.225 96.562 214.347 95.8531 217.176C95.1441 220.713 91.5994 222.836 88.7636 222.836C86.6368 222.836 84.5099 221.421 84.5099 219.299C83.092 221.421 80.2562 222.836 78.1294 222.836C75.2936 222.836 73.1667 220.713 73.8757 217.176C74.5846 214.347 77.4204 212.225 80.9652 211.517C80.9652 211.517 80.9652 211.517 80.9652 210.81C81.6741 207.98 85.2189 205.151 88.0546 205.151Z" fill="#FFFF00"/>
<path d="M85.2165 226.373L83.7986 220.714L80.2539 226.373H85.2165Z" fill="#FFFF00"/>
<path d="M178.795 205.151C180.213 205.151 187.302 212.225 185.884 217.176C185.176 220.713 182.34 222.836 178.795 222.836C176.668 222.836 175.25 221.421 174.541 219.299C173.123 221.421 170.997 222.836 168.87 222.836C165.325 222.836 163.198 220.713 164.616 217.176C166.034 211.517 176.668 205.151 178.795 205.151Z" fill="#FFFF00"/>
<path d="M175.252 226.373L174.543 220.714L170.289 226.373H175.252Z" fill="#FFFF00"/>
<path d="M128.458 224.958C125.623 224.958 118.533 217.884 119.951 211.517C120.66 208.688 124.205 205.858 127.749 205.858C130.585 205.858 132.003 207.273 132.003 209.395C134.13 207.273 136.257 205.858 139.093 205.858C141.928 205.858 144.055 208.688 143.346 211.517C141.928 218.591 130.585 224.958 128.458 224.958Z" fill="#FFFF00"/>
<path d="M44.8079 205.151C46.9348 209.395 49.0616 212.225 52.6064 215.762C47.6437 218.591 44.099 221.421 39.8453 225.665C37.7185 221.421 35.5916 218.591 32.0469 215.762C37.0095 212.225 40.5543 209.395 44.8079 205.151Z" fill="#FFFF00"/>
</g>
<defs>
<clipPath id="clip0">
<rect width="256" height="256" fill="white"/>
</clipPath>
</defs>
</svg>
