<?xml version="1.0" encoding="utf-8"?>
<!-- Generator: Adobe Illustrator 24.2.1, SVG Export Plug-In . SVG Version: 6.00 Build 0)  -->
<svg version="1.1" id="Layer_1" xmlns="http://www.w3.org/2000/svg" xmlns:xlink="http://www.w3.org/1999/xlink" x="0px" y="0px"
	 viewBox="0 0 1552 1290" style="enable-background:new 0 0 1552 1290;" xml:space="preserve">
<style type="text/css">
	.st0{fill:#333333;}
</style>
<g>
	<polygon class="st0" points="679.4,838.6 679.4,957.3 638.2,873.2 614.5,873.2 572.6,958.1 572.6,838.6 535.2,838.6 535.2,1031.2 
		572.3,1031.2 625.9,926.3 680,1031.2 716.6,1031.2 716.6,838.6 	"/>
	<path class="st0" d="M820.2,893.9l21.8,67.8h-43.5L820.2,893.9z M801.5,838.6l-66.9,192.6h41.8l11.7-36.6h64.4l11.7,36.6h41.6
		l-67-192.6H801.5z"/>
	<polygon class="st0" points="913.4,838.6 913.4,871.8 991.5,871.8 913.4,1005.6 913.4,1031.2 1043.4,1031.2 1043.4,998.3 
		963.1,998.3 1040.7,864.3 1040.7,838.6 	"/>
	<g>
		<path class="st0" d="M1172.1,947.5v-25.1c0-33.2-8.9-50.5-34.9-50.5h-29.3v126.5h29.3C1163.2,998.3,1172.1,980.7,1172.1,947.5
			 M1068.9,1031.2V838.6h68.4c43.5,0,73.9,22.3,73.9,83.7v25.1c0,61.1-30.4,83.8-73.9,83.8H1068.9z"/>
	</g>
	<path class="st0" d="M1303.3,893.9l21.8,67.8h-43.5L1303.3,893.9z M1284.6,838.6l-66.9,192.6h41.8l11.7-36.6h64.4l11.7,36.6h41.6
		l-67-192.6H1284.6z"/>
	<polygon class="st0" points="1514.9,838.6 1514.9,959.5 1439.6,838.6 1407.2,838.6 1407.2,1031.2 1444.3,1031.2 1444.3,912 
		1519.4,1031.2 1552,1031.2 1552,838.6 	"/>
</g>
<g>
	<path class="st0" d="M439.3,735.1L8.5,302.5C-7.8,286.1,3.8,258,26.9,258h430.7c14.3,0,26,11.7,26,26.1v432.6
		C483.6,739.9,455.6,751.6,439.3,735.1"/>
	<path class="st0" d="M535.5,716.7V284.1c0-14.4,11.6-26.1,26-26.1h430.7c23.1,0,34.7,28.1,18.4,44.5L579.9,735.1
		C563.5,751.5,535.5,739.9,535.5,716.7"/>
	<path class="st0" d="M1069.3,716.7V284.1c0-14.4,11.6-26.1,26-26.1H1526c23.1,0,34.7,28.1,18.4,44.5l-430.7,432.6
		C1097.3,751.5,1069.3,739.9,1069.3,716.7"/>
</g>
</svg>
