<?xml version="1.0" encoding="utf-8"?>
<!-- Generator: Adobe Illustrator 25.4.1, SVG Export Plug-In . SVG Version: 6.00 Build 0)  -->
<svg version="1.1" id="Layer_1" xmlns="http://www.w3.org/2000/svg" xmlns:xlink="http://www.w3.org/1999/xlink" x="0px" y="0px"
	 viewBox="0 0 580 206.9" style="enable-background:new 0 0 580 206.9;" xml:space="preserve">
<g>
	<path d="M479.4,133.7c-5.4,21-10.9,42.1-16.3,63.1c-0.3,0-0.6,0-0.9,0c-6.5-20.2-13-40.5-19.4-60.7c-1.2,22.1-1.6,44.1,2.6,66.4
		c-6.3,0-12.7,0-19.4,0c0.5-4.9,0.9-10,1.4-15c2.1-22.1,4.2-44.3,3.8-66.6c-0.3-16-1.5-31.9-7.5-47.5c1.3,0.4,2.3,0.7,4.2,1.3
		c-1.8-13-3.5-25.5-5.4-39c1.4,2.6,2.9,4.4,3.5,6.6c1.6,6,3,12.1,4.2,18.2c1,4.9,1.5,9.9,2.4,14.9c0.1,0.8,0.9,1.8,1.6,2.2
		c1.9,1,3.9,1.7,6.2,2.7c-0.6-4.9-1.2-9.6-1.8-14.2c-1.3-10.5-2.6-21-4-31.5c-0.2-1.6-0.7-3.3-1.4-4.8c-2.6-6.2-7.9-8.9-14.8-7.2
		c-3.6,0.9-7.2,2.6-10.4,4.5c-9.4,5.5-19.4,7.2-29.8,5c-8-1.7-14.3-7-20.4-12.2c-3.5-2.9-7-5.8-10.8-8.3c-12.5-8.3-26-7.9-39.6-3.7
		c-2.9,0.9-5.6,3-7.9,5.1c-9.4,8.5-14.3,19.2-15.6,31.7c-0.6,5.6-1.6,11.2-2.6,16.8c-1,5.4-3,7.5-8.4,8.1c-9.9,1.2-19.8,2-29.7,3
		c-11.4,1.1-22.8,1.5-33.7,5.5c-2.1,0.8-4.2,1.9-6.3,2.8c-0.1-0.2-0.3-0.5-0.4-0.7c2.4-1.4,4.6-3.1,7.1-4.2
		c8.5-3.8,17.8-4.6,26.9-5.6c11-1.3,22-1.9,32.7-5.1c7.7-2.3,9.4-4.4,10.5-12.4c1.2-8.4,2.2-16.8,5.5-24.7
		c5.4-12.6,14.2-22.5,27.5-25.8c16.7-4.2,33.1-3.1,45.7,11.1c5.4,6,11.8,10.4,18.9,14c6.2,3.2,12.5,3.4,18.9,1
		c4.1-1.6,7.9-3.8,11.9-5.4c4-1.6,8.1-3.3,12.3-4.2c8.6-1.7,15.9,3.2,18.4,11.8c2.8,9.8,2.9,19.8,3.2,29.9c0.2,6.5,0.9,13,1.8,19.4
		c0.4,2.6,2.2,5.1,2.8,7.7c4.8,22.8,9.4,45.7,14.1,68.5c0.1,0.3,0.2,0.7,0.8,1.2c1-2.4,2.1-4.7,2.9-7.2c5.7-16.4,9.4-33.2,12.9-50.1
		c1.3-6.3,2.5-12.6,3.9-18.8c0.2-0.7,1-1.8,1.5-1.8c5.8-0.1,11.6-0.1,16.9-0.1c-1.4,6.6-3.7,13.6-4.1,20.7
		c-0.6,12.1-0.5,24.3,0.1,36.5c0.8,17.6,3.7,34.9,7.6,52.1c0.6,2.5,1.4,5,2.3,7.9c-7.6-0.8-14.9-1.5-22.1-2.2
		C485.7,173.6,486.3,153.5,479.4,133.7z"/>
	<path d="M396.8,40.5c1.8,6.3,4.1,12.5,5.3,18.9c1.9,9.9,3.1,20,4.3,30c0.2,1.8,1.1,2.3,2.4,2.9c12.2,5.7,11.4,17.8,6,25.2
		c-2.7,3.8-6.6,5.1-11.1,4c-4.9-1.2-7.1-5.8-5-10.4c0.6-1.4,1.4-2.8,2-4.3c0.9-2.3,0.2-4.4-2-5.4c-5.5-2.6-11.1-3.3-16.6-0.2
		c-7.2,4.1-7.9,15.8-1.6,22.2c3.7,3.7,8.3,5.5,13.2,6.9c3.9,1.1,7.9,2.3,11.7,3.7c11.3,4.3,16.5,13.1,17.3,24.7
		c1.1,17.7-9.7,33.1-29.5,39.3c-7.7,2.4-15.5,2.8-23.3,0c-12-4.3-18.7-16-15.8-28.1c1.3-5.5,4.6-9.7,10.3-10.9
		c5.9-1.2,11.1,0.8,15,5.5c2.9,3.5,2.9,7.8,1,11.8c-1.7,3.6-4,4.3-8.6,2.8c-0.8,6.5,6.3,13.1,13.2,13.4
		c13.1,0.7,22.1-10.1,19.9-23.7c-1.5-9.6-7.3-15.5-16.1-18.9c-7-2.7-14.1-5.3-20.9-8.5c-5.8-2.7-8.5-7.9-9.2-14.1
		c-0.8-7.3,0.2-14.5,3.3-21.2c4.9-10.5,13.6-15.8,24.6-17.4c4.3-0.6,8.7-0.1,13.5-0.1c-0.4-7.8-0.6-16-1.3-24
		c-0.8-8-2.1-15.9-3.3-23.8C395.8,40.7,396.3,40.6,396.8,40.5z"/>
	<path d="M553.5,161.8c-6.5,1.1-12.7,2-18.9,3.2c-0.6,0.1-1.3,1.2-1.4,1.9c-2.5,12.3-4.9,24.6-7.4,36.9c-0.2,1-0.4,2-0.6,3.2
		c-4.9-1.7-9.6-3.2-14.3-4.8c7.9-31,11.3-62.4,10.7-94.5c-2,0.3-3.6,0.6-5.6,0.9c-1-5.1-1.9-10.1-3-15.7c18.5-3.8,37.1-6.1,56-9.1
		c0.7,4.2,1.4,8.2,2.1,12.4c-2.2,0.6-4.1,1.2-6.1,1.6c-1.5,0.3-2.1,1-2.1,2.7c0.2,17.8,1.3,35.5,4.1,53.1c2,12.2,4.5,24.3,7,36.4
		c0.8,4,2.4,7.8,3.7,11.9c-5.6,1.3-11.2,2.5-17.1,3.9C558.2,191.1,555.9,176.7,553.5,161.8z M534.3,145.7c5.9-0.7,11.3-1.4,16.3-2
		c0-12.4,0-24.2,0-36.6c-4.8,0.7-9.1,1.3-13.5,1.8c-2.5,0.3-3.3,1.3-3.2,3.9c0.3,8.8,0.3,17.7,0.4,26.5
		C534.3,141.1,534.3,143.1,534.3,145.7z"/>
	<path d="M301,206.9c-5-1.7-9.6-3.2-14.2-4.8c8-30.9,11.2-62.3,10.8-94.5c-1.2,0.2-2.1,0.3-2.9,0.5c-0.9,0.1-1.8,0.3-2.9,0.4
		c-1-5.2-1.9-10.2-3-16c18.8-3,37.3-5.9,56.1-8.9c0.7,4.4,1.4,8.3,2.1,12.5c-1.8,0.5-3.4,1-5.1,1.3c-2.1,0.4-3.2,1.2-3,3.6
		c1,14.4,1.3,28.8,3,43.1c1.8,14.8,4.9,29.5,7.7,44.2c0.8,4.4,2.6,8.7,4,13.3c-5.6,1.3-11.1,2.5-17,3.9c-2.4-14.6-4.7-29.1-7.1-43.8
		c-6.4,1.1-12.6,2-18.7,3.1c-0.7,0.1-1.7,1.4-1.8,2.2c-2.6,12.7-5,25.5-7.5,38.3C301.3,205.9,301.1,206.3,301,206.9z M326.2,107
		c-5.3,0.8-10.2,1.5-15.1,2.3c-0.5,0.1-1.1,1.2-1.1,1.8c0.1,10.9,0.2,21.7,0.4,32.6c0,0.6,1,1.7,1.5,1.6c5-0.5,10.1-1.1,15.2-1.7
		C326.8,131.4,326.5,119.6,326.2,107z"/>
	<path d="M126.7,201.8c-5.3,1.2-10.8,2.5-16.8,3.8c-2.4-14.5-4.7-29-7.1-43.8c-6.5,1.1-12.7,2-18.9,3.2c-0.7,0.1-1.5,1.5-1.6,2.4
		c-2.6,12.9-5.1,25.9-7.6,38.8c0,0.2-0.2,0.3-0.4,0.6c-4.7-1.6-9.5-3.2-14.1-4.7c8-31.1,11.2-62.5,10.8-94.5c-2,0.3-3.7,0.6-5.7,1
		c-1-5.1-1.9-10.2-3-16c18.7-3,37.2-5.9,56.1-8.9c0.7,4.3,1.4,8.3,2.1,12.5c-2,0.5-3.9,1.1-5.8,1.5c-1.7,0.4-2.4,1.2-2.3,3
		c0.6,11.4,0.6,22.9,1.9,34.3c1.8,15.3,4.3,30.5,7,45.7C122.4,187.7,124.8,194.6,126.7,201.8z M99.6,107c-5.2,0.8-10.1,1.5-14.9,2.3
		c-0.5,0.1-1.3,1.1-1.3,1.6c0,11,0.2,21.9,0.4,32.9c0,0.5,0.9,1.6,1.3,1.5c5.1-0.5,10.2-1.1,15.4-1.7
		C100.2,131.3,99.9,119.5,99.6,107z"/>
	<path d="M182.6,162.1c0-6.1,0.1-11.4,0-16.7c-0.3-19.3-0.7-38.7-1.2-58c-0.1-2.4,0.7-3.5,3-3.8c3.6-0.5,7.1-1.2,11-1.9
		c-3.7,39-0.5,77.4,1.7,116.2c-3.9,0-7.5,0.1-11.1-0.1c-0.7,0-1.5-1-1.9-1.7c-11.4-18.7-22.7-37.5-34.1-56.2
		c-0.1-0.2-0.4-0.3-0.8-0.7c-0.8,18-3.8,35.7-1.4,54.1c-6.8-1.7-13.1-3.3-19.1-4.8c2.2-15.8,4.6-31.3,6.4-46.9
		c1.9-15.5,1.4-31.2,0.5-47.3c4.9,0,9.7,0,14.5,0.1c0.5,0,1.1,1.1,1.3,1.8c5.1,20.2,14.2,38.6,24.7,56.4
		C177.8,155.7,180.1,158.5,182.6,162.1z"/>
	<path d="M259.6,201.3c-6.5,0-13,0-19.7,0c-0.6-31.5,1.5-63.2-7.4-94.1c-8.7,1.2-17,2.4-26.1,3.6c-0.7-7.9-1.3-15.6-1.9-23.3
		c26.5,1.6,52-1.2,77.5-6.6c0.2,4.4,0.6,9.2,0.7,14c0,0.7-1.1,1.8-1.9,1.9c-5.5,1.1-11,1.8-16.5,2.9c-4.4,0.9-8.7,2.1-12.9,3.3
		c-0.7,0.2-1.7,1.5-1.7,2.3c0.6,16.7,0.8,33.5,2,50.1c0.8,11.2,2.8,22.3,4.6,33.4C257,193,258.5,197.1,259.6,201.3z"/>
	<path d="M60.9,76.7c-2,7.8-4.1,15.7-6.2,23.9c-10.7-7.4-21.4-6.6-32.3-2.9c-0.8,0.3-2,1.1-2.1,1.8c-1.8,9.4-3.3,18.9-1.4,28.5
		c0.5,2.4,1.5,3.1,3.7,3.1c5.6,0.1,10.6-1.6,15.4-4.2c0.5-0.3,0.9-0.5,1.7-1c-0.4,8.1-0.8,15.9-1.3,24.4c-5.4-7.5-12.2-5.9-19.3-4.1
		c-0.5,19.2,2.1,37.8,9,56c-7.4,0-14.6,0-22.1,0C7.7,162.9,9.2,123.6,0,84.8c17.7,0.9,34.4-4.8,51.5-7.6c2.8-0.5,5.7-0.8,8.5-1.2
		C60.3,76.3,60.6,76.5,60.9,76.7z"/>
	<path d="M329.6,81.4c-9.9-0.2-16.6-3.3-22.4-8.2c-4.8-4.1-9-8.8-13.3-13.5c-1.6-1.7-2.7-3.9-1.5-6.4c1.3-2.6,3.7-3,6.2-2.7
		c5.7,0.5,11.4,1.2,17.2,1.8c3.9,0.4,7.6-0.3,10.8-2.7c7.3-5.3,14.5-10.7,21.7-16.1c2.2-1.7,4.5-3.3,6.9-4.8
		c2.9-1.7,4.9-0.8,4.9,2.4c0,3.2-0.1,6.7-1.4,9.5c-5.4,11.1-11.3,21.9-17.2,32.7C338.6,79,333.7,81.5,329.6,81.4z"/>
	<path d="M533.2,57.7c-2.3-0.2-4.3-0.5-6.6-0.7c0.6-6.2,1-12.3-1.2-19c-1.8,7-3.4,13.2-5,19.4c-0.2,0-0.3,0.1-0.5,0.1
		c-1.8-5.7-3.7-11.4-5.7-17.6c0,6.8,0,13.1,0,19.6c-1.4,0.1-3.3,0.2-5.4,0.3c0.7-13.5,3.5-26.9-0.7-40.5c2.1,0.9,4,1.5,5.7,2.5
		c0.7,0.4,1.3,1.5,1.5,2.4c1.5,6.9,2.9,13.8,4.4,21.4c3.4-8.2,4.5-16.4,6.4-24.5c1.8,0,3.5,0,5.5,0
		C528.2,33.5,530.9,45.4,533.2,57.7z"/>
	<path d="M478.2,36.9c1.7-3.5,0.7-7.6-2-9.2c-2.4-1.4-5.9-0.3-7.7,2.7c-2.8,4.7-3.3,10-2.6,15.4c0.4,2.8,1.3,5.6,2.3,8.3
		c0.7,1.8,2,3.5,4.4,3.1c2.2-0.3,2.8-2.2,3.2-4.1c0.2-0.9,0.3-1.8,0.4-2.7c-2-1.4-6.4,1.9-6.1-3.6c5-1.3,10.2-2.7,15.3-4.1
		c0.8,5.4,0.8,5.4-3.3,6.9c0.3,4,0.7,8,1,12.1c-4.9,0-3.2-3.7-3.7-6.6c-0.5,0.7-0.8,1.1-1,1.5c-3.2,5.1-9.6,5.9-13.3,1
		c-2-2.7-3.4-6.2-4.1-9.5c-1.5-7.2-0.2-14.2,3.8-20.6c1.7-2.8,4.3-4.7,7.6-5.2c7.5-1.2,12.5,5.7,9.9,13.7c-0.3,0.8-0.6,1.6-1,2.3
		c-1.3,2.2-3.8,3.1-5.7,2.1c-1.8-1-2.9-4.5-1.8-6.4c0.4-0.6,1.3-1.2,1.9-1.2c0.8,0.1,1.7,0.7,2.1,1.4
		C478.2,34.7,478,35.6,478.2,36.9z"/>
	<path d="M318.6,32.2c-1.3,3.3-2,6.6-3.7,9.2c-3.4,5.1-10.6,4.9-14.2,0c-4.1-5.5-4-14.7,0.3-20.1c3.8-4.8,10.4-4.9,13.6,0.3
		C316.4,24.7,317.2,28.5,318.6,32.2z"/>
	<path d="M501,60.7c-0.8-4.7-1.5-8.9-2.3-13.5c-1.5,0.2-3,0.2-4.4,0.6c-0.8,0.3-1.8,1.2-2,2c-0.9,3.6-1.5,7.2-2.4,11.3
		c-1.5-0.5-2.9-0.9-3.7-1.2c0.9-9.1,1.8-17.7,2.5-26.4c0.1-1.2,0.8-2.8-1.5-3.5c-0.7-0.2-0.8-2.6-1.3-4.5c5.9-1,11.6-1.9,17.5-2.8
		c0.3,1.3,0.5,2.4,0.9,3.7c-2.5,0.4-2.6,2-2.5,4.1c0.3,9.8,1.5,19.4,4.4,29C504.6,59.7,503,60.2,501,60.7z M497.7,29.2
		c-2.1,1.1-4.7,1.7-4.9,2.7c-0.6,3.1-0.2,6.4-0.2,10c2.1-0.2,3.7-0.4,5.1-0.6C497.7,37.3,497.7,33.7,497.7,29.2z"/>
	<path d="M563.6,53.6c0.6,1.8,2.3,3.1,5,2.9c2.9-0.3,5-2.5,5.3-5.2c0.3-2.8-1.2-5.9-3.8-7.2c-1.5-0.8-3.1-1.3-4.6-1.9
		c-4.8-1.8-6.3-3.6-6.3-7.4c0.1-5.1,2.7-9,7-10.3c3.1-0.9,6.3-0.6,9.2,1c3.1,1.7,3.7,5.8,1,8c-0.9,0.7-2.6,0.7-3.8,0.5
		c-0.4-0.1-1.1-1.8-0.8-2.5c0.7-2,1.1-3.4-1.6-3.8c-3-0.4-4.9,0.7-5.3,3.2c-0.4,2.7,0.9,4.5,3.2,5.6c1.3,0.6,2.8,0.9,4.2,1.4
		c6.3,2.2,8.7,8,5.8,14c-2.6,5.3-9.6,8.3-15.1,6.6c-3.8-1.2-6-4.9-5.3-8.7c0.6-3.1,3.8-4.7,6.3-3c1.1,0.7,2,2.4,2.1,3.7
		C566.3,51.3,564.8,52.3,563.6,53.6z"/>
	<path d="M536.5,58.7c0.4-6,0.8-11.7,1-17.3c0.2-5.6,0-11.1,0-16.9c4.2-0.4,8.9-0.9,14-1.4c-0.1,1.9-0.2,3.7-0.3,5.7
		c-2.5,0-4.8,0.1-7.1,0c-1.5-0.1-2.1,0.5-2.4,2c-1,6,0.2,7.1,6.2,5.8c0.4-0.1,0.7-0.1,1.5-0.2c0.1,1.5,0.2,3,0.4,4.5
		c-2.2,0.1-4.3,0-6.2,0.5c-0.9,0.2-2.2,1.6-2.3,2.5c-0.3,3-0.1,6.1-0.1,10c5.3-0.8,9.7-1.5,14.3-2.2c-0.1,1.5-0.2,3.4-0.3,5.4
		c-3.3,0.3-6.4,0.6-9.5,0.9C542.6,58.2,539.5,58.5,536.5,58.7z"/>
	<path d="M343.9,13.7c2.4,1.2,5.2,1.9,7.2,3.6c2.4,2,1.7,4-1.5,4.4c-2.9,0.4-5.9,0.4-8.9,0.7c-4,0.4-7.5,2-10.2,5.1
		c-0.6,0.7-1.8,1-2.7,1.4c-0.1-1.1-0.6-2.3-0.3-3.3c1.9-6.9,8.5-11.5,16-11.3C343.7,14.2,343.8,13.9,343.9,13.7z"/>
</g>
</svg>
