<svg width="300" height="300" viewBox="0 0 300 300" fill="none" xmlns="http://www.w3.org/2000/svg">
  <path d="M259.968 222.8H267.027V248.114H282V254.443H259.968V222.8ZM247.024 254.443H254.08V222.8H247.024V254.443ZM216.308 249.622C220.056 252.899 224.903 254.701 229.921 254.684C236.842 254.684 241.7 251.158 241.7 244.877V244.786C241.7 239.271 238.034 236.967 231.528 235.293C225.985 233.892 224.607 233.213 224.607 231.136V231.046C224.607 229.507 226.027 228.288 228.732 228.288C231.77 228.473 234.679 229.56 237.073 231.407L240.739 226.163C237.368 223.496 233.152 222.073 228.824 222.14C222.268 222.14 217.592 225.938 217.592 231.679V231.769C217.592 238.052 221.765 239.813 228.225 241.443C233.589 242.798 234.69 243.701 234.69 245.464V245.554C234.69 247.407 232.948 248.537 230.058 248.537C226.498 248.439 223.095 247.074 220.485 244.694L216.312 249.622H216.308ZM214.868 254.556L201.116 222.688H194.607L180.855 254.556H188.053L197.769 231.052L201.989 241.261H196.325L193.818 247.382H204.52L207.486 254.558L214.868 254.556ZM130.397 222.8C140.482 222.8 147.449 229.626 147.449 238.53V238.62C147.449 247.525 140.482 254.441 130.397 254.441H119.374V222.8H130.399H130.397ZM140.071 238.62C140.208 236.077 139.221 233.545 137.392 231.742C135.562 229.936 132.988 228.958 130.399 229.082H126.43V248.159H130.399C132.977 248.303 135.549 247.345 137.382 245.555C139.212 243.768 140.204 241.247 140.071 238.713V238.62ZM103.611 237.968V243.413H106.936V246.757C104.979 248.061 102.653 248.726 100.29 248.655C97.6369 248.682 95.0387 247.604 93.2087 245.714C91.3808 243.826 90.4132 241.223 90.5744 238.62V238.53C90.4732 236.026 91.3853 233.584 93.1114 231.738C94.8376 229.891 97.2375 228.791 99.7872 228.676C102.905 228.613 105.921 229.767 108.174 231.885L112.62 226.596C109.164 223.577 104.634 222.018 100.015 222.258C95.5889 222.174 91.2301 223.885 88.0825 226.947C84.9382 230.006 83.151 234.27 83.1947 238.62V238.711C83.0567 243.087 84.824 247.406 88.0018 250.472C91.1832 253.541 95.6126 255.195 100.062 254.981C105.099 254.996 109.969 253.213 113.767 249.965V237.966L103.611 237.968ZM68.3673 237.968V243.413H71.6922V246.757C69.7359 248.061 67.4099 248.726 65.0464 248.655C62.3935 248.682 59.7952 247.604 57.9653 245.714C56.1373 243.826 55.1698 241.223 55.331 238.62V238.53C55.2298 236.026 56.1419 233.584 57.868 231.738C59.5941 229.891 61.9941 228.791 64.5437 228.676C67.6615 228.614 70.6772 229.768 72.9308 231.885L77.3766 226.596C73.92 223.577 69.3906 222.018 64.7711 222.258C60.3453 222.173 55.9862 223.885 52.8384 226.947C49.694 230.006 47.907 234.27 47.9512 238.62V238.711C47.8132 243.087 49.5805 247.406 52.7584 250.472C55.9397 253.541 60.3691 255.195 64.819 254.981C69.8552 254.995 74.7252 253.213 78.5234 249.965V237.966L68.3673 237.968ZM29.3302 254.441H36.3889V244.232L48.7171 222.798H40.6971L32.9044 236.877L25.2514 222.798H17L29.3302 244.367V254.441ZM170.817 243.139C172.898 242.47 174.699 241.147 175.941 239.376C177.183 237.604 177.799 235.481 177.694 233.332C177.694 231.959 177.554 230.65 177.061 229.354C176.589 228.112 175.869 226.975 174.943 226.01C172.411 223.761 168.996 222.59 165.591 222.8H151.984V254.443H159.043V229.084H164.995C167.974 229.084 170.541 230.509 170.541 233.694C170.541 236.36 168.569 238.17 165.13 238.17H161.658V244.318H163.533L170.408 254.443H178.659L170.817 243.139Z" fill="white"/>
  <path d="M223.7 124.931C223.32 131.036 222.192 137.074 220.34 142.915C191.736 141.238 164.913 128.739 145.525 108.052C126.14 128.737 99.3228 141.237 70.7229 142.918C68.874 137.076 67.7416 131.039 67.3496 124.935C77.0113 124.601 86.5592 122.778 95.6429 119.534C87.693 113.059 78.5495 108.14 68.7086 105.044C69.9237 99.0976 71.8568 93.3139 74.4671 87.8153C89.1175 92.4481 102.47 100.353 113.473 110.907C120.065 106.796 126.101 101.886 131.439 96.2922C113.585 93.2387 97.2766 84.4443 85.0862 71.2966C89.0144 66.6091 93.4987 62.3976 98.4442 58.7513C105.543 66.5157 114.524 72.4003 124.557 75.8614C120.876 67.1204 118.384 57.9428 117.145 48.5647C122.963 46.3534 129.028 44.829 135.214 44.0238C136.452 55.5623 139.953 66.7575 145.525 76.9932C151.101 66.7505 154.603 55.5469 155.839 44C162.026 44.799 168.093 46.3259 173.908 48.5477C172.666 57.9287 170.174 67.1094 166.496 75.8546C176.52 72.3923 185.494 66.5143 192.595 58.7615C197.544 62.3991 202.035 66.6002 205.973 71.2762C193.78 84.4287 177.466 93.2266 159.607 96.282C164.948 101.875 170.986 106.785 177.58 110.897C188.582 100.343 201.935 92.4379 216.586 87.8051C219.181 93.3088 221.107 99.0927 222.323 105.038C212.491 108.135 203.356 113.053 195.413 119.524C204.495 122.769 214.04 124.594 223.7 124.931V124.931ZM154.76 196.397V170.626L181.317 136.685C175.595 134.216 170.09 131.291 164.856 127.939L145.518 152.66L126.179 127.939C120.946 131.292 115.441 134.217 109.719 136.685L136.271 170.626V196.41C142.412 197.118 148.617 197.114 154.757 196.397H154.76Z" fill="#FA6432"/>
</svg>
