<svg xmlns="http://www.w3.org/2000/svg" width="19" height="21" viewBox="0 0 19 21" fill="none" tracking="true">
<path fill-rule="evenodd" clip-rule="evenodd" d="M4.66168 0.500001H14.3388C14.8659 0.499983 15.3205 0.499967 15.6949 0.530575C16.0902 0.562892 16.4831 0.634245 16.8614 0.826982C17.4248 1.11405 17.8851 1.57224 18.1732 2.13781C18.3659 2.516 18.4372 2.90906 18.4695 3.30397C18.5 3.67815 18.5 4.1323 18.5 4.65839V8.66505C18.5 15.846 13.0453 19.0434 10.8381 20.0424L10.8272 20.0474C10.5883 20.1555 10.384 20.2473 10.0081 20.3119C9.84291 20.3402 9.64546 20.3468 9.5005 20.3468C9.35555 20.3468 9.1581 20.3402 8.99294 20.3119C8.61265 20.2466 8.4073 20.1536 8.16252 20.0428L8.16159 20.0424C5.95439 19.0434 0.500002 15.8459 0.500002 8.66504L0.500001 4.66168C0.499983 4.13451 0.499968 3.67965 0.530569 3.30499C0.562862 2.90962 0.634158 2.51625 0.826982 2.13781C1.1146 1.57332 1.57332 1.1146 2.13781 0.826982C2.51625 0.634158 2.90962 0.562862 3.30499 0.530569C3.67965 0.499968 4.13451 0.499983 4.66168 0.500001ZM3.4678 2.52393C3.19595 2.54614 3.09517 2.58383 3.04579 2.609C2.85763 2.70487 2.70487 2.85763 2.609 3.04579C2.58383 3.09517 2.54614 3.19595 2.52393 3.4678C2.50078 3.75126 2.5 4.12365 2.5 4.7002V8.66504C2.5 14.6207 6.98121 17.3128 8.98631 18.2204C9.10684 18.2749 9.14931 18.2933 9.18759 18.3067C9.21243 18.3154 9.24732 18.3261 9.32664 18.3399C9.32786 18.34 9.3418 18.3417 9.37112 18.3434C9.4074 18.3455 9.45238 18.3468 9.5005 18.3468C9.54863 18.3468 9.59361 18.3455 9.62988 18.3434C9.65917 18.3417 9.67312 18.34 9.67437 18.3399C9.75294 18.3262 9.78714 18.3157 9.8112 18.3072C9.84896 18.294 9.89049 18.276 10.0108 18.2215L10.0217 18.2166C12.0309 17.3053 16.5 14.6124 16.5 8.66505V4.69691C16.5 4.12146 16.4992 3.7498 16.4761 3.46686C16.4539 3.19554 16.4163 3.09501 16.3912 3.04579C16.2959 2.85871 16.1427 2.70542 15.9534 2.609C15.9039 2.58375 15.8032 2.54611 15.5319 2.52393C15.2488 2.50078 14.8768 2.5 14.3002 2.5H4.7002C4.12365 2.5 3.75126 2.50078 3.4678 2.52393ZM13.9142 7.5L8.5 12.9142L5.08579 9.5L6.5 8.08579L8.5 10.0858L12.5 6.08579L13.9142 7.5Z" fill="#21A049"/>
</svg>