<svg version="1.1" id="Layer_1" xmlns="http://www.w3.org/2000/svg" x="0" y="0" viewBox="0 0 543.2 220.01" style="enable-background:new 0 0 543.2 220.01" xml:space="preserve"><style>.st1{fill:#fff}.st2{fill:#102417}</style><g id="Page-1"><g id="Index" transform="translate(-549 -21)"><g id="silver-back-logo" transform="translate(549 21)"><linearGradient id="Shape_00000149349355844498308680000008138222377545236159_" gradientUnits="userSpaceOnUse" x1="-146.405" y1="354.981" x2="-146.405" y2="357.05" gradientTransform="matrix(263 0 0 -106 38776 37847.21)"><stop offset="0" style="stop-color:#002100"/><stop offset=".563" style="stop-color:#244c29"/><stop offset="1" style="stop-color:#3c6c40"/></linearGradient><path id="Shape" style="fill:url(#Shape_00000149349355844498308680000008138222377545236159_)" d="M541.24 120.82c-2.11-1.16-7.24-4.82-8.27-5.59-1.03-.77-2.8-1.25-5.3 1.08-2.5 2.32-2.58.65-1.72-.73.9-1.38 1.94-3.01 1.12-3.23s-5.86-3.18-8.83-3.1-5.21-1.16-5.64.09c-.43 1.25-1.34 6.19-2.11 6.88-.78.69-2.28 3.91-2.67 3.14-.39-.82-.3-2.84.9-5.68 1.16-2.88 2.28-5.12.04-5.03-2.24.09-6.24.52-8.05.26-.69-.09-1.16-.22-1.51-.22 2.24-2.02.73-2.84.43-3.01-.3-.17-3.53-1.63-6.29-2.54-2.76-.95-3.66-1.81-3.62-2.28.09-.47 2.07-.13 3.79.52s3.57.69 4.95 1.68c1.38.99 3.57 2.15 3.92 1.76.3-.39.86-2.06 1.46-3.35s1.25-2.37 1.34-3.01c.13-.65.78-2.06.17-2.54-.6-.47-3.36.09-4.18.22-.82.13-2.71-.17-1.03-.99s4.39-.6 4.87-.99c.47-.39.73-.73.82-1.59.09-.82.52-5.42 1.16-6.62.65-1.2-.04-1.51-1.89-1.2-1.85.3-6.76.6-7.75.65-1.03.04-2.33.6-2.67 3.23-.39 2.62-1.25 1.63-1.38.39-.04-.22-.04-.47-.09-.69l1.12-.6.09-2.45.34-9.38 6.68-5.38 1.21-.95.3-1.51 9.09-42.37 2.07-9.59-8.53 4.9-16.93 9.94c-3.23 1.89-6.76 4.17-10.55 6.71.3-.99.6-1.94.82-2.71.56-1.98-1.55-1.59-4.26-1.16l-.13-.3-1.21.52c-2.41.26-3.96-.09-4.57-.56-.65-.56 2.71-1.25 3.49-1.76.78-.52 5.6-.26 6.89-.43 1.29-.13.6-2.49 1.34-5.2.73-2.71-.9-8.04-.9-8.86s-1.77-.17-3.23.34c-1.46.52-3.01.04-.3-1.76 2.71-1.81 2.63-3.53 2.15-4.65-.47-1.12-2.76-6.71-3.36-8.9-.6-2.19-1.34-2.84-2.33-1.51-1.03 1.38-5.9 4.22-6.76 4.73-.86.56-1.08 1.03-1.29 1.76-.22.73 1.51 3.61 1.42 5.89-.04 2.28-1.38.34-1.64-.6-.26-.95-1.12-4.26-1.94-4.73-.86-.43-2.11 1.03-2.76 1.51-.65.47-1.55 1.72-2.63 3.05-1.12 1.38-2.67 2.84-2.93 3.35-.26.56 2.15 2.37 4.01 3.4 1.85 1.03 2.84 3.01 4.44 4.6 1.64 1.59 3.06 3.61 2.58 3.91-.47.3-1.94-.26-4.44-2.8-2.45-2.58-5.77-5.33-6.12-5.59s-2.11-1.51-3.14 2.06c-1.03 3.61-1.64 5.46-2.2 6.58-.34.69-1.03 3.48-1.55 5.81l-1.34-9.68-1.16-8.26-6.05 5.72-4.52 4.26-2.89-3.91-3.53 4.09-23.26 26.8c-.52-1.68-1.03-3.44-1.46-4.69-.82-2.37-2.67-.34-5.17 2.02-2.5 2.32-4.57 3.23-5.51 3.14-.99-.09 1.77-2.92 2.2-3.96.43-1.03 5.17-3.87 6.29-4.86 1.12-.99-1.08-2.75-2.11-5.85-1.08-3.1-6.12-7.1-6.63-7.87-.52-.77-1.81.99-2.89 2.41-1.08 1.46-2.84 1.98-1.42-1.46s.22-5.08-.99-5.85c-1.21-.77-6.98-4.6-9-6.32-2.02-1.72-3.1-1.85-3.19.09-.09 1.98-2.89 7.83-3.36 8.9-.47 1.08-.39 1.68-.09 2.49.26.82 3.79 2.49 5.21 4.69 1.42 2.19-1.08 1.2-1.98.47-.9-.73-3.83-3.35-4.91-3.23-1.08.13-1.29 2.37-1.64 3.23-.34.86-.34 2.62-.52 4.65-.17 2.02-.69 4.43-.6 5.12.09.69 3.62.86 6.03.65s4.65 1.03 7.24 1.51c2.58.43 5.25 1.46 5 2.06-.26.6-2.02 1.03-6.03.22-4.05-.86-8.96-1.33-9.48-1.38s-2.97-.09-1.64 4.04c1.34 4.09 2.02 6.28 2.2 7.74 0 .13.04.26.09.43l-4.13 1.46-.87-2.51-1.68-4.86-4.48 2.54-14.56 8.26c-.65-.39-1.34-.73-2.02-1.12l1.38-3.83-4.92-.99-1.38-.26c.13-.22.26-.43.43-.69.86-1.38 3.4-3.83 4.69-5.29 1.29-1.51-.82-1.98-3.45-2.8-2.58-.82-4.05-1.89-4.35-2.58-.3-.73 2.71.09 3.62-.04.9-.13 4.74 2.06 5.86 2.45 1.12.39 1.51-1.81 3.23-3.79s2.5-7.05 2.84-7.7c.34-.69-1.38-.86-2.8-1.03-1.42-.17-2.5-1.16.47-1.55s3.62-1.85 3.66-2.97c.09-1.16.43-6.67.82-8.73.39-2.11.04-2.88-1.34-2.15-1.38.73-6.59 1.08-7.49 1.2-.95.13-1.34.39-1.81.9s-.22 3.57-1.21 5.46c-.95 1.89-1.29-.26-1.12-1.16s.82-4 .3-4.69c-.52-.69-2.15.04-2.89.13-.73.13-1.94.77-3.45 1.46-1.51.69-3.36 1.25-3.79 1.59-.43.34.82 2.84 1.94 4.43 1.08 1.59 1.12 3.66 1.81 5.59.69 1.98 1.08 4.22.52 4.3-.52.09-1.51-.99-2.54-4.09-.99-3.14-2.63-6.75-2.8-7.1s-1.12-2.11-3.45.47-3.57 3.87-4.48 4.56c-.39.26-1.25 1.29-2.2 2.41l-4.13-4.99-1.94-2.32-2.84.99-14.38 5.08-13.14-.47-3.49-.13-.56 2.15-1.72-.09-3.66-.17-.78 3.57-1.55 7.14c-.13.65-.3 1.33-.43 2.06-16.15-.95-28.12-1.12-28.25-1.12l-9.48-.09-3.4-.04-.82 3.27-.04.17-2.45.82-7.11 2.32c-.56.17-5.81 1.59-13.27 1.59-9.17 0-17.7-2.11-25.32-6.28l-2.5-1.38c-.09-.09-.22-.17-.34-.22l-3.83-2.11c1.16-.22 2.28-.43 2.76-.52 1.08-.17 1.42-.43 2.71-1.33 1.34-.9.99-1.12.73-2.54s-.04-4.52-.04-6.28-1.72-.82-3.92.17c-2.2 1.03-3.79 1.16-4.39.86-.65-.3 1.85-1.59 2.37-2.19.52-.6 4.35-1.46 5.3-1.85.99-.39-.09-2.11-.13-4.39-.04-2.28-2.54-6.11-2.71-6.75-.17-.65-1.42.26-2.45.99-1.03.73-2.33.69-.65-1.29 1.68-1.98 1.29-3.35.65-4.13-.65-.77-3.66-4.65-4.65-6.24s-1.68-1.94-2.15-.65-3.66 4.6-4.22 5.25c-.56.6-.65 1.03-.65 1.68 0 .6 1.98 2.49 2.45 4.3.47 1.81-.99.6-1.42-.09-.43-.69-1.81-3.1-2.58-3.27-.78-.17-1.42 1.29-1.81 1.81-.39.52-.82 1.68-1.38 3.01-.34.82-.82 1.72-1.16 2.37l-3.27 2.32.09-6.41-6.93 4.9-14.13 9.98-20.03-5.98-2.58-.77-1.81 1.98-2.71 2.88c.26-.43.47-.99.82-1.76.86-1.89.34-1.89-.9-3.27-1.21-1.42-3.06-4.95-4.22-6.88-1.16-1.94-2.45.26-4.18 2.8-1.72 2.58-3.36 3.79-4.26 3.87-.9.13.99-2.97 1.12-3.96.17-.99 3.79-4.47 4.61-5.55.78-1.08-1.51-2.24-3.06-4.77s-6.85-5.03-7.45-5.63-1.42 1.2-2.07 2.71c-.65 1.51-2.11 2.32-1.55-.99S82.69 8 81.49 7.53c-1.21-.43-7.11-2.67-9.26-3.79-2.15-1.12-3.14-1.03-2.8.73.34 1.76-.99 7.53-1.16 8.56s0 1.59.43 2.24c.39.69 3.83 1.42 5.56 3.1 1.72 1.68-.69 1.29-1.64.82-.95-.47-4.09-2.19-5-1.85-.95.34-.69 2.37-.78 3.18-.13.82.22 2.37.47 4.22.26 1.81.26 4.09.52 4.65.22.6 3.36.04 5.47-.65 2.07-.69 4.35 0 6.72-.13s4.95.22 4.87.82c-.09.6-1.55 1.33-5.3 1.38-3.75.09-8.23.6-8.66.69-.43.09-2.67.52-.65 3.87.3.52.6.99.86 1.46-15.8-6.16-29.45-10.03-30.27-10.25l-2.63-.73-1.29-.39-1.29.43-5.56 1.94c-2.15-.47-3.45-.73-3.57-.73l-5.17-.95-2.58-.47-1.59 2.06-3.14 4.09-2.07-.73-4.44-1.59-1.21 4.56L.9 54.54l-.9 3.4 3.14 1.55 5.13 2.58-.17.56 1.59 1.85 3.19 3.7c.39.43 1.42 1.63 7.06 7.1l-13.78 9.2-2.5 1.68.69 2.92 9.73 40.47 1.72 7.1 5.38-4.95 2.93-2.67c2.8 3.87 6.29 8.22 10.42 12.9-2.58.52-1.9 2.19-1.72 2.54.17.43 2.2 4.43 4.22 7.57 2.02 3.14 2.2 4.77 1.77 5.2-.43.43-2.15-1.55-3.36-3.57s-3.01-3.57-3.62-5.68c-.6-2.11-1.85-5.03-2.5-4.9-.6.13-2.5 1.38-4.18 2.15s-3.14 1.38-3.79 1.94c-.65.56-2.45 1.46-2.2 2.41.26.99 3.45 2.62 4.35 3.14.9.52 2.54 2.32.22 1.81-2.37-.52-4.87-2.97-5.69-2.92-.82.04-1.34.17-2.11.9-.78.73-4.87 5.03-6.5 5.72-1.64.69-1.16 1.55.95 2.75s7.24 4.82 8.27 5.59c1.03.77 2.8 1.25 5.3-1.08 2.5-2.32 2.58-.65 1.72.73-.9 1.38-1.94 3.01-1.12 3.23.82.17 5.86 3.18 8.83 3.1 2.97-.09 5.21 1.16 5.64-.09.43-1.25 1.34-6.19 2.11-6.88.78-.69 2.28-3.91 2.67-3.14.39.82.3 2.84-.9 5.68-1.16 2.88-2.28 5.12-.04 5.03 2.24-.09 6.24-.52 8.05-.26.69.09 1.16.22 1.51.22-2.24 2.02-.73 2.84-.43 3.01.3.17 3.53 1.63 6.29 2.54 2.76.95 3.66 1.81 3.62 2.28-.09.47-2.07.13-3.79-.52-1.72-.65-3.57-.69-4.95-1.68-1.38-.99-3.57-2.15-3.92-1.76-.3.39-.86 2.06-1.46 3.35s-1.25 2.37-1.34 3.01c-.13.65-.78 2.06-.17 2.54.6.47 3.36-.09 4.18-.22.82-.13 2.71.17 1.03.99s-4.39.6-4.87.99-.73.73-.82 1.59c-.09.82-.52 5.42-1.16 6.62-.65 1.2.04 1.51 1.9 1.2 1.85-.3 6.76-.6 7.75-.65.99-.04 2.33-.6 2.67-3.23.39-2.62 1.25-1.63 1.38-.39.13 1.25.3 2.8.9 2.49.6-.3 5.13-.9 6.85-2.41 1.77-1.51 3.7-1.81 3.4-2.84-.3-1.03-2.2-4.43-2.11-5.2.13-.77-.56-3.48.09-3.18.65.3 1.55 1.59 2.24 3.87.69 2.28 1.12 4.22 2.45 3.05 1.34-1.16 3.53-3.35 4.78-4.09 1.25-.73 1.64-.6 1.42-2.24-.17-1.59-.22-1.98-.78-2.92-.56-.9-2.84-4.56-2.93-5.55.69.43 1.38.82 2.07 1.2l.6.34.26.26c2.45 2.37 2.63 3.79 4.05 2.41.3-.3.65-.73.99-1.25 1.03.13 2.41.26 4.05.3 1.21 4.52 2.93 9.08 5.17 13.25v24.52c0 2.24 1.85 4.09 4.09 4.09 2.24 0 4.09-1.85 4.09-4.09v-13.59c2.71 2.58 5.81 4.69 9.39 6.28 8.1 3.57 17.31 3.35 25.24 0 9.26 2.49 19.17 2.62 28.3-.47 13.52-4.6 23.82-15.44 30.62-27.7.86-1.59 1.68-3.18 2.45-4.77-.04.52-.09 1.03-.26 1.59-.56 2.24.95 6.54.95 7.23 0 .65 1.46.09 2.63-.34 1.16-.43 2.45-.13.3 1.42-2.15 1.51-2.07 2.92-1.64 3.87s2.41 5.38 2.97 7.18c.56 1.81 1.16 2.28 1.94 1.16.78-1.12 4.69-3.57 5.38-4.04.69-.47.86-.86 1.03-1.46.17-.6-1.29-2.92-1.34-4.77 0-1.85 1.12-.3 1.38.47.26.77.99 3.48 1.72 3.79.69.34 1.68-.9 2.2-1.29.52-.39 1.21-1.42 2.07-2.58s2.11-2.37 2.33-2.84c.22-.47-1.85-1.89-3.36-2.67-1.51-.77-2.37-2.41-3.75-3.66s-2.58-2.88-2.2-3.14c.39-.26 1.59.13 3.66 2.19 2.07 2.02 4.82 4.22 5.13 4.43.3.22 1.72 1.16 2.5-1.76.17.34.52.69.9 1.25 1.08 1.55 2.45 5.25 3.45 7.31.95 2.02 2.45.04 4.48-2.32 2.02-2.37 3.79-3.35 4.69-3.4.9 0-1.29 2.84-1.59 3.79-.26.99-4.26 4.04-5.17 5.03-.9.99 1.25 2.37 2.5 5.08s6.24 5.76 6.76 6.41c.56.65 1.55-1.08 2.37-2.45.82-1.38 2.37-2.06 1.42 1.16-.95 3.23.3 4.6 1.46 5.2 1.16.6 6.76 3.44 8.79 4.82 2.02 1.33 3.01 1.38 2.89-.39-.13-1.76 1.81-7.35 2.11-8.39.3-1.03.17-1.55-.17-2.28-.34-.73-3.66-1.85-5.17-3.7-1.51-1.85.86-1.2 1.72-.65.86.56 3.79 2.67 4.78 2.41.99-.22.95-2.28 1.16-3.05.22-.82.04-2.41 0-4.22-.04-1.85.22-4.09.04-4.69s-3.36-.43-5.47 0c-2.15.43-4.31-.47-6.68-.6s-4.91-.77-4.74-1.38c.17-.56 1.72-1.12 5.43-.77 3.7.34 8.23.3 8.7.3.47-.04 2.71-.22 1.08-3.79-1.12-2.41-1.81-4.04-2.28-5.25 1.03-.34 2.2-.73 3.49-1.16l4.26 1.55 1.29.47 1.34-.34 2.63-.69c.82-.22 13.82-3.74 29.93-9.46-.09.3-.17.56-.22.6 0 0 1.55.47 2.76.65 1.21.13 4.69-1.76 5.3-1.46.6.26.43.65-1.08 1.76-1.55 1.12-3.75 2.15-4.35 2.24-.56.04-2.33.26-2.37.73-.04.47-.04 5.89.22 6.8.26.9.39 2.37.56 5.12.22 2.75 1.64 2.11 1.94 1.98.3-.13 3.1-1.63 5.25-3.1 2.2-1.46 3.32-1.63 3.62-1.33.3.3-1.03 1.55-2.45 2.45-1.42.9-2.45 2.19-3.92 2.62-1.46.43-3.49 1.42-3.4 1.85s.99 1.72 1.59 2.88c.6 1.16 1.03 2.19 1.42 2.62s1.08 1.68 1.77 1.51c.69-.17 1.77-2.45 2.11-3.1.34-.65 1.59-1.85 1.29-.17-.3 1.68-1.98 3.48-1.94 4.04.04.56.13.95.69 1.46.52.52 3.62 3.31 4.13 4.47.52 1.12 1.12.77 1.89-.73s3.27-5.16 3.79-5.94.82-1.98-.86-3.7c-1.68-1.72-.52-1.81.47-1.2.99.6 2.15 1.33 2.28.73.13-.6 2.15-4.17 2.02-6.24-.13-2.06.73-3.66-.17-3.96-.9-.3-4.39-.82-4.91-1.33-.52-.52-2.8-1.51-2.24-1.81.56-.3 1.98-.26 4.05.52.43.17.82.3 1.21.43l-.13.3 1.46.09c.13 0 .22.04.34 0l4.13.22 22.78 1.16c10.98 6.62 23.9 9.94 36.74 9.38 6.42-.26 12.71-1.55 18.69-3.7 2.8 1.94 5.86 3.53 9.09 4.6 8.44 2.71 17.92.82 25.37-3.74 4.48-2.75 8.27-6.45 11.37-10.67l4.22-3.31c0 1.55 1.29 1.59 1.64 1.59.43 0 4.65-.17 8.1-.73 3.45-.52 4.91-.09 5.13.43.17.52-2.15 1.25-4.35 1.51-2.2.26-4.18 1.2-6.2.9-2.02-.3-5-.3-5.13.26-.13.56.22 2.67.26 4.39.04 1.72 0 3.18.22 3.96.22.73.3 2.67 1.25 2.8.9.17 3.53-1.94 4.35-2.49.78-.56 2.97-1.29 1.64.52s-4.39 3.05-4.65 3.74c-.26.69-.39 1.2-.04 2.15.34.95 2.45 6.06 2.41 7.7-.04 1.63.9 1.59 2.71.22 1.81-1.38 6.89-4.34 7.92-4.95 1.03-.6 2.11-1.94 1.12-4.9-.99-2.97.43-2.45 1.29-1.16.86 1.29 1.85 2.84 2.33 2.19.47-.65 4.95-3.79 5.99-6.37 1.03-2.58 2.97-4 2.07-4.86-.9-.86-4.78-3.53-5.08-4.43-.3-.9-2.5-3.44-1.68-3.48.82-.04 2.54.82 4.52 2.92s3.49 3.87 4.31 1.94c.09-.26.22-.56.34-.86l2.2 2.24 2.67 2.71 3.01-2.32 5.25-4 3.83 3.7 3.27 3.18 2.97-3.44 12.62-14.71 2.45-2.84-2.5-2.8-13.14-14.84c2.15 0 4.39 0 5.04-.17 1.29-.3 3.36-.43 7.28-.65 3.92-.17 3.06-2.28 2.89-2.67-.17-.43-2.2-4.43-4.22-7.57-2.02-3.14-2.2-4.77-1.77-5.2.43-.43 2.15 1.55 3.36 3.57s3.01 3.57 3.62 5.68c.6 2.11 1.85 5.03 2.5 4.9.6-.13 2.5-1.38 4.18-2.15 1.68-.77 3.14-1.38 3.79-1.94.65-.56 2.45-1.46 2.2-2.41-.26-.99-3.45-2.62-4.35-3.14-.9-.52-2.54-2.32-.22-1.81 2.37.52 4.87 2.97 5.68 2.92.78-.04 1.34-.17 2.11-.9.78-.73 4.87-5.03 6.5-5.72 1.58-.62 1.15-1.48-1-2.64zm-45.61-23.61c2.07.43 3.62 1.51 3.75 2.24.13.77-1.25.65-2.41.17-1.21-.47-2.89-.56-2.89-1.63 0 .04-.52-1.17 1.55-.78zm-24.38-75.36c.69-.77 2.5-1.76 4.39-1.72 1.89.04 1.59 1.03.56 1.03-.99 0-4.61 1.42-5 1.59-.98.48-.59-.12.05-.9zm-89.32 21.64c-.78 1.29-2.89.17-4.69-.09-1.81-.26-3.53-1.12-2.84-1.94.73-.86 3.36-1.03 6.2-.04 2.79.95 1.33 2.07 1.33 2.07zm-40.14-3.7c.86-.39 2.8-.47 4.35.34 1.55.82.9 1.51.04 1.08-.82-.39-4.39-.69-4.78-.69-1.03-.04-.47-.39.39-.73zm-5.86-8.73c.86.17 2.07 1.94 2.5 4.26s-.95 1.76-.95 1.76c-1.16-.04-1.29-1.94-1.81-3.27s-.6-2.88.26-2.75zM80.49 24.43c-.43 1.29-2.54.73-4.18.86-1.64.13-3.36-.26-2.89-1.16.47-.9 2.8-1.59 5.47-1.29 2.68.3 1.6 1.59 1.6 1.59zM27.95 150.84c.47-.86 1.77.34 2.58 1.76.82 1.42 2.41 2.88 1.59 3.96 0 0-.47 1.63-2.2-.47-1.71-2.11-2.44-4.34-1.97-5.25zm4.35 11.66c-.26.39-2.63 3.7-2.84 4.69-.26 1.03-1.34 1.12-.9-.86.43-1.98 1.85-3.57 2.84-4.04.9-.48 1.59-.74.9.21zm23.65 22.2c-2.07-.43-3.62-1.51-3.75-2.24-.13-.73 1.25-.65 2.41-.17 1.21.47 2.89.56 2.89 1.63 0-.04.51 1.21-1.55.78zm4.17 6.88c-.69-1.38-.6-3.05-.26-3.83.34-.77.65-1.25.69-.34 0 .34.22 3.53.56 4.26.31.72-.3 1.28-.99-.09zm183.73-1.55c.56-1.2 2.58-.47 4.26-.39 1.64.09 3.32.65 2.76 1.46-.56.82-2.93 1.25-5.6.69-2.67-.56-1.42-1.76-1.42-1.76zm-21.49-23.87c-.04-.04-.09-.04-.13-.09-.39-.52.09-1.81.86-2.24.17-.09.34-.17.47-.26l1.42 1.38c-.17.17-.34.34-.47.43-.47.48-1.63 1.08-2.15.78zM164.13 50.5l-.39-.22-5.56-2.8-.22 1.98-.04-2.71c.95.22 3.06 1.08 4.61 2.06 1.43.96 1.86 1.39 1.6 1.69zm6.51-21.64c.34-.77 1.55-1.94 3.06-2.32 1.51-.39 1.46.47.69.69-.78.22-3.27 2.15-3.57 2.37-.74.55-.57.04-.18-.74zm-.13 12.82c3.01-.56 3.49.17 2.58.43-.9.22-2.84 1.63-3.01.99-.18-.64.43-1.42.43-1.42zm-3.1 2.28c.22.34.39.73.47 1.08l-.39-.22-.13.34c-.6-.77-1.51-1.42-2.02-2.02-.78-.95-2.76-1.68-3.62-2.24-.82-.6-.78-1.38.3-1.16.99.26 4.65 3.1 5.39 4.22zm-5.82-17.33c.65-.39 2.5.04 4.18 1.33 1.68 1.29.43 1.72.43 1.72-.78.69-1.98-.52-3.14-1.12-1.17-.6-2.16-1.55-1.47-1.93zm-2.02 3.01c1.64.39 2.89 1.72 4.52 2.62 1.64.86 3.19 2.15 2.89 2.49-.3.34-1.59.26-4.09-1.2-1.9-1.12-4.22-2.19-5.34-2.71l-.04-1.81c.64.22 1.41.48 2.06.61zM113.7 171.02l5.43-3.14.04-.04 4.87 2.45.73 8.39.43 5.08 4.95-1.29 25.07-6.62c-2.07 7.1-5.04 14.02-9.6 19.79-1.98 2.54-4.35 4.73-6.93 6.54-2.8-.6-5.56-1.46-8.18-2.49-11.63-4.69-20.76-13.59-26.92-24.3 3.31-1.02 6.71-2.44 10.11-4.37zM97.64 43.27c.13-.82 3.53-3.87 5.17-5.29l-5.17 5.59c-.05-.08-.05-.17 0-.3zM93.2 34.8c2.93-2.58 3.96-2.11 3.14-1.25-.82.86-2.07 3.66-2.67 3.1-.64-.6-.47-1.85-.47-1.85zM86.65 16c1.42-1.42 1.94-.47 1.21.3s-2.2 4.56-2.33 4.99c-.39 1.08-.56.39-.69-.69-.12-1.07.39-3.18 1.81-4.6zm-4.04 22.33c1.29-.43 7.19.26 8.7.99 1.51.73 2.37 2.54 2.37 2.54-1.03-1.55-3.66-1.51-5.17-1.98-1.51-.52-4.13 0-5.47-.09-1.3-.09-1.73-1.03-.43-1.46zM48.45 164.74c-.26 1.16-1.21.56-.69-3.31 0 0 .95-.82 1.77-.65.86.22-.82 2.8-1.08 3.96zm8.1 4.6c-.43.56-1.08 1.2-2.11 2.15.86-1.33 1.12-1.81 1.25-3.05.09-.82.39-3.18.78-5.16.78.65 1.51 1.25 2.28 1.89.09.82.13 1.51.13 2.11-1.13.9-2.07 1.72-2.33 2.06zm5.81 4.73c-.86-.65-.3-1.2.69-.99.99.26 2.84 1.25 4.09 1.2 1.25-.04 3.19.65 4.31-.26 0 0-1.03 1.16-2.37 1.33-1.33.18-5.86-.68-6.72-1.28zm7.02 5.12s.17-.95.78-1.25c.6-.3.86 2.11 1.25 2.92.43.82-.43.95-2.03-1.67zm21.49 1.46c-.39-1.08-.69-2.19-1.03-3.27.65 0 1.34-.04 2.02-.09v6.06c-.34-.89-.64-1.79-.99-2.7zm25.24 26.2c-6.59-1.42-11.89-4.99-16.06-9.68v-15.14c5.73 8.9 13.39 16.39 23.26 21.42 2.15 1.08 4.35 2.06 6.63 2.88-4.4 1.25-9.09 1.51-13.83.52zm75.07-36.86c-5.25 11.83-13.35 23.01-25.11 29.08-7.24 3.7-15.33 4.77-23.26 3.79.34-.3.73-.6 1.08-.95 7.67-7.01 12.02-17.03 14.73-26.97l17.23-4.56 2.11-.56.82-2.02.95-2.37 1.29.77 1.77 1.03 1.94-.73 3.83-1.46c1.72-.65 3.53-1.25 5.34-1.85a88.37 88.37 0 0 1-2.72 6.8zm12.27 9.59c-.52.65-1.98 1.51-3.53 1.51s-1.34-.82-.52-.82 3.7-1.29 4.05-1.42c.82-.39.52.08 0 .73zm-1.07-7.96c-.56.39-3.66.39-5.08.47.26-.6.52-1.2.78-1.81.69-.04 1.64-.22 2.67-.43 2.37-.43 3.96-.22 4.48.22.51.43-2.21 1.08-2.85 1.55zm4.35-4.43c-3.06-.22-3.36-1.03-2.41-1.03.9 0 3.19-.86 3.19-.22-.01.65-.78 1.25-.78 1.25zm4 14.54c.95.86 1.68 2.02.95 2.24-.73.22-2.41-.69-3.7-2.32s0-1.76 0-1.76c.9-.49 1.76.98 2.75 1.84zm-1.72-21.64c-.39.3-2.41.22-4.13.13 1.29-.3 2.58-.6 3.83-.86.69.3.65.47.3.73zm5.51 11.01c-.95-.47-3.79-4.13-4.22-5.38-.43-1.25.13-2.71.13-2.71-.3 1.42 1.21 2.84 1.72 3.96.52 1.12 2.28 2.28 2.93 3.05.65.83.39 1.56-.56 1.08zm1.68-8.9c-1.46-1.51-1.59-1.94-.86-2.15.39-.09 1.64.69 2.89 1.42-.22.6-.39 1.33-.47 2.15-.52-.43-1.08-.95-1.56-1.42zm6.38 12.26c-1.08.69-1.34 1.16-2.15 2.49.39-1.38.65-2.24.95-2.84.17-.39.47-1.63.78-3.01.65-.3 1.42-.65 2.37-.99 4.13-1.51 4.74-1.68 4.48-.73s-5.27 4.3-6.43 5.08zm9.82 3.83c-3.23 2.24-4.18 1.63-3.27.9.9-.73 2.45-3.4 3.01-2.75.56.64.26 1.85.26 1.85zm6.72 15.05c0 1.08-.78 3.1-2.33 4.34-1.55 1.25-1.98.26-1.16-.43.82-.69 2.67-4.26 2.89-4.69.51-1.03.6-.29.6.78zm67.87-7.87c-1.42 1.25-3.06 1.81-3.66 1.46-.6-.34.22-1.25 1.21-1.85.99-.6 1.98-1.76 2.76-1.2-.05 0 1.11.3-.31 1.59zm23.56-134.2c.34-.69 1.42-.86 1.42-.86 2.93 1.81 2.8 2.8 1.85 2.32-.9-.47-3.61-.81-3.27-1.46zm-5.38-8.13c-.26-1.12.39-1.72 1.12-.73.56.82 1.29 4.43 1.42 6.49l-1.21-1.42c-.08-1.37-1.08-3.26-1.33-4.34zm-17.7 127.79c-.6 1.03-3.7 3.83-4.61 4.09-.95.26-1.03-.43-.34-1.03.73-.6 2.45-1.38 3.1-2.24.65-.9 2.2-1.94 2.15-3.23.04 0 .3 1.38-.3 2.41zm1.07-9.46c-1.29-.43.09-1.03.99-.86.9.17 1.08.09 1.68.09.34 0 .69.22.95.43l-.22 1.03c-.34.09-.78.04-1.08 0-.47-.13-2.1-.61-2.32-.69zm.95 4.64c-.39-.43-.13-.56 1.77-.86l-.09.39-.22.95c-.73-.17-1.29-.3-1.46-.48zm1.94 17.55c.26.17 2.63 1.76 3.36 1.94.73.17.82.9-.56.65-1.38-.26-2.54-1.25-2.93-1.89-.35-.7-.56-1.17.13-.7zm-1.04-10.88s-.6-.65-.47-1.25 1.98.56 2.8.69c.82.17.43.86-2.33.56zm150.66 6.58c-2.45.69-4.69.39-5.25-.34-.56-.73.95-1.38 2.5-1.51s3.4-.99 3.96.13c.04 0 1.24 1.03-1.21 1.72zm42.07-62.15c.26-1.16 1.21-.56.69 3.31 0 0-.95.82-1.77.65-.85-.22.83-2.84 1.08-3.96zm-8.09-4.65c.43-.56 1.08-1.2 2.11-2.15-.86 1.33-1.12 1.81-1.25 3.05-.17 1.42-.9 7.35-1.64 8-.73.65-.86.04-1.38-4.3-.13-.99-.17-1.85-.17-2.58 1.08-.81 2.07-1.67 2.33-2.02zm-12.02-18.79c.6 1.25 1.21 2.62 1.12 3.1-.13.77.56 3.48-.09 3.18-.65-.3-1.55-1.59-2.24-3.87-.17-.52-.3-1.03-.43-1.51l1.64-.9zm-.82 8.99s-.17.95-.78 1.25c-.6.3-.86-2.11-1.25-2.92-.42-.83.44-.96 2.03 1.67zm.26 10.79c.52.17 1.08.39 1.59.6-.22.13-.39.26-.56.39l-1.03-.99zm6.12-4.73c-.99-.26-2.84-1.25-4.09-1.2-1.25.04-3.19-.65-4.31.26 0 0 1.03-1.16 2.37-1.33 1.34-.17 5.86.69 6.72 1.33.81.6.3 1.2-.69.94zm-15.38-9.42c.17 1.59.22 1.98.78 2.92.6.95 3.06 4.9 2.93 5.68 0 .09-.04.13-.04.22l-7.32-7.05 3.62-1.98c-.01.04-.01.13.03.21zm13.78 22.63.22-1.08.52-2.37-.78-.73c.34-.56.86-.95 1.29-.86.04 0 .09.04.13.04h.04c.52.3.47 1.63.3 2.28-.22.69-.95 2.97-1.08 3.27 0 .04 0 .04-.04.09l-.6-.64zm4.78-27.87c-.34.77-.65 1.25-.69.34 0-.34-.22-3.53-.56-4.26-.09-.22-.13-.43-.09-.56l.34-.17c.17.04.43.3.73.82.71 1.37.58 3.05.27 3.83zm-29.28-75.19c-1.16-1.08-1.98-2.54-1.08-2.8.9-.26 2.93.9 4.48 2.97 1.55 2.06-.09 2.15-.09 2.15-1.16.56-2.15-1.24-3.31-2.32zm-5.08 12.86c.82.43 2.76 2.88 3.96 4.82l-.47.26-.56.3c-.04-.09-.09-.17-.13-.26-.6-1.38-2.71-2.88-3.49-3.87-.82-.99-.43-1.89.69-1.25zm-7.54 6.67c.52.17 1.98 1.2 3.4 2.45l-2.63 1.38c-.52-.26-.99-.47-1.34-.47-.17 0-.39-.04-.56-.04l-.56-3.96c.61.29 1.34.51 1.69.64zm-29.76 130.45a62.696 62.696 0 0 1-15.55 10.11c-3.57-2.41-6.76-5.55-9.48-8.73-.26-.3-.52-.6-.73-.9l23.43-3.48 2.33 3zm-20.76-95.53c.3-.26.56-.47.73-.56.3-.26.86-.52 1.38-.65l-2.11 1.21zm-9.52 5.77c-1.81 1.2-3.53 2.45-5.13 3.74-.17-.73-.39-1.46-.65-2.19 1.81-1.2 3.92-2.8 5.13-2.32.48.21.65.47.65.77zm13.53-16.09c1.08-.56 1.51-.95 2.24-1.94l.82 1.33-.17.34.13 1.29.22 2.06c-.9-.47-2.45.6-5.86 1.42-4.69 1.16-5.38 1.29-5 .26.38-.93 6.24-4.03 7.62-4.76zm-10.3-5.38c3.79-2.06 4.78-1.29 3.66-.6-1.08.69-3.1 3.44-3.62 2.67-.51-.77-.04-2.07-.04-2.07zm-5.51-17.24c.13-1.2 1.21-3.31 3.06-4.47 1.85-1.16 2.2-.04 1.25.6-.95.65-3.45 4.34-3.75 4.77-.69 1.08-.73.26-.56-.9zm-6.76 18.49c1.51-.17 7.67 2.02 9.13 3.18s1.94 3.31 1.94 3.31c-.73-1.94-3.57-2.49-5.08-3.4-1.46-.9-4.48-.99-5.86-1.42-1.38-.42-1.64-1.54-.13-1.67zm4.74 11.92c2.89.73 3.36 1.12 2.63 1.89-.73.77-6.89.09-8.57 1.03-.13.04-.22.13-.34.22l-.86-3.87c1.41-.13 4.64.08 7.14.73zm-21.88 111.96a63.142 63.142 0 0 1-11.67-4.22v-2.97l35.14-5.2c.43.65.9 1.25 1.38 1.89 2.58 3.35 5.6 6.62 9 9.42-10.77 3.44-22.48 3.96-33.85 1.08zm71.62-6.03c-5.69 4.86-13.78 7.79-21.23 6.32-2.2-.43-4.26-1.2-6.2-2.19a65.36 65.36 0 0 0 11.28-7.18c.99-.77 1.94-1.59 2.89-2.41l1.68 2.15 11.07-2.62 4.22 2.32a50.756 50.756 0 0 1-3.71 3.61zm26.79-12.34c-1.25-.22-.99-1.12.17-1.42.17-.04.34-.09.56-.09.65.43 1.29.77 2.02 1.08-1.2.34-2.28.52-2.75.43zm7.23 19.96c-1.51-1.08-2.33-2.92-2.41-3.96-.09-.99-.04-1.68.52-.73.22.39 2.15 3.61 2.93 4.22.81.6.47 1.54-1.04.47zm4.7-17.47.09-.04.13.13c-.05-.04-.14-.04-.22-.09zm19.21-37.93c.39.13.95.73 1.85 2.06.04.04.04.09.09.09l-1.94-2.15zm12.06 2.66c-.82-1.03-1.85-3.53-3.1-4.52-1.25-.99-2.67-3.18-4.52-3.18 0 0 1.98-.3 3.45.56 1.46.86 5.3 5.38 5.64 6.71s-.66 1.47-1.47.43zm14.04-12.25c.26-.39 2.63-3.7 2.84-4.69.22-.99 1.34-1.12.9.86-.39 1.94-1.85 3.57-2.84 4.04-.9.43-1.59.69-.9-.21zm4.35 11.61c-.47.86-1.77-.34-2.58-1.76-.82-1.42-2.41-2.88-1.59-3.96 0 0 .47-1.63 2.2.47 1.75 2.07 2.44 4.39 1.97 5.25z"/><g id="Group" transform="translate(167.853 70.068)"><path id="Shape_00000062914577033927952070000003163869755973124001_" class="st1" d="M183.65 84.29c1.68-.26 3.06-.09 3.75.13.65.22.73.35.73 1.06l-.17 9.6c-.04 2.73-1.25 4.67-4.52 5.15-2.2.31-3.49-.26-4.22-1.41-.34-.48-.22-.88.34-1.23l1.03-.7c.56-.4.82-.31 1.12.09.34.44.78.66 1.64.57 1.03-.13 1.59-.79 1.59-1.94l.04-.88c-.56.22-1.08.35-1.77.44-2.93.44-4.39-1.32-4.35-4.01l.04-2.03c.06-2.95 1.61-4.4 4.75-4.84zm.09 2.78c-1.25.18-1.81.79-1.85 1.98l-.04 1.98c0 .97.47 1.45 1.64 1.28.56-.09 1.08-.22 1.51-.35l.09-4.8c0-.04 0-.09-.09-.13-.36-.01-.74-.01-1.26.04z"/><path id="Shape_00000141423166574190380580000010693400736287522444_" class="st1" d="M195.11 82.62c1.68-.26 3.06-.09 3.79.13.6.22.69.4.69 1.06l-.13 8.19c0 .57-.22.79-.73 1.01-1.33.53-2.41.84-4 1.06-2.93.44-4.44-1.28-4.35-4.01l.04-2.64c.04-2.86 1.54-4.32 4.69-4.8zm.13 2.82c-1.25.18-1.85.7-1.85 1.98l-.04 2.6c0 1.06.6 1.45 1.68 1.28.52-.09.99-.18 1.46-.35l.09-5.37c0-.09-.04-.13-.13-.13-.4-.1-.74-.1-1.21-.01z"/><path id="Path" class="st1" d="M212.59 80.11c2.84-.4 4.05 1.19 4.05 3.87l-.09 5.9c0 .57-.22.79-.78.88l-1.55.22c-.56.09-.73-.09-.73-.66l.09-5.99c.04-1.01-.43-1.5-1.46-1.32-.52.09-.95.22-1.38.4.09.35.09.79.09 1.23l-.09 6.03c0 .57-.22.79-.73.88l-1.55.22c-.56.09-.73-.09-.73-.66l.09-5.99c.04-1.14-.47-1.45-1.46-1.32-.43.04-.78.18-1.21.35-.04 0-.09.09-.09.13l-.13 7.22c0 .57-.22.79-.73.88l-1.55.22c-.56.09-.73-.09-.73-.66l.13-8.41c0-.7.17-.97.82-1.32.86-.48 1.98-1.06 3.88-1.32 1.03-.13 1.81-.04 2.41.26.93-.38 1.92-.82 3.43-1.04z"/><path id="Shape_00000003094946344397154030000010216034969296138677_" class="st1" d="m222.28 79.8-.13 9.29c0 .57-.22.79-.73.88l-1.55.22c-.56.09-.73-.09-.73-.66l.13-9.29c0-.57.22-.79.78-.88l1.55-.22c.5-.09.68.09.68.66zm.17-3.43v.22c-.04 1.14-.39 1.54-1.46 1.67l-.43.04c-1.08.18-1.42-.13-1.38-1.28v-.22c.04-1.14.39-1.54 1.46-1.67l.39-.04c1.12-.18 1.46.13 1.42 1.28z"/><path id="Path_00000008860881407092771270000012666608784601772475_" class="st1" d="M229.77 77.64c2.93-.44 4.26 1.14 4.22 3.87l-.09 5.86c0 .57-.22.79-.78.88l-1.55.22c-.52.09-.73-.09-.73-.66l.09-5.94c.04-1.1-.52-1.5-1.64-1.32-.52.09-.99.22-1.42.4l-.09.09-.13 7.26c0 .57-.22.79-.73.88l-1.55.22c-.56.09-.73-.09-.73-.66l.13-8.41c0-.7.17-.97.82-1.32.95-.49 2.2-1.1 4.18-1.37z"/><path id="Shape_00000176005516320793824570000000898156343733199025_" class="st1" d="M241.01 76.01c1.68-.26 3.06-.09 3.75.13.65.22.73.35.73 1.06l-.17 9.6c-.04 2.73-1.25 4.67-4.52 5.15-2.2.31-3.49-.26-4.22-1.41-.34-.48-.22-.88.34-1.23l1.03-.7c.56-.4.82-.31 1.12.09.34.44.78.66 1.64.57 1.03-.13 1.59-.79 1.59-1.94l.04-.88c-.56.22-1.08.35-1.77.44-2.93.44-4.39-1.32-4.35-4.01l.04-2.03c.05-2.94 1.6-4.35 4.75-4.84zm.08 2.82c-1.25.18-1.81.79-1.85 1.98l-.04 1.98c0 .97.47 1.45 1.64 1.28.56-.09 1.08-.22 1.51-.35l.09-4.8c0-.04 0-.09-.09-.13-.35-.05-.74-.05-1.26.04z"/></g><g id="Group_00000003808140921037906920000002322894873855364495_" transform="translate(5.386 18.864)"><path id="Shape_00000115488126634978319300000017513252626761966256_" class="st2" d="M130.4 152.14c-.34 0-.73-.17-.95-.43-.34-.34-.43-.86-.22-1.33l.56-1.46c.13-.34.43-.64.78-.73l32.89-11.22c.13-.04.26-.09.43-.09.34 0 .69.13.95.39.34.39.43.9.26 1.37l-1.72 4.28c-.17.39-.47.64-.86.77l-31.77 8.39c-.13.02-.22.06-.35.06zm197.74-1.07c-.43 0-.82-.21-1.03-.51-.26-.34-.3-.77-.17-1.16l2.93-8.95-2.24 5.14c-.13.34-.43.56-.73.69-.13.04-.3.09-.43.09-.22 0-.39-.04-.56-.13l-1.34-.64c-.56-.26-.82-.86-.69-1.46l.26-.98h-3.06c-.43 0-.82-.21-1.03-.56-.26-.34-.3-.77-.17-1.16l5.22-15.07-1.08.6c-.22.13-.43.17-.65.17-.26 0-.52-.09-.73-.26-.39-.3-.6-.77-.52-1.28l.65-3.43a.964.964 0 0 1-.26-.17c-.3-.3-.47-.69-.43-1.11l.26-1.97c0-.09.04-.13.04-.21l-.13-.13c-.3-.3-.43-.77-.34-1.2l1.85-8.39c-10.65 12.29-42.46 25.18-64.27 32.97 32.42-9.42 53.97-22.52 54.23-22.65.22-.13.43-.17.69-.17.26 0 .52.09.73.21.43.3.65.81.56 1.28l-.95 5.05c-.09.39-.34.77-.73.94-25.13 11.86-56.6 20.34-56.9 20.42-.13.04-.22.04-.34.04-.13 0-.3-.04-.43-.09l-2.67-.98c-.52-.17-.86-.69-.86-1.28 0-.17.04-.34.13-.47-8.36 2.87-14.23 4.67-15.04 4.92-.13.04-.26.04-.39.04-.26 0-.52-.09-.73-.21-1.55-1.07-7.2-6.55-7.85-7.15a1.38 1.38 0 0 1-.34-1.33c.17-.47.56-.81 1.08-.86 5.95-.77 12.76-2.78 18.02-4.58l-8.02.56h-.09c-.39 0-.73-.17-.99-.47l-5.69-6.85-1.68-1.76c-.09-.13-.17-.21-.26-.34v.04c-.22.43-.6.69-1.03.73 0 0-1.12.09-3.02.3-8.84.98-31.3 3.94-48.54 10.45-.13.04-.3.09-.47.09-.22 0-.43-.04-.65-.17-.17-.09-4.27-2.53-9.01-7.75-.26-.26-.34-.64-.34-.98.04-.34.22-.69.52-.9 4.57-3.34 9.74-6.38 15.43-9.16-.04-.81-.04-1.63-.09-2.44-.22-4.58-.56-9.29-1.03-14-.43-.17-.78-.56-.82-1.03-.86-6.04-1.77-11.26-2.67-15.71-.47 3.3-1.98 12.25-4.96 20.38-.09.26-3.28 9.29-3.92 11.09-.17.51-.69.86-1.21.86l-11.81-.21c-.47 0-.91-.26-1.12-.69-.17-.3-4.14-7.75-11.38-32.07-.09-.34-.04-.69.13-.98l.56-.98c-.39-1.76-.78-3.43-1.03-4.84-.04-.34 0-.69.22-.98.13-.21 3.49-4.88 13.32-9.93.22-.09.43-.17.65-.17.39 0 .78.17 1.03.43.26.3.43.69.39 1.07 0 .34-.04 1.24-.09 2.48.22-.04.43-.04.65-.04.56 0 .95.09 1.12.13 1.68.34 1.72 1.41 1.68 1.76-.3 2.57-.52 5.1-.6 7.62-.22 4.88-.13 9.8.34 14.73.91-5.61 1.38-11.47 1.38-11.56.04-.39.22-.73.52-.94.13-.09.3-.17.47-.21 0-.21 0-.47.04-.69V80.9c0-.39.17-.73.47-.98.22-.21.52-.3.82-.3h.22s.52.09 1.12.21c.69.13 1.42.26 2.16.43.17.04.34.09.47.09h.04c3.19.69 5.78 1.58 7.72 2.61-1.34-6.08-2.59-10.53-3.49-13.36-5.3-.98-9.22-2.31-11.16-3.08-.99-.39-1.55-.64-1.55-.64-.52-.21-.82-.77-.73-1.33.3-2.7.99-5.87 2.03-9.42-1.08-.69-1.68-1.16-1.72-1.16-.34-.26-.56-.73-.52-1.16l.17-1.76c.04-.43.3-.77.65-.98.17-.09.39-.17.6-.17.22 0 .39.04.56.13.6.3 1.25.6 1.94.9-.17-.3-.22-.69-.09-1.03.73-2.1 1.29-3.47 1.34-3.51.13-.34.43-.6.78-.73.13-.04.3-.09.43-.09.22 0 .43.04.6.17 9.35 5.05 19.79 7.66 30.91 7.66 9.87 0 16.68-2.1 16.77-2.14.13-.04.26-.04.39-.04.47 0 .95.3 1.16.73.3.64.65 1.41 1.03 2.31.22.51.09 1.07-.3 1.46l2.07 5.1c.26.6 0 1.33-.6 1.63-2.2 1.16-5.22 2.31-6.98 2.91.09.6-.26 1.16-.86 1.37-5.09 1.8-10.35 3.04-15.73 3.64.22 3.17.39 6.72.52 10.62l3.36-1.11c.13-.04.26-.09.39-.09.26 0 .56.09.78.26.34.26.52.64.52 1.07l-.09 1.67c.22.04.39.13.56.26.34.26.52.64.47 1.07l-.65 10.7c-.04.56-.43 1.07-1.03 1.2l-4.22.9c-.04 6.29-.13 12.07-.26 16.36 5.82-2.06 9.7-2.95 9.87-3 .09-.04.17-.04.3-.04.34 0 .65.13.91.34l.78.73c1.55-.34 3.06-.64 4.53-.9h.22c.22 0 .39.04.6.13.22.13 5.47 2.78 10.65 7.36.34.3.52.81.39 1.28s-.47.81-.95.94c-.3.09-.6.17-.95.21l.65.64c1.12-.21 2.03-.39 2.72-.51h.22c.34 0 .69.13.95.43 1.21 1.33 2.28 2.65 3.15 3.98.04.04.09.13.09.17.17-.34.47-.64.86-.73.17-.04 16.42-4.02 33.58-8.78l.04-.3c-.17-.34-.26-.69-.22-1.07.22-2.31.43-4.8.65-7.62.04-.34.22-.64.47-.9l-6.64.6h-.13c-.39 0-.78-.17-1.03-.51-.26-.34-.34-.81-.17-1.24l4.27-10.53c-.82.77-1.85 1.5-3.02 2.18v.09c.13.56-.13 1.11-.6 1.37-4.1 2.35-8.75 3.6-11.77 4.15l7.46 8.91c.26.3.34.73.26 1.11-.09.39-.34.73-.73.9l-1.12.51c-.17.09-.34.13-.56.13-.17 0-.34-.04-.52-.13l.3.51c.17.3.26.69.13 1.07-.13.34-.39.64-.73.77-1.25.56-4.7 1.63-4.83 1.67-.13.04-.26.04-.39.04-.34 0-.69-.13-.95-.43l-10.69-11.65v9.33c0 .43-.22.81-.56 1.07-.22.13-.47.21-.73.21-.17 0-.3-.04-.47-.09l-.99-.39v.09c0 .47-.04.94-.04 1.37-.04.47-.3.86-.73 1.07-.17.09-.39.13-.56.13-.26 0-.52-.09-.73-.21l-1.12-.73c-.34-.21-.52-.56-.56-.94l-.04-.34-1.51-.39c-.47-.13-.86-.51-.95-.98l-.04-.13c-.52-.13-.95-.51-1.12-.69-.39-.43-.86-1.07-1.03-1.88-.39-1.76-.78-3.6-1.21-5.57l-.22-.13c-.26-.17-.47-.39-.56-.69l-.13-.43c-.82.04-1.25.09-1.25.09h-.09c-.47 0-.91-.26-1.12-.69l-3.19-5.82c-.22-.39-.22-.9.04-1.28.22-.39.65-.6 1.12-.6H218.81l-1.34-4.07c-.39.04-.78.13-1.12.17l-5.39.94h-.22c-.47 0-.95-.26-1.16-.73l-4.27-8.43c-.17-.3-.17-.69-.04-1.03-.26 0-.78.04-.82.04-.47 0-.91-.26-1.12-.64l-.69-1.2a1.36 1.36 0 0 1-.04-1.24c.17-.39.6-.64 1.03-.69 0 0 .47-.04 1.25-.09-.39-.64-.6-.98-.6-.98-.09-.13-.13-.26-.17-.39l-.26-.47c-.22-.39-.22-.86 0-1.24s.6-.64 1.08-.69c.04 0 4.91-.26 11.9-.26 7.37 0 18.23.3 28.28 1.67.65.09 1.12.64 1.12 1.28v.13c11.04 1.76 17.42 4.58 18.88 8.39.09.26.22.6.26.94.17-.13.39-.26.65-.3.34-.04.78-.13 1.16-.17.3-5.78.52-11.6.69-17.3.04-.86.69-1.76 2.16-1.76.3 0 .65.04.99.13.09-.56.13-1.07.22-1.63-18.32-1.11-36.17-1.54-36.34-1.54-.34 0-.69-.17-.95-.43l-6.6-7.62c-.34-.39-.39-.9-.22-1.33.22-.47.65-.77 1.12-.77l10.3-.47c-3.23-.21-6.12-.39-7.07-.47-.39-.04-.78-.26-.99-.6-.22-.34-.26-.77-.09-1.16l.99-2.53c.17-.47.65-.81 1.16-.81l2.54-.09-.39-2.14c-.09-.39.04-.77.3-1.07.26-.3.6-.47.99-.47.17 0 17.11.17 38.06 1.76.78-4.97 1.51-8.95 2.16-11.86.13-.6.65-1.03 1.25-1.03h.04l3.92.17.56-2.14c.13-.51.56-.9 1.08-.94l2.41-.39h.22c.34 0 .69.13.91.39.17.21.3.43.34.69l15.17-3.72c.09-.04.22-.04.3-.04.39 0 .73.17.99.47l3.02 3.64c.3.39.39.86.22 1.33-.17.47-.6.73-1.08.77l-11.81 1.11 8.41-.3c.43 0 .82.21 1.08.56.26.34.3.81.13 1.24l-4.61 11.17c-.17.43-.6.73-1.08.77l-.99.09c0 .04-.04.09-.04.17 1.25.17 2.5.3 3.71.47.56-1.16 1.03-2.18 1.51-3.13.22-.47.69-.73 1.16-.73.17 0 .34.04.52.09.39.17 1.29.6 1.64 1.5.17.47.17.98-.04 1.41-.22.47-.43.9-.65 1.37 5.99.86 11.55 1.8 16.6 2.78.39.09.69.3.86.64.17.34.22.73.09 1.07l-.26.73c8.23 2.1 13.06 4.5 14.66 7.32.65 1.16.82 2.44.43 3.64-3.71 12.2-17.03 18.45-26.21 21.37 9.7.43 17.72 1.33 19.87 3.9.56.64.78 1.37.69 2.18-.47 3.47-3.28 8.61-4.66 11l6.55-1.67 12.2-35.32c.13-.34.39-.64.73-.77l.86-.34-.17-1.8c-.04-.34.09-.73.34-.98l1.08-1.16c.17-.17.34-.3.56-.34l-.65-3.85c-.09-.51.17-1.07.65-1.33l1.38-.77c.22-.13.43-.17.65-.17.17 0 .3.04.47.09.34.13.65.43.78.77l1.29 3.72 6.94-2.44c.13-.04.3-.09.43-.09.22 0 .43.04.65.17.34.17.56.47.65.86l1.64 7.41c.3-.17.69-.3 1.08-.3 1.21 0 2.67.98 2.89 2.44l3.88 27.83c.52-4.88 4.18-16.4 25.69-28.52.22-.13.43-.17.65-.17.43 0 .82.21 1.08.56l.04.04c3.28-1.88 6.9-3.9 10.82-5.95.17-.09.39-.13.6-.13.26 0 .52.09.73.21.39.26.6.73.56 1.2 0 .04-.22 2.31-.56 5.39.3.26.47.69.43 1.11-.13 1.07-1.21 10.62-3.23 14.04-.17.26-.43.47-.73.56-.04 0-3.41 1.03-7.37 2.83-6.38 2.87-8.97 5.22-9.7 6.25.82.13 1.77.21 2.72.21 6.85 0 14.31-3.77 14.4-3.81.17-.09.39-.13.6-.13s.43.04.6.13c.39.21.65.56.69.98l.04.34 1.51-.34c.09-.04.22-.04.3-.04.13 0 .22 0 .34.04l-.09-1.03c-.17 0-.39-.04-.56-.13-.39-.17-.65-.56-.73-.98l-.26-1.84c-.04-.43.13-.9.47-1.16.04-.04 2.8-2.27 5.26-4.45l-3.19-32.8c-.04-.26.04-.51.13-.73.73-1.33 1.64-2.74 2.67-4.24.26-.34.65-.56 1.08-.56.09 0 .17 0 .3.04.22.04.39.13.52.26.69-.94 2.33-3.21 4.53-5.65l-7.29 5.22c-.22.17-.47.26-.78.26-.09 0-.17 0-.26-.04-.34-.09-.65-.3-.86-.6l-1.25-2.06c-.3-.47-.26-1.07.09-1.46l10.95-13.49c.26-.3.6-.47.99-.47.09 0 .22 0 .3.04.47.13.86.51.95.98l1.16 5.39.34-3c.04-.26.13-.47.26-.69l3.92-4.88c.26-.3.6-.47.99-.47.13 0 .26 0 .39.04.52.17.86.6.91 1.11.09 1.2.22 4.24.39 9.03.13 1.63.22 3.6.3 5.78.39.04.73.17 1.12.43.95.69 1.59 2.01 1.59 3.13l-.3 21.45c.47-.43.91-.86 1.38-1.28l.22-1.54c.04-.3.17-.56.39-.77l3.36-3.3H440.84l-1.47-.17c-.39-.04-.69-.26-.91-.56-.22-.3-.26-.69-.17-1.07l3.97-14.3c.09-.39.39-.69.73-.86l7.29-3c.17-.09.34-.09.52-.09.34 0 .73.17.95.43.39.43.43.98.17 1.5l-9.27 16.53 19.57-19.18c.26-.26.56-.39.91-.39h.13c.39.04.73.26.95.56 0 0 2.2 3.25 2.24 3.3 8.54-6.42 16.12-11.56 22.54-15.33.22-.13.43-.17.65-.17.26 0 .52.09.78.26.43.3.6.81.52 1.33l-4.35 20.12c-.04.3-.22.56-.47.73l-18.58 14.9 7.85-4.75c.22-.13.43-.17.69-.17.22 0 .43.04.65.17.43.26.65.69.65 1.16l-.22 5.39c0 .47-.26.86-.69 1.07l-32.2 17.6 24.44 23.29c.34.3.47.77.39 1.2l-.47 2.1 28.75 32.28c.43.47.43 1.2 0 1.67l-1.81 2.1c-.22.26-.56.43-.91.43h-.04c-.34 0-.65-.13-.91-.34l-10-9.55 3.79 4.88c.26.34.34.77.22 1.16s-.43.73-.82.86l-1.34.47c-.13.04-.3.09-.43.09-.26 0-.56-.09-.78-.26l-1.25-.94-2.11 2.87c-.22.3-.56.51-.95.51h-.09c-.34 0-.69-.13-.91-.39l-10.86-11c.04.34 0 .69-.17.98-.47.94-2.5 2.31-3.66 2.31-.52 0-.99-.21-1.29-.6-2.37-3.17-4.74-6.34-7.11-9.38a629.175 629.175 0 0 0-19.31-23.76c3.15 11.22 9.91 35.32 10.43 38.19.13.77.13.81-3.23 3.85-1.55 1.37-3.88 3.43-6.34 5.27-.26.21-.56.3-.91.3-.52 0-1.38 0-4.57-3.94-4.48 1.24-8.28 2.27-8.28 2.27-.13.04-.22.04-.34.04-.39 0-.73-.17-.99-.47-4.01-4.84-4.1-4.97-4.14-5.01-.26-.34-.26-.34-.47-8.35-.13-4.58-.3-10.66-.47-16.78-.26-8.99-.47-17.94-.6-22.05h-.04c-1.16.77-2.28 1.5-2.85 1.8-.22.13-.43.17-.65.17-.22 0-.39-.04-.6-.13-.26-.13-.47-.34-.56-.6-.6 4.67-1.85 9.29-1.9 9.55-.17.56-.65.94-1.25.94h-1.77c-.04 0-1.03-.04-2.63-.09v.34c0 .69-.56 1.24-1.25 1.28-1.85.09-3.66.13-5.43.13-16.81 0-22.76-3.43-23.97-4.28-.26-.09-.56-.26-.91-.56l3.88 19.4c.09.34 0 .69-.22.98-.22.3-.52.47-.86.51l-12.89 1.88h-.17c-.3 0-.6-.09-.82-.3l-.69-.56-3.1.43h-.13c-.65 0-1.21-.47-1.29-1.11l-1.51-12.8-1.08.39c-.13.04-.26.09-.43.09-.26 0-.52-.09-.73-.26-.34-.26-.56-.64-.56-1.03V111.09l-7.46 4.15-3.92 12.46c-.09.34-.34.6-.65.77l-.65.34-1.98 5.87c-.17.51-.69.86-1.21.86h-1.29c.13.21.17.43.17.64v13.49c0 .73-.56 1.28-1.29 1.28h-5.9v.12zm3.87-15.58.6-.34c-.13-.17-.17-.34-.22-.51l-.38.85zM285.5 104.1c-.78 2.31-1.47 4.45-2.07 6.29 5.47-1.67 10-3.21 13.54-4.54.13-.04.3-.09.47-.09.47 0 .91.26 1.12.69l.52.98c6.47-2.48 10.09-4.2 11.94-5.22-4.44.01-13.02.65-25.52 1.89zm64.32-4.92 3.32-.86-.82-7.02-2.5 7.88zm-112.25-5.05c-.04.09-.04.17-.09.26 5.69-1.2 9.44-2.44 11.04-3.3-.22-.04-.52-.09-.82-.17-1.81-.26-4.1-.43-6.85-.43-.73 0-1.51 0-2.33.04l-.95 3.6zm57.76-19.91c.34.39.43.9.22 1.37-.52 1.11-1.21 2.95-2.16 5.48 11.81-3.72 16.73-6.72 17.37-8.31.09-.17.04-.26 0-.34-.22-.26-1.81-1.71-14.48-3.3-.56 1.37-1.12 2.74-1.68 4.24l.73.86zm-4.96-5.7c-.78 2.53-1.55 5.01-2.28 7.45.04-.04.04-.13.09-.17.91-2.35 1.85-4.8 2.85-7.24-.23.01-.44-.04-.66-.04zm-4.18-32.49h.13l-.09-.09-.04.09zM82.55 149.23c-3.49 0-5.78-.43-5.86-.43-.13-.04-.26-.09-.39-.13-3.49-2.01-7.11-4.45-10.82-7.32h-3.15c-.3 0-.56-.09-.82-.3-28.74-22.69-41.42-45.42-43.4-49.15l-1.38 3.08c-.22.47-.69.77-1.16.77h-.13c-.56-.04-.99-.43-1.12-.98l-2.46-10.4c-.09-.34 0-.73.22-1.03l4.14-5.91-3.15 3.47c-.26.26-.6.43-.95.43-.13 0-.26 0-.39-.04-.47-.13-.82-.56-.91-1.07l-.56-4.02c-.09-.47.17-.98.56-1.24l6.38-4.24c.22-.13.47-.21.73-.21.13 0 .22 0 .34.04.34.09.65.34.82.69l.6 1.24c.22.47.13 1.03-.22 1.41l-1.08 1.2H18.69c.47.04.86.34 1.03.81l2.46 6.04c.13.3.13.6.04.9.09 0 .17-.04.26-.04h.09c.05 0 .13 0 .17.04l-.17-.47c-.13-.39-.09-.77.13-1.11l-2.16-5.05c-.17-.39-.13-.81.09-1.2l1.42-2.23c.22-.39.65-.6 1.08-.6.43 0 .86.21 1.08.6l1.94 2.95c2.5-3.98 4.96-6.68 6.64-8.31.26-.21.56-.34.91-.34.09 0 .17 0 .26.04.43.09.78.34.95.73 1.9 4.2 5.82 11.73 8.92 17.64l-1.21-3.47c-.13-.39-.09-.77.13-1.11l1.98-2.95c.26-.34.65-.56 1.08-.56h.09c.47.04.86.3 1.08.73l21.98 44.14 6.21 4.45.3-.9c-3.41-7.49-18.88-40.03-38.8-60.46-.65-.64-18.84-17.73-21.47-20.72a1.3 1.3 0 0 1-.26-1.24l.69-2.1c-3.84-2.65-6.6-4.5-7.5-4.92-.56-.26-.82-.9-.69-1.46l1.25-4.62c.09-.34.34-.64.65-.81.17-.09.39-.13.6-.13.13 0 .3.04.43.09 0 0 1.08.39 2.63.94-.04-.26 0-.51.09-.73 1.72-3.94 3.53-6.29 3.58-6.38.26-.3.65-.51 1.03-.51h.22c.05 0 3.84.69 9.83 2.31-.3-.21-.52-.6-.52-.98 0-.56.34-1.07.86-1.24l2.33-.81c.13-.04.3-.09.43-.09s.26 0 .34.04c.26.09 27.24 7.75 48.75 18.28.39.17.65.51.69.94l.73 4.37c.09.51-.13.98-.56 1.28-.22.13-.47.21-.73.21-.09 0-.17 0-.26-.04.95.6 1.42.9 1.47.94.47.3.69.9.52 1.41-.04.13-.09.26-.13.39.26.21.56.43.82.64.39.3.56.73.52 1.2-.91 6.17-2.8 11.17-4.27 14.3-.13.34-.43.56-.78.69-.13.04-.26.09-.39.09-.22 0-.43-.04-.6-.17l-18.3-10.04c16.64 18.54 27.5 40.97 33.75 56.6 6.81 17.13 9.7 30.01 9.74 30.14.13.56-.13 1.11-.6 1.37-6.81 3.82-14.09 4.63-19.01 4.63zm47.9-2.35c-.22 0-.47-.04-.65-.13l-.13-.09c-1.21-.6-2.5-1.37-3.75-2.27-.6-.43-1.16-.81-1.64-1.24-1.94-1.54-3.19-2.87-3.23-2.91a1.34 1.34 0 0 1-.34-.86V106.2c0-.3.09-.6.3-.81 0 0 .22-.3.6-.69-1.94-25.82-5.09-56.69-5.13-57.03a1.3 1.3 0 0 1 .39-1.07c.26-.26.56-.51.86-.77.04-.04.09-.09.17-.13l10.26-6.89.43-4.32c.04-.39.22-.69.52-.9l3.58-2.53c.22-.17.47-.26.73-.26.22 0 .43.04.6.13.43.21.69.69.69 1.16l-.09 3.94 2.33-1.67c.04-.04.09-.04.13-.09l1.03-.73c.22-.17.47-.26.73-.26.22 0 .39.04.56.13.43.21.69.64.73 1.11v.69c.09 3.17.26 14.69.13 29.8 0 .04 0 1.88-.04 4.88-.04 2.91-.09 5.82-.17 8.69l.91 2.61c.04.13.09.26.09.43 0 8.22.26 20.38.52 29.16.04 1.71.09 2.7.13 3.3l.82.21c.6.17 1.03.73.99 1.37l-.39 4.37.09.09s.26.26.65.69l2.28-.04 9.48-1.54h.22c.3 0 .6.09.82.3.3.26.47.6.47.98v11.35c0 .39-.17.77-.52 1.03-.3.26-7.93 5.99-14.92 9.33l-9.61 4.11c-.17.17-.34.34-.6.43-.47.07-.77.12-1.03.12zm-24.92-14.09c-1.12 0-2.2-1.24-2.5-2.1-.26-.69-.09-1.24.22-1.58-.13 0-.26-.04-.39-.09-.34-.13-.6-.43-.73-.77v-.04c-.13-.39-.3-.81-.43-1.24-1.81-5.35-7.8-23.55-9.7-34.08-.09-.47.09-.9.43-1.2l1.51-1.24c.09-.09.22-.17.34-.21-.17-1.41-.22-2.18-.22-2.23-.04-.47.17-.9.52-1.16 8.54-6.12 17.67-8.35 18.06-8.43.09-.04.22-.04.3-.04.3 0 .6.09.82.3.3.26.47.64.47 1.07-.17 2.48-.3 5.99-.47 10.32l.13.04c.47.21.78.69.78 1.24l-1.16 30.4c.13 0 .22-.04.34-.04.65 0 1.03.3 1.25.47l.09.04c.65.43 1.72 1.97 1.81 2.95.13 1.03-.47 1.76-1.12 2.06-2.28 1.24-8.79 4.88-9.44 5.27-.31.2-.61.29-.91.29zM83.68 82.82c-.34 0-.65-.13-.91-.39l-5.17-5.1c-.34-.34-.47-.81-.34-1.28l6.08-19.95c.17-.56.65-.9 1.25-.9.56 0 1.08.39 1.25.94l1.42 4.88c.04.17.04.34.04.51L84.97 81.7c-.04.47-.39.9-.86 1.07-.13.05-.26.05-.43.05zm12.63-4.83c-.26 0-.52-.09-.69-.21-.39-.26-.6-.64-.6-1.11.09-3.47-2.46-16.27-4.87-27.06-.13-.51.09-1.07.56-1.37l1.47-.94c.13-.09.3-.17.47-.17.22-.13.43-.17.65-.17h.13l-.04-.17c-.09-.51.17-1.07.65-1.33l.52-.3-.26-1.93c-.04-.39.09-.77.34-1.07l1.25-1.33c.17-.17.34-.3.6-.34a.85.85 0 0 1-.09-.34c-.04-.39.09-.73.34-1.03l9.35-10.19c.26-.26.6-.43.95-.43.13 0 .26 0 .39.04l3.92 1.16c.47.13.82.51.91.98.09.47-.09.94-.43 1.24l-7.03 5.69c1.29-.77 2.07-1.2 2.11-1.2.22-.13.43-.17.65-.17.22 0 .43.04.6.13.39.21.65.6.69 1.03.22 2.35.39 4.71.47 6.98.09 0 .17-.04.26-.04.13 0 .26 0 .39.04l2.41.73c.56.17.95.69.91 1.24-.26 15.59-5.17 25.43-5.39 25.86-.09.17-.26.34-.43.47-1.55 1.07-9.57 4.75-10.48 5.18-.3.08-.51.13-.68.13z"/><path id="Shape_00000142881288038088654640000008053321250703817093_" class="st2" d="M30.91 23.1s26.9 7.58 48.54 18.2l.73 4.37s-20.56-13.02-51.6-21.75l2.33-.82zm-13.15.81s8.66 1.54 20.73 5.57c25.86 8.43 42.2 19.44 42.2 19.44-.13.39-.26.77-.39 1.2.52.39 1.08.77 1.59 1.16-.91 6.17-2.89 11.17-4.14 13.96l-19.9-10.93-.3 1.28h-.04l-.22 1.03c32.5 35.75 43.67 86.7 43.67 86.7-6.6 3.81-13.66 4.62-18.45 4.62-3.41 0-5.65-.43-5.65-.43-3.75-2.14-7.41-4.67-10.99-7.49h-3.58c-31.47-24.83-43.32-49.24-43.32-49.24.91-2.18 2.11-4.5 3.45-6.76.13.3.26.64.43.98 2.37 5.48 5.82 12.72 9.61 17.77l.39-.81s-4.96-8.78-8.88-19.44c-.09-.17-.13-.39-.22-.6.13-.17.26-.39.34-.56l-2.41-5.65 1.42-2.23 3.06 4.67c2.8-4.8 5.65-8.01 7.5-9.8 3.45 7.62 13.36 25.95 13.36 25.95l.39-.9.26-.56-3.88-11.3 1.98-2.95 22.11 44.44 7.85 5.65 1.08-3.04c-2.8-6.17-18.67-40.2-39.27-61.31-.09-.09-18.79-17.68-21.38-20.64l.99-3c-1.9-1.33-6.98-4.84-8.45-5.57l1.25-4.62s1.59.56 3.62 1.28l3.75 1.33v-1.28l-3.02-1.84c1.7-3.81 3.46-6.08 3.46-6.08zm413.23.81c.13 1.33.26 4.92.39 8.99.26 3.98.47 9.46.65 15.84l.26-.17c.04-2.65.09-5.31.09-7.96 0-.43.17-.69.43-.69.13 0 .3.04.47.21.56.43 1.08 1.33 1.08 2.06-.09 6.59-.17 13.19-.26 19.74 0 1.58-.04 3.13-.04 4.71.56-.51 1.12-.98 1.64-1.5.78-.69 1.51-1.41 2.28-2.14l.26-1.97 24.53-24.06 2.2 3.25-3.92 4.11.09.6c9.74-7.54 19.53-14.56 28.15-19.61l-4.35 20.12-24.83 19.82-.43 2.01 16.25-9.8-.22 5.39-33.77 18.43 25.73 24.53-.6 2.74 29.18 32.75-1.81 2.1-15.09-14.43-.82 1.41 7.76 10.06-1.34.47-2.28-1.71-2.89 3.9-18.41-18.75-.56.98c1.98 2.61 4.01 5.22 5.95 7.84.3.39-1.77 1.84-2.54 1.84-.09 0-.17-.04-.22-.09-2.37-3.17-4.74-6.29-7.16-9.42a637.12 637.12 0 0 0-23.19-28.26s11.34 40.03 11.98 43.67c0 .04-4.53 4.41-9.1 7.84-.04.04-.09.04-.13.04-.73 0-2.97-2.7-4.1-4.11-4.83 1.33-9.1 2.53-9.1 2.53s-3.97-4.75-4.1-4.92c-.09-.13-1.38-48.81-1.38-48.81-1.64 1.07-3.97 2.61-4.74 3.08l-.6-6.64-.04-.6 1.08-.98v-.9l-2.33 1.37-.26-1.84s3.19-2.61 5.82-4.92l-3.23-33.44c.73-1.37 1.64-2.74 2.59-4.11l.78 4.37.78-1.33v-2.83s3.92-5.82 8.79-10.02l.17-1.67.47-4.24 3.99-4.88zm-7.93 2.57 1.59 7.45-11.25 8.09-1.25-2.06 10.91-13.48zm-120.83 2.44 3.02 3.64-18.06 1.67-.6-1.5 15.64-3.81zM107 29.77l3.92 1.16-12.11 9.8-1.16-.77L107 29.77zm26.38 2.32-.3 20.38 1.38-14.77 3.23-2.27 1.16-.81v.69c.04 2.87.26 14.51.13 29.76 0 0 0 1.88-.04 4.88-.04 2.87-.09 5.87-.17 8.91l.99 2.83c0 8.43.3 21.11.52 29.2.13 4.07.22 4.28.22 4.28l1.68.43-.47 4.97-1.68.47h2.16s.43.47 1.03 1.11l2.93-.09 9.57-1.54v11.35s-7.76 5.87-14.7 9.21l-10.69 4.58c-.04 0-.09-.04-.13-.04-1.29-.64-2.54-1.41-3.62-2.14-.52-.39-1.08-.77-1.55-1.16-1.9-1.54-3.1-2.83-3.1-2.83v-33.18s.39-.47.95-1.07c-1.98-26.2-5.17-57.59-5.17-57.59.26-.26.56-.51.82-.77l10.73-7.19.52-4.92 3.6-2.68zm152.12.3-.65 3.64-1.38 8.01h.26l1.47-6.34.04-.34 14.1-.47h.26l2.37-.09-4.61 11.13-1.81.17c-.26.77-.52 1.58-.82 2.44 2.07.26 4.14.51 6.21.77.65-1.33 1.29-2.65 1.94-3.94.6.26 1.16.77.95 1.2-.47.98-.91 1.97-1.34 2.95 6.25.86 12.37 1.84 18.19 3.04l-.78 2.06c10.26 2.44 16.81 5.61 15.56 9.68-5.56 18.2-34.27 22.69-34.27 22.69 9.79.3 29.14.6 28.54 4.92-.6 4.32-5.26 11.77-5.26 11.77-11.85 19.4-87.16 42.26-87.16 42.26-1.51-1.03-7.67-7.02-7.67-7.02 8.49-1.07 18.67-4.67 23.58-6.55v-.98l-13.84.98-5.69-6.85-1.68-1.8s16.77-4.07 34.44-8.99c.04-.51.13-1.07.17-1.67-.17-.17-.3-.34-.26-.56.22-2.53.47-5.1.65-7.62l.52-.13 2.03-.51 6.42-1.71.3-.69.09-.17-6.64.64-1.9.17-.6.04-7.76.73 6.55-16.23c.69-.09 1.42-.21 2.24-.34.34-6.12.56-12.25.73-18.37 0-.34.39-.51.86-.51.73 0 1.64.39 1.59.98-.04 1.46-.09 2.91-.13 4.32.39-3.13.78-6.21 1.21-9.29-19.01-1.2-37.76-1.63-37.76-1.63l-6.6-7.58 22.85-1.03-.52-1.24s-16.47-.98-19.01-1.2l.99-2.53 4.01-.13-.65-3.6s17.46.17 39.18 1.88c.82-5.18 1.59-9.63 2.33-12.97l5 .26.78-3.17 2.38-.48zm-1.42 52.7c.73-.17 1.47-.39 2.2-.6.99-2.74 2.03-5.52 3.1-8.26 1.12-2.95 2.28-5.87 3.49-8.78-1.12-.13-2.24-.21-3.41-.34-1.8 5.69-3.61 11.82-5.38 17.98zm7.2-2.01c11.9-3.6 22.5-8.01 20.56-11.3-.99-1.67-7.54-3-16.42-4.02-.82 1.97-1.59 3.9-2.37 5.87l1.29 1.46c-.69 1.61-1.81 4.48-3.06 7.99zm-9.87 29.29c6.03-1.84 11.6-3.64 15.99-5.31l1.08 1.97c12.16-4.58 18.32-7.96 13.62-8.14h-.99c-5.35 0-16.21.94-26.6 2.01-1.21 3.69-2.28 7.03-3.1 9.47zm-3.97-1.12c.56-1.88 1.12-3.77 1.72-5.65.22-.73.47-1.46.69-2.23-.22.04-.43.04-.65.09-.64 2.66-1.24 5.27-1.76 7.79zM107.43 37.52c.43 4.75.6 8.95.6 12.63l1.42-4.5 2.37.73c-.26 15.46-5.26 25.3-5.26 25.3-1.47 1.03-10.26 5.05-10.26 5.05.13-4.58-3.84-22.65-4.91-27.36l1.47-.94.04.09.39-.21 1.98 6.04.52-.6-1.16-7.11 1.29-.73-.39-2.78 1.25-1.33 1.34 1.54c5.04-3.42 9.31-5.82 9.31-5.82zm343.04 1.33-9.79 17.47-1.47-.17 3.97-14.3 7.29-3zm-282.69 8.14c11.38 6.17 22.67 7.79 31.55 7.79 10.22 0 17.16-2.18 17.16-2.18.3.69.65 1.46 1.03 2.27-2.76 1.37-4.53 1.63-4.53 1.63l-.04.39c2.33-.3 4.1-.98 4.1-.98l2.24 5.52c-3.62 1.84-7.93 3.21-7.93 3.21l.22 1.03c-5.82 2.06-11.47 3.21-16.68 3.68.3 3.72.47 7.79.6 11.95l-2.67 1.97-.34.26-.99.73 1.03-.34 3.06-1.03 5-1.67-.17 3.3 1.12-.3-.65 10.7-5.22 1.11c0 7.62-.17 14.56-.3 19.22 6.81-2.53 11.51-3.6 11.51-3.6l1.25 1.2c1.72-.39 3.41-.77 5.13-1.07 0 0 5.26 2.65 10.35 7.15-12.29 2.95-28.32 9.16-28.32 9.16l-.04.17c8.28-2.61 26.42-7.36 26.42-7.36l.6.64.86.9c1.42-.26 2.59-.47 3.41-.64 1.08 1.2 2.11 2.48 3.02 3.81 0 0-1.12.09-3.06.3-8.19.9-31.3 3.9-48.84 10.49 0 0-4.05-2.35-8.71-7.49 5.26-3.81 10.82-6.94 15.95-9.38-.04-1.11-.09-2.18-.13-3.3-.22-5.01-.6-9.98-1.16-14.94l-.73-.17c-2.33-16.61-5.26-27.27-6.98-32.67-5.52-.98-9.66-2.35-11.68-3.13-.95-.39-1.47-.6-1.47-.6.39-3.34 1.29-7.02 2.24-10.15-1.47-.86-2.33-1.5-2.33-1.5l.17-1.76c.73.39 1.51.73 2.28 1.03.22.09.43.17.65.26.04 0 .04 0 .09.04.39.17.78.3 1.16.47 1.94.77 3.97 1.41 5.86 1.93 5.73 1.58 10.78 2.31 12.11 2.48v-.77c-6.08-1.33-10.43-2.7-13.54-3.94-2.33-.9-3.92-1.71-4.91-2.31 0 0-.04 0-.04-.04.73-2.1 1.29-3.47 1.29-3.47zm18.32 63.84c-.91-16.66-3.84-34.21-5.17-41.57-.65-.09-1.25-.13-1.85-.21.86 3.34 1.64 6.68 2.33 10.06 1.85 8.82 3.19 17.77 4.05 26.8.17 1.63.3 3.25.39 4.88l.25.04zM84.58 56.49 86 61.37l-2.33 20.17-5.17-5.1 6.08-19.95zm266.01 1.37 1.72 4.97 8.15-2.87 5.39 24.45c-.69-5.1-1.42-10.19-2.11-15.29-.09-.73.26-1.03.73-1.03.65 0 1.51.6 1.59 1.37.47 3.25.91 6.55 1.38 9.8.86 6.04 1.68 12.07 2.54 18.15l5.52 27.49-12.89 1.88-1.12-.9-3.71.43-1.72-14.39-2.63.86v-1.5l2.33-1.88.04-.04 4.48-3.64.17-.69-4.87 2.7h-.04l-11.94 6.64-4.1 12.97-1.16.56-2.16 6.38h-2.59l.86-4.71-1.68.73-6.42 14.64-1.34-.64.6-2.57h-4.7l6.29-18.24-4.05 2.27.91-4.97-.95.21.26-1.97 4.66-2.14v-.39l-5.13 1.11 2.41-11.05 8.41-2.14 12.46-36.01 1.77-.73-.22-2.74.78-.81.3-.34.73 3.25 2.11 9.12.47.34-1.42-8.26-.26-1.58-.6-3.51-.78-4.67 1.53-.62zm-2.71 43.12 6.68-1.67-1.68-14.13-5 15.8zm62.16-36.74s-.26 2.91-.73 6.72l.6-.26s-1.12 10.23-3.06 13.53c0 0-3.41 1.03-7.54 2.87-8.54 3.85-10.69 6.85-10.69 7.66s.95.98.95.98c1.08.21 2.16.3 3.28.3 7.29 0 14.96-3.94 14.96-3.94l.22 1.76 2.89-.69c.13 5.44-2.2 13.92-2.2 13.92h-1.77s-5-.13-11.38-.43l.17.51c3.71.43 7.24.77 7.24.77v.73c-1.9.09-3.71.13-5.35.13-18.54 0-23.36-4.15-23.36-4.15s-2.2-.34-1.85-5.27c0 0-2.28-14.21 25.05-29.63l.73 1.07c3.48-2.08 7.4-4.22 11.84-6.58zm-251.53 4.28c.09 0 .13.04.13.13-.04 1.24-.3 7.06.04 13.79.3-4.37.73-8.61.82-9.63 0-.13.13-.26.26-.3.26-.04.52-.04.73-.04.52 0 .82.09.82.09.39.09.69.21.69.34-.3 2.57-.52 5.14-.6 7.71-.34 7.19.04 14.39 1.12 21.49.09.17.17.34.26.47 1.94-6.21 2.93-18.62 2.93-18.62l.95.26c.04-.69.09-1.46.13-2.18v-1.07s.47.09 1.12.21c.56.09 1.29.21 2.11.39.17.04.34.09.43.09 2.28.51 5.22 1.33 7.46 2.53 0 0-1.42 11.47-5.09 21.45-.09.26-3.92 11.09-3.92 11.09l-11.77-.21s-4.01-7.36-11.25-31.81l.82-1.41c-.47-2.01-.86-3.81-1.12-5.27 0 0 3.19-4.54 12.85-9.51.04.01.08.01.08.01zM17.89 71.73l.56 1.24L12.07 80l-.56-4.02 6.38-4.25zm.65 4.59L21 82.35l-5.43 12.07-2.46-10.4 5.43-7.7zm198.16.55c7.8 0 18.36.3 28.11 1.67v1.2c16.38 2.44 22.37 7.02 17.63 12.72-1.03 1.2-2.54 2.31-4.4 3.25l.22 1.03c-5.17 3-11.29 4.07-13.58 4.37l8.88 10.62-1.12.51-4.14-3.34h-.65l2.63 4.28.82 1.37c-1.16.51-4.7 1.63-4.7 1.63l-12.8-14.04c-.13 0-.22.04-.34.04v12.25l-2.33-.9v-1.5l-.43-.13c0 1.16 0 2.31-.04 3.43 0 .47-.04.94-.04 1.37l-1.12-.73-.09-.9-.04-.34-2.37-.6-2.2-10.88c-.26.04-.56.04-.82.09.73 3.17 1.42 6.29 2.11 9.46.04.13 0 .21-.04.21-.13 0-.39-.26-.47-.3-.3-.34-.6-.81-.73-1.28-.43-2.06-.86-4.07-1.34-6.08l-.65-.43-.47-1.41c-1.42.13-2.24.17-2.24.17l-3.23-5.82h1.42c.73 0 1.42 0 2.2-.04l-2.2-6.72c-.82.13-1.59.21-2.2.3l-5.43.94-4.27-8.43.43-.13c.43-.04 1.08-.13 1.85-.21 2.03-.21 5.09-.43 9.22-.51h1.59c1.9 0 3.97.04 6.21.13l-.43-.47s-3.36-.26-7.85-.43c-1.72-.09-3.58-.13-5.52-.17H207.6c-.86 0-1.77.04-2.59.04-.3 0-.56.04-.86.04l-.69-1.2s1.34-.09 3.36-.21c-.99-1.67-1.68-2.83-1.68-2.83h.09l-.47-.86c.09.03 4.92-.23 11.94-.23zm9.31 6.3-.17-.17.04.17h.13zm9.62 12.88c11.08-2.06 19.36-5.31 12.24-6.38-2.03-.3-4.44-.43-7.03-.43-1.08 0-2.2.04-3.32.04l-1.21 4.54-.47.18c-.04.68-.13 1.37-.21 2.05zm-2.29.39c.09 0 .17-.04.22-.04.3-2.31.52-4.62.6-6.98-.26 0-.56.04-.82.04v6.98zm-10.77 1.28c.34 0 .65-.04.99-.09l-1.42-7.06c-.43.04-.82.09-1.25.17.56 2.32 1.12 4.63 1.68 6.98zM112.86 79.66c-.17 2.91-.34 6.89-.52 11.26l.91.39-1.21 31.47-6.03 3.47c-1.55.98-2.76 1.58-2.76 1.58v-.04c-.13-.43-.3-.86-.43-1.24-1.68-5.01-7.76-23.42-9.66-33.87l1.51-1.24 1.42 3.64c-.6-4.37-.86-7.19-.86-7.19 8.45-6.05 17.63-8.23 17.63-8.23zm201.39 40.76-.95 5.05c-25.3 11.95-56.69 20.34-56.69 20.34l-2.67-.98c36.22-9.64 60.31-24.41 60.31-24.41zm-200.49 2.56c.26 0 .39.17.6.3.39.26 1.21 1.46 1.29 2.06.09.6-.39.77-.39.77-2.37 1.33-9.53 5.31-9.53 5.31-.04.04-.09.04-.17.04-.56 0-1.64-1.37-1.25-1.67 1.55-1.24 3.1-2.44 4.7-3.64 0 0 .17-.13.43-.3.86-.64 1.77-1.28 2.63-1.93.3-.21.56-.43.78-.56.04 0 .04-.04.04-.04.13-.09.22-.17.34-.26.04-.04.09-.04.13-.04.19.01.27-.04.4-.04zm219.72 13.15.34.17v13.49h-5.69l4.27-13.02 1.08-.64zm-169.58 2.05-1.72 4.28-31.73 8.35.6-1.46 32.85-11.17zm-32.89 7.28c-.26.09-.47.13-.56.13h-.09l.65-.13zM30.91 20.53c-.3 0-.56.04-.86.13l-2.33.81c-.78.26-1.38.9-1.64 1.67-4.74-1.2-7.67-1.76-7.89-1.8-.17-.04-.3-.04-.47-.04-.78 0-1.55.34-2.03.98-.09.09-1.85 2.4-3.58 6.21-.82-.3-1.29-.47-1.29-.47-.3-.09-.56-.17-.86-.17-.43 0-.82.09-1.21.3-.65.34-1.12.94-1.29 1.63L6.21 34.4c-.3 1.16.26 2.4 1.34 2.95.73.39 3.23 2.01 6.55 4.28l-.39 1.16c-.3.86-.09 1.8.52 2.48 2.63 3 20.3 19.65 21.51 20.77 3.06 3.13 6.03 6.55 8.84 10.15-.39.21-.69.47-.95.86l-1.51 2.27c-2.37-4.54-4.7-9.21-6.08-12.16-.34-.77-1.03-1.33-1.85-1.46-.17-.04-.34-.04-.47-.04-.65 0-1.29.26-1.81.73-1.51 1.46-3.58 3.68-5.78 6.89l-.86-1.33a2.563 2.563 0 0 0-2.16-1.16c-.86 0-1.68.47-2.16 1.2l-.09.09c-.04-.09-.04-.17-.09-.26l-.56-1.24c-.3-.69-.91-1.2-1.64-1.41-.22-.09-.47-.09-.69-.09-.52 0-.99.13-1.42.43l-6.38 4.24c-.82.56-1.25 1.5-1.12 2.48l.56 4.02c.13.9.73 1.71 1.59 2.06l-.11.17c-.43.6-.56 1.33-.39 2.06l2.46 10.4a2.566 2.566 0 0 0 2.28 1.97h.26c.99 0 1.94-.6 2.37-1.54l.3-.69c1.55 2.7 4.35 7.19 8.58 12.84 6.38 8.52 17.46 21.41 33.93 34.42.47.34 1.03.56 1.59.56h2.72c3.58 2.78 7.16 5.18 10.6 7.15.26.13.52.26.82.3.09 0 2.5.47 6.12.47 5.09 0 12.63-.86 19.74-4.97a2.5 2.5 0 0 0 1.21-2.78c-.13-.51-2.93-13.14-9.79-30.36-3.88-9.68-9.53-21.96-17.2-34.34l.17.17 5.17 5.1c.47.47 1.16.73 1.81.73.3 0 .56-.04.86-.13a2.61 2.61 0 0 0 1.72-2.14l2.33-20.17c.04-.34 0-.69-.09-1.03l-1.42-4.88c-.3-1.11-1.34-1.84-2.46-1.84-.22 0-.39.04-.6.09.13-.77.3-1.54.39-2.35.13-.94-.26-1.84-.99-2.4-.04-.04-.13-.09-.17-.13.04-.77-.26-1.58-.82-2.1.3-.51.47-1.16.34-1.8l-.73-4.37c-.13-.81-.65-1.5-1.42-1.88-21.59-10.56-48.7-18.27-48.96-18.36-.34.09-.56.05-.82.05zm45.22 56.94c-3.53-5.65-7.46-11.26-11.85-16.7l12.16 6.64c.39.21.82.3 1.25.3.26 0 .56-.04.82-.13l-2.46 8.05c-.18.69-.13 1.28.08 1.84zm-6.12 43.8L54.49 90.1c8.84 13.49 15.43 26.76 18.58 33.4l-3.06-2.23zm360.98-99.12c-.78 0-1.51.34-2.03.98l-3.28 4.11-.09-.43c-.22-.98-.95-1.76-1.94-1.97-.22-.04-.39-.09-.6-.09-.78 0-1.51.34-2.03.94l-10.95 13.49c-.69.86-.78 2.01-.17 2.95l1.25 2.06c.39.6.99 1.03 1.68 1.2h.09c-.65.98-1.21 1.93-1.72 2.87-.26.43-.34.94-.3 1.46l1.25 13.14c-.17-.26-.43-.51-.69-.69-.43-.3-.95-.43-1.42-.43-.43 0-.82.09-1.21.3-3.62 1.88-6.98 3.72-10.09 5.48-.39-.21-.82-.34-1.25-.34s-.86.13-1.29.34c-11.77 6.64-19.79 13.92-23.8 21.66-.3.6-.56 1.16-.82 1.67l-1.64-11.9-.91-6.55-.47-3.25c-.26-1.97-2.16-3.55-4.18-3.55h-.09l-1.34-6.12c-.17-.73-.6-1.33-1.25-1.71-.39-.21-.82-.34-1.25-.34-.3 0-.56.04-.86.13l-5.69 2.01-.91-2.53c-.26-.73-.82-1.28-1.55-1.54-.3-.13-.6-.17-.91-.17-.43 0-.86.13-1.29.34l-1.38.77c-.95.51-1.47 1.58-1.29 2.65l.52 3-.13.13-.3.34-.78.81c-.47.51-.73 1.24-.69 1.97l.09.86c-.69.3-1.21.86-1.47 1.54l-11.98 34.68-2.97.77c1.42-2.65 3.02-6.17 3.36-8.86.17-1.11-.17-2.27-.95-3.17-1.9-2.23-6.68-3.34-14.74-3.98.22-.09.43-.17.65-.3 11.04-4.75 18.15-11.6 20.65-19.78.47-1.58.3-3.21-.56-4.67-1.72-3-6.25-5.44-14.18-7.58.04-.51-.04-1.03-.3-1.5-.39-.64-.99-1.11-1.72-1.28-4.57-.94-9.57-1.8-14.96-2.57.26-.73.26-1.5 0-2.23-.39-.94-1.25-1.76-2.33-2.23-.34-.13-.65-.21-.99-.21-.6 0-1.21.21-1.64.6l3.15-7.66c.22-.56.26-1.16.09-1.71l1.03-.09c.95-.09 1.77-.69 2.16-1.58.39-.9.22-1.88-.39-2.61l-3.02-3.64c-.52-.6-1.25-.94-1.98-.94-.22 0-.43.04-.6.09l-14.18 3.47c-.04-.04-.09-.09-.09-.13-.47-.51-1.16-.77-1.85-.77-.13 0-.26 0-.39.04l-2.41.34c-1.03.17-1.85.9-2.11 1.93l-.3 1.11-2.89-.13h-.13c-1.21 0-2.28.86-2.54 2.01-.6 2.7-1.25 6.34-1.98 10.75-20.48-1.5-36.81-1.67-36.99-1.67h-.04c-.78 0-1.47.34-1.98.9-.52.6-.69 1.37-.56 2.1l.13.73-1.03.04c-1.03.04-1.94.69-2.33 1.63l-.99 2.53c-.22.6-.22 1.24 0 1.84l-.99.04c-.99.04-1.85.64-2.24 1.54-.39.9-.22 1.97.43 2.7l6.6 7.62c.47.56 1.16.86 1.9.9.17 0 15.73.39 32.68 1.33-.6.56-.95 1.37-.95 2.14-.13 5.14-.34 10.4-.6 15.67-2.03-3.85-8.15-6.59-18.67-8.35a2.547 2.547 0 0 0-2.03-1.54c-10.09-1.41-21.04-1.71-28.45-1.71-7.03 0-11.77.26-11.98.26-.91.04-1.72.56-2.11 1.33-.43.77-.43 1.71.04 2.53l.13.21c-.26.09-.52.26-.78.43-.43-.26-.91-.39-1.38-.39-.26 0-.56.04-.82.13l-1.72.56a202.5 202.5 0 0 0-.39-7.75c5.04-.64 10-1.84 14.79-3.55.78-.3 1.38-.9 1.59-1.63 1.68-.6 4.14-1.58 6.38-2.74 1.16-.6 1.72-2.01 1.21-3.25l-1.81-4.5c.3-.64.34-1.41.04-2.1-.39-.9-.73-1.71-1.03-2.35-.43-.94-1.38-1.5-2.33-1.5-.26 0-.52.04-.78.13-.04 0-6.72 2.06-16.38 2.06-10.95 0-21.12-2.53-30.3-7.49-.39-.21-.82-.3-1.25-.3-.3 0-.6.04-.86.13-.69.26-1.25.77-1.51 1.46-.04.04-.52 1.24-1.16 3.08-.09-.04-.13-.09-.22-.13a2.73 2.73 0 0 0-1.16-.26c-.43 0-.86.09-1.25.3-.73.39-1.25 1.16-1.34 1.97l-.17 1.76c-.09.9.3 1.8.99 2.31.04 0 .39.26.99.69-.91 3.25-1.51 6.21-1.81 8.73-.13 1.11.47 2.14 1.47 2.61.04.04.65.3 1.64.69 1.85.73 5.6 2.01 10.6 3 .73 2.4 1.68 5.69 2.67 10.02-1.59-.6-3.45-1.16-5.56-1.63h-.04c-.13-.04-.3-.09-.52-.13-.73-.17-1.47-.3-2.2-.43-.65-.13-1.12-.21-1.12-.21-.17-.04-.3-.04-.47-.04-.6 0-1.21.21-1.68.6-.6.47-.91 1.2-.91 1.97v.9c-.09.09-.17.13-.26.21 0-.47.04-.9.04-1.37.13-2.48.3-5.01.6-7.54.04-.26.22-2.57-2.67-3.17a7.91 7.91 0 0 0-.73-.13c0-.56.04-.94.04-1.16.04-.73-.22-1.46-.73-2.01-.52-.56-1.25-.86-1.98-.86-.43 0-.86.09-1.25.3-9.96 5.39-13.49 10.32-13.62 10.53-.39.56-.56 1.24-.43 1.93.26 1.28.56 2.78.91 4.41l-.3.51c-.34.6-.43 1.33-.22 2.01 7.24 24.45 11.29 31.98 11.47 32.33.04.09.09.13.13.21l-9.14 1.5-1.51.04.34-3.68c.13-1.24-.65-2.35-1.81-2.7-.04-.56-.04-1.33-.09-2.31-.22-8.78-.52-20.94-.52-29.11 0-.3-.04-.56-.13-.81l-.82-2.4c.09-2.83.13-5.65.17-8.48.09-2.87.04-4.71.04-4.92.13-15.07-.04-26.59-.13-29.8v-.69c-.04-.94-.56-1.8-1.42-2.23-.39-.17-.78-.26-1.16-.26-.52 0-1.03.17-1.51.47l-.95.69c-.09.04-.13.09-.22.13l-.26.17v-1.37c0-.98-.52-1.84-1.38-2.31-.39-.3-.78-.43-1.21-.43-.52 0-1.03.17-1.51.47l-3.58 2.53c-.6.43-.99 1.11-1.08 1.84l-.34 3.72-9.74 6.55c-.09.09-.22.17-.3.26-.3.26-.56.51-.86.81-.6.56-.86 1.33-.82 2.14.04.3 3.15 30.78 5.09 56.47-.17.17-.26.3-.26.3-.39.47-.6 1.03-.6 1.63v33.18c0 .64.26 1.28.69 1.76.04.04 1.34 1.46 3.36 3.04.52.43 1.08.86 1.72 1.28 1.29.9 2.59 1.67 3.84 2.31-.17.21-.3.43-.39.64l-.6 1.46c-.34.9-.17 1.93.47 2.65.52.56 1.21.86 1.94.86.22 0 .43-.04.65-.09l31.73-8.35c.78-.21 1.42-.77 1.72-1.54l1.72-4.2c.13-.3.22-.69.22-1.03 0-1.41-1.12-2.53-2.54-2.57h-.26c-.26 0-.47.09-.73.17L144.8 142c6.21-3.38 12.16-7.88 12.41-8.09.65-.47 1.03-1.24 1.03-2.06V120.5c0-.47-.13-.94-.39-1.33l10.99.17h.04c1.08 0 2.07-.69 2.46-1.71 1.12-3.17 3.71-10.49 3.92-11.13 1.72-4.67 2.93-9.63 3.75-13.66.47 2.7.91 5.61 1.38 8.73.09.64.43 1.2.91 1.63.43 4.45.78 8.91.99 13.27.04.51.04 1.03.09 1.58-5.43 2.7-10.43 5.65-14.87 8.91-.6.43-.95 1.07-1.03 1.8-.09.73.17 1.46.65 1.97 4.87 5.39 9.14 7.88 9.31 8.01.39.21.86.34 1.29.34.3 0 .6-.04.91-.17 17.07-6.42 39.4-9.38 48.19-10.36 1.9-.21 2.97-.3 3.02-.3.3-.04.56-.09.82-.21l1.08 1.16 5.65 6.81c.22.26.43.43.73.6-2.97.77-5.99 1.41-8.84 1.8-.99.13-1.81.81-2.11 1.71-.3.94-.04 1.97.65 2.65 1.03 1.03 6.38 6.17 7.97 7.28.43.3.95.47 1.47.47.26 0 .52-.04.78-.13.09-.04 5.47-1.67 13.54-4.41.3.56.78.98 1.42 1.24l2.67.98c.3.09.6.17.91.17.22 0 .43-.04.69-.09.3-.09 31.9-8.56 57.12-20.51.73-.34 1.29-1.03 1.42-1.84l.91-4.97c.04-.17.04-.39.04-.56 0-1.16-.78-2.14-1.85-2.48 2.5-1.67 4.66-3.34 6.47-4.92l-.91 4.11c-.17.69 0 1.41.39 1.97l-.22 1.63c-.09.69.09 1.41.52 1.93l-.52 2.7c-.17.98.22 1.97 1.03 2.57.34.26.73.39 1.16.47l-4.35 12.63c-.26.77-.13 1.67.34 2.31.47.69 1.25 1.07 2.11 1.07h1.47c0 .94.56 1.88 1.42 2.31l1.34.64c.26.13.56.21.86.26l-.47 1.37c-.26.77-.13 1.63.34 2.31.47.69 1.25 1.07 2.11 1.07h5.69c1.42 0 2.59-1.16 2.59-2.57v-12.84c1.03-.09 1.94-.77 2.28-1.76l1.81-5.35.17-.09c.65-.3 1.12-.86 1.29-1.54l3.79-11.99 5.13-2.87c.13.6.52 1.16 1.03 1.5.43.3.99.47 1.51.47.13 0 .26 0 .43-.04l1.34 11.26a2.593 2.593 0 0 0 2.59 2.27h.3l2.59-.3.26.21c.47.39 1.03.56 1.64.56.13 0 .26 0 .39-.04l12.89-1.88c.69-.09 1.34-.47 1.72-1.07.39-.56.56-1.28.43-1.97l-3.32-16.61c2.97 1.41 9.7 3.55 23.06 3.55 1.77 0 3.58-.04 5.47-.13a2.6 2.6 0 0 0 2.28-1.58c.95.04 1.47.04 1.47.04h1.81c1.16 0 2.2-.77 2.5-1.88.04-.21 1.03-3.81 1.68-7.84h.17c.43 0 .91-.13 1.29-.34.26-.13.6-.34.99-.6.13 4.62.3 12.2.52 19.74.17 7.06.34 12.72.47 16.78.09 2.31.13 4.2.17 5.57.04.69.04 1.2.04 1.58.04.81.04 1.28.47 1.88.09.13.17.26 4.22 5.14.52.6 1.25.94 1.98.94.22 0 .47-.04.69-.09 0 0 3.36-.94 7.5-2.06.39.47.82.94 1.25 1.41 1.38 1.5 2.46 2.35 3.79 2.35.6 0 1.21-.21 1.68-.56 2.5-1.88 4.87-3.94 6.42-5.31.78-.69 1.51-1.37 2.11-1.93 1.03-.98 1.81-1.71 1.55-3.08-.47-2.48-5.43-20.38-8.88-32.54 5.35 6.42 10.52 12.8 15.43 19.18 2.37 3.04 4.74 6.21 7.11 9.38.52.73 1.38 1.11 2.33 1.11 1.42 0 3.32-1.16 4.31-2.27l9.44 9.59c.47.51 1.16.77 1.85.77h.17c.78-.04 1.47-.43 1.9-1.03l1.34-1.8.17.13c.47.34.99.51 1.55.51.3 0 .6-.04.86-.17l1.34-.47c.69-.26 1.21-.73 1.51-1.41l3.97 3.77c.47.47 1.12.73 1.81.73h.13c.73-.04 1.38-.34 1.85-.9l1.81-2.1c.82-.98.82-2.4-.04-3.38l-28.32-31.77.3-1.46c.17-.86-.09-1.8-.73-2.4l-23.11-22.14 30.69-16.74a2.61 2.61 0 0 0 1.34-2.14l.22-5.39c.04-.94-.47-1.84-1.29-2.31-.09-.04-.17-.09-.26-.13l9.66-7.71c.47-.39.78-.9.91-1.46l4.35-20.12c.22-.98-.17-2.01-1.03-2.61-.43-.34-.99-.47-1.51-.47-.43 0-.91.13-1.29.34-6.21 3.64-13.45 8.52-21.6 14.6l-1.43-2.1c-.43-.64-1.12-1.03-1.9-1.11h-.26c-.69 0-1.34.26-1.81.73l-13.15 12.89 4.83-8.65c.22-.39.34-.81.34-1.33 0-1.41-1.12-2.53-2.5-2.57h-.35c-.3.04-.56.09-.82.21l-7.24 3c-.73.3-1.29.94-1.51 1.67l-3.84 13.87.17-12.03c0-1.54-.86-3.25-2.11-4.15-.22-.17-.43-.26-.65-.39-.09-1.84-.17-3.47-.26-4.88-.17-4.88-.3-7.84-.39-9.08a2.59 2.59 0 0 0-1.81-2.23c-.23-.12-.49-.17-.75-.17zm5.77 37.51.04-1.71v-.86c.09.17.17.34.26.47.26.39.6.64.95.86l-1.25 1.24zm-24.65 9.72c.17-1.37.3-2.57.39-3.43l1.55 15.88c-2.28 2.01-4.7 3.94-4.74 3.98-.69.56-1.03 1.46-.95 2.35l.22 1.5c-.26-.09-.52-.13-.78-.13-.39 0-.82.09-1.16.3-.09.04-6.98 3.51-13.45 3.64 1.38-1.03 3.62-2.4 7.2-4.02 3.92-1.76 7.2-2.74 7.24-2.74.6-.17 1.16-.6 1.47-1.16 2.16-3.64 3.23-12.8 3.41-14.6.03-.54-.1-1.1-.4-1.57zM296.06 73.1c.34-.9.69-1.71 1.03-2.57 7.5.94 10.65 1.84 11.94 2.35-1.38 1.2-5.22 3.34-13.49 6.12.47-1.24.86-2.23 1.16-2.91.43-.9.26-1.97-.43-2.74l-.21-.25zM198.3 98.11l3.19-.69c1.12-.26 1.98-1.2 2.03-2.35l.56-9.8 4.14 8.22c.43.9 1.34 1.41 2.33 1.41.13 0 .3 0 .43-.04l5.39-.94.43 1.33h-.04c-.91 0-1.72.47-2.2 1.24s-.52 1.76-.04 2.57l3.23 5.82c.47.81 1.34 1.33 2.28 1.33h.47c.17.26.34.47.6.69.39 1.76.73 3.43 1.08 5.05.22 1.07.86 1.93 1.34 2.48.17.21.52.56 1.03.81.3.69.95 1.2 1.68 1.41l.69.17c.17.51.52.98.99 1.33l1.08.73c.43.3.95.43 1.42.43.39 0 .78-.09 1.16-.26.78-.39 1.29-1.11 1.42-1.97h.26c.52 0 1.03-.17 1.47-.43.69-.47 1.12-1.28 1.12-2.14v-5.99l8.62 9.46c.52.56 1.21.86 1.9.86.26 0 .52-.04.78-.13.39-.13 3.71-1.16 4.96-1.71.69-.3 1.21-.86 1.42-1.58.09-.3.13-.6.13-.86l.91-.43c.73-.34 1.25-.98 1.42-1.76.17-.77 0-1.58-.52-2.23l-6.08-7.28c2.85-.69 6.34-1.8 9.61-3.6l-2.03 5.01c-.34.81-.22 1.76.34 2.48.47.64 1.25 1.03 2.07 1.03h.26l4.7-.43c-.22 2.53-.39 4.8-.6 6.89v.56c-16.73 4.62-32.24 8.39-32.42 8.43-.09.04-.17.04-.26.09-.78-1.07-1.64-2.1-2.59-3.17-.47-.56-1.21-.81-1.9-.81-.13 0-.26 0-.39.04.13-.86-.17-1.71-.86-2.27-5.26-4.67-10.69-7.41-10.91-7.54a2.73 2.73 0 0 0-1.16-.26c-.17 0-.3 0-.43.04-1.29.21-2.59.47-3.92.77l-.26-.26c-.47-.47-1.12-.73-1.77-.73-.17 0-.39 0-.56.09-.17.04-3.32.77-8.23 2.4.1-3.79.18-8.46.23-13.51zm41.21-6.3h1.34a26 26 0 0 1 1.81.04c-.99.26-2.11.56-3.36.86l.21-.9zm46.94 13.49c7.63-.77 13.84-1.28 18.41-1.58-1.42.6-3.15 1.33-5.17 2.1a2.538 2.538 0 0 0-2.24-1.33c-.3 0-.6.04-.91.17-2.97 1.11-6.68 2.4-11.08 3.77.3-1.03.65-2.1.99-3.13zM107 27.21c-.73 0-1.42.3-1.9.86l-9.35 10.19c-.39.43-.65.98-.69 1.54l-.13.13-1.25 1.33c-.56.56-.82 1.37-.69 2.14l.17 1.07a2.3 2.3 0 0 0-.99 1.46c-.26.09-.47.17-.69.3l-1.47.94c-.91.6-1.34 1.67-1.12 2.7 2.28 10.23 4.96 23.38 4.87 26.76-.04.9.43 1.71 1.16 2.23.43.3.91.43 1.42.43.39 0 .73-.09 1.08-.26 1.51-.69 9.1-4.2 10.69-5.27.34-.26.65-.56.82-.94.22-.43 5.26-10.53 5.52-26.42 0-1.16-.73-2.18-1.85-2.53l-2.11-.64c-.09-1.93-.26-3.94-.43-5.95-.04-.64-.34-1.24-.82-1.67l3.36-2.7c.73-.6 1.08-1.54.91-2.48-.17-.94-.86-1.67-1.81-1.97l-3.92-1.16c-.27-.05-.53-.09-.78-.09zm5.86 49.88h-.09c-.22 0-.39.04-.56.09-.95.21-10 2.57-18.45 8.61a2.58 2.58 0 0 0-1.08 2.31c0 .04.04.56.17 1.46l-1.29 1.07c-.69.6-1.03 1.5-.91 2.44 1.9 10.58 7.93 28.9 9.74 34.25.13.43.3.86.43 1.28v.04c.17.43.43.81.78 1.11-.04.43 0 .9.17 1.33.43 1.24 1.9 2.95 3.71 2.95.56 0 1.08-.17 1.51-.43.78-.43 7.11-3.98 9.4-5.22 1.03-.51 1.94-1.71 1.77-3.34-.17-1.5-1.47-3.25-2.37-3.9l-.04-.04c-.17-.13-.52-.43-1.08-.6l1.12-29.2c.04-.77-.3-1.5-.86-2.01.13-3.98.3-7.15.43-9.51v-.26c.09-1.28-1.04-2.43-2.5-2.43z"/></g><linearGradient id="Shape_00000111184422975619661810000016875743048251791771_" gradientUnits="userSpaceOnUse" x1="-146.308" y1="354.925" x2="-146.308" y2="353.025" gradientTransform="matrix(236.0717 0 0 -61.9831 34797.79 22051.861)"><stop offset="0" style="stop-color:#fff200"/><stop offset=".163" style="stop-color:#ffed00"/><stop offset=".335" style="stop-color:#ffe300"/><stop offset=".511" style="stop-color:#ffd400"/><stop offset=".689" style="stop-color:#febf0f"/><stop offset=".856" style="stop-color:#faa61a"/></linearGradient><path id="Shape_00000025416174223926166870000015529937524758119317_" style="fill:url(#Shape_00000111184422975619661810000016875743048251791771_)" d="m24.06 87.7-6.38 4.25.56 4.03 6.38-7.04-.56-1.24zm39.35-15.23.22-1.03h.04l.3-1.29 19.91 10.94c1.29-2.75 3.23-7.77 4.14-13.99-.52-.39-1.03-.77-1.59-1.16.17-.43.3-.82.39-1.2 0 0-16.34-11.03-42.2-19.48-12.07-3.99-20.73-5.58-20.73-5.58s-1.77 2.27-3.45 6.09l3.02 1.84v1.29l-3.75-1.33c-2.07-.73-3.62-1.29-3.62-1.29l-1.25 4.63c1.47.73 6.55 4.25 8.45 5.58l-.99 3c2.59 2.96 21.29 20.55 21.38 20.68 20.6 21.15 36.51 55.26 39.27 61.44l-1.08 3.05-7.84-5.66L51.9 94.48l-1.98 2.96 3.88 11.33-.26.56-.39.9s-9.87-18.36-13.36-26c-1.85 1.8-4.74 4.98-7.5 9.82l-3.06-4.68-1.42 2.23 2.41 5.66c-.13.17-.26.39-.34.56.09.21.13.39.22.6 3.92 10.68 8.88 19.48 8.88 19.48l-.39.82c-3.79-5.06-7.24-12.27-9.61-17.8-.13-.34-.26-.64-.43-.99-1.34 2.27-2.54 4.59-3.45 6.78 0 0 11.85 24.5 43.32 49.34H72c3.58 2.83 7.24 5.36 10.99 7.51 0 0 12.72 2.36 24.09-4.2.04.07-11.13-50.98-43.67-86.89zm54.83 66.37 1.21-31.53-.91-.39c.13-4.33.3-8.32.52-11.28 0 0-9.18 2.19-17.59 8.24 0 0 .26 2.83.86 7.21l-1.42-3.65-1.51 1.24c1.9 10.51 7.97 28.96 9.66 33.94.13.43.3.86.43 1.24v.04s1.21-.6 2.76-1.59l5.99-3.47zM24.7 92.29l-5.43 7.72 2.46 10.43 5.43-12.1-2.46-6.05zM85.61 57.2C63.97 46.56 37.07 38.96 37.07 38.96l-2.33.82c31.03 8.71 51.59 21.79 51.59 21.79l-.72-4.37zm370.99-2.45-7.28 3-3.97 14.33 1.47.17 9.78-17.5zM89.83 97.52l2.33-20.21-1.42-4.89-6.08 19.99 5.17 5.11zm22.93-9.91s4.96-9.82 5.22-25.36l-2.37-.73-1.42 4.5c0-3.69-.17-7.89-.6-12.66 0 0-4.27 2.4-9.31 5.75l-1.34-1.54-1.25 1.33.39 2.79-1.29.73 1.16 7.12-.52.6-2.03-6.04-.39.21-.04-.09-1.47.94c1.08 4.72 5.04 22.87 4.91 27.41.05.11 8.84-3.93 10.35-4.96zm318.02-36.94-1.59-7.46-10.95 13.51 1.25 2.06 11.29-8.11zm-310.26 88.68c-.3-.21-.47-.43-.99-.21-.04 0-.09 0-.13.04-.13.09-.22.17-.34.26-.04 0-.04.04-.04.04-.22.13-.47.34-.78.56-.86.64-1.77 1.29-2.63 1.93-.26.21-.43.3-.43.3-1.59 1.2-3.15 2.4-4.7 3.65-.43.34.95 2.02 1.42 1.63 0 0 7.16-3.99 9.53-5.32 0 0 .47-.21.39-.77-.09-.61-.91-1.81-1.3-2.11zm190.86-90.09-3.02-3.65-15.69 3.86.6 1.5 18.11-1.71zm-194.31-2.45-3.92-1.16-9.35 10.21 1.16.77 12.11-9.82zm213.58 74.95s4.66-7.46 5.26-11.8c.6-4.33-18.79-4.63-28.53-4.93 0 0 28.71-4.5 34.27-22.74 1.25-4.08-5.3-7.25-15.56-9.7l.78-2.06c-5.82-1.16-11.98-2.19-18.19-3.05.43-.99.91-1.97 1.34-2.96.22-.47-.34-.94-.95-1.2-.65 1.33-1.29 2.66-1.94 3.95-2.07-.26-4.14-.51-6.21-.77.26-.86.56-1.67.82-2.45l1.81-.17 4.61-11.2-2.37.09h-.26l-14.09.47-.04.34-1.47 6.35h-.26l1.38-8.02.65-3.65-2.41.34-.78 3.17-5-.26c-.73 3.3-1.51 7.81-2.33 13-21.72-1.67-39.18-1.89-39.18-1.89l.65 3.6-4.01.13-.99 2.53c2.54.21 19.01 1.2 19.01 1.2l.52 1.24-22.84 1.03 6.59 7.64s18.75.43 37.76 1.63c-.39 3.05-.82 6.18-1.21 9.31.04-1.46.09-2.92.13-4.33.04-.99-2.46-1.37-2.46-.47-.17 6.13-.39 12.27-.73 18.4-.82.13-1.55.26-2.24.34l-6.55 16.26 7.76-.73.6-.04 1.9-.17 6.64-.64-.09.17-.3.69-6.42 1.72-2.03.51-.52.13c-.22 2.53-.43 5.11-.65 7.64 0 .21.09.43.26.56-.04.6-.13 1.16-.17 1.67-17.67 4.93-34.44 9.01-34.44 9.01l1.68 1.8 5.69 6.86 13.84-.99v.99c-4.96 1.89-15.09 5.49-23.58 6.56 0 0 6.16 5.96 7.67 7.04-.02.15 75.28-22.71 87.18-42.15zm-29.1-38.05c8.92 1.03 15.47 2.36 16.42 4.03 1.94 3.26-8.66 7.72-20.56 11.33 1.25-3.52 2.33-6.39 3.06-8.02l-1.29-1.46c.82-1.93 1.6-3.91 2.37-5.88zm-5.99-.64c1.16.13 2.33.21 3.41.34-1.21 2.92-2.37 5.88-3.49 8.79-1.03 2.75-2.07 5.49-3.1 8.28-.73.21-1.47.39-2.2.6 1.8-6.17 3.61-12.31 5.38-18.01zm-10.3 38.56c-.6 1.89-1.16 3.78-1.72 5.66.56-2.53 1.16-5.15 1.81-7.81.22-.04.43-.04.65-.09-.27.79-.48 1.52-.74 2.24zm19.35 3.48-1.08-1.97c-4.4 1.67-9.96 3.48-15.99 5.32.82-2.49 1.9-5.79 3.1-9.48 11.08-1.12 22.72-2.15 27.59-1.97 4.7.08-1.46 3.51-13.62 8.1zm-41.85 36.81s31.38-8.41 56.68-20.38l.95-5.06s-24.09 14.84-60.3 24.45l2.67.99zm75.78-9.1-4.27 13.04h5.69v-13.51l-.34-.17-1.08.64zm37.54-39.42c-.86-6.05-1.68-12.1-2.54-18.19-.47-3.26-.91-6.56-1.38-9.82-.17-1.33-2.54-2.1-2.33-.3.69 5.11 1.42 10.21 2.11 15.32l-5.39-24.5-8.15 2.87-1.72-4.98-1.38.77.78 4.68.6 3.52.26 1.59 1.42 8.28-.47-.34-2.11-9.14-.73-3.26-.3.34-.78.82.22 2.75-1.77.73-12.46 36.08-8.41 2.15-2.41 11.07 5.13-1.12v.39l-4.66 2.15-.26 1.97.95-.21-.91 4.98 4.05-2.27-6.29 18.28h4.7l-.6 2.57 1.34.64 6.42-14.67 1.68-.73-.86 4.72h2.59l2.16-6.39 1.16-.56 4.09-13 11.94-6.65h.04l4.87-2.7-.17.69-4.48 3.65-.04.04-2.33 1.89v1.5l2.63-.86 1.72 14.42 3.71-.43 1.12.9 12.89-1.89-5.65-27.75zm-22.07 3.6 5-15.83 1.68 14.16-6.68 1.67zm146.59 43.29 1.81-2.1-29.18-32.82.6-2.75-25.73-24.58 33.75-18.45.22-5.41L465.78 84l.43-2.02 24.87-19.91 4.35-20.16c-8.62 5.06-18.41 12.06-28.15 19.65l-.09-.6 3.92-4.12-2.2-3.26L444.4 77.7l-.26 1.97c-.78.73-1.51 1.42-2.28 2.15-.56.51-1.12.99-1.64 1.5 0-1.59.04-3.13.04-4.72.09-6.61.17-13.21.26-19.78 0-.73-.47-1.63-1.08-2.06-.56-.39-.95-.17-.95.47-.04 2.66-.09 5.32-.09 7.98l-.26.17c-.17-6.39-.39-11.84-.65-15.87-.13-4.08-.3-7.68-.39-9.01l-3.92 4.89-.47 4.25-.17 1.67c-4.87 4.16-8.79 10.04-8.79 10.04v2.83l-.78 1.33-.78-4.38c-.99 1.37-1.85 2.75-2.59 4.12l3.23 33.51c-2.59 2.32-5.82 4.93-5.82 4.93l.26 1.84 2.33-1.37v.9l-1.08.99.04.6.6 6.65c.82-.47 3.1-2.02 4.74-3.09 0 0 1.29 48.74 1.38 48.91.09.13 4.09 4.93 4.09 4.93l9.09-2.53c1.21 1.5 3.66 4.46 4.22 4.08 4.57-3.43 9.09-7.81 9.09-7.85-.69-3.65-11.98-43.76-11.98-43.76 7.97 9.22 15.73 18.66 23.19 28.32 2.41 3.13 4.78 6.26 7.16 9.44.39.51 3.1-1.33 2.8-1.76-1.94-2.62-3.97-5.23-5.95-7.85l.56-.99L486 159.94l2.89-3.9 2.28 1.72 1.34-.47-7.76-10.08.82-1.42 15.03 14.5zm-86.46-50.41-.22-1.76s-10.22 5.23-18.23 3.65c0 0-.95-.17-.95-.99s2.11-3.82 10.69-7.68c4.14-1.84 7.54-2.87 7.54-2.87 1.98-3.35 3.06-13.56 3.06-13.56l-.6.26c.47-3.78.73-6.74.73-6.74-4.48 2.32-8.36 4.5-11.81 6.52l-.73-1.07c-27.33 15.44-25.04 29.69-25.04 29.69-.34 4.93 1.85 5.28 1.85 5.28s5.78 4.93 28.71 4.08v-.73s-3.53-.34-7.24-.77l-.17-.51c6.34.34 11.38.43 11.38.43h1.77s2.28-8.49 2.2-13.94l-2.94.71zm-277.59 57.1 31.72-8.37 1.72-4.29-32.89 11.2-.55 1.46zm74.44-73.88.47.86h-.09s.69 1.16 1.68 2.83c-2.03.13-3.36.21-3.36.21l.69 1.2c.3 0 .56-.04.86-.04.86-.04 1.72-.04 2.59-.04h4.09c1.94.04 3.79.09 5.52.17 4.48.17 7.84.43 7.84.43l.43.47c-2.93-.13-5.52-.17-7.84-.13-4.14.04-7.2.3-9.22.51-.78.09-1.42.17-1.85.21l-.43.13 4.27 8.45 5.43-.94c.65-.09 1.38-.21 2.2-.3l2.2 6.74c-1.25.04-2.46.04-3.58 0l3.23 5.83s.82-.04 2.24-.17l.47 1.42.65.43c.47 2.02.91 4.08 1.34 6.09.09.47.39.94.73 1.29.09.13.65.56.52.13-.69-3.17-1.38-6.31-2.11-9.48.26-.04.52-.04.82-.09l2.2 10.9 2.37.6.04.34.09.9 1.08.73c.04-.43.04-.9.04-1.37.04-1.07.04-2.27.04-3.43l.43.13v1.5l2.33.9v-12.27c.13 0 .22-.04.34-.04l12.8 14.07s3.53-1.12 4.7-1.63l-.82-1.37-2.63-4.29h.65l4.14 3.35 1.12-.51-8.88-10.64c2.24-.3 8.36-1.37 13.58-4.38l-.22-1.03c1.85-.99 3.36-2.06 4.4-3.26 4.78-5.71-1.21-10.3-17.63-12.74v-1.2c-18.49-2.62-39.96-1.47-39.96-1.47zm17.72 20.64c-.56-2.32-1.12-4.68-1.68-6.99.39-.04.82-.09 1.25-.17l1.42 7.08c-.34.04-.65.04-.99.08zm3.32-14.59-.04-.17.17.17h-.13zm7.67 13.26c-.09 0-.17.04-.22.04v-6.95c.26 0 .56-.04.82-.04-.08 2.32-.3 4.63-.6 6.95zm14.31-6.73c7.11 1.07-1.21 4.33-12.24 6.39.09-.69.17-1.37.26-2.06l.47-.17 1.21-4.55c3.79-.13 7.46-.04 10.3.39zm-92.11 42.25v-11.37l-9.57 1.54-2.93.09c-.6-.64-1.03-1.12-1.03-1.12h-2.16l1.68-.47.47-4.98-1.68-.43s-.09.3-.22-4.29c-.22-8.11-.52-20.81-.52-29.26l-.99-2.83c.09-3.05.13-6.05.17-8.92.09-3 .04-4.89.04-4.89.13-15.27-.09-26.94-.13-29.82v-.69l-1.16.82-3.23 2.27-1.38 14.8.3-20.42-3.58 2.53-.52 4.93-10.73 7.21c-.3.26-.56.51-.82.77 0 0 3.19 31.4 5.17 57.7-.56.64-.95 1.07-.95 1.07v33.25s1.21 1.29 3.1 2.83c.52.43 1.03.82 1.55 1.16 1.08.77 2.28 1.54 3.62 2.15.04.04.09.04.13.04l10.69-4.59c6.92-3.2 14.68-9.08 14.68-9.08zm-24.74 13.65-.65.13c.09.04.3 0 .65-.13zm95.64-23.64c-.86.17-1.98.34-3.41.64l-.86-.9-.6-.64s-18.15 4.76-26.42 7.38l.04-.17s16.03-6.22 28.32-9.18c-5.09-4.5-10.34-7.16-10.34-7.16-1.72.3-3.45.64-5.13 1.07l-1.25-1.2s-4.7 1.07-11.51 3.6c.13-4.72.3-11.67.3-19.26l5.22-1.12.65-10.73-1.12.3.17-3.3-5 1.67-3.06 1.03-1.03.34.99-.73.34-.26 2.67-1.97c-.13-4.16-.3-8.24-.6-11.97 5.22-.47 10.82-1.63 16.68-3.69l-.34-1.12s4.31-1.37 7.89-3.22l-2.24-5.53s-1.77.69-4.09.99l.04-.39s1.77-.26 4.53-1.63c-.34-.82-.69-1.59-1.03-2.27 0 0-24.22 7.64-48.66-5.62 0 0-.56 1.37-1.29 3.48 0 0 .04 0 .04.04.99.56 2.59 1.37 4.91 2.32 3.06 1.2 7.46 2.62 13.53 3.95v.77a86.2 86.2 0 0 1-12.11-2.49c-1.9-.51-3.92-1.2-5.86-1.93-.39-.13-.78-.3-1.16-.47-.04 0-.04 0-.09-.04-.22-.09-.43-.17-.65-.26-.78-.34-1.51-.69-2.28-1.03l-.17 1.76s.86.64 2.46 1.63c-.95 3.13-1.9 6.82-2.24 10.17 0 0 .52.26 1.47.6 2.07.77 6.16 2.19 11.68 3.13 1.72 5.41 4.66 16.05 6.98 32.73l.73.17c.52 4.98.91 9.95 1.16 14.97.04 1.12.09 2.19.13 3.3-5.17 2.45-10.69 5.58-15.95 9.4 4.66 5.15 8.71 7.51 8.71 7.51 17.54-6.61 40.65-9.61 48.84-10.51 1.94-.21 3.06-.3 3.06-.3-.93-1.37-1.97-2.66-3.05-3.86zm-40.77-11.11-.39-4.89c-.86-9.05-2.2-18.02-4.05-26.86-.69-3.39-1.47-6.74-2.33-10.08.6.09 1.21.17 1.85.21 1.34 7.38 4.27 24.97 5.17 41.66l-.25-.04zm-13.02-5.15c3.66-10 5.09-21.49 5.09-21.49-2.24-1.2-5.17-2.02-7.46-2.53-.13-.04-.26-.04-.43-.09-.82-.17-1.55-.3-2.11-.39-.65-.13-1.12-.21-1.12-.21v1.07c-.04.73-.04 1.46-.13 2.19l-.95-.26s-.99 12.44-2.93 18.66c-.09-.17-.17-.3-.26-.47-1.08-7.12-1.47-14.33-1.12-21.54.13-2.57.34-5.15.6-7.72 0-.17-.3-.3-.69-.34 0 0-.56-.17-1.55-.04-.13 0-.26.13-.26.3-.09 1.03-.52 5.32-.82 9.65-.34-6.74-.09-12.57-.04-13.81 0-.13-.13-.17-.22-.13-9.66 4.98-12.84 9.52-12.84 9.52.26 1.46.65 3.3 1.12 5.28l-.82 1.42c7.28 24.5 11.25 31.88 11.25 31.88l11.77.21c.04-.05 3.83-10.86 3.92-11.16z"/><linearGradient id="Shape_00000150060490586278733550000001074695713616761472_" gradientUnits="userSpaceOnUse" x1="-146.285" y1="354.489" x2="-146.217" y2="354.377" gradientTransform="matrix(237.8669 0 0 -64.678 35062.586 23018.283)"><stop offset="0" style="stop-color:#fcaf17"/><stop offset="1" style="stop-color:#f15a22"/></linearGradient><path id="Shape_00000029761223392598564520000000278787549740766364_" style="fill:url(#Shape_00000150060490586278733550000001074695713616761472_)" d="m136.48 163.21-.73.26-.3.73-.6 1.46-1.25 3.18 3.31-.86 31.68-8.38.82-.21.3-.82 1.72-4.3 1.42-3.48-3.57 1.2-32.8 11.22zm31.68-5.28-31.68 8.38.6-1.46 32.84-11.21-1.76 4.29zm-32.54 4.64.73.34.43-.17c.22-.04.47-.09.77-.17l-.04-.13 10.2-4.38h.08c7.02-3.35 14.64-9.15 14.98-9.41l.69-.52v-14.26l-1.98.34-9.43 1.55-2.02.04c-.22-.21-.39-.39-.43-.47l.39-4.17.13-1.46-1.42-.34-.52-.13c-.04-.6-.04-1.55-.09-2.96-.22-8.81-.52-21-.52-29.25v-.3l-.09-.26-.86-2.53c.09-2.88.13-5.8.17-8.68.09-2.88.04-4.72.04-4.9.13-15.12-.04-26.67-.13-29.85v-.69l-.09-3.22-1.08.77-2.71 1.93-1.76.99.04-3.09.04-3.39-2.75 1.98-3.57 2.53-.65.43-.09.77-.43 4.12-10.07 6.79-.09.09-.09.09c-.3.26-.56.52-.86.77l-.6.6.09.86c.04.3 3.14 31.18 5.08 57-.3.34-.47.56-.47.56l-.39.47v34.58l.47.52c.04.04 1.29 1.42 3.27 2.96.47.39 1.03.82 1.59 1.2l-.6.13 4.64 2.32zm-4.52-4.94c-1.89-1.55-3.1-2.83-3.1-2.83v-33.3s.39-.47.95-1.07c-1.98-26.29-5.17-57.77-5.17-57.77.26-.26.56-.52.82-.77l10.72-7.22.52-4.94 3.57-2.53-.3 20.45 1.38-14.82 3.23-2.28 1.16-.82v.69c.04 2.88.26 14.56.13 29.85 0 0 0 1.89-.04 4.9-.04 2.88-.09 5.88-.17 8.93l.99 2.83c0 8.46.3 21.18.52 29.29.13 4.08.22 4.3.22 4.3l1.68.43-.47 4.98-1.68.47h2.15s.43.47 1.03 1.12l2.93-.09 9.56-1.55v11.34s-7.75 5.88-14.68 9.24l-10.68 4.6.65-.13c-.26.09-.47.13-.56.13h-.09c-.04 0-.09-.04-.13-.04-1.29-.64-2.54-1.42-3.62-2.15-.49-.43-1.01-.86-1.52-1.24zm-32.12-29.56C92.95 112.86 82.54 91.26 66.82 73l16.14 8.89 1.64.9.77-1.68c1.46-3.14 3.36-8.2 4.26-14.43l.13-.99-.82-.6c-.17-.13-.39-.3-.6-.43 0-.04 0-.04.04-.09l.09-.3.13.09-.04-.39.17-.6-.34-.21-.43-2.62-.73-4.38-.13-.86-.77-.39C64.85 44.36 37.86 36.63 37.6 36.58l-.52-.13-.52.17-2.32.82-3.75 1.29c-3.75-.9-6.03-1.33-6.2-1.37l-1.03-.17-.64.81c-.09.09-1.89 2.49-3.66 6.49l-.13.3c-1.25-.43-2.07-.73-2.07-.73L15 43.41l-.47 1.8-1.21 4.64-.34 1.33 1.25.64c.82.43 3.53 2.19 7.19 4.72l-.6 1.8-.3.94.65.73c2.58 2.96 20.36 19.8 21.44 20.79 3.14 3.26 6.2 6.79 9.08 10.48l-1.08 1.63-1.98 2.96-.34.56c-2.58-4.98-5.25-10.27-6.76-13.53l-.99-2.23-1.76 1.68c-1.64 1.59-3.96 4.12-6.37 7.86l-1.59-2.41-1.46-2.23-1.42 2.23-1.42 2.23-.34.52-.39-.94.17-.17.77-.86-.47-1.03-.56-1.25-.86-1.85-1.68 1.12-6.37 4.25-.9.6.13 1.07.56 4.04.52 3.65 1.08-1.16-.26.34-.43.64.17.73 2.45 10.44 1.16 4.94 2.07-4.64 1.03-2.28c1.25 2.32 4.22 7.43 9.34 14.3 6.33 8.5 17.35 21.39 33.71 34.36l.47.39h3.57c3.66 2.83 7.23 5.33 10.72 7.3l.26.13.3.04c.09 0 2.41.43 5.94.43 4.95 0 12.35-.86 19.28-4.85l1.08-.64-.26-1.2c-.07-.18-2.95-13.19-9.8-30.38zm-61.9-89.94s26.86 7.6 48.47 18.26l.73 4.38S65.75 47.71 34.75 38.95l2.33-.82zM17.71 91.18l6.37-4.25.56 1.25-6.37 7.04-.56-4.04zm4.05 18.51-2.45-10.44 5.42-7.73 2.45 6.06-5.42 12.11zm66.89 53.69c-3.4 0-5.64-.43-5.64-.43-3.75-2.15-7.4-4.68-10.98-7.52h-3.57c-31.42-24.91-43.26-49.4-43.26-49.4.9-2.19 2.11-4.51 3.44-6.79.13.3.26.64.43.99 2.37 5.5 5.81 12.76 9.6 17.83l.39-.86s-4.95-8.81-8.87-19.5c-.09-.17-.13-.39-.22-.6.13-.17.26-.39.34-.56l-2.41-5.67 1.42-2.23 3.06 4.68c2.8-4.81 5.64-8.03 7.49-9.84 3.44 7.65 13.34 26.03 13.34 26.03l.39-.9.26-.56L50 96.72l1.98-2.96 22.08 44.59 7.83 5.67 1.08-3.05c-2.8-6.19-18.64-40.33-39.22-61.51-.09-.09-18.77-17.74-21.35-20.7l.99-3.01c-1.89-1.33-6.97-4.85-8.44-5.58l1.21-4.64s1.59.56 3.62 1.29l3.75 1.33v-1.29L20.51 45c1.68-3.87 3.44-6.1 3.44-6.1s8.65 1.55 20.71 5.58c25.83 8.46 42.14 19.5 42.14 19.5-.13.39-.26.77-.39 1.2.52.39 1.08.77 1.59 1.16-.9 6.19-2.88 11.21-4.13 14L63.99 69.4l-.3 1.29h-.04l-.22 1.03c32.46 35.91 43.61 87.02 43.61 87.02-6.59 3.83-13.65 4.64-18.39 4.64zM54.56 95.09c13.73 18.64 23.8 39.9 26.56 46l-.09.21-5.64-4.08-20.83-42.13zm66.85 42.18c-.04 0-.04-.04-.09-.04-.22-.17-.69-.52-1.42-.56l1.12-30.02.04-1.16-.9-.39c.13-4.25.3-7.6.47-10.05l.13-2.32-2.28.56c-.39.09-9.6 2.36-18.17 8.5l-.82.56.09.99c0 .04.09.73.22 1.93l-.17.13-1.51 1.25-.77.64.17.99c1.89 10.57 7.92 28.86 9.69 34.23.13.43.3.86.43 1.29v.04l.65 1.89.17-.09c0 .21.04.43.13.69.34.94 1.51 2.41 2.93 2.41.39 0 .77-.13 1.08-.3.73-.43 7.15-3.99 9.38-5.28a2.47 2.47 0 0 0 1.33-2.49c-.05-1.3-1.17-2.89-1.9-3.4zm-12.05 5.92c-.17-.43-.3-.86-.43-1.29-1.68-5.03-7.75-23.5-9.64-33.98l1.51-1.25 1.42 3.65c-.6-4.38-.86-7.22-.86-7.22 8.39-6.06 17.56-8.25 17.56-8.25-.17 2.92-.34 6.92-.52 11.3l.9.39-1.21 31.57-6.03 3.48c-1.5 1-2.7 1.6-2.7 1.6zm11.92-1.67c-2.37 1.33-9.51 5.33-9.51 5.33-.04.04-.09.04-.17.04-.56 0-1.64-1.37-1.25-1.68 1.55-1.25 3.1-2.45 4.69-3.65 0 0 .17-.13.43-.3.86-.64 1.76-1.29 2.63-1.93.3-.21.56-.43.77-.56.04 0 .04-.04.04-.04.13-.09.22-.17.34-.26.04-.04.09-.04.13-.04.17-.09.26-.09.39-.09.26 0 .39.17.6.3.39.26 1.21 1.46 1.29 2.06.1.6-.38.82-.38.82zm-20.62-49.66-.09 2.75 2.5-1.16c.9-.43 8.95-4.12 10.55-5.2l.34-.26.22-.39c.22-.43 5.17-10.39 5.42-26.12l.04-1.29-1.25-.39-2.37-.73-.34-.09c-.09-2.15-.26-4.34-.47-6.57l-.21-2.6 3.1-2.49 2.54-2.06-3.1-.94-3.92-1.16-1.03-.3-.73.82-9.34 10.22-1.33 1.46.43.3-1.16 1.25-.56.6.13.82.22 1.63-.3.17-1.03.6.13.69-.95.6-1.46.94-.99.64.26 1.16c2.3 10.87 4.84 23.67 4.75 27.1zm12.4-47.03 3.92 1.16-12.1 9.84-1.16-.77 9.34-10.23zM98.94 63.47l.04.09.39-.21 2.02 6.06.52-.56-1.16-7.17 1.29-.73-.39-2.79 1.25-1.33 1.33 1.55c5.04-3.35 9.3-5.76 9.3-5.76.43 4.77.6 8.98.6 12.67l1.42-4.51 2.37.73c-.26 15.51-5.21 25.39-5.21 25.39-1.51 1.03-10.29 5.07-10.29 5.07.13-4.6-3.83-22.72-4.91-27.45l1.43-1.05zM82.97 91.18l-.3.99.73.73 5.17 5.11 2.54 2.49.39-3.52 2.32-20.23.04-.34-.09-.34-1.42-4.9-1.64-5.58-1.68 5.54-6.06 20.05zm9.13-14.65-2.32 20.23-5.17-5.11 6.07-20.02 1.42 4.9zm410.96 79.85-28.58-32.22.43-1.89.22-.94-.69-.64-23.98-22.98 31.64-17.35.86-.47.04-.99.22-5.41.13-3.18-2.71 1.68-2.2 1.33 13.26-10.65.47-.39.13-.6 4.35-20.19.82-3.82-3.4 1.98c-6.37 3.74-13.82 8.81-22.21 15.12l-1.98-2.92-1.16-1.72-1.46 1.46-17.39 17.14 7.79-14 2.41-4.34-4.56 1.89-7.27 3.01-.77.3-.22.82-3.96 14.35-.52 1.93 1.98.21.77.09-2.71 2.66-.43.43-.09.6-.17 1.37-.52.52v-.69l.04-4.85.22-14.99c0-1.25-.73-2.71-1.76-3.48-.3-.21-.65-.39-.95-.47-.09-2.06-.17-3.91-.3-5.46-.17-4.81-.3-7.86-.39-9.06l-.34-4.3-2.71 3.35-3.92 4.9-.3.39-.04.52-.04.3-.75-2.73-.73-3.52-2.28 2.83-10.93 13.53-.77.94.65 1.03 1.25 2.06.99 1.59 1.51-1.07.77-.56-.47.69a40.8 40.8 0 0 0-2.71 4.3l-.26.47.04.52 3.14 32.69c-2.41 2.1-5.04 4.25-5.08 4.3l-.73.6.13.94.26 1.85.26 1.85-.26.04-.3-2.32-2.2 1.12c-.09.04-7.4 3.78-14.16 3.78-.65 0-1.25-.04-1.85-.09.99-1.07 3.44-3.05 9.04-5.58 3.96-1.76 7.27-2.79 7.32-2.79l.65-.21.34-.56c2.11-3.57 3.19-13.19 3.31-14.3l.3-2.96-.56.26c.26-2.23.39-3.78.39-3.82l.26-3.14-2.8 1.46c-3.79 1.98-7.32 3.91-10.5 5.76l-.73-1.03-1.38.77c-18.42 10.44-23.85 20.45-25.35 26.29l-.69-4.9-1.46-10.57-.9-6.57-.47-3.26c-.22-1.72-1.89-2.83-3.31-2.83-.26 0-.52.04-.77.13l-1.51-6.92-.43-1.89-1.85.64-6.5 2.28-1.16-3.35-.69-1.93-1.81 1.03-1.38.77-1.03.6.22 1.2.6 3.44-.39.43-.3.34-.77.82-.52.56.04.77.13 1.46-.56.21-.73.3-.26.73-12.14 35.22-5.34 1.33c1.46-2.66 3.79-7.13 4.22-10.31.13-.9-.13-1.76-.77-2.53-2.11-2.49-9-3.48-17.99-3.95 1.38-.47 2.8-1.03 4.22-1.68 10.76-4.68 17.74-11.34 20.15-19.33.43-1.37.26-2.75-.47-3.99-1.68-2.92-6.28-5.28-14.46-7.43l.09-.26.69-1.89-1.98-.39c-4.86-.99-10.25-1.89-16.01-2.75.13-.3.26-.56.39-.86.26-.56.26-1.16.04-1.76-.43-1.03-1.46-1.59-1.89-1.76l-1.51-.64-.73 1.46c-.43.9-.9 1.8-1.38 2.88-.43-.04-.82-.13-1.25-.17l.3-.73 4.61-11.21.95-2.28.9-.09 3.23-.3-2.07-2.49-3.01-3.65-.69-.82-1.03.26L293 46.63l.22-1.29-2.37.34-2.41.34-1.12.17-.26 1.12-.47 1.8-3.57-.17-1.46-.09-.3 1.42c-.6 2.88-1.33 6.74-2.07 11.51-20.79-1.59-37.49-1.76-37.67-1.76h-2.07l.34 2.02.3 1.68-2.02.09-1.12.04-.43 1.03-.99 2.53-.82 2.15 1.89.17-2.8.13-3.53.17 2.32 2.66 6.59 7.65.52.56h.77c.17 0 17.69.43 35.81 1.5-.04.21-.04.47-.09.69-.22-.04-.43-.04-.65-.04-1.72 0-2.54 1.12-2.58 2.19-.13 5.58-.34 11.3-.65 16.97-.3.04-.56.09-.82.13l-.3.04-.13-.43c-1.55-3.99-7.71-6.83-18.81-8.63v-1.07l-1.46-.21c-10.03-1.42-20.92-1.68-28.28-1.68-6.97 0-11.88.26-11.92.26l-2.8.17.43.77h-.13l1.51 2.53s.09.13.26.43c-.34.04-.56.04-.56.04l-1.08.09.04-.6-2.37.77-2.8.94c-.13-3.52-.26-6.79-.47-9.71 5.25-.6 10.42-1.85 15.37-3.61l1.42-.52-.22-.99c1.64-.56 4.3-1.59 6.67-2.83l1.38-.73-.52-1.46-1.89-4.72.77-.39-.65-1.5c-.39-.9-.73-1.68-1.03-2.32l-.65-1.37-1.42.47c-.09 0-6.84 2.1-16.62 2.1-11.06 0-21.39-2.58-30.69-7.6l-1.68-.9-.73 1.76c-.04.04-.6 1.42-1.33 3.57l-.13.39c-.39-.17-.73-.34-1.12-.52l-2.24-1.12-.26 2.45-.17 1.76-.09.99.77.6c.04.04.56.43 1.46 1.03-.99 3.48-1.64 6.57-1.94 9.24l-.08 1.25 1.12.52c.04 0 .6.26 1.59.64 1.89.73 5.77 2.06 10.98 3.05.86 2.71 1.98 6.79 3.19 12.24-1.81-.86-4.13-1.63-6.89-2.23l-.13-.04c-.13-.04-.3-.09-.47-.09-.73-.17-1.46-.3-2.15-.43-.65-.13-1.12-.21-1.12-.21l-2.02-.34v3.13l-.9-.21-.17 2.02c0 .09-.3 3.52-.82 7.6-.17-3.61-.22-7.17-.04-10.78.13-2.49.3-5.07.6-7.6 0-.13.04-.47-.13-.86l.43-.64-1.68-.52c-.22-.09-.43-.13-.69-.21-.22-.04-.6-.13-1.21-.13h-.22c.04-.99.04-1.72.09-2.02.04-.52-.17-.99-.52-1.37-.34-.39-.86-.56-1.33-.56-.3 0-.6.09-.86.21-9.9 5.11-13.3 9.88-13.43 10.09l-.43.6.13.69c.26 1.37.6 3.01.99 4.72l-.47.82-.34.64.22.69c7.23 24.44 11.19 31.96 11.36 32.26l.47.9h.99l11.75.21h1.25l.43-1.16c.65-1.8 3.75-10.65 3.92-11.17 2.41-6.66 3.87-13.87 4.61-18.13.77 3.91 1.51 8.38 2.2 13.36l.17 1.16.69.17c.47 4.6.82 9.19.99 13.7.04.64.04 1.37.09 2.15-5.55 2.75-10.68 5.8-15.2 9.11l-1.55 1.12 1.29 1.42c4.78 5.28 8.95 7.73 9.13 7.86l.73.43.77-.3c17.13-6.49 39.52-9.45 48.34-10.44 1.89-.21 3.01-.3 3.01-.3l1.33-.13 1.29 1.33 5.68 6.83.56.69.9-.04 4.56-.34c-4.61 1.46-9.9 2.88-14.68 3.48l-3.53.47 2.54 2.49c.65.64 6.28 6.1 7.88 7.22l.69.47.82-.26c.09-.04 5.17-1.59 12.78-4.17l2.71.99 2.67.99.52.17.52-.13c.3-.09 31.77-8.59 56.91-20.49l.77-.39.17-.86.95-5.07.69-3.82-3.31 2.02c-.17.13-13.73 8.38-35.38 16.49 22.73-9.19 37.79-17.57 44.94-25l-1.51 6.87-.56 2.62.9-.17-.13 1.12-.34 2.45.82-.17-.43 2.41-.65 3.61 3.19-1.8.09-.04-4.95 14-.77 2.28h4.91l-.13.47-.3 1.33 1.25.6 1.33.64 1.51.73-.65 1.93-.73 2.23h9.77v-15.46h1.94l.39-1.16 1.94-5.71.52-.26.65-.34.22-.69 3.87-12.37 6.63-3.74v3.26l2.28-.77.6-.21 1.46 12.33.22 1.72 1.72-.21 2.97-.34.56.43.6.47.73-.13 12.87-1.89 1.81-.26-.34-1.76-3.7-18.47s.04 0 .04.04c1.38.99 7.36 4.34 24.15 4.34 1.72 0 3.57-.04 5.42-.13l1.64-.09v-1.55c1.33.04 2.15.04 2.15.04h3.1l.34-1.29c.04-.21.99-3.69 1.64-7.65l1.89-1.12c.47-.26 1.29-.77 2.24-1.42.13 4.38.34 12.84.56 21.35.17 7.09.34 12.76.47 16.84.09 2.32.13 4.21.17 5.58.09 2.62.09 2.62.39 3.05.04.09.13.21 4.18 5.07l.73.86 1.08-.3s3.66-.99 8.01-2.23c3.14 3.87 4.09 3.87 4.69 3.87.43 0 .82-.13 1.16-.39 2.45-1.85 4.82-3.91 6.37-5.28.77-.69 1.51-1.37 2.11-1.93.99-.94 1.46-1.37 1.29-2.32-.52-2.75-6.59-24.57-9.9-36.42 6.28 7.43 12.31 14.95 17.99 22.34 2.37 3.05 4.74 6.23 7.1 9.41.39.52.95.77 1.64.77 1.16 0 3.4-1.29 4.05-2.58.04-.09.09-.17.09-.26l10.2 10.39 1.42 1.46 1.21-1.63 1.85-2.49.9.69.73.56.86-.3 1.33-.47 2.24-.82-1.42-1.85-.26-.34 5.81 5.58 1.33 1.25 1.21-1.37 1.81-2.1.99-1.12-1.24-1zm-58.24-85.09 3.96-14.35 7.27-3.01-9.77 17.53-1.46-.17zm-25.78-13.36-1.25-2.06 10.93-13.53 1.59 7.47-11.27 8.12zm5.42-1.8c-.56.69-1.03 1.33-1.42 1.85l-.13-.73 1.55-1.12zM308.02 44.79l3.01 3.65L293 50.11l-.6-1.5 15.62-3.82zm-95.13 51.2c-.99-1.68-1.68-2.83-1.68-2.83h.09l-.47-.86s4.82-.26 11.84-.26c7.79 0 18.34.3 28.07 1.68v1.2c16.36 2.45 22.34 7.04 17.61 12.76-1.03 1.2-2.54 2.32-4.39 3.26l.22 1.03c-5.17 3.01-11.28 4.08-13.56 4.38l8.87 10.65-1.12.52-4.13-3.35h-.65l2.63 4.3.82 1.37c-1.16.52-4.69 1.63-4.69 1.63l-12.78-14.09c-.13 0-.22.04-.34.04v12.28l-2.32-.9v-1.5l-.43-.13c0 1.16 0 2.32-.04 3.44 0 .47-.04.94-.04 1.37l-1.08-.73-.09-.9-.04-.34-2.37-.6-2.2-10.91c-.26.04-.56.04-.82.09.73 3.14 1.42 6.31 2.11 9.49.04.13 0 .21-.04.21-.13 0-.39-.26-.47-.3-.3-.34-.6-.82-.73-1.29-.43-2.06-.86-4.08-1.33-6.1l-.65-.43-.47-1.42c-1.42.13-2.24.17-2.24.17l-3.23-5.84h1.42c.73 0 1.42 0 2.2-.04l-2.2-6.74c-.82.13-1.59.21-2.2.3l-5.42.94-4.26-8.46.43-.13c.43-.04 1.08-.13 1.85-.21 2.02-.21 5.08-.43 9.21-.52h1.59c1.89 0 3.96.04 6.2.13l-.43-.47s-3.36-.26-7.83-.43c-1.72-.09-3.57-.13-5.51-.17h-4.13c-.86 0-1.76.04-2.58.04-.3 0-.56.04-.86.04l-.69-1.2c-.01.09 1.32-.04 3.35-.17zm-4.7 1.42.04.09h-.04v-.09zm-29.35 23.53c-.09.3-3.92 11.12-3.92 11.12l-11.75-.21s-4-7.39-11.24-31.91l.82-1.42c-.47-2.02-.86-3.82-1.12-5.28 0 0 3.19-4.55 12.83-9.54h.09c.09 0 .13.04.13.13-.04 1.25-.3 7.09.04 13.83.3-4.38.73-8.63.82-9.66 0-.13.13-.26.26-.3.26-.04.52-.04.73-.04.52 0 .82.09.82.09.39.09.69.21.69.34-.3 2.58-.52 5.15-.6 7.73-.34 7.22.04 14.43 1.12 21.56.09.17.17.34.26.47 1.94-6.23 2.93-18.68 2.93-18.68l.95.26c.04-.69.09-1.46.13-2.19v-1.07s.47.09 1.12.21c.56.09 1.29.21 2.11.39.17.04.34.09.43.09 2.28.52 5.21 1.33 7.45 2.53-.02.08-1.45 11.59-5.1 21.55zm53.67 20.45c-8.18.9-31.25 3.91-48.77 10.52 0 0-4.05-2.36-8.7-7.52 5.25-3.82 10.8-6.96 15.93-9.41-.04-1.12-.09-2.19-.13-3.31-.22-5.03-.6-10.01-1.16-14.99l-.73-.17c-2.32-16.67-5.25-27.36-6.97-32.77-5.51-.99-9.64-2.36-11.67-3.14l-1.46-.6c.39-3.35 1.29-7.04 2.24-10.18-1.59-.99-2.45-1.63-2.45-1.63l.17-1.76c.73.39 1.51.73 2.28 1.03.22.09.43.17.65.26.04 0 .04 0 .09.04.39.17.77.3 1.16.47 1.94.77 3.96 1.42 5.85 1.93 5.73 1.59 10.76 2.32 12.1 2.49v-.77c-6.07-1.33-10.42-2.71-13.52-3.95-2.32-.9-3.92-1.72-4.91-2.32 0 0-.04 0-.04-.04.73-2.1 1.29-3.48 1.29-3.48 11.36 6.19 22.64 7.82 31.51 7.82 10.2 0 17.13-2.19 17.13-2.19.3.69.65 1.46 1.03 2.28-2.75 1.37-4.52 1.63-4.52 1.63l-.04.39c2.32-.3 4.09-.99 4.09-.99l2.24 5.54c-3.62 1.85-7.92 3.22-7.92 3.22l.22 1.03c-5.81 2.06-11.45 3.22-16.66 3.69.3 3.74.47 7.82.6 11.98l-2.67 1.98-.34.26-.99.73 1.03-.34 3.06-1.03 4.99-1.68-.17 3.31 1.12-.3-.65 10.74-5.21 1.12c0 7.65-.17 14.6-.3 19.29 6.8-2.53 11.49-3.61 11.49-3.61l1.25 1.2c1.72-.39 3.4-.77 5.12-1.07 0 0 5.25 2.66 10.33 7.17-12.27 2.96-28.28 9.19-28.28 9.19l-.04.17c8.26-2.62 26.39-7.39 26.39-7.39l.6.64.86.9c1.42-.26 2.58-.47 3.4-.64 1.08 1.2 2.11 2.49 3.01 3.82.13.1-.99.23-2.93.44zm4.14-1.76c-.82-1.2-1.76-2.36-2.84-3.57l-.65-.69-.95.17c-.43.09-.9.17-1.38.26l2.32-.56-2.45-2.19c-5.17-4.6-10.5-7.3-10.72-7.43l-.52-.26-.56.09c-1.42.26-2.84.56-4.35.86l-.6-.56-.69-.64-.9.21c-.17.04-3.79.86-9.3 2.79.13-4.12.22-9.54.26-15.42l3.87-.82 1.29-.26.09-1.29.65-10.74v-.39l1.03-.04.39.77 4.26 8.46.56 1.16 1.25-.21 5.38-.94c.22-.04.47-.09.73-.13l1.03 3.18h-1.21l-3.01-.09 1.46 2.62 3.23 5.84.52.94 1.08-.09s.34-.04.9-.09l.04.13.22.6.52.34.04.04c.43 1.89.82 3.65 1.16 5.41.17.9.73 1.63 1.12 2.06.17.17.56.56 1.08.77l.17.94 1.03.26 1.21.3v.04l.09.82.69.47 1.08.73 2.5 1.68.17-3.01c0-.26.04-.56.04-.9l.43.17 2.32.9v-10.74l10.12 11.12.73.82 1.03-.34c.39-.13 3.66-1.16 4.86-1.68l1.81-.77-.86-1.42.39-.17 1.12-.52 2.02-.94-1.42-1.72-6.76-8.42c3.06-.64 7.32-1.85 11.19-4.08l1.08-.64-.22-.99c.56-.34 1.03-.64 1.51-.99l-3.62 8.98-1.03 2.62 2.8-.26 5.73-.56-.04.34c-.22 2.79-.43 5.28-.65 7.65-.04.39.04.73.17 1.07-17 4.72-33.02 8.63-33.19 8.68l-.85.27zm83.38-3.87-.95 5.07c-25.27 11.98-56.61 20.4-56.61 20.4l-2.67-.99c36.17-9.66 60.23-24.48 60.23-24.48zm-76.84 27.62c-1.51-1.03-7.66-7.04-7.66-7.04 8.48-1.07 18.64-4.68 23.55-6.57v-.99l-13.82.99-5.68-6.87-1.68-1.8s16.75-4.08 34.39-9.02c.04-.52.13-1.07.17-1.68-.17-.17-.3-.34-.26-.56.22-2.53.47-5.11.65-7.65l.52-.13 2.02-.52 6.41-1.72.3-.69.09-.17-6.63.64-1.89.17-.6.04-7.75.73 6.54-16.28c.69-.09 1.42-.21 2.24-.34.34-6.14.56-12.28.73-18.43 0-.34.39-.52.86-.52.73 0 1.64.39 1.59.99-.04 1.46-.09 2.92-.13 4.34.39-3.14.77-6.23 1.21-9.32-18.98-1.2-37.71-1.63-37.71-1.63l-6.59-7.6 22.81-1.03-.52-1.25s-16.44-.99-18.98-1.2l.99-2.53 4-.13-.65-3.61s17.43.17 39.13 1.89c.82-5.2 1.59-9.66 2.32-13.01l4.99.26.77-3.18 2.41-.34-.65 3.65-1.38 8.03h.26l1.46-6.36.04-.34 14.08-.47h.26l2.37-.09-4.65 11-1.81.17c-.26.77-.52 1.59-.82 2.45 2.07.26 4.13.52 6.2.77.65-1.33 1.29-2.66 1.94-3.95.6.26 1.16.77.95 1.2-.47.99-.9 1.98-1.33 2.96 6.24.86 12.35 1.85 18.17 3.05l-.77 2.06c10.25 2.45 16.79 5.63 15.54 9.71-5.55 18.26-34.22 22.77-34.22 22.77 9.77.3 29.1.6 28.5 4.94-.6 4.34-5.25 11.81-5.25 11.81-11.83 19.51-87.03 42.4-87.03 42.4zm96.38 1.85h-5.68l4.26-13.06 1.08-.64.34.17v13.53zm41.54-25-12.87 1.89-1.12-.9-3.7.43-1.72-14.43-2.63.86v-1.46l2.32-1.89.04-.04 4.48-3.65.17-.69-4.86 2.71h-.04l-11.92 6.66-4.09 13.01-1.16.56-2.15 6.4h-2.58l.86-4.72-1.68.73-6.41 14.69-1.33-.64.6-2.58h-4.69l6.28-18.3-4.05 2.28.9-4.98-.95.21.26-1.98 4.65-2.15v-.39l-5.12 1.12 2.41-11.08 8.39-2.15 12.44-36.12 1.76-.73-.22-2.75.77-.82.3-.34.73 3.26 2.11 9.15.47.34-1.42-8.29-.26-1.59-.6-3.52-.77-4.68 1.38-.77 1.72 4.98 8.14-2.88 5.38 24.53c-.69-5.11-1.42-10.22-2.11-15.33-.09-.73.26-1.03.73-1.03.65 0 1.51.6 1.59 1.37.47 3.26.9 6.57 1.38 9.84.86 6.06 1.68 12.11 2.54 18.21l5.65 27.65zm33.28-17.83h-1.76s-4.99-.13-11.36-.43l.17.52c3.7.43 7.23.77 7.23.77v.73c-1.89.09-3.7.13-5.34.13-18.51 0-23.33-4.17-23.33-4.17s-2.2-.34-1.85-5.28c0 0-2.28-14.26 25.01-29.72l.73 1.07c3.44-2.02 7.36-4.21 11.79-6.53 0 0-.26 2.92-.73 6.74l.6-.26s-1.12 10.27-3.06 13.57c0 0-3.4 1.03-7.53 2.88-8.52 3.87-10.68 6.87-10.68 7.69 0 .82.95.99.95.99 1.08.21 2.15.3 3.27.3 7.27 0 14.94-3.95 14.94-3.95l.22 1.76 2.88-.69c.13 5.38-2.15 13.88-2.15 13.88zm85.62 37.2-15.07-14.48-.82 1.42 7.75 10.09-1.33.47-2.28-1.72-2.88 3.91-18.42-18.77-.56.99c1.98 2.62 4 5.24 5.94 7.86.3.39-1.76 1.85-2.54 1.85-.09 0-.17-.04-.22-.09-2.37-3.18-4.74-6.31-7.15-9.45a638.827 638.827 0 0 0-23.16-28.35s11.32 40.16 11.97 43.81c0 .04-4.52 4.42-9.08 7.86-.04.04-.09.04-.13.04-.73 0-2.97-2.71-4.09-4.12-4.82 1.33-9.08 2.53-9.08 2.53s-3.96-4.77-4.05-4.94c-.09-.13-1.38-48.97-1.38-48.97-1.64 1.07-3.96 2.62-4.74 3.09l-.6-6.66-.04-.6 1.08-.99v-.9l-2.32 1.37-.26-1.85s3.19-2.62 5.81-4.94l-3.23-33.55c.73-1.37 1.64-2.75 2.58-4.12l.77 4.38.77-1.33v-2.83s3.92-5.84 8.78-10.05l.17-1.68.47-4.25 3.92-4.9c.13 1.33.26 4.94.39 9.02.26 3.99.47 9.49.65 15.89l.26-.17c.04-2.66.09-5.33.09-7.99 0-.43.17-.69.43-.69.13 0 .3.04.47.21.56.43 1.08 1.33 1.08 2.06-.09 6.61-.17 13.23-.26 19.8 0 1.59-.04 3.14-.04 4.72.56-.52 1.12-.99 1.64-1.5.77-.69 1.51-1.42 2.28-2.15l.26-1.98 24.49-24.14 2.2 3.26-3.92 4.12.09.6c9.73-7.56 19.5-14.6 28.11-19.67l-4.35 20.19-24.79 19.89-.43 2.02 16.23-9.84-.22 5.41-33.71 18.47 25.7 24.61-.6 2.75 29.14 32.86-1.77 2.12zm-216.74-33.03c.56-1.89 1.12-3.78 1.72-5.67.22-.73.47-1.46.69-2.23-.22.04-.43.04-.65.09-.64 2.66-1.25 5.28-1.76 7.81zm11.92-35.09c1.12-2.96 2.28-5.88 3.49-8.81-1.12-.13-2.24-.21-3.4-.34a854.62 854.62 0 0 0-5.34 18.04c.73-.17 1.46-.39 2.2-.6.94-2.79 1.97-5.54 3.05-8.29zm58.41 24.78 6.67-1.68-1.68-14.17-4.99 15.85zm2.59-2.4 1.64-5.24.56 4.68-2.2.56zm-59.11-15.55c11.88-3.61 22.47-8.03 20.53-11.34-.99-1.68-7.53-3.01-16.4-4.04-.82 1.98-1.59 3.91-2.37 5.88l1.29 1.46c-.68 1.64-1.8 4.52-3.05 8.04zm5.26-13.49c11.02 1.37 13.34 2.66 13.77 3.01-.22.47-2.02 3.18-16.23 7.77.77-2.1 1.38-3.65 1.85-4.64l.43-.99-.73-.82-.6-.64c.56-1.28 1.03-2.53 1.51-3.69zm15.54 31.4h-.99c-5.34 0-16.19.94-26.56 2.02-1.21 3.69-2.28 7-3.1 9.49 6.03-1.85 11.58-3.65 15.97-5.33l1.08 1.98c12.13-4.6 18.29-8.03 13.6-8.16zm-12.83 6.01-.34-.64-.73-1.33-1.42.52c-3.36 1.25-7.62 2.71-12.7 4.3.6-1.8 1.16-3.57 1.72-5.28 10.85-1.07 18.68-1.72 23.37-1.85-1.81.98-4.91 2.35-9.9 4.28zM185.08 84.22c.86 3.35 1.64 6.7 2.32 10.09 1.85 8.85 3.19 17.83 4.05 26.89.17 1.63.3 3.26.39 4.9l.26.04c-.9-16.71-3.83-34.32-5.17-41.71-.65-.08-1.25-.13-1.85-.21zm54.97 20.49c-.26 0-.56.04-.82.04v6.96c.09 0 .17-.04.22-.04.3-2.32.51-4.64.6-6.96zm13.69.21c-2.02-.3-4.43-.43-7.02-.43-1.08 0-2.2.04-3.31.04l-1.21 4.55-.47.17c-.09.69-.17 1.37-.26 2.06 11.06-2.05 19.37-5.31 12.27-6.39zm-9.77 4.17.73-2.83c.69 0 1.33-.04 1.98-.04 2.41 0 4.52.13 6.2.34-1.68.68-4.57 1.58-8.91 2.53zM226.79 106c.56 2.32 1.16 4.68 1.68 7 .34 0 .65-.04.99-.09l-1.42-7.09c-.43.05-.86.09-1.25.18zm5.12-7.61-.17-.17.04.17h.13z"/></g></g></g></svg>