 <svg
                          id="toggle-password-2"
                          width="17"
                          height="14"
                          viewBox="0 0 17 14"
                          fill="none"
                          xmlns="http://www.w3.org/2000/svg">
                          <path
                            fill-rule="evenodd"
                            clip-rule="evenodd"
                            d="M13.4934 1.67788L12.3012 2.85576L12.1025 2.77336C11.3332 2.45421 10.3395 2.21265 9.42308 2.12203C9.00951 2.08114 8.04395 2.07544 7.67487 2.11173C5.68812 2.30703 3.96314 2.98856 2.42643 4.18538C2.02351 4.49916 1.25278 5.25515 0.926175 5.65694C0.658136 5.98664 0.295939 6.50306 0.111004 6.8192L0 7.00896L0.0491762 7.11108C0.112815 7.24319 0.379328 7.65862 0.567694 7.91937C1.38446 9.04999 2.55178 10.0773 3.75554 10.7249C3.89969 10.8024 4.03297 10.8748 4.05172 10.8857C4.07738 10.9007 3.80879 11.1753 2.96765 11.9943L1.84949 13.0829L2.06354 13.2946C2.18129 13.4111 2.2865 13.5035 2.29737 13.4999C2.30823 13.4964 5.20381 10.6639 8.73199 7.2055L15.1469 0.91755L14.9296 0.708775C14.8102 0.593961 14.7064 0.5 14.699 0.5C14.6917 0.5 14.1492 1.03005 13.4934 1.67788ZM6.35178 3.02991C5.11847 3.67898 4.27928 4.78104 3.98885 6.13305C3.92659 6.42278 3.92235 6.47863 3.92259 7.00306C3.9228 7.44669 3.932 7.61213 3.96676 7.79697C4.09668 8.48778 4.40284 9.16931 4.83389 9.72731L5.03441 9.9869L4.8124 10.2054C4.6903 10.3255 4.57651 10.4239 4.55954 10.4239C4.48597 10.4239 3.95037 10.1351 3.53428 9.87106C2.68246 9.33054 1.88223 8.59926 1.25819 7.79108C1.02343 7.48706 0.741598 7.06356 0.741598 7.0148C0.741598 6.98066 1.00973 6.5754 1.18197 6.34918C1.57628 5.83136 2.30177 5.08999 2.77602 4.72024C3.61814 4.0637 4.56285 3.54509 5.51864 3.21468C5.72995 3.14162 6.45995 2.93165 6.50741 2.93025C6.52707 2.92969 6.45704 2.97452 6.35178 3.02991ZM10.7421 2.98737C11.1603 3.09333 11.7967 3.30939 11.7967 3.3454C11.7967 3.35453 11.7383 3.41853 11.6669 3.48762L11.5372 3.61322L11.4346 3.53138C11.2357 3.37248 10.9725 3.19932 10.7254 3.06466C10.588 2.98973 10.4832 2.92843 10.4925 2.92843C10.5019 2.92843 10.6142 2.95496 10.7421 2.98737ZM9.04315 3.16453C9.68318 3.24627 10.4096 3.54453 10.9356 3.94155L11.0868 4.05569L10.6021 4.53115C10.3356 4.79265 10.1093 5.00661 10.0994 5.00661C10.0895 5.00661 10.0304 4.97104 9.96814 4.92757C9.34512 4.4926 8.40162 4.3733 7.66295 4.63611C7.38648 4.73448 7.39403 4.72418 7.49389 4.86644C7.79602 5.29687 7.62991 5.87251 7.13879 6.09707C7.01723 6.15266 6.96553 6.1624 6.79332 6.16219C6.55759 6.16186 6.45154 6.13083 6.30067 6.01798C6.17345 5.9228 6.1814 5.91668 6.08172 6.1858C5.81456 6.90704 5.92671 7.78312 6.36772 8.4203C6.41835 8.49344 6.45976 8.56185 6.45976 8.57229C6.45976 8.58275 6.24125 8.80525 5.97417 9.06678L5.4886 9.54224L5.38691 9.41682C4.91495 8.83458 4.61382 8.07 4.55642 7.3081C4.47086 6.17221 4.88624 5.07848 5.70965 4.27147C6.59316 3.40559 7.79802 3.00551 9.04315 3.16453ZM13.3141 3.6946L13.0812 3.92369L13.3204 4.06961C14.4062 4.73196 15.3718 5.66128 16.0967 6.74167L16.2784 7.01247L16.0826 7.29963C14.8611 9.09081 13.0627 10.3849 10.9834 10.9689C10.4496 11.1188 10.4137 11.1224 10.6419 11.0028C11.4901 10.5584 12.1812 9.86372 12.605 9.0294C12.9409 8.36812 13.0877 7.75568 13.088 7.01473C13.0884 6.29739 12.9452 5.67478 12.641 5.07C12.5188 4.82707 12.3851 4.60813 12.3634 4.61523C12.353 4.6186 12.2537 4.72031 12.1427 4.84126L11.9407 5.06115L12.0097 5.17982C12.1837 5.47961 12.3434 5.94083 12.4185 6.36092C12.4735 6.66877 12.484 7.26021 12.4395 7.55179C12.3102 8.39924 11.922 9.15612 11.3079 9.75799C10.6131 10.4388 9.72006 10.8344 8.75412 10.8892C8.03392 10.93 7.3774 10.8035 6.76635 10.5062L6.51303 10.383L5.97145 10.9141C5.67358 11.2062 5.43911 11.4505 5.45043 11.4569C5.46175 11.4634 5.57821 11.5008 5.70925 11.5402C6.31342 11.7217 6.93823 11.8441 7.57956 11.9065C8.006 11.948 8.93839 11.954 9.33075 11.9178C11.6064 11.7077 13.6646 10.7817 15.2723 9.24468C15.8662 8.67695 16.3484 8.09412 16.7549 7.45304C17.0415 7.00103 17.0332 7.02634 16.9481 6.86118C16.856 6.68241 16.5317 6.20186 16.3117 5.91799C15.7643 5.21197 15.0159 4.49082 14.2627 3.94365C14.0252 3.77114 13.5724 3.46549 13.5543 3.46549C13.5503 3.46549 13.4422 3.56858 13.3141 3.6946ZM9.21358 7.71333L7.54788 9.34591L7.64115 9.38437C7.81768 9.45715 8.11619 9.5144 8.38964 9.5279C9.89165 9.60206 11.1488 8.37003 11.0731 6.89798C11.0594 6.63214 11.001 6.33753 10.9283 6.16828C10.9076 6.12014 10.8881 6.08072 10.885 6.08072C10.8819 6.08072 10.1297 6.81539 9.21358 7.71333Z"
                            fill="#8888A6"></path>
                        </svg>