<svg width="300" height="300" viewBox="0 0 300 300" fill="none" xmlns="http://www.w3.org/2000/svg">
	<path d="M196.045 109.669V61.2669C196.045 47.0674 191.72 40.6484 186.762 36.2857C181.141 31.3395 171.094 27 150 27C128.906 27 118.859 31.3395 113.238 36.2857C108.279 40.6484 103.955 47.0674 103.955 61.2669V110.641C103.954 115.329 104.922 119.967 106.798 124.263C108.675 128.558 111.419 132.42 114.859 135.604L128.072 147.835C128.382 148.121 128.747 148.339 129.146 148.474C129.545 148.609 129.967 148.659 130.387 148.62C130.806 148.581 131.212 148.455 131.579 148.248C131.946 148.042 132.266 147.761 132.517 147.423L143.717 132.32C144.157 131.726 144.363 130.991 144.293 130.255C144.224 129.518 143.885 128.834 143.342 128.333L133.976 119.663C131.953 117.791 130.34 115.52 129.236 112.995C128.133 110.469 127.563 107.743 127.563 104.986V71.4233C127.563 61.2577 131.462 56.9042 132.939 55.7557C134.638 54.4311 138.235 51.2819 150 51.2819C161.765 51.2819 165.362 54.4311 167.061 55.7557C168.538 56.9042 172.437 61.2577 172.437 71.4233V103.069C172.436 108.218 170.78 113.23 167.714 117.366L139.814 155.027C139.374 155.621 139.168 156.357 139.238 157.093C139.307 157.829 139.646 158.514 140.189 159.015L150 168.12L153.949 171.774L156.542 174.178L159.783 177.174C160.892 178.197 162.344 178.765 163.853 178.767H190.192C190.793 178.765 191.379 178.582 191.874 178.243C192.369 177.904 192.751 177.424 192.97 176.864C193.189 176.305 193.235 175.693 193.102 175.108C192.97 174.522 192.664 173.99 192.225 173.58L171.335 154.24L189.354 129.921C193.698 124.063 196.044 116.962 196.045 109.669Z" fill="#FF7800"/>
	<path d="M276.49 225.914V255.462V258.704L260.896 230.393C259.007 227.021 257.706 225.923 255.247 225.923C252.789 225.923 251.053 227.623 251.053 231.018V237.603V267.133H256.562V237.585V234.343L272.156 262.654C274.045 266.026 275.346 267.123 277.805 267.123C280.263 267.123 281.999 265.424 281.999 262.029V255.462V225.914H276.49Z" fill="#FF7800"/>
	<path d="M166.64 225.941H159.084L143.879 242.151V225.941H138.365V267.16H143.879V250.233L145.505 248.496L159.492 267.178H166.64L149.315 244.439L166.64 225.941Z" fill="#FF7800"/>
	<path d="M224.079 228.415C221.009 226.391 217.495 225.941 214.032 225.941H203.855V267.16H209.569V252.682H214.009C217.472 252.682 220.986 252.219 224.056 250.209C227.126 248.199 229.658 244.749 229.658 239.312C229.658 233.875 227.102 230.42 224.079 228.415ZM221.153 245.629C219.62 246.838 217.241 247.593 214.032 247.593H209.592V231.031H214.032C217.241 231.031 219.62 231.781 221.153 232.995C222.113 233.744 222.89 234.703 223.424 235.797C223.958 236.892 224.236 238.094 224.236 239.312C224.236 240.53 223.958 241.732 223.424 242.827C222.89 243.921 222.113 244.88 221.153 245.629V245.629Z" fill="#FF7800"/>
	<path d="M43.5717 262.325C44.2932 261.416 44.9142 260.431 45.4237 259.389C46.9099 256.327 46.9007 252.812 46.8914 250.487V242.373C46.8914 240.058 46.8914 236.533 45.4237 233.472C42.7893 228.044 38.076 225.325 32.4923 225.312H32.3997C26.816 225.312 22.1027 228.049 19.4729 233.472C17.9867 236.533 17.9959 240.048 18.0006 242.373V250.487C18.0006 252.803 18.0006 256.327 19.4729 259.389C22.1119 264.826 26.8345 267.549 32.4367 267.549C34.6075 267.572 36.7564 267.113 38.7288 266.206L43.1643 272H50.9704L43.5717 262.325ZM41.3586 250.747C41.3586 252.631 41.3818 255.207 40.4326 257.147C39.4418 259.194 37.0667 262.292 32.4321 262.297C27.7975 262.302 25.4224 259.194 24.4269 257.147C23.4315 255.1 23.5009 252.182 23.5009 250.293V242.586C23.5009 240.701 23.4269 237.779 24.4269 235.732C25.427 233.685 27.7975 230.587 32.4321 230.587C37.0667 230.587 39.4418 233.685 40.4326 235.732C41.4234 237.779 41.3586 240.701 41.3586 242.586V250.719V250.747Z" fill="#FF7800"/>
	<path d="M115.105 232.61C118.878 229.767 123.18 229.475 129.814 231.017V227.206C129.814 227.206 126.527 225.312 121.314 225.312C116.1 225.312 113.054 226.659 110.632 228.817C107.855 231.277 105.743 235.204 105.132 241.322C104.805 244.82 104.805 248.341 105.132 251.84V251.84C105.743 257.944 107.873 261.871 110.632 264.344C113.054 266.502 116.059 267.845 121.314 267.845C126.569 267.845 129.814 265.956 129.814 265.956V262.14C123.18 263.686 118.878 263.39 115.105 260.551C111.262 257.656 110.498 252.261 110.475 246.597C110.452 240.933 111.262 235.505 115.105 232.61Z" fill="#FF7800"/>
	<path d="M187.684 230.133C190.496 230.25 193.297 230.543 196.073 231.008V226.567C192.445 225.597 188.689 225.19 184.938 225.363C182.753 225.441 180.581 225.743 178.456 226.261C175.428 227.039 173.743 228.484 172.808 229.901C172.227 230.779 171.858 231.78 171.73 232.825C171.602 233.87 171.719 234.93 172.071 235.922C172.071 235.922 172.095 235.987 172.104 236.005C172.164 236.186 172.233 236.371 172.312 236.552C173.382 239.303 175.002 241.415 177.299 243.902C179.762 246.569 184.869 251.344 187.022 253.91C188.355 255.554 189.929 257.745 189.147 259.634C188.29 261.705 184.494 263.14 180.016 263.011C177.206 262.878 174.405 262.589 171.627 262.144V266.558C171.627 266.558 175.113 268.096 182.762 267.79C190.411 267.484 193.439 265.437 194.883 263.251C195.608 262.038 196.016 260.662 196.068 259.25V259.134C196.068 258.903 196.068 258.671 196.041 258.43C195.93 256.309 195.494 254.725 192.8 251.604C189.772 248.116 184.355 242.976 181.91 240.438L181.243 239.734C179.456 237.816 177.498 235.427 178.41 233.148C179.368 230.744 183.632 230.05 187.684 230.133Z" fill="#FF7800"/>
	<path d="M97.3442 225.938H91.6309V267.179H97.3442V225.938Z" fill="#FF7800"/>
	<path d="M242.456 225.872H236.742V267.114H242.456V225.872Z" fill="#FF7800"/>
	<path d="M60.1796 225.941H54.6699V252.965C54.6699 257.8 56.2997 267.808 68.694 267.808C81.0884 267.808 82.7181 257.8 82.7181 252.965V225.941H77.2085V252.965C77.2085 261.584 71.3053 262.691 68.694 262.691C66.0827 262.691 60.1796 261.575 60.1796 252.965V225.941Z" fill="#FF7800"/>
</svg>
