<svg width="238" height="13" viewBox="0 0 238 13" fill="none" xmlns="http://www.w3.org/2000/svg">
<path d="M0 1C0 0.447715 0.447715 0 1 0H7C7.55228 0 8 0.447715 8 1V12C8 12.5523 7.55228 13 7 13H1C0.447715 13 0 12.5523 0 12V1Z" fill="url(#paint0_linear_34_5)"/>
<path d="M10 1C10 0.447715 10.4477 0 11 0H17C17.5523 0 18 0.447715 18 1V12C18 12.5523 17.5523 13 17 13H11C10.4477 13 10 12.5523 10 12V1Z" fill="url(#paint1_linear_34_5)"/>
<path d="M20 1C20 0.447715 20.4477 0 21 0H27C27.5523 0 28 0.447715 28 1V12C28 12.5523 27.5523 13 27 13H21C20.4477 13 20 12.5523 20 12V1Z" fill="url(#paint2_linear_34_5)"/>
<path d="M40 1C40 0.447715 40.4477 0 41 0H47C47.5523 0 48 0.447715 48 1V12C48 12.5523 47.5523 13 47 13H41C40.4477 13 40 12.5523 40 12V1Z" fill="url(#paint3_linear_34_5)"/>
<path d="M50 1C50 0.447715 50.4477 0 51 0H57C57.5523 0 58 0.447715 58 1V12C58 12.5523 57.5523 13 57 13H51C50.4477 13 50 12.5523 50 12V1Z" fill="url(#paint4_linear_34_5)"/>
<path d="M60 1C60 0.447715 60.4477 0 61 0H67C67.5523 0 68 0.447715 68 1V12C68 12.5523 67.5523 13 67 13H61C60.4477 13 60 12.5523 60 12V1Z" fill="url(#paint5_linear_34_5)"/>
<path d="M70 1C70 0.447715 70.4477 0 71 0H77C77.5523 0 78 0.447715 78 1V12C78 12.5523 77.5523 13 77 13H71C70.4477 13 70 12.5523 70 12V1Z" fill="url(#paint6_linear_34_5)"/>
<path d="M80 1C80 0.447715 80.4477 0 81 0H87C87.5523 0 88 0.447715 88 1V12C88 12.5523 87.5523 13 87 13H81C80.4477 13 80 12.5523 80 12V1Z" fill="url(#paint7_linear_34_5)"/>
<path d="M30 1C30 0.447715 30.4477 0 31 0H37C37.5523 0 38 0.447715 38 1V12C38 12.5523 37.5523 13 37 13H31C30.4477 13 30 12.5523 30 12V1Z" fill="url(#paint8_linear_34_5)"/>
<path d="M90 1C90 0.447715 90.4477 0 91 0H97C97.5523 0 98 0.447715 98 1V12C98 12.5523 97.5523 13 97 13H91C90.4477 13 90 12.5523 90 12V1Z" fill="url(#paint9_linear_34_5)"/>
<path d="M110 1C110 0.447715 110.448 0 111 0H117C117.552 0 118 0.447715 118 1V12C118 12.5523 117.552 13 117 13H111C110.448 13 110 12.5523 110 12V1Z" fill="url(#paint10_linear_34_5)"/>
<path d="M120 1C120 0.447715 120.448 0 121 0H127C127.552 0 128 0.447715 128 1V12C128 12.5523 127.552 13 127 13H121C120.448 13 120 12.5523 120 12V1Z" fill="url(#paint11_linear_34_5)"/>
<path d="M130 1C130 0.447715 130.448 0 131 0H137C137.552 0 138 0.447715 138 1V12C138 12.5523 137.552 13 137 13H131C130.448 13 130 12.5523 130 12V1Z" fill="url(#paint12_linear_34_5)"/>
<path d="M140 1C140 0.447715 140.448 0 141 0H147C147.552 0 148 0.447715 148 1V12C148 12.5523 147.552 13 147 13H141C140.448 13 140 12.5523 140 12V1Z" fill="url(#paint13_linear_34_5)"/>
<path d="M150 1C150 0.447715 150.448 0 151 0H157C157.552 0 158 0.447715 158 1V12C158 12.5523 157.552 13 157 13H151C150.448 13 150 12.5523 150 12V1Z" fill="url(#paint14_linear_34_5)"/>
<path d="M100 1C100 0.447715 100.448 0 101 0H107C107.552 0 108 0.447715 108 1V12C108 12.5523 107.552 13 107 13H101C100.448 13 100 12.5523 100 12V1Z" fill="url(#paint15_linear_34_5)"/>
<path d="M160 1C160 0.447715 160.448 0 161 0H167C167.552 0 168 0.447715 168 1V12C168 12.5523 167.552 13 167 13H161C160.448 13 160 12.5523 160 12V1Z" fill="url(#paint16_linear_34_5)"/>
<path d="M180 1C180 0.447715 180.448 0 181 0H187C187.552 0 188 0.447715 188 1V12C188 12.5523 187.552 13 187 13H181C180.448 13 180 12.5523 180 12V1Z" fill="url(#paint17_linear_34_5)"/>
<path d="M190 1C190 0.447715 190.448 0 191 0H197C197.552 0 198 0.447715 198 1V12C198 12.5523 197.552 13 197 13H191C190.448 13 190 12.5523 190 12V1Z" fill="url(#paint18_linear_34_5)"/>
<path d="M200 1C200 0.447715 200.448 0 201 0H207C207.552 0 208 0.447715 208 1V12C208 12.5523 207.552 13 207 13H201C200.448 13 200 12.5523 200 12V1Z" fill="url(#paint19_linear_34_5)"/>
<path d="M210 1C210 0.447715 210.448 0 211 0H217C217.552 0 218 0.447715 218 1V12C218 12.5523 217.552 13 217 13H211C210.448 13 210 12.5523 210 12V1Z" fill="url(#paint20_linear_34_5)"/>
<path d="M220 1C220 0.447715 220.448 0 221 0H227C227.552 0 228 0.447715 228 1V12C228 12.5523 227.552 13 227 13H221C220.448 13 220 12.5523 220 12V1Z" fill="url(#paint21_linear_34_5)"/>
<path d="M170 1C170 0.447715 170.448 0 171 0H177C177.552 0 178 0.447715 178 1V12C178 12.5523 177.552 13 177 13H171C170.448 13 170 12.5523 170 12V1Z" fill="url(#paint22_linear_34_5)"/>
<path d="M230 1C230 0.447715 230.448 0 231 0H237C237.552 0 238 0.447715 238 1V12C238 12.5523 237.552 13 237 13H231C230.448 13 230 12.5523 230 12V1Z" fill="url(#paint23_linear_34_5)"/>
<defs>
<linearGradient id="paint0_linear_34_5" x1="0" y1="6.5" x2="238" y2="6.5" gradientUnits="userSpaceOnUse">
<stop stop-color="#FF1F00"/>
<stop offset="1" stop-color="#FF1F00"/>
</linearGradient>
<linearGradient id="paint1_linear_34_5" x1="0" y1="6.5" x2="238" y2="6.5" gradientUnits="userSpaceOnUse">
<stop stop-color="#FF1F00"/>
<stop offset="1" stop-color="#FF1F00"/>
</linearGradient>
<linearGradient id="paint2_linear_34_5" x1="0" y1="6.5" x2="238" y2="6.5" gradientUnits="userSpaceOnUse">
<stop stop-color="#FF1F00"/>
<stop offset="1" stop-color="#FF1F00"/>
</linearGradient>
<linearGradient id="paint3_linear_34_5" x1="0" y1="6.5" x2="238" y2="6.5" gradientUnits="userSpaceOnUse">
<stop stop-color="#FF1F00"/>
<stop offset="1" stop-color="#FF1F00"/>
</linearGradient>
<linearGradient id="paint4_linear_34_5" x1="0" y1="6.5" x2="238" y2="6.5" gradientUnits="userSpaceOnUse">
<stop stop-color="#FF1F00"/>
<stop offset="1" stop-color="#FF1F00"/>
</linearGradient>
<linearGradient id="paint5_linear_34_5" x1="0" y1="6.5" x2="238" y2="6.5" gradientUnits="userSpaceOnUse">
<stop stop-color="#FF1F00"/>
<stop offset="1" stop-color="#FF1F00"/>
</linearGradient>
<linearGradient id="paint6_linear_34_5" x1="0" y1="6.5" x2="238" y2="6.5" gradientUnits="userSpaceOnUse">
<stop stop-color="#FF1F00"/>
<stop offset="1" stop-color="#FF1F00"/>
</linearGradient>
<linearGradient id="paint7_linear_34_5" x1="0" y1="6.5" x2="238" y2="6.5" gradientUnits="userSpaceOnUse">
<stop stop-color="#FF1F00"/>
<stop offset="1" stop-color="#FF1F00"/>
</linearGradient>
<linearGradient id="paint8_linear_34_5" x1="0" y1="6.5" x2="238" y2="6.5" gradientUnits="userSpaceOnUse">
<stop stop-color="#FF1F00"/>
<stop offset="1" stop-color="#FF1F00"/>
</linearGradient>
<linearGradient id="paint9_linear_34_5" x1="0" y1="6.5" x2="238" y2="6.5" gradientUnits="userSpaceOnUse">
<stop stop-color="#FF1F00"/>
<stop offset="1" stop-color="#FF1F00"/>
</linearGradient>
<linearGradient id="paint10_linear_34_5" x1="0" y1="6.5" x2="238" y2="6.5" gradientUnits="userSpaceOnUse">
<stop stop-color="#FF1F00"/>
<stop offset="1" stop-color="#FF1F00"/>
</linearGradient>
<linearGradient id="paint11_linear_34_5" x1="0" y1="6.5" x2="238" y2="6.5" gradientUnits="userSpaceOnUse">
<stop stop-color="#FF1F00"/>
<stop offset="1" stop-color="#FF1F00"/>
</linearGradient>
<linearGradient id="paint12_linear_34_5" x1="0" y1="6.5" x2="238" y2="6.5" gradientUnits="userSpaceOnUse">
<stop stop-color="#FF1F00"/>
<stop offset="1" stop-color="#FF1F00"/>
</linearGradient>
<linearGradient id="paint13_linear_34_5" x1="0" y1="6.5" x2="238" y2="6.5" gradientUnits="userSpaceOnUse">
<stop stop-color="#FF1F00"/>
<stop offset="1" stop-color="#FF1F00"/>
</linearGradient>
<linearGradient id="paint14_linear_34_5" x1="0" y1="6.5" x2="238" y2="6.5" gradientUnits="userSpaceOnUse">
<stop stop-color="#FF1F00"/>
<stop offset="1" stop-color="#FF1F00"/>
</linearGradient>
<linearGradient id="paint15_linear_34_5" x1="0" y1="6.5" x2="238" y2="6.5" gradientUnits="userSpaceOnUse">
<stop stop-color="#FF1F00"/>
<stop offset="1" stop-color="#FF1F00"/>
</linearGradient>
<linearGradient id="paint16_linear_34_5" x1="0" y1="6.5" x2="238" y2="6.5" gradientUnits="userSpaceOnUse">
<stop stop-color="#FF1F00"/>
<stop offset="1" stop-color="#FF1F00"/>
</linearGradient>
<linearGradient id="paint17_linear_34_5" x1="0" y1="6.5" x2="238" y2="6.5" gradientUnits="userSpaceOnUse">
<stop stop-color="#FF1F00"/>
<stop offset="1" stop-color="#FF1F00"/>
</linearGradient>
<linearGradient id="paint18_linear_34_5" x1="0" y1="6.5" x2="238" y2="6.5" gradientUnits="userSpaceOnUse">
<stop stop-color="#FF1F00"/>
<stop offset="1" stop-color="#FF1F00"/>
</linearGradient>
<linearGradient id="paint19_linear_34_5" x1="0" y1="6.5" x2="238" y2="6.5" gradientUnits="userSpaceOnUse">
<stop stop-color="#FF1F00"/>
<stop offset="1" stop-color="#FF1F00"/>
</linearGradient>
<linearGradient id="paint20_linear_34_5" x1="0" y1="6.5" x2="238" y2="6.5" gradientUnits="userSpaceOnUse">
<stop stop-color="#FF1F00"/>
<stop offset="1" stop-color="#FF1F00"/>
</linearGradient>
<linearGradient id="paint21_linear_34_5" x1="0" y1="6.5" x2="238" y2="6.5" gradientUnits="userSpaceOnUse">
<stop stop-color="#FF1F00"/>
<stop offset="1" stop-color="#FF1F00"/>
</linearGradient>
<linearGradient id="paint22_linear_34_5" x1="0" y1="6.5" x2="238" y2="6.5" gradientUnits="userSpaceOnUse">
<stop stop-color="#FF1F00"/>
<stop offset="1" stop-color="#FF1F00"/>
</linearGradient>
<linearGradient id="paint23_linear_34_5" x1="0" y1="6.5" x2="238" y2="6.5" gradientUnits="userSpaceOnUse">
<stop stop-color="#FF1F00"/>
<stop offset="1" stop-color="#FF1F00"/>
</linearGradient>
</defs>
</svg>
