<svg width="10" height="11" viewBox="0 0 10 11" fill="none"
    xmlns="http://www.w3.org/2000/svg">
    <path d="M9.35358 6.97001L9.35308 6.97228C9.34719 7.00795 9.33984 7.04358 9.33146 7.07821C9.29987 7.20616 9.26004 7.33096 9.21223 7.45176C9.21196 7.45299 9.21196 7.45299 9.21173 7.45403C8.15096 9.98763 4.35391 11.7649 1.96424 10.6167C1.5141 10.4003 1.10889 10.0256 0.809909 9.72442C0.659222 9.57207 0.515444 9.41188 0.379165 9.2445C0.306287 9.15417 0.244687 9.0744 0.197397 9.00951C0.125193 8.91033 0.0814114 8.84372 0.0704322 8.82507C0.0691359 8.82328 0.0680144 8.82135 0.0670874 8.81932C0.0670874 8.81932 0.0653022 8.80834 0.0635317 8.78962C-0.00170543 8.1302 0.322732 7.84384 0.322732 7.84384L0.349983 7.84727C0.914871 7.92052 1.48062 7.90982 2.03126 7.81547C2.03328 7.81481 2.03454 7.81478 2.03564 7.81359L2.03817 7.81442C2.03854 7.81447 2.03891 7.81443 2.03926 7.81432C2.03961 7.8142 2.03993 7.81402 2.0402 7.81376C4.03915 7.18147 5.93584 5.92447 6.26124 3.53497C6.42968 2.29809 6.26587 0.859892 6.26587 0.859892C6.26587 0.859892 6.39668 0.451439 6.54957 0.405728C6.70246 0.360017 7.54438 0.922553 7.48888 1.10051C7.43338 1.27846 6.8902 2.52634 7.27808 3.13484C7.34393 3.23382 7.41665 3.3275 7.49556 3.41498C8.36066 4.39946 9.45725 5.52888 9.35358 6.97001Z" fill="#97999C"/>
</svg>
