<?xml version="1.0" encoding="UTF-8"?>
<svg width="11px" height="10px" viewBox="0 0 11 10" version="1.1"
    xmlns="http://www.w3.org/2000/svg"
    xmlns:xlink="http://www.w3.org/1999/xlink">
    <title>Combined Shape</title>
    <g id="-" stroke="none" stroke-width="1" fill="none" fill-rule="evenodd">
        <g id="Dice_dark_desktop_history_All" transform="translate(-207.000000, -912.000000)" fill="#97999C" fill-rule="nonzero">
            <g id="Group-55" transform="translate(206.000000, 719.000000)">
                <g id="Group-54" transform="translate(1.000000, 164.000000)">
                    <path d="M8,29 C9.65685425,29 11,30.3431458 11,32 L11,36 C11,37.6568542 9.65685425,39 8,39 L3,39 C1.34314575,39 -3.31975823e-13,37.6568542 -3.32178729e-13,36 L-3.32178729e-13,32 C-3.32381635e-13,30.3431458 1.34314575,29 3,29 L8,29 Z M3.58028846,35 C3.09836691,35 2.70769231,35.3443963 2.70769231,35.7692308 C2.70769231,36.1940652 3.09836691,36.5384615 3.58028846,36.5384615 C4.06221001,36.5384615 4.45288462,36.1940652 4.45288462,35.7692308 C4.45288462,35.3443963 4.06221001,35 3.58028846,35 Z M7.41971154,35 C6.93778999,35 6.54711538,35.3443963 6.54711538,35.7692308 C6.54711538,36.1940652 6.93778999,36.5384615 7.41971154,36.5384615 C7.90163309,36.5384615 8.29230769,36.1940652 8.29230769,35.7692308 C8.29230769,35.3443963 7.90163309,35 7.41971154,35 Z M5.55817308,33.1778846 C5.07625153,33.1778846 4.68557692,33.5168998 4.68557692,33.9350962 C4.68557692,34.3532925 5.07625153,34.6923077 5.55817308,34.6923077 C6.04009463,34.6923077 6.43076923,34.3532925 6.43076923,33.9350962 C6.43076923,33.5168998 6.04009463,33.1778846 5.55817308,33.1778846 Z M3.58028846,31.4615385 C3.09836691,31.4615385 2.70769231,31.8005536 2.70769231,32.21875 C2.70769231,32.6369464 3.09836691,32.9759615 3.58028846,32.9759615 C4.06221001,32.9759615 4.45288462,32.6369464 4.45288462,32.21875 C4.45288462,31.8005536 4.06221001,31.4615385 3.58028846,31.4615385 Z M7.41971154,31.4615385 C6.93778999,31.4615385 6.54711538,31.8005536 6.54711538,32.21875 C6.54711538,32.6369464 6.93778999,32.9759615 7.41971154,32.9759615 C7.90163309,32.9759615 8.29230769,32.6369464 8.29230769,32.21875 C8.29230769,31.8005536 7.90163309,31.4615385 7.41971154,31.4615385 Z" id="Combined-Shape"></path>
                </g>
            </g>
        </g>
    </g>
</svg>