<svg width="13" height="13" viewBox="0 0 13 13" fill="none"
    xmlns="http://www.w3.org/2000/svg">
    <path d="M6.5 0C2.91837 0 0 2.91837 0 6.5C0 10.0816 2.91837 13 6.5 13C10.0816 13 13 10.0816 13 6.5C13 2.91837 10.0816 0 6.5 0ZM6.5 12.602C3.13061 12.602 0.397959 9.86939 0.397959 6.5C0.397959 3.13061 3.13061 0.397959 6.5 0.397959C9.86939 0.397959 12.602 3.13061 12.602 6.5C12.602 9.86939 9.86939 12.602 6.5 12.602Z" fill="#97999C"/>
    <path d="M6.4995 5.00157C6.69848 5.00157 6.8842 5.04136 7.05664 5.10769C7.16277 5.14748 7.29542 5.10769 7.36175 5.00157L9.15256 1.89748C9.21889 1.7781 9.1791 1.61891 9.05971 1.56585C8.27705 1.15463 7.38828 0.942383 6.4995 0.942383C5.61073 0.942383 4.73522 1.15463 3.9393 1.56585C3.81991 1.63218 3.76685 1.7781 3.84644 1.89748L5.65052 5.01483C5.71685 5.12095 5.83624 5.16075 5.95562 5.12095C6.11481 5.04136 6.30052 5.00157 6.4995 5.00157Z" fill="#97999C"/>
    <path d="M4.77511 6.5H1.18022C1.04756 6.5 0.928175 6.61939 0.94144 6.75204C0.981236 7.64082 1.23328 8.50306 1.6843 9.28571C2.13532 10.0551 2.75879 10.7051 3.50164 11.1959C3.62103 11.2755 3.78022 11.2357 3.84654 11.1163L5.63736 7.99898C5.70369 7.89286 5.67715 7.7602 5.57103 7.68061C5.2792 7.44184 5.06695 7.1102 5.01389 6.71224C5.00062 6.59286 4.8945 6.5 4.77511 6.5Z" fill="#97999C"/>
    <path d="M7.98547 6.71224C7.93241 7.1102 7.72017 7.44184 7.42833 7.68061C7.33547 7.7602 7.30894 7.89286 7.362 7.99898L9.15282 11.1031C9.21915 11.2224 9.37833 11.2622 9.49772 11.1827C10.2538 10.7051 10.8773 10.0551 11.3151 9.28571C11.7661 8.51633 12.0181 7.64082 12.0579 6.75204C12.0579 6.61939 11.9518 6.5 11.8192 6.5H8.22425C8.10486 6.5 7.99874 6.59286 7.98547 6.71224Z" fill="#97999C"/>
    <path d="M6.49962 5.54492C5.96901 5.54492 5.53125 5.96941 5.53125 6.50002C5.53125 7.03064 5.95574 7.46839 6.49962 7.46839C7.03023 7.46839 7.45472 7.0439 7.45472 6.50002C7.46799 5.96941 7.03023 5.54492 6.49962 5.54492Z" fill="white"/>
</svg>
