<svg width="51" height="53" viewBox="0 0 51 53" fill="none"
    xmlns="http://www.w3.org/2000/svg">
    <path d="M11.5159 6.80127L10.72 9.49682L12.3586 9.47835L11.5159 6.80127Z" fill="#97999C"/>
    <path d="M35.8899 37.9756L35.094 40.6619L36.7327 40.6434L35.8899 37.9756Z" fill="#97999C"/>
    <path d="M47.5295 6.45075L43.7559 5.09375C43.8153 5.43533 43.8466 5.78109 43.8495 6.12766L44.093 30.6184L50.6102 12.9773C51.078 11.709 51.0164 10.3095 50.4388 9.08598C49.8613 7.86242 48.815 6.9147 47.5295 6.45075Z" fill="#97999C"/>
    <path d="M5.19521 47.1242L5.00793 28.5601L0.400921 41.0316C-0.0665912 42.2986 -0.00471822 43.6968 0.57295 44.9188C1.15062 46.1409 2.19681 47.0869 3.48163 47.5489L5.29822 48.2043C5.23062 47.8481 5.19614 47.4866 5.19521 47.1242Z" fill="#97999C"/>
    <path d="M41.8831 6.14619C41.8782 5.51909 41.7477 4.8991 41.4992 4.32182C41.2507 3.74453 40.889 3.22131 40.4348 2.78217C39.9807 2.34304 39.4431 1.99663 38.8528 1.76283C38.2625 1.52904 37.6312 1.41245 36.9952 1.41976L11.5536 1.65977C10.9178 1.6658 10.2895 1.79523 9.70447 2.04067C9.11946 2.2861 8.58922 2.64274 8.14402 3.09021C7.69882 3.53767 7.34739 4.06721 7.10979 4.64858C6.8722 5.22995 6.75308 5.85177 6.75926 6.47852L7.16191 47.1056C7.17673 48.3706 7.69945 49.5783 8.61558 50.4641C9.53172 51.35 10.7666 51.8419 12.0498 51.832L37.4914 51.5828C38.1746 51.5761 38.8484 51.425 39.4672 51.1397H39.4859C40.3292 50.7544 41.0418 50.1376 41.5384 49.3631C42.035 48.5886 42.2944 47.6894 42.2857 46.7732L41.8831 6.14619ZM36.321 37.3296L38.072 42.7761H37.4165L36.939 41.2621L34.9164 41.2806L34.4669 42.8038H33.8395L35.4876 37.3204L36.321 37.3296ZM11.1135 6.17389H11.9468L13.7072 11.6204H13.0424L12.5649 10.0972L10.5423 10.1249L10.0928 11.6481H9.46542L11.1135 6.17389ZM13.0799 16.2637C11.8719 16.9191 11.5442 17.2053 11.5442 17.2053C11.5442 17.2053 11.2165 16.9191 10.0179 16.2637C8.81931 15.6083 8.80995 14.1221 9.47478 13.642C10.3175 13.042 11.5442 13.9374 11.5442 13.9374C11.5442 13.9374 12.7709 13.042 13.6136 13.642C14.2878 14.1221 14.2784 15.6083 13.0799 16.2637ZM30.7869 30.4892C25.8803 33.1663 24.5225 34.3294 24.5225 34.3294C24.5225 34.3294 23.1647 33.1663 18.2581 30.4892C13.3514 27.8121 13.314 21.7379 16.0576 19.7716C19.4847 17.2976 24.5225 20.9717 24.5225 20.9717C24.5225 20.9717 29.5603 17.2976 32.9874 19.7716C35.731 21.7379 35.6936 27.8213 30.7869 30.4892ZM37.454 47.5948C36.246 48.2503 35.9183 48.5364 35.9183 48.5364C35.9183 48.5364 35.5906 48.2503 34.392 47.5948C33.1934 46.9394 33.1841 45.4532 33.8489 44.9731C34.6916 44.3731 35.9183 45.2685 35.9183 45.2685C35.9183 45.2685 37.145 44.3731 37.9877 44.9731C38.6526 45.4532 38.6526 46.9394 37.454 47.5948Z" fill="#97999C"/>
</svg>
